<?xml version="1.0" standalone="no"?>
  <!DOCTYPE svg PUBLIC "-//W3C//DTD SVG 1.1//EN" "http://www.w3.org/Graphics/SVG/1.1/DTD/svg11.dtd" >
  <svg>
  <metadata>
  Created by font-carrier
  </metadata>
  <defs>
  <font id="false" horiz-adv-x="1739" vert-adv-y="1739" >
    <font-face
      
      font-family="General Sans Light"
      
      font-weight="400"
      
      font-stretch="normal"
      
      units-per-em="1000"
      
      ascent="1010"
      
      descent="-240"
      
    />
      <missing-glyph />

      

      
      <glyph glyph-name="uni21" unicode="&#x21;" d="M138 168L102 168L95 718L145 718L138 168M174 47Q174 25 158.50 10Q143-5 120-5Q98-5 82.50 10Q67 25 67 47Q67 70 82.50 85Q98 100 120 100Q143 100 158.50 85Q174 70 174 47Z"  horiz-adv-x="241" vert-adv-y="1000"  />

      
      <glyph glyph-name="uni22" unicode="&#x22;" d="M145 558L110 558L106 718L150 718L145 558M263 558L228 558L224 718L268 718L263 558Z"  horiz-adv-x="374" vert-adv-y="1000"  />

      
      <glyph glyph-name="uni23" unicode="&#x23;" d="M160 0L121 0L186 220L70 220L70 256L196 256L241 407L110 407L110 443L251 443L320 676L359 676L290 443L431 443L500 676L539 676L470 443L590 443L590 407L460 407L415 256L550 256L550 220L405 220L340 0L301 0L366 220L225 220L160 0M280 407L235 256L376 256L421 407L280 407Z"  horiz-adv-x="660" vert-adv-y="1000"  />

      
      <glyph glyph-name="uni24" unicode="&#x24;" d="M311-89L273-89L273-10Q175-3 119 53.50Q63 110 59 199L107 199Q113 120 160 75.50Q207 31 295 31Q371 31 421.50 70Q472 109 472 174Q472 232 439 261.50Q406 291 327 309L255 324Q218 332 191.50 342.50Q165 353 137 372.50Q109 392 94 423.50Q79 455 79 498Q79 573 133.50 626Q188 679 273 685L273 767L311 767L311 685Q395 679 452 623.50Q509 568 514 480L466 480Q461 552 413.50 598Q366 644 293 644Q216 644 171.50 602Q127 560 127 500Q127 467 138.50 443.50Q150 420 173.50 405Q197 390 220.50 381.50Q244 373 278 366L350 350Q433 332 477.50 294.50Q522 257 522 180Q522 103 466 48.50Q410-6 311-10L311-89Z"  horiz-adv-x="588" vert-adv-y="1000"  />

      
      <glyph glyph-name="uni25" unicode="&#x25;" d="M379.50 322Q379.50 322 352.25 292Q325 262 237 262Q149 262 94.50 322Q40 382 40 472Q40 561 95 621.50Q150 682 237 682Q324 682 379 621.50Q434 561 434 472Q434 382 379.50 322M346 0L305 0L684 676L726 676L346 0M127 344.50Q127 344.50 149.50 320.75Q172 297 237 297Q302 297 346.50 344.50Q391 392 391 472Q391 553 347 600Q303 647 237 647Q171 647 126.50 600Q82 553 82 472Q82 392 127 344.50M940.50 52Q940.50 52 913.25 22Q886-8 798-8Q710-8 655.50 52Q601 112 601 202Q601 291 656 351.50Q711 412 798 412Q885 412 940 351.50Q995 291 995 202Q995 112 940.50 52M688 74.50Q688 74.50 710.50 50.75Q733 27 798 27Q863 27 907.50 74.50Q952 122 952 202Q952 283 908 329.50Q864 376 798 376Q732 376 687.50 329.50Q643 283 643 202Q643 122 688 74.50Z"  horiz-adv-x="1035" vert-adv-y="1000"  />

      
      <glyph glyph-name="uni26" unicode="&#x26;" d="M247 374L448 132Q484 197 490 303L533 303Q527 178 473 102L558 0L500 0L445 67Q368-11 260-11Q158-11 97 45.50Q36 102 36 196Q36 261 77.50 309.50Q119 358 185 382Q150 426 135.50 458Q121 490 121 531Q121 597 170 641.50Q219 686 290 686Q364 686 413.50 642Q463 598 465 529L422 529Q418 584 379 616.50Q340 649 290 649Q238 649 202.50 615Q167 581 167 531Q167 490 184 459.50Q201 429 247 374M81 198Q81 131 127.50 79Q174 27 262 27Q357 27 421 96L208 354Q152 338 116.50 296Q81 254 81 198Z"  horiz-adv-x="583" vert-adv-y="1000"  />

      
      <glyph glyph-name="uni27" unicode="&#x27;" d="M145 558L110 558L106 718L150 718L145 558Z"  horiz-adv-x="256" vert-adv-y="1000"  />

      
      <glyph glyph-name="uni28" unicode="&#x28;" d="M265-193L223-193Q96 1 96 263Q96 524 223 718L265 718Q141 531 141 263Q141-6 265-193Z"  horiz-adv-x="299" vert-adv-y="1000"  />

      
      <glyph glyph-name="uni29" unicode="&#x29;" d="M76-193L34-193Q158-6 158 263Q158 531 34 718L76 718Q203 524 203 263Q203 1 76-193Z"  horiz-adv-x="299" vert-adv-y="1000"  />

      
      <glyph glyph-name="uni2a" unicode="&#x2a;" d="M250 486L133 344L106 368L221 508L47 558L58 592L232 542L231 718L269 718L268 542L442 592L453 558L279 508L394 368L367 344L250 486Z"  horiz-adv-x="500" vert-adv-y="1000"  />

      
      <glyph glyph-name="uni2b" unicode="&#x2b;" d="M351 85L309 85L309 315L80 315L80 353L309 353L309 582L351 582L351 353L580 353L580 315L351 315L351 85Z"  horiz-adv-x="660" vert-adv-y="1000"  />

      
      <glyph glyph-name="uni2c" unicode="&#x2c;" d="M181 26Q181-22 147-60.50Q113-99 53-102L53-70Q91-67 116-43.50Q141-20 143 13Q133 8 119 8Q99 8 85.50 21Q72 34 72 54Q72 75 86 88Q100 101 121 101Q151 101 166 80.50Q181 60 181 26Z"  horiz-adv-x="257" vert-adv-y="1000"  />

      
      <glyph glyph-name="uni2d" unicode="&#x2d;" d="M341 256L21 256L21 297L341 297L341 256Z"  horiz-adv-x="362" vert-adv-y="1000"  />

      
      <glyph glyph-name="uni2e" unicode="&#x2e;" d="M166 86Q166 86 173.50 78.50Q181 71 181 48Q181 25 166 10Q151-5 128-5Q105-5 90.50 10Q76 25 76 48Q76 71 90.50 86Q105 101 128 101Q151 101 166 86Z"  horiz-adv-x="257" vert-adv-y="1000"  />

      
      <glyph glyph-name="uni2f" unicode="&#x2f;" d="M38-193L-7-193L438 718L483 718L38-193Z"  horiz-adv-x="476" vert-adv-y="1000"  />

      
      <glyph glyph-name="uni30" unicode="&#x30;" d="M53 337Q53 505 113 595.50Q173 686 285 686Q397 686 457.50 595.50Q518 505 518 337Q518 168 458 79Q398-10 285-10Q172-10 112.50 79Q53 168 53 337M101 337Q101 187 147.50 109Q194 31 285 31Q376 31 423 108.50Q470 186 470 337Q470 488 423 566.50Q376 645 285 645Q195 645 148 567Q101 489 101 337Z"  horiz-adv-x="571" vert-adv-y="1000"  />

      
      <glyph glyph-name="uni31" unicode="&#x31;" d="M198 0L152 0L152 636L17 636L17 676L198 676L198 0Z"  horiz-adv-x="288" vert-adv-y="1000"  />

      
      <glyph glyph-name="uni32" unicode="&#x32;" d="M443 40L443 0L58 0L58 26L277 282Q341 356 365.50 403Q390 450 390 499Q390 561 348 603Q306 645 242 645Q175 645 132.50 602.50Q90 560 90 493L44 493Q44 577 99.50 631.50Q155 686 242 686Q327 686 382.50 634Q438 582 438 502Q438 449 411 398Q384 347 310 260L124 40L443 40Z"  horiz-adv-x="495" vert-adv-y="1000"  />

      
      <glyph glyph-name="uni33" unicode="&#x33;" d="M284-9Q186-9 125.50 43.50Q65 96 63 182L107 182Q110 113 158.50 71.50Q207 30 284 30Q363 30 409 71Q455 112 455 182Q455 248 404.50 288.50Q354 329 271 329L206 329L206 368L270 368Q337 368 380 408.50Q423 449 423 511Q423 571 382.50 609Q342 647 279 647Q214 647 173 609Q132 571 127 507L83 507Q87 584 142 635Q197 686 279 686Q364 686 417 637.50Q470 589 470 512Q470 458 438.50 415.50Q407 373 349 351Q422 335 462 290.50Q502 246 502 182Q502 97 441.50 44Q381-9 284-9Z"  horiz-adv-x="570" vert-adv-y="1000"  />

      
      <glyph glyph-name="uni34" unicode="&#x34;" d="M500 171L411 171L411 0L365 0L365 171L34 171L34 198L382 676L411 676L411 211L500 211L500 171M91 211L365 211L365 591L91 211Z"  horiz-adv-x="549" vert-adv-y="1000"  />

      
      <glyph glyph-name="uni35" unicode="&#x35;" d="M261-10Q173-10 113.50 44Q54 98 51 182L96 182Q100 114 145.50 72.50Q191 31 260 31Q343 31 391 78.50Q439 126 439 208Q439 280 389.50 328Q340 376 264 376Q163 376 105 293L71 301L131 676L448 676L448 636L164 636L121 356Q183 417 269 417Q365 417 425.50 357.50Q486 298 486 209Q486 111 424 50.50Q362-10 261-10Z"  horiz-adv-x="531" vert-adv-y="1000"  />

      
      <glyph glyph-name="uni36" unicode="&#x36;" d="M429 53Q429 53 396.50 21.50Q364-10 267-10Q170-10 105 53.50Q40 117 40 211Q40 252 53.50 290.50Q67 329 82.50 352Q98 375 129 415L333 676L386 676L181 412Q233 431 276 431Q369 431 431.50 370Q494 309 494 210Q494 116 429 53M267 29Q344 29 395.50 81Q447 133 447 209Q447 290 396 342.50Q345 395 267 395Q187 395 137 346Q87 297 87 211Q87 133 138 81Q189 29 267 29Z"  horiz-adv-x="534" vert-adv-y="1000"  />

      
      <glyph glyph-name="uni37" unicode="&#x37;" d="M449 650L172 0L122 0L397 635L19 635L19 676L449 676L449 650Z"  horiz-adv-x="477" vert-adv-y="1000"  />

      
      <glyph glyph-name="uni38" unicode="&#x38;" d="M526 182Q526 95 462.50 43Q399-9 297-9Q195-9 131.50 43Q68 95 68 182Q68 248 108.50 292Q149 336 213 352Q163 369 130.50 411.50Q98 454 98 509Q98 588 155.50 637Q213 686 297 686Q381 686 438 637Q495 588 495 509Q495 455 462.50 412Q430 369 382 352Q445 336 485.50 292Q526 248 526 182M188 609.50Q188 609.50 167 590.75Q146 572 146 508Q146 444 188 407Q230 370 297 370Q364 370 406 407Q448 444 448 508Q448 572 406 609.50Q364 647 297 647Q230 647 188 609.50M166.50 291Q166.50 291 141.25 271.50Q116 252 116 182Q116 112 166.50 71Q217 30 297 30Q377 30 427.50 71Q478 112 478 182Q478 252 427.50 291Q377 330 297 330Q217 330 166.50 291Z"  horiz-adv-x="594" vert-adv-y="1000"  />

      
      <glyph glyph-name="uni39" unicode="&#x39;" d="M105 623Q105 623 137.50 654.50Q170 686 267 686Q364 686 429 622.50Q494 559 494 465Q494 408 473 365.50Q452 323 404 261L201 0L147 0L353 265Q305 246 257 246Q164 246 102 306.50Q40 367 40 466Q40 560 105 623M267 647Q188 647 137.50 595.50Q87 544 87 467Q87 385 137.50 333Q188 281 267 281Q346 281 396 330Q446 379 446 465Q446 543 395 595Q344 647 267 647Z"  horiz-adv-x="534" vert-adv-y="1000"  />

      
      <glyph glyph-name="uni3a" unicode="&#x3a;" d="M166 511Q166 511 173.50 503.50Q181 496 181 473Q181 450 166 435Q151 420 128 420Q105 420 90.50 435Q76 450 76 473Q76 496 90.50 511Q105 526 128 526Q151 526 166 511M166 86Q166 86 173.50 78.50Q181 71 181 48Q181 25 166 10Q151-5 128-5Q105-5 90.50 10Q76 25 76 48Q76 71 90.50 86Q105 101 128 101Q151 101 166 86Z"  horiz-adv-x="257" vert-adv-y="1000"  />

      
      <glyph glyph-name="uni3b" unicode="&#x3b;" d="M161.50 511Q161.50 511 168.75 503.50Q176 496 176 473Q176 450 161.50 435Q147 420 124 420Q101 420 86 435Q71 450 71 473Q71 496 86 511Q101 526 124 526Q147 526 161.50 511M181 26Q181-22 147-60.50Q113-99 53-102L53-70Q91-67 116-43.50Q141-20 143 13Q133 8 119 8Q99 8 85.50 21Q72 34 72 54Q72 75 86 88Q100 101 121 101Q151 101 166 80.50Q181 60 181 26Z"  horiz-adv-x="257" vert-adv-y="1000"  />

      
      <glyph glyph-name="uni3c" unicode="&#x3c;" d="M80 351L580 577L580 537L129 333L580 129L580 89L80 315L80 351Z"  horiz-adv-x="660" vert-adv-y="1000"  />

      
      <glyph glyph-name="uni3d" unicode="&#x3d;" d="M580 408L80 408L80 447L580 447L580 408M580 221L80 221L80 259L580 259L580 221Z"  horiz-adv-x="660" vert-adv-y="1000"  />

      
      <glyph glyph-name="uni3e" unicode="&#x3e;" d="M580 315L80 89L80 129L531 333L80 537L80 577L580 351L580 315Z"  horiz-adv-x="660" vert-adv-y="1000"  />

      
      <glyph glyph-name="uni3f" unicode="&#x3f;" d="M63 556L18 556Q19 632 72.50 680Q126 728 206 728Q292 728 344 680Q396 632 396 560Q396 513 374 477Q352 441 308 401L264 363Q223 327 210.50 290Q198 253 202 168L166 168Q158 256 169 297.50Q180 339 222 378L272 424Q313 463 330.50 490.50Q348 518 348 555Q348 611 308.50 648.50Q269 686 204 686Q142 686 103 650Q64 614 63 556M243 47Q243 25 227.50 10Q212-5 189-5Q167-5 151.50 10Q136 25 136 47Q136 70 151.50 85Q167 100 189 100Q212 100 227.50 85Q243 70 243 47Z"  horiz-adv-x="414" vert-adv-y="1000"  />

      
      <glyph glyph-name="uni40" unicode="&#x40;" d="M717-97L717-138Q612-203 468-203Q288-203 165.50-74.50Q43 54 43 241Q43 429 168.50 557.50Q294 686 478 686Q661 686 781.50 570.50Q902 455 902 283Q902 168 849 98.50Q796 29 711 29Q605 29 589 124Q534 29 427 29Q351 29 303 84Q255 139 255 224Q255 321 312.50 385.50Q370 450 456 450Q515 450 556 419.50Q597 389 614 333L634 436L678 436L632 208Q627 176 627 155Q627 66 712 66Q778 66 818 124Q858 182 858 280Q858 436 750.50 542.50Q643 649 478 649Q310 649 198.50 532Q87 415 87 241Q87 69 196.50-48.50Q306-166 468-166Q618-166 717-97M300 226Q300 154 336 110Q372 66 432 66Q502 66 549 120.50Q596 175 596 257Q596 330 559.50 371.50Q523 413 459 413Q389 413 344.50 360Q300 307 300 226Z"  horiz-adv-x="945" vert-adv-y="1000"  />

      
      <glyph glyph-name="uni41" unicode="&#x41;" d="M598 0L515 214L162 214L79 0L31 0L314 718L367 718L648 0L598 0M339 667L178 255L499 255L339 667Z"  horiz-adv-x="680" vert-adv-y="1000"  />

      
      <glyph glyph-name="uni42" unicode="&#x42;" d="M548 198Q548 104 486 52Q424 0 321 0L84 0L84 718L303 718Q405 718 461 670.50Q517 623 517 535Q517 480 484 436Q451 392 394 373Q469 357 508.50 311Q548 265 548 198M302 677L131 677L131 390L302 390Q381 390 425 428Q469 466 469 533Q469 601 425 639Q381 677 302 677M319 350L131 350L131 41L319 41Q404 41 452.50 82Q501 123 501 198Q501 270 452.50 310Q404 350 319 350Z"  horiz-adv-x="616" vert-adv-y="1000"  />

      
      <glyph glyph-name="uni43" unicode="&#x43;" d="M390-15Q242-15 142.50 93Q43 201 43 360Q43 519 142.50 626Q242 733 390 733Q515 733 608 656Q701 579 723 455L672 455Q653 558 574.50 624Q496 690 390 690Q262 690 177.50 595.50Q93 501 93 360Q93 217 177.50 122.50Q262 28 390 28Q497 28 576 94.50Q655 161 672 264L723 264Q702 140 608.50 62.50Q515-15 390-15Z"  horiz-adv-x="766" vert-adv-y="1000"  />

      
      <glyph glyph-name="uni44" unicode="&#x44;" d="M270 0L84 0L84 718L270 718Q439 718 531.50 620.50Q624 523 624 361Q624 202 529.50 101Q435 0 270 0M133 676L133 42L270 42Q414 42 494.50 129.50Q575 217 575 361Q575 506 495.50 591Q416 676 270 676L133 676Z"  horiz-adv-x="667" vert-adv-y="1000"  />

      
      <glyph glyph-name="uni45" unicode="&#x45;" d="M497 42L497 0L84 0L84 718L490 718L490 676L133 676L133 392L460 392L460 350L133 350L133 42L497 42Z"  horiz-adv-x="560" vert-adv-y="1000"  />

      
      <glyph glyph-name="uni46" unicode="&#x46;" d="M133 0L84 0L84 718L478 718L478 676L133 676L133 362L431 362L431 320L133 320L133 0Z"  horiz-adv-x="508" vert-adv-y="1000"  />

      
      <glyph glyph-name="uni47" unicode="&#x47;" d="M655 83.50Q655 83.50 607 34.25Q559-15 404-15Q249-15 146 91.50Q43 198 43 358Q43 518 143.50 625.50Q244 733 399 733Q534 733 624.50 659.50Q715 586 745 473L692 473Q666 569 589.50 629.50Q513 690 397 690Q262 690 177.50 596Q93 502 93 358Q93 215 180 121.50Q267 28 404 28Q533 28 612 103.50Q691 179 705 309L398 309L398 350L755 350Q751 182 655 83.50Z"  horiz-adv-x="798" vert-adv-y="1000"  />

      
      <glyph glyph-name="uni48" unicode="&#x48;" d="M133 0L84 0L84 718L133 718L133 392L573 392L573 718L622 718L622 0L573 0L573 350L133 350L133 0Z"  horiz-adv-x="706" vert-adv-y="1000"  />

      
      <glyph glyph-name="uni49" unicode="&#x49;" d="M133 0L84 0L84 718L133 718L133 0Z"  horiz-adv-x="216" vert-adv-y="1000"  />

      
      <glyph glyph-name="uni4a" unicode="&#x4a;" d="M480 718L480 231Q480 111 417.50 48Q355-15 250-15Q152-15 90 42.50Q28 100 22 200L71 200Q77 118 126.50 73Q176 28 250 28Q331 28 381 77Q431 126 431 224L431 718L480 718Z"  horiz-adv-x="559" vert-adv-y="1000"  />

      
      <glyph glyph-name="uni4b" unicode="&#x4b;" d="M133 0L84 0L84 718L133 718L133 362L498 718L557 718L185 355L567 0L500 0L133 340L133 0Z"  horiz-adv-x="595" vert-adv-y="1000"  />

      
      <glyph glyph-name="uni4c" unicode="&#x4c;" d="M475 0L84 0L84 718L133 718L133 43L475 43L475 0Z"  horiz-adv-x="505" vert-adv-y="1000"  />

      
      <glyph glyph-name="uni4d" unicode="&#x4d;" d="M415 0L130 654L130 0L84 0L84 718L151 718L438 60L726 718L792 718L792 0L746 0L746 653L460 0L415 0Z"  horiz-adv-x="876" vert-adv-y="1000"  />

      
      <glyph glyph-name="uni4e" unicode="&#x4e;" d="M580 0L130 649L130 0L84 0L84 718L139 718L589 70L589 718L635 718L635 0L580 0Z"  horiz-adv-x="719" vert-adv-y="1000"  />

      
      <glyph glyph-name="uni4f" unicode="&#x4f;" d="M660.50 94Q660.50 94 608.75 39.50Q557-15 403-15Q249-15 146 94Q43 203 43 360Q43 517 145.50 625Q248 733 403 733Q558 733 661 625Q764 517 764 360Q764 203 660.50 94M403 28Q539 28 626 123.50Q713 219 713 360Q713 501 626 595.50Q539 690 403 690Q268 690 180.50 595.50Q93 501 93 360Q93 219 180.50 123.50Q268 28 403 28Z"  horiz-adv-x="806" vert-adv-y="1000"  />

      
      <glyph glyph-name="uni50" unicode="&#x50;" d="M309 275L133 275L133 0L84 0L84 718L309 718Q415 718 480.50 659.50Q546 601 546 497Q546 393 481 334Q416 275 309 275M308 676L133 676L133 316L308 316Q395 316 446.50 363.50Q498 411 498 496Q498 582 447 629Q396 676 308 676Z"  horiz-adv-x="583" vert-adv-y="1000"  />

      
      <glyph glyph-name="uni51" unicode="&#x51;" d="M403-15Q249-15 146 94Q43 203 43 360Q43 517 145.50 625Q248 733 403 733Q558 733 661 625Q764 517 764 360Q764 249 709 158Q654 67 562 21L684-182L630-182L518 3Q464-15 403-15M403 28Q539 28 626 123.50Q713 219 713 360Q713 501 626 595.50Q539 690 403 690Q268 690 180.50 595.50Q93 501 93 360Q93 219 180.50 123.50Q268 28 403 28Z"  horiz-adv-x="806" vert-adv-y="1000"  />

      
      <glyph glyph-name="uni52" unicode="&#x52;" d="M133 0L84 0L84 718L331 718Q439 718 501.50 662Q564 606 564 506Q564 422 512.50 365.50Q461 309 373 299L582 0L524 0L320 295L133 295L133 0M133 677L133 336L325 336Q413 336 464 380.50Q515 425 515 506Q515 587 464 632Q413 677 325 677L133 677Z"  horiz-adv-x="621" vert-adv-y="1000"  />

      
      <glyph glyph-name="uni53" unicode="&#x53;" d="M570 190Q570 106 503.50 48Q437-10 320-10Q201-10 132.50 51Q64 112 59 213L109 213Q115 128 168.50 79.50Q222 31 320 31Q406 31 463 73Q520 115 520 185Q520 247 483 279Q446 311 358 329L276 346Q237 354 206.50 365Q176 376 145.50 396.50Q115 417 98 451Q81 485 81 530Q81 614 147.50 671Q214 728 317 728Q419 728 488 668Q557 608 562 509L511 509Q506 587 453 637Q400 687 317 687Q231 687 181 641Q131 595 131 532Q131 497 144 471.50Q157 446 183.50 430Q210 414 236 405Q262 396 301 388L382 371Q477 351 523.50 310Q570 269 570 190Z"  horiz-adv-x="637" vert-adv-y="1000"  />

      
      <glyph glyph-name="uni54" unicode="&#x54;" d="M315 0L267 0L267 675L21 675L21 718L560 718L560 675L315 675L315 0Z"  horiz-adv-x="582" vert-adv-y="1000"  />

      
      <glyph glyph-name="uni55" unicode="&#x55;" d="M584 718L584 237Q584 120 515 52.50Q446-15 333-15Q220-15 151 52Q82 119 82 237L82 718L131 718L131 233Q131 140 188 84Q245 28 333 28Q421 28 478.50 84Q536 140 536 233L536 718L584 718Z"  horiz-adv-x="665" vert-adv-y="1000"  />

      
      <glyph glyph-name="uni56" unicode="&#x56;" d="M623 718L352 0L298 0L26 718L76 718L325 54L575 718L623 718Z"  horiz-adv-x="650" vert-adv-y="1000"  />

      
      <glyph glyph-name="uni57" unicode="&#x57;" d="M635 0L455 654L274 0L223 0L31 718L79 718L248 67L428 718L482 718L661 66L831 718L879 718L688 0L635 0Z"  horiz-adv-x="910" vert-adv-y="1000"  />

      
      <glyph glyph-name="uni58" unicode="&#x58;" d="M92 0L38 0L279 369L55 718L109 718L310 405L513 718L565 718L339 368L577 0L522 0L308 333L92 0Z"  horiz-adv-x="615" vert-adv-y="1000"  />

      
      <glyph glyph-name="uni59" unicode="&#x59;" d="M324 269L324 0L275 0L275 269L11 718L65 718L300 316L537 718L589 718L324 269Z"  horiz-adv-x="600" vert-adv-y="1000"  />

      
      <glyph glyph-name="uni5a" unicode="&#x5a;" d="M550 0L37 0L37 32L471 676L54 676L54 718L533 718L533 686L98 42L550 42L550 0Z"  horiz-adv-x="586" vert-adv-y="1000"  />

      
      <glyph glyph-name="uni5b" unicode="&#x5b;" d="M255-193L108-193L108 718L255 718L255 680L152 680L152-155L255-155L255-193Z"  horiz-adv-x="299" vert-adv-y="1000"  />

      
      <glyph glyph-name="uni5c" unicode="&#x5c;" d="M483-193L438-193L-7 718L38 718L483-193Z"  horiz-adv-x="476" vert-adv-y="1000"  />

      
      <glyph glyph-name="uni5d" unicode="&#x5d;" d="M192-193L44-193L44-155L148-155L148 680L44 680L44 718L192 718L192-193Z"  horiz-adv-x="299" vert-adv-y="1000"  />

      
      <glyph glyph-name="uni5e" unicode="&#x5e;" d="M516 274L330 632L144 274L100 274L310 676L351 676L560 274L516 274Z"  horiz-adv-x="660" vert-adv-y="1000"  />

      
      <glyph glyph-name="uni5f" unicode="&#x5f;" d="M500-193L0-193L0-155L500-155L500-193Z"  horiz-adv-x="500" vert-adv-y="1000"  />

      
      <glyph glyph-name="uni60" unicode="&#x60;" d="M330 592L274 592L170 719L228 719L330 592Z"  horiz-adv-x="500" vert-adv-y="1000"  />

      
      <glyph glyph-name="uni61" unicode="&#x61;" d="M406 0L406 106Q385 52 336.50 21Q288-10 224-10Q143-10 94.50 31.50Q46 73 46 143Q46 298 288 298Q333 298 404 292L404 341Q404 415 367 456Q330 497 264 497Q194 497 152 455Q110 413 109 342L66 342Q67 429 121 481.50Q175 534 263 534Q351 534 400 484.50Q449 435 449 346L449 0L406 0M92 144Q92 91 129.50 58.50Q167 26 228 26Q308 26 356 76.50Q404 127 404 210L404 259Q344 265 290 265Q92 265 92 144Z"  horiz-adv-x="525" vert-adv-y="1000"  />

      
      <glyph glyph-name="uni62" unicode="&#x62;" d="M547 263Q547 140 484.50 65Q422-10 317-10Q253-10 202 25Q151 60 125 122L125 0L81 0L81 718L127 718L127 400Q152 463 202 498.50Q252 534 317 534Q421 534 484 459.50Q547 385 547 263M500 263Q500 371 449.50 433Q399 495 312 495Q229 495 177 433Q125 371 125 265Q125 158 176.50 93.50Q228 29 312 29Q399 29 449.50 91.50Q500 154 500 263Z"  horiz-adv-x="587" vert-adv-y="1000"  />

      
      <glyph glyph-name="uni63" unicode="&#x63;" d="M268-11Q167-11 103.50 65.50Q40 142 40 263Q40 383 103.50 458.50Q167 534 268 534Q356 534 415.50 479.50Q475 425 491 329L445 329Q432 407 385 451Q338 495 269 495Q188 495 137.50 430.50Q87 366 87 263Q87 159 137.50 93.50Q188 28 269 28Q339 28 385.50 72Q432 116 446 195L491 195Q476 99 416.50 44Q357-11 268-11Z"  horiz-adv-x="532" vert-adv-y="1000"  />

      
      <glyph glyph-name="uni64" unicode="&#x64;" d="M40 263Q40 386 102.50 460Q165 534 270 534Q333 534 384 498.50Q435 463 460 401L460 718L506 718L506 0L462 0L462 122Q436 60 385 25Q334-10 270-10Q165-10 102.50 64.50Q40 139 40 263M87 263Q87 154 137 91.50Q187 29 274 29Q359 29 410.50 93.50Q462 158 462 265Q462 371 410 433Q358 495 274 495Q187 495 137 433Q87 371 87 263Z"  horiz-adv-x="587" vert-adv-y="1000"  />

      
      <glyph glyph-name="uni65" unicode="&#x65;" d="M279-11Q172-11 106 65.50Q40 142 40 267Q40 382 106.50 458Q173 534 274 534Q382 534 445.50 455.50Q509 377 504 251L86 251Q91 148 142.50 87.50Q194 27 279 27Q352 27 399.50 66.50Q447 106 461 177L506 177Q490 91 429 40Q368-11 279-11M274 498Q195 498 143 439.50Q91 381 87 287L456 287Q451 386 402.50 442Q354 498 274 498Z"  horiz-adv-x="547" vert-adv-y="1000"  />

      
      <glyph glyph-name="uni66" unicode="&#x66;" d="M172 0L125 0L125 486L-4 486L-4 524L125 524L125 579Q125 649 161 687Q197 725 262 725Q288 725 317 716L317 675Q298 683 267 683Q172 683 172 580L172 524L333 524L333 486L172 486L172 0Z"  horiz-adv-x="336" vert-adv-y="1000"  />

      
      <glyph glyph-name="uni67" unicode="&#x67;" d="M271-204Q173-204 116-155.50Q59-107 54-21L98-21Q103-91 147.50-128.50Q192-166 270-166Q355-166 398.50-122Q442-78 442 6L442 127Q418 66 370 32Q322-2 260-2Q160-2 100 71.50Q40 145 40 267Q40 388 100 461Q160 534 260 534Q321 534 370 498Q419 462 444 399L444 524L488 524L488 7Q488-94 431-149Q374-204 271-204M87 267Q87 160 134.50 99Q182 38 265 38Q345 38 394.50 99Q444 160 444 261Q444 368 395.50 431.50Q347 495 265 495Q182 495 134.50 434Q87 373 87 267Z"  horiz-adv-x="569" vert-adv-y="1000"  />

      
      <glyph glyph-name="uni68" unicode="&#x68;" d="M127 312L127 0L81 0L81 718L127 718L127 418Q151 471 198 502.50Q245 534 302 534Q386 534 434 483.50Q482 433 482 341L482 0L436 0L436 324Q436 406 398.50 450.50Q361 495 291 495Q223 495 175 442Q127 389 127 312Z"  horiz-adv-x="558" vert-adv-y="1000"  />

      
      <glyph glyph-name="uni69" unicode="&#x69;" d="M148 646Q148 627 135.50 614.50Q123 602 104 602Q85 602 72 614.50Q59 627 59 646Q59 664 71.50 675.50Q84 687 104 687Q123 687 135.50 675.50Q148 664 148 646M127 0L81 0L81 524L127 524L127 0Z"  horiz-adv-x="207" vert-adv-y="1000"  />

      
      <glyph glyph-name="uni6a" unicode="&#x6a;" d="M149 646Q149 627 136 614.50Q123 602 104 602Q85 602 72.50 614.50Q60 627 60 646Q60 664 72.50 675.50Q85 687 104 687Q124 687 136.50 675.50Q149 664 149 646M127 524L127-68Q127-132 91.50-167.50Q56-203-7-203Q-45-203-69-193L-69-151Q-42-160-11-160Q80-160 80-67L80 524L127 524Z"  horiz-adv-x="207" vert-adv-y="1000"  />

      
      <glyph glyph-name="uni6b" unicode="&#x6b;" d="M127 0L81 0L81 718L127 718L127 273L401 524L458 524L177 266L479 0L416 0L127 255L127 0Z"  horiz-adv-x="479" vert-adv-y="1000"  />

      
      <glyph glyph-name="uni6c" unicode="&#x6c;" d="M127 0L81 0L81 718L127 718L127 0Z"  horiz-adv-x="208" vert-adv-y="1000"  />

      
      <glyph glyph-name="uni6d" unicode="&#x6d;" d="M127 0L81 0L81 524L125 524L125 418Q150 472 196.50 503Q243 534 301 534Q365 534 409 499.50Q453 465 468 403Q491 463 540.50 498.50Q590 534 652 534Q735 534 782 483Q829 432 829 341L829 0L783 0L783 325Q783 407 746 451Q709 495 639 495Q572 495 525 442.50Q478 390 478 313L478 0L432 0L432 325Q432 407 395 451Q358 495 288 495Q220 495 173.50 442.50Q127 390 127 313L127 0Z"  horiz-adv-x="904" vert-adv-y="1000"  />

      
      <glyph glyph-name="uni6e" unicode="&#x6e;" d="M127 312L127 0L81 0L81 524L125 524L125 417Q149 470 196.50 502Q244 534 302 534Q386 534 434 483.50Q482 433 482 341L482 0L436 0L436 324Q436 406 398.50 450.50Q361 495 291 495Q223 495 175 442Q127 389 127 312Z"  horiz-adv-x="558" vert-adv-y="1000"  />

      
      <glyph glyph-name="uni6f" unicode="&#x6f;" d="M459.50 66Q459.50 66 425.25 28Q391-10 284-10Q177-10 108.50 66Q40 142 40 263Q40 382 108.50 457.50Q177 533 284 533Q391 533 459.50 457.50Q528 382 528 263Q528 142 459.50 66M142.50 93.50Q142.50 93.50 170.25 61.25Q198 29 284 29Q370 29 425.50 93.50Q481 158 481 263Q481 366 425.50 430Q370 494 284 494Q198 494 142.50 430Q87 366 87 263Q87 158 142.50 93.50Z"  horiz-adv-x="568" vert-adv-y="1000"  />

      
      <glyph glyph-name="uni70" unicode="&#x70;" d="M547 263Q547 139 484.50 64.50Q422-10 317-10Q254-10 203.50 24.50Q153 59 127 121L127-193L81-193L81 524L125 524L125 399Q150 462 201.50 498Q253 534 317 534Q421 534 484 459.50Q547 385 547 263M500 263Q500 371 449.50 433Q399 495 313 495Q230 495 177.50 432.50Q125 370 125 263Q125 158 177 93.50Q229 29 313 29Q399 29 449.50 91.50Q500 154 500 263Z"  horiz-adv-x="587" vert-adv-y="1000"  />

      
      <glyph glyph-name="uni71" unicode="&#x71;" d="M40 263Q40 386 102.50 460Q165 534 270 534Q335 534 386 497.50Q437 461 462 396L462 524L506 524L506-193L460-193L460 121Q434 59 383.50 24.50Q333-10 270-10Q165-10 102.50 64.50Q40 139 40 263M87 263Q87 154 137 91.50Q187 29 274 29Q359 29 410.50 93Q462 157 462 263Q462 371 410 433Q358 495 274 495Q187 495 137 433Q87 371 87 263Z"  horiz-adv-x="587" vert-adv-y="1000"  />

      
      <glyph glyph-name="uni72" unicode="&#x72;" d="M127 290L127 0L81 0L81 524L125 524L125 398Q151 460 204.50 497Q258 534 323 534L323 485Q240 486 183.50 430.50Q127 375 127 290Z"  horiz-adv-x="333" vert-adv-y="1000"  />

      
      <glyph glyph-name="uni73" unicode="&#x73;" d="M456 138Q456 70 402.50 30Q349-10 257-10Q165-10 109 35Q53 80 46 159L90 159Q94 98 139 62.50Q184 27 257 27Q329 27 369 54.50Q409 82 409 132Q409 176 382 199Q355 222 287 236L217 249Q65 279 65 391Q65 454 116 494Q167 534 249 534Q337 534 390.50 490Q444 446 449 370L405 370Q400 431 359 464.50Q318 498 250 498Q188 498 149.50 469.50Q111 441 111 394Q111 350 139.50 326Q168 302 234 289L305 275Q384 260 420 227.50Q456 195 456 138Z"  horiz-adv-x="506" vert-adv-y="1000"  />

      
      <glyph glyph-name="uni74" unicode="&#x74;" d="M331 43L331 2Q298-10 266-10Q200-10 160 25.50Q120 61 120 140L120 486L-9 486L-9 524L120 524L120 680L167 680L167 524L336 524L336 486L167 486L167 149Q167 33 272 33Q304 33 331 43Z"  horiz-adv-x="368" vert-adv-y="1000"  />

      
      <glyph glyph-name="uni75" unicode="&#x75;" d="M421 208L421 524L468 524L468 0L424 0L424 104Q403 53 356.50 21.50Q310-10 251-10Q168-10 122 37.50Q76 85 76 181L76 524L122 524L122 192Q122 108 159.50 68.50Q197 29 261 29Q332 29 376.50 80Q421 131 421 208Z"  horiz-adv-x="548" vert-adv-y="1000"  />

      
      <glyph glyph-name="uni76" unicode="&#x76;" d="M461 524L256 0L210 0L7 524L56 524L234 56L413 524L461 524Z"  horiz-adv-x="468" vert-adv-y="1000"  />

      
      <glyph glyph-name="uni77" unicode="&#x77;" d="M520 0L370 463L220 0L171 0L17 524L64 524L196 66L347 524L392 524L543 65L675 524L723 524L567 0L520 0Z"  horiz-adv-x="740" vert-adv-y="1000"  />

      
      <glyph glyph-name="uni78" unicode="&#x78;" d="M63 0L10 0L209 269L22 524L76 524L238 301L401 524L453 524L268 269L464 0L411 0L236 238L63 0Z"  horiz-adv-x="474" vert-adv-y="1000"  />

      
      <glyph glyph-name="uni79" unicode="&#x79;" d="M461 524L188-193L139-193L216 7L7 524L56 524L240 65L413 524L461 524Z"  horiz-adv-x="468" vert-adv-y="1000"  />

      
      <glyph glyph-name="uni7a" unicode="&#x7a;" d="M436 0L26 0L26 30L366 485L40 485L40 524L423 524L423 491L85 39L436 39L436 0Z"  horiz-adv-x="461" vert-adv-y="1000"  />

      
      <glyph glyph-name="uni7b" unicode="&#x7b;" d="M26 243L26 282Q84 282 106.50 301.50Q129 321 129 367L129 605Q129 656 162.50 688Q196 720 248 720Q265 720 274 719L274 680Q268 681 255 681Q217 681 195 659Q173 637 173 598L173 371Q173 283 104 262Q173 245 173 154L173-73Q173-112 195-134Q217-156 255-156Q268-156 274-155L274-193Q265-195 249-195Q197-195 163-163Q129-131 129-80L129 158Q129 204 106.50 223.50Q84 243 26 243Z"  horiz-adv-x="300" vert-adv-y="1000"  />

      
      <glyph glyph-name="uni7c" unicode="&#x7c;" d="M147-193L103-193L103 718L147 718L147-193Z"  horiz-adv-x="250" vert-adv-y="1000"  />

      
      <glyph glyph-name="uni7d" unicode="&#x7d;" d="M274 282L274 243Q217 243 194 223.50Q171 204 171 158L171-80Q171-131 137.50-163Q104-195 52-195Q35-195 26-194L26-155Q32-156 45-156Q83-156 105-134Q127-112 127-73L127 154Q127 242 196 263Q127 280 127 371L127 598Q127 637 105 659Q83 681 45 681Q32 681 26 680L26 718Q35 720 52 720Q103 720 137 688Q171 656 171 605L171 367Q171 322 194 302Q217 282 274 282Z"  horiz-adv-x="300" vert-adv-y="1000"  />

      
      <glyph glyph-name="uni7e" unicode="&#x7e;" d="M457 269Q413 269 323.50 321.50Q234 374 201 374Q162 374 141.50 351Q121 328 119 274L79 274Q78 340 111 377.50Q144 415 202 415Q240 415 289.50 388.50Q339 362 384.50 336Q430 310 459 310Q540 310 539 410L580 410Q582 342 550 305.50Q518 269 457 269Z"  horiz-adv-x="660" vert-adv-y="1000"  />

      
      <glyph glyph-name="unia1" unicode="&#xa1;" d="M173 479Q173 456 158 441Q143 426 120 426Q97 426 81.50 441Q66 456 66 479Q66 501 81.50 516Q97 531 120 531Q142 531 157.50 516Q173 501 173 479M146-193L95-193L102 358L138 358L146-193Z"  horiz-adv-x="239" vert-adv-y="1000"  />

      
      <glyph glyph-name="unia2" unicode="&#xa2;" d="M300-89L263-89L263-10Q163-5 101.50 71.50Q40 148 40 263Q40 377 101.50 452.50Q163 528 263 534L263 614L300 614L300 533Q385 526 440.50 470.50Q496 415 511 329L465 329Q451 403 403.50 448.50Q356 494 279 494Q194 494 140 429.50Q86 365 86 263Q86 160 140 94.50Q194 29 279 29Q357 29 403.50 74.50Q450 120 465 195L511 195Q497 109 441.50 53Q386-3 300-10L300-89Z"  horiz-adv-x="552" vert-adv-y="1000"  />

      
      <glyph glyph-name="unia3" unicode="&#xa3;" d="M138 100Q103 100 84.50 76.50Q66 53 64 0L25 0Q24 61 50.50 97Q77 133 124 138L124 317L37 317L37 352L124 352L124 483Q124 576 173 631Q222 686 301 686Q379 686 429.50 639.50Q480 593 486 508L439 508Q435 575 397.50 611Q360 647 300 647Q239 647 204.50 602Q170 557 170 474L170 352L374 352L374 317L170 317L170 135Q206 127 274 81Q342 35 377 35Q450 35 449 135L490 135Q492 67 462.50 30.50Q433-6 377-6Q340-6 295.50 20.50Q251 47 209.50 73.50Q168 100 138 100Z"  horiz-adv-x="531" vert-adv-y="1000"  />

      
      <glyph glyph-name="unia4" unicode="&#xa4;" d="M464 179Q408 128 330 128Q252 128 196 179L132 114L105 141L169 205Q125 262 125 338Q125 415 170 471L106 535L132 561L195 497Q254 548 330 548Q406 548 465 497L528 561L554 535L490 471Q535 415 535 338Q535 262 491 205L555 141L528 114L464 179M212.50 211.50Q212.50 211.50 235.25 188.25Q258 165 330 165Q402 165 447.50 211.50Q493 258 493 338Q493 419 447.50 465Q402 511 330 511Q258 511 212.50 465Q167 419 167 338Q167 258 212.50 211.50Z"  horiz-adv-x="660" vert-adv-y="1000"  />

      
      <glyph glyph-name="unia5" unicode="&#xa5;" d="M491 185L292 185L292 0L243 0L243 185L45 185L45 220L243 220L243 253L211 315L45 315L45 350L194 350L27 675L80 675L269 302L459 675L509 675L342 350L491 350L491 315L324 315L292 253L292 220L491 220L491 185Z"  horiz-adv-x="536" vert-adv-y="1000"  />

      
      <glyph glyph-name="unia6" unicode="&#xa6;" d="M103 718L147 718L147 295L103 295L103 718M103 230L147 230L147-193L103-193L103 230Z"  horiz-adv-x="250" vert-adv-y="1000"  />

      
      <glyph glyph-name="unia7" unicode="&#xa7;" d="M53 242Q53 297 89.50 337Q126 377 189 393Q85 431 85 529Q85 599 137.50 642.50Q190 686 272 686Q357 686 411.50 638.50Q466 591 471 518L427 518Q420 575 378 612Q336 649 272 649Q208 649 169 617.50Q130 586 130 534Q130 483 162 455Q194 427 266 412L337 397Q422 379 461.50 342Q501 305 501 243Q501 190 465 149.50Q429 109 367 92Q427 73 453.50 40Q480 7 480-44Q480-112 423-157Q366-202 279-202Q185-202 127-156Q69-110 58-30L102-30Q111-92 157.50-128.50Q204-165 278-165Q346-165 390-132Q434-99 434-48Q434 3 402 30Q370 57 297 71L222 86Q53 120 53 242M98 246Q98 182 156.50 150Q215 118 300 118Q374 118 414.50 153.50Q455 189 455 240Q455 304 396 335Q337 366 250 366Q177 366 137.50 331.50Q98 297 98 246Z"  horiz-adv-x="554" vert-adv-y="1000"  />

      
      <glyph glyph-name="unia8" unicode="&#xa8;" d="M379 648Q379 629 366 615.50Q353 602 333 602Q313 602 299.50 615.50Q286 629 286 648Q286 668 299.50 681Q313 694 333 694Q353 694 366 681Q379 668 379 648M214 648Q214 629 201 615.50Q188 602 168 602Q147 602 134 615.50Q121 629 121 648Q121 668 134 681Q147 694 168 694Q188 694 201 681Q214 668 214 648Z"  horiz-adv-x="500" vert-adv-y="1000"  />

      
      <glyph glyph-name="unia9" unicode="&#xa9;" d="M393-9Q243-9 141 92Q39 193 39 338Q39 484 140.50 585Q242 686 393 686Q544 686 646 585Q748 484 748 338Q748 193 646 92Q544-9 393-9M167.50 115Q167.50 115 212.25 69Q257 23 393 23Q529 23 619 115Q709 207 709 338Q709 470 619 562Q529 654 393 654Q257 654 167.50 562Q78 470 78 338Q78 207 167.50 115M518 295L558 295Q548 233 501.50 194Q455 155 391 155Q318 155 268.50 208Q219 261 219 338Q219 416 268.50 468.50Q318 521 391 521Q455 521 501.50 482.50Q548 444 558 381L518 381Q510 428 475 458Q440 488 392 488Q334 488 296.50 445.50Q259 403 259 338Q259 273 296.50 230.50Q334 188 392 188Q441 188 476 218Q511 248 518 295Z"  horiz-adv-x="787" vert-adv-y="1000"  />

      
      <glyph glyph-name="uniaa" unicode="&#xaa;" d="M330 255L330 336Q312 294 273 270.50Q234 247 182 247Q115 247 75.50 280.50Q36 314 36 370Q36 494 233 494Q273 494 326 490L326 527Q326 583 296.50 615Q267 647 215 647Q159 647 126 615.50Q93 584 92 528L52 528Q53 597 97.50 639.50Q142 682 215 682Q288 682 328.50 641.50Q369 601 369 530L369 255L330 255M79 371Q79 331 109 306Q139 281 188 281Q251 281 288.50 319Q326 357 326 420L326 459Q286 463 236 463Q79 463 79 371Z"  horiz-adv-x="428" vert-adv-y="1000"  />

      
      <glyph glyph-name="uniab" unicode="&#xab;" d="M223 62L175 62L37 267L175 472L223 472L86 267L223 62M384 62L336 62L198 267L336 472L384 472L247 267L384 62Z"  horiz-adv-x="421" vert-adv-y="1000"  />

      
      <glyph glyph-name="uniac" unicode="&#xac;" d="M570 222L528 222L528 408L80 408L80 446L570 446L570 222Z"  horiz-adv-x="660" vert-adv-y="1000"  />

      
      <glyph glyph-name="uniad" unicode="&#xad;" d="M341 256L21 256L21 297L341 297L341 256Z"  horiz-adv-x="362" vert-adv-y="1000"  />

      
      <glyph glyph-name="uniae" unicode="&#xae;" d="M393-9Q243-9 141 92Q39 193 39 338Q39 484 140.50 585Q242 686 393 686Q544 686 646 585Q748 484 748 338Q748 193 646 92Q544-9 393-9M167.50 115Q167.50 115 212.25 69Q257 23 393 23Q529 23 619 115Q709 207 709 338Q709 470 619 562Q529 654 393 654Q257 654 167.50 562Q78 470 78 338Q78 207 167.50 115M489 162L396 301L316 301L316 162L278 162L278 514L404 514Q461 514 493.50 486Q526 458 526 408Q526 367 502 339.50Q478 312 437 304L535 162L489 162M400 483L316 483L316 332L400 332Q442 332 465.50 351.50Q489 371 489 408Q489 443 465.50 463Q442 483 400 483Z"  horiz-adv-x="787" vert-adv-y="1000"  />

      
      <glyph glyph-name="uniaf" unicode="&#xaf;" d="M384 607L117 607L117 642L384 642L384 607Z"  horiz-adv-x="500" vert-adv-y="1000"  />

      
      <glyph glyph-name="unib0" unicode="&#xb0;" d="M234 303Q145 303 83.50 363.50Q22 424 22 513Q22 603 83.50 663Q145 723 234 723Q325 723 386.50 663Q448 603 448 513Q448 423 386.50 363Q325 303 234 303M234 338Q312 338 359 387.50Q406 437 406 513Q406 590 359 639Q312 688 234 688Q158 688 111.50 639Q65 590 65 513Q65 437 111.50 387.50Q158 338 234 338Z"  horiz-adv-x="471" vert-adv-y="1000"  />

      
      <glyph glyph-name="unib1" unicode="&#xb1;" d="M351 121L309 121L309 351L80 351L80 390L309 390L309 619L351 619L351 390L580 390L580 351L351 351L351 121M580 1L80 1L80 39L580 39L580 1Z"  horiz-adv-x="660" vert-adv-y="1000"  />

      
      <glyph glyph-name="unib2" unicode="&#xb2;" d="M294 548L294 515L36 515L36 536L178 685Q217 726 234.50 753Q252 780 252 811Q252 846 225.50 869.50Q199 893 158 893Q115 893 89 869Q63 845 63 807L27 807Q28 860 65.50 893.50Q103 927 160 927Q217 927 253.50 895Q290 863 290 815Q290 778 269.50 747Q249 716 204 669L91 548L294 548Z"  horiz-adv-x="326" vert-adv-y="1000"  />

      
      <glyph glyph-name="unib3" unicode="&#xb3;" d="M331 627Q331 575 290.50 543Q250 511 185 511Q122 511 81.50 543Q41 575 40 627L76 627Q78 589 108.50 566Q139 543 186 543Q235 543 263.50 566Q292 589 292 627Q292 665 260.50 687Q229 709 177 709L134 709L134 741L176 741Q218 741 245 763Q272 785 272 820Q272 853 247 874.50Q222 896 182 896Q141 896 116 874.50Q91 853 88 818L52 818Q54 865 91 896.50Q128 928 184 928Q240 928 275.50 898Q311 868 311 822Q311 757 236 727Q281 716 306 690Q331 664 331 627Z"  horiz-adv-x="373" vert-adv-y="1000"  />

      
      <glyph glyph-name="unib4" unicode="&#xb4;" d="M226 592L170 592L271 719L329 719L226 592Z"  horiz-adv-x="500" vert-adv-y="1000"  />

      
      <glyph glyph-name="unib5" unicode="&#xb5;" d="M128-193L81-193L81 524L127 524L127 196Q127 112 166 70.50Q205 29 270 29Q342 29 384.50 77.50Q427 126 427 203L427 524L474 524L474 0L429 0L429 95Q410 48 367 19Q324-10 269-10Q165-10 124 64L128-193Z"  horiz-adv-x="554" vert-adv-y="1000"  />

      
      <glyph glyph-name="unib6" unicode="&#xb6;" d="M344-193L301-193L301 234Q184 227 110.50 286.50Q37 346 37 456Q37 560 102.50 618Q168 676 275 676L604 676L604 636L488 636L488-193L445-193L445 636L344 636L344-193Z"  horiz-adv-x="624" vert-adv-y="1000"  />

      
      <glyph glyph-name="unib7" unicode="&#xb7;" d="M166 306Q166 306 173.50 298.50Q181 291 181 268Q181 245 166 230Q151 215 128 215Q105 215 90.50 230Q76 245 76 268Q76 291 90.50 306Q105 321 128 321Q151 321 166 306Z"  horiz-adv-x="257" vert-adv-y="1000"  />

      
      <glyph glyph-name="unib8" unicode="&#xb8;" d="M350-120Q350-155 322.50-176.50Q295-198 255-198Q213-198 184-176.50Q155-155 150-117L186-117Q190-141 208.50-154.50Q227-168 254-168Q279-168 294-154.50Q309-141 309-120Q309-86 281.50-70.50Q254-55 217-60L240 8L274 8L257-39Q297-41 323.50-63.50Q350-86 350-120Z"  horiz-adv-x="500" vert-adv-y="1000"  />

      
      <glyph glyph-name="unib9" unicode="&#xb9;" d="M135 515L98 515L98 889L11 889L11 921L135 921L135 515Z"  horiz-adv-x="214" vert-adv-y="1000"  />

      
      <glyph glyph-name="uniba" unicode="&#xba;" d="M388 308.50Q388 308.50 359.50 277.75Q331 247 243 247Q155 247 98.50 308.50Q42 370 42 465Q42 560 98.50 621Q155 682 243 682Q331 682 388 620.50Q445 559 445 465Q445 370 388 308.50M243 286Q311 286 355 335Q399 384 399 465Q399 545 355 594Q311 643 243 643Q175 643 131 594Q87 545 87 465Q87 385 130.50 335.50Q174 286 243 286Z"  horiz-adv-x="486" vert-adv-y="1000"  />

      
      <glyph glyph-name="unibb" unicode="&#xbb;" d="M37 472L85 472L223 267L85 62L37 62L174 267L37 472M198 472L246 472L384 267L246 62L198 62L335 267L198 472Z"  horiz-adv-x="421" vert-adv-y="1000"  />

      
      <glyph glyph-name="unibc" unicode="&#xbc;" d="M135 270L98 270L98 644L11 644L11 676L135 676L135 270M121 0L79 0L458 676L500 676L121 0M606 99L548 99L548 0L511 0L511 99L296 99L296 123L523 406L548 406L548 131L606 131L606 99M341 131L511 131L511 343L341 131Z"  horiz-adv-x="637" vert-adv-y="1000"  />

      
      <glyph glyph-name="unibd" unicode="&#xbd;" d="M135 270L98 270L98 644L11 644L11 676L135 676L135 270M121 0L79 0L458 676L500 676L121 0M659 33L659 0L401 0L401 21L543 170Q582 211 599.50 238Q617 265 617 296Q617 331 590.50 354.50Q564 378 523 378Q480 378 454 354Q428 330 428 292L392 292Q393 345 430.50 378.50Q468 412 525 412Q582 412 618.50 380Q655 348 655 300Q655 263 634.50 232Q614 201 569 154L455 33L659 33Z"  horiz-adv-x="691" vert-adv-y="1000"  />

      
      <glyph glyph-name="unibe" unicode="&#xbe;" d="M331 382Q331 330 290.50 298Q250 266 185 266Q122 266 81.50 298Q41 330 40 382L76 382Q78 344 108.50 321Q139 298 186 298Q235 298 263.50 321Q292 344 292 382Q292 420 260.50 442Q229 464 177 464L134 464L134 496L176 496Q218 496 245 518Q272 540 272 575Q272 608 247 629.50Q222 651 182 651Q141 651 116 629.50Q91 608 88 573L52 573Q54 620 91 651.50Q128 683 184 683Q240 683 275.50 653Q311 623 311 577Q311 512 236 482Q281 471 306 445Q331 419 331 382M280 0L239 0L618 676L660 676L280 0M774 99L717 99L717 0L679 0L679 99L465 99L465 123L691 406L717 406L717 131L774 131L774 99M510 131L679 131L679 343L510 131Z"  horiz-adv-x="806" vert-adv-y="1000"  />

      
      <glyph glyph-name="unibf" unicode="&#xbf;" d="M171 479Q171 501 186.50 516Q202 531 225 531Q247 531 262.50 516Q278 501 278 479Q278 456 262.50 440.50Q247 425 225 425Q202 425 186.50 440.50Q171 456 171 479M351-31L396-31Q393-107 340.50-155Q288-203 208-203Q122-203 70-155Q18-107 18-35Q18 9 38.50 45Q59 81 106 124L150 163Q190 200 203 236.50Q216 273 212 358L248 358Q256 274 246 231.50Q236 189 192 148L142 101Q101 63 83.50 34.50Q66 6 66-30Q66-86 105.50-123.50Q145-161 210-161Q272-161 311-125Q350-89 351-31Z"  horiz-adv-x="414" vert-adv-y="1000"  />

      
      <glyph glyph-name="unic0" unicode="&#xc0;" d="M366 786L310 786L207 913L265 913L366 786M598 0L515 214L162 214L79 0L31 0L314 718L367 718L648 0L598 0M339 667L178 255L499 255L339 667Z"  horiz-adv-x="680" vert-adv-y="1000"  />

      
      <glyph glyph-name="unic1" unicode="&#xc1;" d="M369 786L313 786L414 913L471 913L369 786M598 0L515 214L162 214L79 0L31 0L314 718L367 718L648 0L598 0M339 667L178 255L499 255L339 667Z"  horiz-adv-x="680" vert-adv-y="1000"  />

      
      <glyph glyph-name="unic2" unicode="&#xc2;" d="M242 786L187 786L317 913L362 913L493 786L438 786L340 880L242 786M598 0L515 214L162 214L79 0L31 0L314 718L367 718L648 0L598 0M339 667L178 255L499 255L339 667Z"  horiz-adv-x="680" vert-adv-y="1000"  />

      
      <glyph glyph-name="unic3" unicode="&#xc3;" d="M217 785L183 785Q179 842 201.50 875.50Q224 909 266 909Q294 909 319 888.50Q344 868 365 848Q386 828 406 828Q455 828 455 914L491 914Q494 857 471 823.50Q448 790 407 790Q385 790 364.50 802.50Q344 815 331 830.50Q318 846 301 858.50Q284 871 268 871Q217 871 217 785M598 0L515 214L162 214L79 0L31 0L314 718L367 718L648 0L598 0M339 667L178 255L499 255L339 667Z"  horiz-adv-x="680" vert-adv-y="1000"  />

      
      <glyph glyph-name="unic4" unicode="&#xc4;" d="M469 842Q469 823 455.50 809.50Q442 796 422 796Q402 796 388.50 809.50Q375 823 375 842Q375 862 388.50 875Q402 888 422 888Q442 888 455.50 875Q469 862 469 842M304 842Q304 823 291 809.50Q278 796 258 796Q237 796 224 809.50Q211 823 211 842Q211 862 224 875Q237 888 258 888Q278 888 291 875Q304 862 304 842M598 0L515 214L162 214L79 0L31 0L314 718L367 718L648 0L598 0M339 667L178 255L499 255L339 667Z"  horiz-adv-x="680" vert-adv-y="1000"  />

      
      <glyph glyph-name="unic5" unicode="&#xc5;" d="M416 810.50Q416 810.50 400.50 795.75Q385 781 340 781Q295 781 264 810.50Q233 840 233 882Q233 923 264 952.50Q295 982 340 982Q385 982 416 952.50Q447 923 447 882Q447 840 416 810.50M290 831Q290 831 300 822Q310 813 340 813Q370 813 390 831Q410 849 410 882Q410 914 390 932Q370 950 340 950Q310 950 290 932Q270 914 270 882Q270 849 290 831M598 0L515 214L162 214L79 0L31 0L314 718L367 718L648 0L598 0M339 667L178 255L499 255L339 667Z"  horiz-adv-x="680" vert-adv-y="1000"  />

      
      <glyph glyph-name="unic6" unicode="&#xc6;" d="M435 214L185 214L63 0L11 0L421 718L791 718L791 676L483 676L483 392L761 392L761 350L483 350L483 42L798 42L798 0L435 0L435 214M435 255L435 654L208 255L435 255Z"  horiz-adv-x="861" vert-adv-y="1000"  />

      
      <glyph glyph-name="unic7" unicode="&#xc7;" d="M484-120Q484-155 457-176.50Q430-198 390-198Q348-198 318.50-176.50Q289-155 284-117L321-117Q325-141 343.50-154.50Q362-168 389-168Q414-168 429-154.50Q444-141 444-120Q444-86 416.50-70.50Q389-55 352-60L367-14Q227-5 135 101Q43 207 43 360Q43 519 142.50 626Q242 733 390 733Q515 733 608 656Q701 579 723 455L672 455Q653 558 574.50 624Q496 690 390 690Q262 690 177.50 595.50Q93 501 93 360Q93 217 177.50 122.50Q262 28 390 28Q497 28 576 94.50Q655 161 672 264L723 264Q703 144 612.50 66.50Q522-11 401-15L392-39Q432-41 458-63.50Q484-86 484-120Z"  horiz-adv-x="766" vert-adv-y="1000"  />

      
      <glyph glyph-name="unic8" unicode="&#xc8;" d="M319 786L263 786L159 913L217 913L319 786M497 42L497 0L84 0L84 718L490 718L490 676L133 676L133 392L460 392L460 350L133 350L133 42L497 42Z"  horiz-adv-x="560" vert-adv-y="1000"  />

      
      <glyph glyph-name="unic9" unicode="&#xc9;" d="M321 786L265 786L366 913L424 913L321 786M497 42L497 0L84 0L84 718L490 718L490 676L133 676L133 392L460 392L460 350L133 350L133 42L497 42Z"  horiz-adv-x="560" vert-adv-y="1000"  />

      
      <glyph glyph-name="unica" unicode="&#xca;" d="M195 786L140 786L270 913L315 913L446 786L390 786L292 880L195 786M497 42L497 0L84 0L84 718L490 718L490 676L133 676L133 392L460 392L460 350L133 350L133 42L497 42Z"  horiz-adv-x="560" vert-adv-y="1000"  />

      
      <glyph glyph-name="unicb" unicode="&#xcb;" d="M421 842Q421 823 408 809.50Q395 796 375 796Q355 796 341.50 809.50Q328 823 328 842Q328 862 341.50 875Q355 888 375 888Q395 888 408 875Q421 862 421 842M256 842Q256 823 243 809.50Q230 796 210 796Q189 796 176 809.50Q163 823 163 842Q163 862 176 875Q189 888 210 888Q230 888 243 875Q256 862 256 842M497 42L497 0L84 0L84 718L490 718L490 676L133 676L133 392L460 392L460 350L133 350L133 42L497 42Z"  horiz-adv-x="560" vert-adv-y="1000"  />

      
      <glyph glyph-name="unicc" unicode="&#xcc;" d="M135 786L79 786L-15 913L43 913L135 786M133 0L84 0L84 718L133 718L133 0Z"  horiz-adv-x="216" vert-adv-y="1000"  />

      
      <glyph glyph-name="unicd" unicode="&#xcd;" d="M137 786L81 786L172 913L230 913L137 786M133 0L84 0L84 718L133 718L133 0Z"  horiz-adv-x="216" vert-adv-y="1000"  />

      
      <glyph glyph-name="unice" unicode="&#xce;" d="M21 786L-34 786L84 913L131 913L249 786L194 786L108 880L21 786M133 0L84 0L84 718L133 718L133 0Z"  horiz-adv-x="216" vert-adv-y="1000"  />

      
      <glyph glyph-name="unicf" unicode="&#xcf;" d="M229 842Q229 823 216.50 809.50Q204 796 185 796Q165 796 152.50 809.50Q140 823 140 842Q140 862 152.50 875Q165 888 185 888Q204 888 216.50 875Q229 862 229 842M77 842Q77 823 64.50 809.50Q52 796 33 796Q14 796 1 809.50Q-12 823-12 842Q-12 862 0.50 875Q13 888 33 888Q52 888 64.50 875Q77 862 77 842M133 0L84 0L84 718L133 718L133 0Z"  horiz-adv-x="216" vert-adv-y="1000"  />

      
      <glyph glyph-name="unid0" unicode="&#xd0;" d="M316 0L129 0L129 351L6 351L6 390L129 390L129 718L316 718Q485 718 577.50 620.50Q670 523 670 361Q670 202 575.50 101Q481 0 316 0M339 351L178 351L178 42L316 42Q460 42 540.50 129.50Q621 217 621 361Q621 506 541.50 591Q462 676 316 676L178 676L178 390L339 390L339 351Z"  horiz-adv-x="713" vert-adv-y="1000"  />

      
      <glyph glyph-name="unid1" unicode="&#xd1;" d="M238 785L203 785Q200 842 223 875.50Q246 909 287 909Q315 909 339.50 888.50Q364 868 385 848Q406 828 426 828Q476 828 476 914L511 914Q515 857 492 823.50Q469 790 427 790Q405 790 384.50 802.50Q364 815 351 830.50Q338 846 321 858.50Q304 871 288 871Q238 871 238 785M580 0L130 649L130 0L84 0L84 718L139 718L589 70L589 718L635 718L635 0L580 0Z"  horiz-adv-x="719" vert-adv-y="1000"  />

      
      <glyph glyph-name="unid2" unicode="&#xd2;" d="M430 786L374 786L271 913L328 913L430 786M660.50 94Q660.50 94 608.75 39.50Q557-15 403-15Q249-15 146 94Q43 203 43 360Q43 517 145.50 625Q248 733 403 733Q558 733 661 625Q764 517 764 360Q764 203 660.50 94M403 28Q539 28 626 123.50Q713 219 713 360Q713 501 626 595.50Q539 690 403 690Q268 690 180.50 595.50Q93 501 93 360Q93 219 180.50 123.50Q268 28 403 28Z"  horiz-adv-x="806" vert-adv-y="1000"  />

      
      <glyph glyph-name="unid3" unicode="&#xd3;" d="M433 786L377 786L478 913L535 913L433 786M660.50 94Q660.50 94 608.75 39.50Q557-15 403-15Q249-15 146 94Q43 203 43 360Q43 517 145.50 625Q248 733 403 733Q558 733 661 625Q764 517 764 360Q764 203 660.50 94M403 28Q539 28 626 123.50Q713 219 713 360Q713 501 626 595.50Q539 690 403 690Q268 690 180.50 595.50Q93 501 93 360Q93 219 180.50 123.50Q268 28 403 28Z"  horiz-adv-x="806" vert-adv-y="1000"  />

      
      <glyph glyph-name="unid4" unicode="&#xd4;" d="M306 786L251 786L381 913L426 913L557 786L502 786L403 880L306 786M660.50 94Q660.50 94 608.75 39.50Q557-15 403-15Q249-15 146 94Q43 203 43 360Q43 517 145.50 625Q248 733 403 733Q558 733 661 625Q764 517 764 360Q764 203 660.50 94M403 28Q539 28 626 123.50Q713 219 713 360Q713 501 626 595.50Q539 690 403 690Q268 690 180.50 595.50Q93 501 93 360Q93 219 180.50 123.50Q268 28 403 28Z"  horiz-adv-x="806" vert-adv-y="1000"  />

      
      <glyph glyph-name="unid5" unicode="&#xd5;" d="M281 785L247 785Q243 842 265.50 875.50Q288 909 330 909Q358 909 383 888.50Q408 868 429 848Q450 828 469 828Q519 828 519 914L555 914Q558 857 535 823.50Q512 790 471 790Q449 790 428.50 802.50Q408 815 395 830.50Q382 846 365 858.50Q348 871 332 871Q281 871 281 785M660.50 94Q660.50 94 608.75 39.50Q557-15 403-15Q249-15 146 94Q43 203 43 360Q43 517 145.50 625Q248 733 403 733Q558 733 661 625Q764 517 764 360Q764 203 660.50 94M403 28Q539 28 626 123.50Q713 219 713 360Q713 501 626 595.50Q539 690 403 690Q268 690 180.50 595.50Q93 501 93 360Q93 219 180.50 123.50Q268 28 403 28Z"  horiz-adv-x="806" vert-adv-y="1000"  />

      
      <glyph glyph-name="unid6" unicode="&#xd6;" d="M532 842Q532 823 519 809.50Q506 796 486 796Q466 796 452.50 809.50Q439 823 439 842Q439 862 452.50 875Q466 888 486 888Q506 888 519 875Q532 862 532 842M368 842Q368 823 355 809.50Q342 796 322 796Q301 796 287.50 809.50Q274 823 274 842Q274 862 287.50 875Q301 888 322 888Q342 888 355 875Q368 862 368 842M660.50 94Q660.50 94 608.75 39.50Q557-15 403-15Q249-15 146 94Q43 203 43 360Q43 517 145.50 625Q248 733 403 733Q558 733 661 625Q764 517 764 360Q764 203 660.50 94M403 28Q539 28 626 123.50Q713 219 713 360Q713 501 626 595.50Q539 690 403 690Q268 690 180.50 595.50Q93 501 93 360Q93 219 180.50 123.50Q268 28 403 28Z"  horiz-adv-x="806" vert-adv-y="1000"  />

      
      <glyph glyph-name="unid7" unicode="&#xd7;" d="M146 126L119 155L303 338L119 522L146 549L330 365L513 549L541 521L358 338L542 155L513 126L330 310L146 126Z"  horiz-adv-x="660" vert-adv-y="1000"  />

      
      <glyph glyph-name="unid8" unicode="&#xd8;" d="M119 0L69 0L148 92Q43 200 43 360Q43 517 145.50 625Q248 733 403 733Q535 733 632 652L689 718L739 718L660 626Q764 519 764 360Q764 203 660.50 94Q557-15 403-15Q273-15 176 66L119 0M93 360Q93 220 178 126L603 618Q518 690 403 690Q268 690 180.50 595.50Q93 501 93 360M403 28Q539 28 626 123.50Q713 219 713 360Q713 497 630 591L205 100Q288 28 403 28Z"  horiz-adv-x="806" vert-adv-y="1000"  />

      
      <glyph glyph-name="unid9" unicode="&#xd9;" d="M359 786L304 786L200 913L258 913L359 786M584 718L584 237Q584 120 515 52.50Q446-15 333-15Q220-15 151 52Q82 119 82 237L82 718L131 718L131 233Q131 140 188 84Q245 28 333 28Q421 28 478.50 84Q536 140 536 233L536 718L584 718Z"  horiz-adv-x="665" vert-adv-y="1000"  />

      
      <glyph glyph-name="unida" unicode="&#xda;" d="M362 786L306 786L407 913L465 913L362 786M584 718L584 237Q584 120 515 52.50Q446-15 333-15Q220-15 151 52Q82 119 82 237L82 718L131 718L131 233Q131 140 188 84Q245 28 333 28Q421 28 478.50 84Q536 140 536 233L536 718L584 718Z"  horiz-adv-x="665" vert-adv-y="1000"  />

      
      <glyph glyph-name="unidb" unicode="&#xdb;" d="M235 786L180 786L310 913L355 913L486 786L431 786L333 880L235 786M584 718L584 237Q584 120 515 52.50Q446-15 333-15Q220-15 151 52Q82 119 82 237L82 718L131 718L131 233Q131 140 188 84Q245 28 333 28Q421 28 478.50 84Q536 140 536 233L536 718L584 718Z"  horiz-adv-x="665" vert-adv-y="1000"  />

      
      <glyph glyph-name="unidc" unicode="&#xdc;" d="M462 842Q462 823 448.50 809.50Q435 796 416 796Q395 796 381.50 809.50Q368 823 368 842Q368 862 381.50 875Q395 888 416 888Q436 888 449 875Q462 862 462 842M297 842Q297 823 284 809.50Q271 796 251 796Q230 796 217 809.50Q204 823 204 842Q204 862 217 875Q230 888 251 888Q271 888 284 875Q297 862 297 842M584 718L584 237Q584 120 515 52.50Q446-15 333-15Q220-15 151 52Q82 119 82 237L82 718L131 718L131 233Q131 140 188 84Q245 28 333 28Q421 28 478.50 84Q536 140 536 233L536 718L584 718Z"  horiz-adv-x="665" vert-adv-y="1000"  />

      
      <glyph glyph-name="unidd" unicode="&#xdd;" d="M330 786L274 786L375 913L432 913L330 786M324 269L324 0L275 0L275 269L11 718L65 718L300 316L537 718L589 718L324 269Z"  horiz-adv-x="600" vert-adv-y="1000"  />

      
      <glyph glyph-name="unide" unicode="&#xde;" d="M304 139L133 139L133 0L84 0L84 718L133 718L133 583L304 583Q410 583 475.50 524Q541 465 541 361Q541 257 476 198Q411 139 304 139M303 541L133 541L133 181L303 181Q391 181 442 228Q493 275 493 361Q493 446 441.50 493.50Q390 541 303 541Z"  horiz-adv-x="578" vert-adv-y="1000"  />

      
      <glyph glyph-name="unidf" unicode="&#xdf;" d="M546 198Q546 105 487.50 47.50Q429-10 334-10Q290-10 269-4L269 35Q295 28 331 28Q408 28 453.50 73Q499 118 499 194Q499 266 447 309Q395 352 307 352L271 352L271 390L306 390Q378 390 422.50 434Q467 478 467 549Q467 613 427.50 651Q388 689 321 689Q253 689 212.50 644.50Q172 600 172 524L172 0L125 0L125 486L-4 486L-4 524L125 524Q127 614 181.50 670.50Q236 727 322 727Q408 727 461 677.50Q514 628 514 550Q514 489 479 441.50Q444 394 387 375Q464 357 505 310.50Q546 264 546 198Z"  horiz-adv-x="588" vert-adv-y="1000"  />

      
      <glyph glyph-name="unie0" unicode="&#xe0;" d="M289 592L233 592L130 719L188 719L289 592M406 0L406 106Q385 52 336.50 21Q288-10 224-10Q143-10 94.50 31.50Q46 73 46 143Q46 298 288 298Q333 298 404 292L404 341Q404 415 367 456Q330 497 264 497Q194 497 152 455Q110 413 109 342L66 342Q67 429 121 481.50Q175 534 263 534Q351 534 400 484.50Q449 435 449 346L449 0L406 0M92 144Q92 91 129.50 58.50Q167 26 228 26Q308 26 356 76.50Q404 127 404 210L404 259Q344 265 290 265Q92 265 92 144Z"  horiz-adv-x="525" vert-adv-y="1000"  />

      
      <glyph glyph-name="unie1" unicode="&#xe1;" d="M292 592L236 592L337 719L394 719L292 592M406 0L406 106Q385 52 336.50 21Q288-10 224-10Q143-10 94.50 31.50Q46 73 46 143Q46 298 288 298Q333 298 404 292L404 341Q404 415 367 456Q330 497 264 497Q194 497 152 455Q110 413 109 342L66 342Q67 429 121 481.50Q175 534 263 534Q351 534 400 484.50Q449 435 449 346L449 0L406 0M92 144Q92 91 129.50 58.50Q167 26 228 26Q308 26 356 76.50Q404 127 404 210L404 259Q344 265 290 265Q92 265 92 144Z"  horiz-adv-x="525" vert-adv-y="1000"  />

      
      <glyph glyph-name="unie2" unicode="&#xe2;" d="M165 592L110 592L240 719L285 719L416 592L361 592L263 686L165 592M406 0L406 106Q385 52 336.50 21Q288-10 224-10Q143-10 94.50 31.50Q46 73 46 143Q46 298 288 298Q333 298 404 292L404 341Q404 415 367 456Q330 497 264 497Q194 497 152 455Q110 413 109 342L66 342Q67 429 121 481.50Q175 534 263 534Q351 534 400 484.50Q449 435 449 346L449 0L406 0M92 144Q92 91 129.50 58.50Q167 26 228 26Q308 26 356 76.50Q404 127 404 210L404 259Q344 265 290 265Q92 265 92 144Z"  horiz-adv-x="525" vert-adv-y="1000"  />

      
      <glyph glyph-name="unie3" unicode="&#xe3;" d="M141 591L106 591Q102 649 124.50 682Q147 715 189 715Q217 715 242 694.50Q267 674 288.50 654Q310 634 329 634Q378 634 378 720L414 720Q417 663 394 630Q371 597 330 597Q302 597 277.50 617.50Q253 638 232 658Q211 678 191 678Q167 678 153.50 655.50Q140 633 141 591M406 0L406 106Q385 52 336.50 21Q288-10 224-10Q143-10 94.50 31.50Q46 73 46 143Q46 298 288 298Q333 298 404 292L404 341Q404 415 367 456Q330 497 264 497Q194 497 152 455Q110 413 109 342L66 342Q67 429 121 481.50Q175 534 263 534Q351 534 400 484.50Q449 435 449 346L449 0L406 0M92 144Q92 91 129.50 58.50Q167 26 228 26Q308 26 356 76.50Q404 127 404 210L404 259Q344 265 290 265Q92 265 92 144Z"  horiz-adv-x="525" vert-adv-y="1000"  />

      
      <glyph glyph-name="unie4" unicode="&#xe4;" d="M392 648Q392 629 378.50 615.50Q365 602 345 602Q325 602 311.50 615.50Q298 629 298 648Q298 668 311.50 681Q325 694 345 694Q365 694 378.50 681Q392 668 392 648M227 648Q227 629 214 615.50Q201 602 181 602Q160 602 147 615.50Q134 629 134 648Q134 668 147 681Q160 694 181 694Q201 694 214 681Q227 668 227 648M406 0L406 106Q385 52 336.50 21Q288-10 224-10Q143-10 94.50 31.50Q46 73 46 143Q46 298 288 298Q333 298 404 292L404 341Q404 415 367 456Q330 497 264 497Q194 497 152 455Q110 413 109 342L66 342Q67 429 121 481.50Q175 534 263 534Q351 534 400 484.50Q449 435 449 346L449 0L406 0M92 144Q92 91 129.50 58.50Q167 26 228 26Q308 26 356 76.50Q404 127 404 210L404 259Q344 265 290 265Q92 265 92 144Z"  horiz-adv-x="525" vert-adv-y="1000"  />

      
      <glyph glyph-name="unie5" unicode="&#xe5;" d="M339 617.50Q339 617.50 323.50 602.75Q308 588 263 588Q218 588 187 617Q156 646 156 688Q156 730 187 759Q218 788 263 788Q308 788 339 758.50Q370 729 370 688Q370 647 339 617.50M213 637Q213 637 223 628Q233 619 263 619Q293 619 313 637Q333 655 333 688Q333 720 313 738Q293 756 263 756Q233 756 213 738Q193 720 193 688Q193 655 213 637M406 0L406 106Q385 52 336.50 21Q288-10 224-10Q143-10 94.50 31.50Q46 73 46 143Q46 298 288 298Q333 298 404 292L404 341Q404 415 367 456Q330 497 264 497Q194 497 152 455Q110 413 109 342L66 342Q67 429 121 481.50Q175 534 263 534Q351 534 400 484.50Q449 435 449 346L449 0L406 0M92 144Q92 91 129.50 58.50Q167 26 228 26Q308 26 356 76.50Q404 127 404 210L404 259Q344 265 290 265Q92 265 92 144Z"  horiz-adv-x="525" vert-adv-y="1000"  />

      
      <glyph glyph-name="unie6" unicode="&#xe6;" d="M46 141Q46 214 106.50 253.50Q167 293 280 293Q384 293 404 292L404 333Q404 411 366 454Q328 497 260 497Q194 497 153 455Q112 413 112 343L69 343Q70 427 123 480.50Q176 534 260 534Q328 534 373.50 501Q419 468 435 407Q464 466 515.50 500Q567 534 628 534Q731 534 791 458.50Q851 383 846 260L448 260Q449 152 498.50 90Q548 28 631 28Q700 28 745 67Q790 106 803 177L849 177Q833 91 775 40.50Q717-10 632-10Q558-10 504.50 31.50Q451 73 426 150Q408 75 354.50 32.50Q301-10 224-10Q145-10 95.50 32Q46 74 46 141M627 498Q553 498 503 440.50Q453 383 449 294L799 294Q795 391 749.50 444.50Q704 498 627 498M92 141Q92 90 130 58Q168 26 228 26Q307 26 355.50 77Q404 128 404 212L404 259L281 259Q92 259 92 141Z"  horiz-adv-x="890" vert-adv-y="1000"  />

      
      <glyph glyph-name="unie7" unicode="&#xe7;" d="M362-120Q362-155 335-176.50Q308-198 268-198Q226-198 196.50-176.50Q167-155 162-117L199-117Q203-141 221.50-154.50Q240-168 267-168Q292-168 307-154.50Q322-141 322-120Q322-86 294.50-70.50Q267-55 230-60L247-10Q154-2 97 73.50Q40 149 40 263Q40 383 103.50 458.50Q167 534 268 534Q356 534 415.50 479.50Q475 425 491 329L445 329Q432 407 385 451Q338 495 269 495Q188 495 137.50 430.50Q87 366 87 263Q87 159 137.50 93.50Q188 28 269 28Q339 28 385.50 72Q432 116 446 195L491 195Q477 102 420.50 48Q364-6 280-11L270-39Q309-41 335.50-63.50Q362-86 362-120Z"  horiz-adv-x="532" vert-adv-y="1000"  />

      
      <glyph glyph-name="unie8" unicode="&#xe8;" d="M303 592L247 592L143 719L201 719L303 592M279-11Q172-11 106 65.50Q40 142 40 267Q40 382 106.50 458Q173 534 274 534Q382 534 445.50 455.50Q509 377 504 251L86 251Q91 148 142.50 87.50Q194 27 279 27Q352 27 399.50 66.50Q447 106 461 177L506 177Q490 91 429 40Q368-11 279-11M274 498Q195 498 143 439.50Q91 381 87 287L456 287Q451 386 402.50 442Q354 498 274 498Z"  horiz-adv-x="547" vert-adv-y="1000"  />

      
      <glyph glyph-name="unie9" unicode="&#xe9;" d="M305 592L250 592L350 719L408 719L305 592M279-11Q172-11 106 65.50Q40 142 40 267Q40 382 106.50 458Q173 534 274 534Q382 534 445.50 455.50Q509 377 504 251L86 251Q91 148 142.50 87.50Q194 27 279 27Q352 27 399.50 66.50Q447 106 461 177L506 177Q490 91 429 40Q368-11 279-11M274 498Q195 498 143 439.50Q91 381 87 287L456 287Q451 386 402.50 442Q354 498 274 498Z"  horiz-adv-x="547" vert-adv-y="1000"  />

      
      <glyph glyph-name="uniea" unicode="&#xea;" d="M179 592L124 592L254 719L299 719L430 592L375 592L276 686L179 592M279-11Q172-11 106 65.50Q40 142 40 267Q40 382 106.50 458Q173 534 274 534Q382 534 445.50 455.50Q509 377 504 251L86 251Q91 148 142.50 87.50Q194 27 279 27Q352 27 399.50 66.50Q447 106 461 177L506 177Q490 91 429 40Q368-11 279-11M274 498Q195 498 143 439.50Q91 381 87 287L456 287Q451 386 402.50 442Q354 498 274 498Z"  horiz-adv-x="547" vert-adv-y="1000"  />

      
      <glyph glyph-name="unieb" unicode="&#xeb;" d="M405 648Q405 629 392 615.50Q379 602 359 602Q339 602 325.50 615.50Q312 629 312 648Q312 668 325.50 681Q339 694 359 694Q379 694 392 681Q405 668 405 648M241 648Q241 629 228 615.50Q215 602 194 602Q174 602 160.50 615.50Q147 629 147 648Q147 668 160.50 681Q174 694 194 694Q215 694 228 681Q241 668 241 648M279-11Q172-11 106 65.50Q40 142 40 267Q40 382 106.50 458Q173 534 274 534Q382 534 445.50 455.50Q509 377 504 251L86 251Q91 148 142.50 87.50Q194 27 279 27Q352 27 399.50 66.50Q447 106 461 177L506 177Q490 91 429 40Q368-11 279-11M274 498Q195 498 143 439.50Q91 381 87 287L456 287Q451 386 402.50 442Q354 498 274 498Z"  horiz-adv-x="547" vert-adv-y="1000"  />

      
      <glyph glyph-name="uniec" unicode="&#xec;" d="M130 592L74 592L-20 719L38 719L130 592M127 0L81 0L81 524L127 524L127 0Z"  horiz-adv-x="207" vert-adv-y="1000"  />

      
      <glyph glyph-name="unied" unicode="&#xed;" d="M132 592L76 592L167 719L225 719L132 592M127 0L81 0L81 524L127 524L127 0Z"  horiz-adv-x="207" vert-adv-y="1000"  />

      
      <glyph glyph-name="uniee" unicode="&#xee;" d="M16 592L-39 592L79 719L126 719L244 592L189 592L103 686L16 592M127 0L81 0L81 524L127 524L127 0Z"  horiz-adv-x="207" vert-adv-y="1000"  />

      
      <glyph glyph-name="unief" unicode="&#xef;" d="M224 648Q224 629 211.50 615.50Q199 602 180 602Q160 602 147.50 615.50Q135 629 135 648Q135 668 147.50 681Q160 694 180 694Q199 694 211.50 681Q224 668 224 648M72 648Q72 629 59.50 615.50Q47 602 28 602Q9 602-4 615.50Q-17 629-17 648Q-17 668-4.50 681Q8 694 28 694Q47 694 59.50 681Q72 668 72 648M127 0L81 0L81 524L127 524L127 0Z"  horiz-adv-x="207" vert-adv-y="1000"  />

      
      <glyph glyph-name="unif0" unicode="&#xf0;" d="M40 260Q40 379 105 455Q170 531 272 531Q336 531 388 495L288 622L163 566L163 603L266 650L212 718L264 718L305 666L431 721L432 684L327 637L440 493Q487 433 506.50 378.50Q526 324 526 251Q526 137 458 63.50Q390-10 283-10Q178-10 109 66.50Q40 143 40 260M87 261Q87 156 141 92.50Q195 29 283 29Q372 29 425.50 89.50Q479 150 479 252Q479 362 425.50 427.50Q372 493 283 493Q193 493 140 431Q87 369 87 261Z"  horiz-adv-x="566" vert-adv-y="1000"  />

      
      <glyph glyph-name="unif1" unicode="&#xf1;" d="M160 591L125 591Q122 649 144.50 682Q167 715 209 715Q237 715 261.50 694.50Q286 674 307 654Q328 634 348 634Q398 634 398 720L433 720Q437 663 414 630Q391 597 349 597Q321 597 296.50 617.50Q272 638 251 658Q230 678 210 678Q160 678 160 591M127 312L127 0L81 0L81 524L125 524L125 417Q149 470 196.50 502Q244 534 302 534Q386 534 434 483.50Q482 433 482 341L482 0L436 0L436 324Q436 406 398.50 450.50Q361 495 291 495Q223 495 175 442Q127 389 127 312Z"  horiz-adv-x="558" vert-adv-y="1000"  />

      
      <glyph glyph-name="unif2" unicode="&#xf2;" d="M311 592L255 592L151 719L209 719L311 592M459.50 66Q459.50 66 425.25 28Q391-10 284-10Q177-10 108.50 66Q40 142 40 263Q40 382 108.50 457.50Q177 533 284 533Q391 533 459.50 457.50Q528 382 528 263Q528 142 459.50 66M142.50 93.50Q142.50 93.50 170.25 61.25Q198 29 284 29Q370 29 425.50 93.50Q481 158 481 263Q481 366 425.50 430Q370 494 284 494Q198 494 142.50 430Q87 366 87 263Q87 158 142.50 93.50Z"  horiz-adv-x="568" vert-adv-y="1000"  />

      
      <glyph glyph-name="unif3" unicode="&#xf3;" d="M313 592L257 592L358 719L416 719L313 592M459.50 66Q459.50 66 425.25 28Q391-10 284-10Q177-10 108.50 66Q40 142 40 263Q40 382 108.50 457.50Q177 533 284 533Q391 533 459.50 457.50Q528 382 528 263Q528 142 459.50 66M142.50 93.50Q142.50 93.50 170.25 61.25Q198 29 284 29Q370 29 425.50 93.50Q481 158 481 263Q481 366 425.50 430Q370 494 284 494Q198 494 142.50 430Q87 366 87 263Q87 158 142.50 93.50Z"  horiz-adv-x="568" vert-adv-y="1000"  />

      
      <glyph glyph-name="unif4" unicode="&#xf4;" d="M186 592L131 592L261 719L306 719L437 592L382 592L284 686L186 592M459.50 66Q459.50 66 425.25 28Q391-10 284-10Q177-10 108.50 66Q40 142 40 263Q40 382 108.50 457.50Q177 533 284 533Q391 533 459.50 457.50Q528 382 528 263Q528 142 459.50 66M142.50 93.50Q142.50 93.50 170.25 61.25Q198 29 284 29Q370 29 425.50 93.50Q481 158 481 263Q481 366 425.50 430Q370 494 284 494Q198 494 142.50 430Q87 366 87 263Q87 158 142.50 93.50Z"  horiz-adv-x="568" vert-adv-y="1000"  />

      
      <glyph glyph-name="unif5" unicode="&#xf5;" d="M162 591L127 591Q124 649 146.50 682Q169 715 211 715Q239 715 263.50 694.50Q288 674 309 654Q330 634 350 634Q400 634 400 720L435 720Q439 663 416 630Q393 597 351 597Q323 597 298.50 617.50Q274 638 253 658Q232 678 212 678Q162 678 162 591M459.50 66Q459.50 66 425.25 28Q391-10 284-10Q177-10 108.50 66Q40 142 40 263Q40 382 108.50 457.50Q177 533 284 533Q391 533 459.50 457.50Q528 382 528 263Q528 142 459.50 66M142.50 93.50Q142.50 93.50 170.25 61.25Q198 29 284 29Q370 29 425.50 93.50Q481 158 481 263Q481 366 425.50 430Q370 494 284 494Q198 494 142.50 430Q87 366 87 263Q87 158 142.50 93.50Z"  horiz-adv-x="568" vert-adv-y="1000"  />

      
      <glyph glyph-name="unif6" unicode="&#xf6;" d="M413 648Q413 629 400 615.50Q387 602 367 602Q347 602 333.50 615.50Q320 629 320 648Q320 668 333.50 681Q347 694 367 694Q387 694 400 681Q413 668 413 648M248 648Q248 629 235 615.50Q222 602 202 602Q181 602 168 615.50Q155 629 155 648Q155 668 168 681Q181 694 202 694Q222 694 235 681Q248 668 248 648M459.50 66Q459.50 66 425.25 28Q391-10 284-10Q177-10 108.50 66Q40 142 40 263Q40 382 108.50 457.50Q177 533 284 533Q391 533 459.50 457.50Q528 382 528 263Q528 142 459.50 66M142.50 93.50Q142.50 93.50 170.25 61.25Q198 29 284 29Q370 29 425.50 93.50Q481 158 481 263Q481 366 425.50 430Q370 494 284 494Q198 494 142.50 430Q87 366 87 263Q87 158 142.50 93.50Z"  horiz-adv-x="568" vert-adv-y="1000"  />

      
      <glyph glyph-name="unif7" unicode="&#xf7;" d="M367.50 548Q367.50 548 374.75 540.50Q382 533 382 510Q382 487 367 472Q352 457 330 457Q308 457 292.50 472.50Q277 488 277 510Q277 533 292 548Q307 563 330 563Q353 563 367.50 548M580 315L80 315L80 353L580 353L580 315M382 160Q382 138 367 123Q352 108 330 108Q307 108 292 123Q277 138 277 160Q277 184 292 199Q307 214 330 214Q353 214 367.50 199Q382 184 382 160Z"  horiz-adv-x="660" vert-adv-y="1000"  />

      
      <glyph glyph-name="unif8" unicode="&#xf8;" d="M91 0L46 0L104 71Q40 148 40 263Q40 382 108.50 457.50Q177 533 284 533Q374 533 438 478L476 524L521 524L463 453Q528 378 528 263Q528 142 459.50 66Q391-10 284-10Q193-10 129 46L91 0M87 263Q87 168 133 106L411 445Q359 494 284 494Q198 494 142.50 430Q87 366 87 263M284 29Q370 29 425.50 93.50Q481 158 481 263Q481 356 435 419L156 79Q209 29 284 29Z"  horiz-adv-x="568" vert-adv-y="1000"  />

      
      <glyph glyph-name="unif9" unicode="&#xf9;" d="M301 592L245 592L142 719L200 719L301 592M421 208L421 524L468 524L468 0L424 0L424 104Q403 53 356.50 21.50Q310-10 251-10Q168-10 122 37.50Q76 85 76 181L76 524L122 524L122 192Q122 108 159.50 68.50Q197 29 261 29Q332 29 376.50 80Q421 131 421 208Z"  horiz-adv-x="548" vert-adv-y="1000"  />

      
      <glyph glyph-name="unifa" unicode="&#xfa;" d="M304 592L248 592L349 719L406 719L304 592M421 208L421 524L468 524L468 0L424 0L424 104Q403 53 356.50 21.50Q310-10 251-10Q168-10 122 37.50Q76 85 76 181L76 524L122 524L122 192Q122 108 159.50 68.50Q197 29 261 29Q332 29 376.50 80Q421 131 421 208Z"  horiz-adv-x="548" vert-adv-y="1000"  />

      
      <glyph glyph-name="unifb" unicode="&#xfb;" d="M177 592L122 592L252 719L297 719L428 592L373 592L275 686L177 592M421 208L421 524L468 524L468 0L424 0L424 104Q403 53 356.50 21.50Q310-10 251-10Q168-10 122 37.50Q76 85 76 181L76 524L122 524L122 192Q122 108 159.50 68.50Q197 29 261 29Q332 29 376.50 80Q421 131 421 208Z"  horiz-adv-x="548" vert-adv-y="1000"  />

      
      <glyph glyph-name="unifc" unicode="&#xfc;" d="M404 648Q404 629 390.50 615.50Q377 602 357 602Q337 602 323.50 615.50Q310 629 310 648Q310 668 323.50 681Q337 694 357 694Q377 694 390.50 681Q404 668 404 648M239 648Q239 629 226 615.50Q213 602 193 602Q172 602 159 615.50Q146 629 146 648Q146 668 159 681Q172 694 193 694Q213 694 226 681Q239 668 239 648M421 208L421 524L468 524L468 0L424 0L424 104Q403 53 356.50 21.50Q310-10 251-10Q168-10 122 37.50Q76 85 76 181L76 524L122 524L122 192Q122 108 159.50 68.50Q197 29 261 29Q332 29 376.50 80Q421 131 421 208Z"  horiz-adv-x="548" vert-adv-y="1000"  />

      
      <glyph glyph-name="unifd" unicode="&#xfd;" d="M263 592L207 592L308 719L366 719L263 592M461 524L188-193L139-193L216 7L7 524L56 524L240 65L413 524L461 524Z"  horiz-adv-x="468" vert-adv-y="1000"  />

      
      <glyph glyph-name="unife" unicode="&#xfe;" d="M547 263Q547 139 484.50 64.50Q422-10 317-10Q254-10 203.50 24.50Q153 59 127 121L127-193L81-193L81 718L127 718L127 400Q152 463 203 498.50Q254 534 317 534Q421 534 484 459.50Q547 385 547 263M500 263Q500 371 449.50 433Q399 495 313 495Q230 495 177.50 432.50Q125 370 125 263Q125 158 177 93.50Q229 29 313 29Q399 29 449.50 91.50Q500 154 500 263Z"  horiz-adv-x="587" vert-adv-y="1000"  />

      
      <glyph glyph-name="uniff" unicode="&#xff;" d="M363 648Q363 629 350 615.50Q337 602 317 602Q297 602 283.50 615.50Q270 629 270 648Q270 668 283.50 681Q297 694 317 694Q337 694 350 681Q363 668 363 648M198 648Q198 629 185 615.50Q172 602 152 602Q131 602 118 615.50Q105 629 105 648Q105 668 118 681Q131 694 152 694Q172 694 185 681Q198 668 198 648M461 524L188-193L139-193L216 7L7 524L56 524L240 65L413 524L461 524Z"  horiz-adv-x="468" vert-adv-y="1000"  />

      
      <glyph glyph-name="uni0100" unicode="&#x0100;" d="M473 800L206 800L206 836L473 836L473 800M598 0L515 214L162 214L79 0L31 0L314 718L367 718L648 0L598 0M339 667L178 255L499 255L339 667Z"  horiz-adv-x="680" vert-adv-y="1000"  />

      
      <glyph glyph-name="uni0101" unicode="&#x0101;" d="M396 607L129 607L129 642L396 642L396 607M406 0L406 106Q385 52 336.50 21Q288-10 224-10Q143-10 94.50 31.50Q46 73 46 143Q46 298 288 298Q333 298 404 292L404 341Q404 415 367 456Q330 497 264 497Q194 497 152 455Q110 413 109 342L66 342Q67 429 121 481.50Q175 534 263 534Q351 534 400 484.50Q449 435 449 346L449 0L406 0M92 144Q92 91 129.50 58.50Q167 26 228 26Q308 26 356 76.50Q404 127 404 210L404 259Q344 265 290 265Q92 265 92 144Z"  horiz-adv-x="525" vert-adv-y="1000"  />

      
      <glyph glyph-name="uni0102" unicode="&#x0102;" d="M435 913L476 913Q476 857 438.50 819.50Q401 782 340 782Q279 782 241.50 819Q204 856 204 913L244 913Q244 871 270 844.50Q296 818 340 818Q384 818 409.50 844.50Q435 871 435 913M598 0L515 214L162 214L79 0L31 0L314 718L367 718L648 0L598 0M339 667L178 255L499 255L339 667Z"  horiz-adv-x="680" vert-adv-y="1000"  />

      
      <glyph glyph-name="uni0103" unicode="&#x0103;" d="M358 719L399 719Q399 663 361.50 626Q324 589 263 589Q202 589 164.50 626Q127 663 127 719L167 719Q167 677 193 650.50Q219 624 263 624Q307 624 332.50 650.50Q358 677 358 719M406 0L406 106Q385 52 336.50 21Q288-10 224-10Q143-10 94.50 31.50Q46 73 46 143Q46 298 288 298Q333 298 404 292L404 341Q404 415 367 456Q330 497 264 497Q194 497 152 455Q110 413 109 342L66 342Q67 429 121 481.50Q175 534 263 534Q351 534 400 484.50Q449 435 449 346L449 0L406 0M92 144Q92 91 129.50 58.50Q167 26 228 26Q308 26 356 76.50Q404 127 404 210L404 259Q344 265 290 265Q92 265 92 144Z"  horiz-adv-x="525" vert-adv-y="1000"  />

      
      <glyph glyph-name="uni0104" unicode="&#x0104;" d="M648-152L648-189Q621-199 596-199Q557-199 531.50-175.50Q506-152 506-113Q506-47 594 11L515 214L162 214L79 0L31 0L314 718L367 718L648 0L620 0Q548-44 548-104Q548-130 563.50-146Q579-162 605-162Q625-162 648-152M339 667L178 255L499 255L339 667Z"  horiz-adv-x="680" vert-adv-y="1000"  />

      
      <glyph glyph-name="uni0105" unicode="&#x0105;" d="M456-152L456-189Q429-199 404-199Q365-199 339.50-175.50Q314-152 314-113Q314-46 406 14L406 106Q385 52 336.50 21Q288-10 224-10Q143-10 94.50 31.50Q46 73 46 143Q46 298 288 298Q333 298 404 292L404 341Q404 415 367 456Q330 497 264 497Q194 497 152 455Q110 413 109 342L66 342Q67 429 121 481.50Q175 534 263 534Q351 534 400 484.50Q449 435 449 346L449 0L428 0Q356-44 356-104Q356-130 371.50-146Q387-162 413-162Q433-162 456-152M92 144Q92 91 129.50 58.50Q167 26 228 26Q308 26 356 76.50Q404 127 404 210L404 259Q344 265 290 265Q92 265 92 144Z"  horiz-adv-x="525" vert-adv-y="1000"  />

      
      <glyph glyph-name="uni0106" unicode="&#x0106;" d="M423 786L367 786L468 913L526 913L423 786M390-15Q242-15 142.50 93Q43 201 43 360Q43 519 142.50 626Q242 733 390 733Q515 733 608 656Q701 579 723 455L672 455Q653 558 574.50 624Q496 690 390 690Q262 690 177.50 595.50Q93 501 93 360Q93 217 177.50 122.50Q262 28 390 28Q497 28 576 94.50Q655 161 672 264L723 264Q702 140 608.50 62.50Q515-15 390-15Z"  horiz-adv-x="766" vert-adv-y="1000"  />

      
      <glyph glyph-name="uni0107" unicode="&#x0107;" d="M301 592L245 592L346 719L404 719L301 592M268-11Q167-11 103.50 65.50Q40 142 40 263Q40 383 103.50 458.50Q167 534 268 534Q356 534 415.50 479.50Q475 425 491 329L445 329Q432 407 385 451Q338 495 269 495Q188 495 137.50 430.50Q87 366 87 263Q87 159 137.50 93.50Q188 28 269 28Q339 28 385.50 72Q432 116 446 195L491 195Q476 99 416.50 44Q357-11 268-11Z"  horiz-adv-x="532" vert-adv-y="1000"  />

      
      <glyph glyph-name="uni010C" unicode="&#x010C;" d="M416 786L371 786L241 913L296 913L394 819L492 913L547 913L416 786M390-15Q242-15 142.50 93Q43 201 43 360Q43 519 142.50 626Q242 733 390 733Q515 733 608 656Q701 579 723 455L672 455Q653 558 574.50 624Q496 690 390 690Q262 690 177.50 595.50Q93 501 93 360Q93 217 177.50 122.50Q262 28 390 28Q497 28 576 94.50Q655 161 672 264L723 264Q702 140 608.50 62.50Q515-15 390-15Z"  horiz-adv-x="766" vert-adv-y="1000"  />

      
      <glyph glyph-name="uni010D" unicode="&#x010D;" d="M294 592L249 592L119 719L174 719L272 625L370 719L425 719L294 592M268-11Q167-11 103.50 65.50Q40 142 40 263Q40 383 103.50 458.50Q167 534 268 534Q356 534 415.50 479.50Q475 425 491 329L445 329Q432 407 385 451Q338 495 269 495Q188 495 137.50 430.50Q87 366 87 263Q87 159 137.50 93.50Q188 28 269 28Q339 28 385.50 72Q432 116 446 195L491 195Q476 99 416.50 44Q357-11 268-11Z"  horiz-adv-x="532" vert-adv-y="1000"  />

      
      <glyph glyph-name="uni010E" unicode="&#x010E;" d="M331 786L286 786L156 913L211 913L308 819L407 913L462 913L331 786M270 0L84 0L84 718L270 718Q439 718 531.50 620.50Q624 523 624 361Q624 202 529.50 101Q435 0 270 0M133 676L133 42L270 42Q414 42 494.50 129.50Q575 217 575 361Q575 506 495.50 591Q416 676 270 676L133 676Z"  horiz-adv-x="667" vert-adv-y="1000"  />

      
      <glyph glyph-name="uni010F" unicode="&#x010F;" d="M40 263Q40 386 102.50 460Q165 534 270 534Q333 534 384 498.50Q435 463 460 401L460 718L506 718L506 0L462 0L462 122Q436 60 385 25Q334-10 270-10Q165-10 102.50 64.50Q40 139 40 263M598 574L567 574L567 718L612 718L598 574M87 263Q87 154 137 91.50Q187 29 274 29Q359 29 410.50 93.50Q462 158 462 265Q462 371 410 433Q358 495 274 495Q187 495 137 433Q87 371 87 263Z"  horiz-adv-x="587" vert-adv-y="1000"  />

      
      <glyph glyph-name="uni0110" unicode="&#x0110;" d="M316 0L129 0L129 351L6 351L6 390L129 390L129 718L316 718Q485 718 577.50 620.50Q670 523 670 361Q670 202 575.50 101Q481 0 316 0M339 351L178 351L178 42L316 42Q460 42 540.50 129.50Q621 217 621 361Q621 506 541.50 591Q462 676 316 676L178 676L178 390L339 390L339 351Z"  horiz-adv-x="713" vert-adv-y="1000"  />

      
      <glyph glyph-name="uni0111" unicode="&#x0111;" d="M40 263Q40 386 102.50 460Q165 534 270 534Q333 534 384 498.50Q435 463 460 401L460 606L337 606L337 642L460 642L460 718L506 718L506 642L608 642L608 606L506 606L506 0L462 0L462 122Q436 60 385 25Q334-10 270-10Q165-10 102.50 64.50Q40 139 40 263M87 263Q87 154 137 91.50Q187 29 274 29Q359 29 410.50 93.50Q462 158 462 265Q462 371 410 433Q358 495 274 495Q187 495 137 433Q87 371 87 263Z"  horiz-adv-x="587" vert-adv-y="1000"  />

      
      <glyph glyph-name="uni0112" unicode="&#x0112;" d="M425 800L158 800L158 836L425 836L425 800M497 42L497 0L84 0L84 718L490 718L490 676L133 676L133 392L460 392L460 350L133 350L133 42L497 42Z"  horiz-adv-x="560" vert-adv-y="1000"  />

      
      <glyph glyph-name="uni0113" unicode="&#x0113;" d="M409 607L142 607L142 642L409 642L409 607M279-11Q172-11 106 65.50Q40 142 40 267Q40 382 106.50 458Q173 534 274 534Q382 534 445.50 455.50Q509 377 504 251L86 251Q91 148 142.50 87.50Q194 27 279 27Q352 27 399.50 66.50Q447 106 461 177L506 177Q490 91 429 40Q368-11 279-11M274 498Q195 498 143 439.50Q91 381 87 287L456 287Q451 386 402.50 442Q354 498 274 498Z"  horiz-adv-x="547" vert-adv-y="1000"  />

      
      <glyph glyph-name="uni0116" unicode="&#x0116;" d="M325 869.50Q325 869.50 331 863.75Q337 858 337 839Q337 820 324.50 808Q312 796 293 796Q273 796 260.50 808Q248 820 248 839Q248 858 260.50 869.50Q273 881 293 881Q313 881 325 869.50M497 42L497 0L84 0L84 718L490 718L490 676L133 676L133 392L460 392L460 350L133 350L133 42L497 42Z"  horiz-adv-x="560" vert-adv-y="1000"  />

      
      <glyph glyph-name="uni0117" unicode="&#x0117;" d="M322 646Q322 627 309 614.50Q296 602 277 602Q258 602 245.50 614.50Q233 627 233 646Q233 664 245.50 675.50Q258 687 277 687Q297 687 309.50 675.50Q322 664 322 646M279-11Q172-11 106 65.50Q40 142 40 267Q40 382 106.50 458Q173 534 274 534Q382 534 445.50 455.50Q509 377 504 251L86 251Q91 148 142.50 87.50Q194 27 279 27Q352 27 399.50 66.50Q447 106 461 177L506 177Q490 91 429 40Q368-11 279-11M274 498Q195 498 143 439.50Q91 381 87 287L456 287Q451 386 402.50 442Q354 498 274 498Z"  horiz-adv-x="547" vert-adv-y="1000"  />

      
      <glyph glyph-name="uni0118" unicode="&#x0118;" d="M460-152L460-189Q434-199 408-199Q369-199 343.50-175.50Q318-152 318-113Q318-54 390 0L84 0L84 718L490 718L490 676L133 676L133 392L460 392L460 350L133 350L133 42L497 42L497 0L432 0Q360-44 360-104Q360-130 375.50-146Q391-162 417-162Q439-162 460-152Z"  horiz-adv-x="560" vert-adv-y="1000"  />

      
      <glyph glyph-name="uni0119" unicode="&#x0119;" d="M279-11Q172-11 106 65.50Q40 142 40 267Q40 382 106.50 458Q173 534 274 534Q382 534 445.50 455.50Q509 377 504 251L86 251Q91 148 142.50 87.50Q194 27 279 27Q352 27 399.50 66.50Q447 106 461 177L506 177Q494 113 457 68Q420 23 364 3Q287-41 287-104Q287-130 302.50-146Q318-162 344-162Q364-162 387-152L387-189Q360-199 335-199Q296-199 270.50-175.50Q245-152 245-113Q245-59 304-10Q296-11 279-11M274 498Q195 498 143 439.50Q91 381 87 287L456 287Q451 386 402.50 442Q354 498 274 498Z"  horiz-adv-x="547" vert-adv-y="1000"  />

      
      <glyph glyph-name="uni011A" unicode="&#x011A;" d="M315 786L270 786L140 913L195 913L292 819L390 913L446 913L315 786M497 42L497 0L84 0L84 718L490 718L490 676L133 676L133 392L460 392L460 350L133 350L133 42L497 42Z"  horiz-adv-x="560" vert-adv-y="1000"  />

      
      <glyph glyph-name="uni011B" unicode="&#x011B;" d="M299 592L254 592L124 719L179 719L276 625L375 719L430 719L299 592M279-11Q172-11 106 65.50Q40 142 40 267Q40 382 106.50 458Q173 534 274 534Q382 534 445.50 455.50Q509 377 504 251L86 251Q91 148 142.50 87.50Q194 27 279 27Q352 27 399.50 66.50Q447 106 461 177L506 177Q490 91 429 40Q368-11 279-11M274 498Q195 498 143 439.50Q91 381 87 287L456 287Q451 386 402.50 442Q354 498 274 498Z"  horiz-adv-x="547" vert-adv-y="1000"  />

      
      <glyph glyph-name="uni011E" unicode="&#x011E;" d="M493 913L534 913Q534 857 496.50 819.50Q459 782 398 782Q337 782 300 819Q263 856 263 913L302 913Q302 871 328 844.50Q354 818 398 818Q442 818 467.50 844.50Q493 871 493 913M655 83.50Q655 83.50 607 34.25Q559-15 404-15Q249-15 146 91.50Q43 198 43 358Q43 518 143.50 625.50Q244 733 399 733Q534 733 624.50 659.50Q715 586 745 473L692 473Q666 569 589.50 629.50Q513 690 397 690Q262 690 177.50 596Q93 502 93 358Q93 215 180 121.50Q267 28 404 28Q533 28 612 103.50Q691 179 705 309L398 309L398 350L755 350Q751 182 655 83.50Z"  horiz-adv-x="798" vert-adv-y="1000"  />

      
      <glyph glyph-name="uni011F" unicode="&#x011F;" d="M365 719L406 719Q406 663 368.50 626Q331 589 270 589Q209 589 172 625.50Q135 662 135 719L174 719Q174 677 200 650.50Q226 624 270 624Q314 624 339.50 650.50Q365 677 365 719M271-204Q173-204 116-155.50Q59-107 54-21L98-21Q103-91 147.50-128.50Q192-166 270-166Q355-166 398.50-122Q442-78 442 6L442 127Q418 66 370 32Q322-2 260-2Q160-2 100 71.50Q40 145 40 267Q40 388 100 461Q160 534 260 534Q321 534 370 498Q419 462 444 399L444 524L488 524L488 7Q488-94 431-149Q374-204 271-204M87 267Q87 160 134.50 99Q182 38 265 38Q345 38 394.50 99Q444 160 444 261Q444 368 395.50 431.50Q347 495 265 495Q182 495 134.50 434Q87 373 87 267Z"  horiz-adv-x="569" vert-adv-y="1000"  />

      
      <glyph glyph-name="uni0122" unicode="&#x0122;" d="M655 83.50Q655 83.50 607 34.25Q559-15 404-15Q249-15 146 91.50Q43 198 43 358Q43 518 143.50 625.50Q244 733 399 733Q534 733 624.50 659.50Q715 586 745 473L692 473Q666 569 589.50 629.50Q513 690 397 690Q262 690 177.50 596Q93 502 93 358Q93 215 180 121.50Q267 28 404 28Q533 28 612 103.50Q691 179 705 309L398 309L398 350L755 350Q751 182 655 83.50M446-117Q446-152 417-178.50Q388-205 341-204L341-177Q373-176 391.50-162.50Q410-149 411-127Q388-137 371-127.50Q354-118 354-98Q354-81 365.50-71.50Q377-62 395-62Q418-62 432-78Q446-94 446-117Z"  horiz-adv-x="798" vert-adv-y="1000"  />

      
      <glyph glyph-name="uni0123" unicode="&#x0123;" d="M222 641Q222 676 250.50 703Q279 730 327 729L327 701Q294 700 275.50 686.50Q257 673 256 651Q268 656 277 656Q293 656 303 647Q313 638 313 623Q313 606 301.50 596.50Q290 587 272 587Q249 587 235.50 602.50Q222 618 222 641M271-204Q173-204 116-155.50Q59-107 54-21L98-21Q103-91 147.50-128.50Q192-166 270-166Q355-166 398.50-122Q442-78 442 6L442 127Q418 66 370 32Q322-2 260-2Q160-2 100 71.50Q40 145 40 267Q40 388 100 461Q160 534 260 534Q321 534 370 498Q419 462 444 399L444 524L488 524L488 7Q488-94 431-149Q374-204 271-204M87 267Q87 160 134.50 99Q182 38 265 38Q345 38 394.50 99Q444 160 444 261Q444 368 395.50 431.50Q347 495 265 495Q182 495 134.50 434Q87 373 87 267Z"  horiz-adv-x="569" vert-adv-y="1000"  />

      
      <glyph glyph-name="uni012A" unicode="&#x012A;" d="M241 800L-26 800L-26 836L241 836L241 800M133 0L84 0L84 718L133 718L133 0Z"  horiz-adv-x="216" vert-adv-y="1000"  />

      
      <glyph glyph-name="uni012B" unicode="&#x012B;" d="M236 607L-31 607L-31 642L236 642L236 607M127 0L81 0L81 524L127 524L127 0Z"  horiz-adv-x="207" vert-adv-y="1000"  />

      
      <glyph glyph-name="uni012E" unicode="&#x012E;" d="M133 0L105 0Q33-44 33-104Q33-130 48.50-146Q64-162 90-162Q112-162 133-152L133-189Q107-199 81-199Q42-199 16.50-175.50Q-9-152-9-113Q-9-46 84 14L84 718L133 718L133 0Z"  horiz-adv-x="216" vert-adv-y="1000"  />

      
      <glyph glyph-name="uni012F" unicode="&#x012F;" d="M148 646Q148 627 135.50 614.50Q123 602 104 602Q85 602 72 614.50Q59 627 59 646Q59 664 71.50 675.50Q84 687 104 687Q123 687 135.50 675.50Q148 664 148 646M127 0L102 0Q30-44 30-104Q30-130 45.50-146Q61-162 87-162Q107-162 130-152L130-189Q103-199 78-199Q39-199 13.50-175.50Q-12-152-12-113Q-12-46 81 14L81 524L127 524L127 0Z"  horiz-adv-x="207" vert-adv-y="1000"  />

      
      <glyph glyph-name="uni0130" unicode="&#x0130;" d="M140.50 869.50Q140.50 869.50 146.75 863.75Q153 858 153 839Q153 820 140.50 808Q128 796 109 796Q89 796 76.50 808Q64 820 64 839Q64 858 76.50 869.50Q89 881 109 881Q128 881 140.50 869.50M133 0L84 0L84 718L133 718L133 0Z"  horiz-adv-x="216" vert-adv-y="1000"  />

      
      <glyph glyph-name="uni0131" unicode="&#x0131;" d="M127 0L81 0L81 524L127 524L127 0Z"  horiz-adv-x="207" vert-adv-y="1000"  />

      
      <glyph glyph-name="uni0136" unicode="&#x0136;" d="M133 0L84 0L84 718L133 718L133 362L498 718L557 718L185 355L567 0L500 0L133 340L133 0M364-117Q364-152 335.50-178.50Q307-205 259-204L259-177Q292-176 310.50-162.50Q329-149 330-127Q308-137 290-127.50Q272-118 272-98Q272-81 284-71.50Q296-62 314-62Q337-62 350.50-78Q364-94 364-117Z"  horiz-adv-x="595" vert-adv-y="1000"  />

      
      <glyph glyph-name="uni0137" unicode="&#x0137;" d="M127 0L81 0L81 718L127 718L127 273L401 524L458 524L177 266L479 0L416 0L127 255L127 0M317-117Q317-152 288-178.50Q259-205 212-204L212-177Q244-176 263-162.50Q282-149 283-127Q260-137 242.50-127.50Q225-118 225-98Q225-81 237-71.50Q249-62 267-62Q290-62 303.50-78Q317-94 317-117Z"  horiz-adv-x="479" vert-adv-y="1000"  />

      
      <glyph glyph-name="uni0139" unicode="&#x0139;" d="M134 786L78 786L179 913L237 913L134 786M475 0L84 0L84 718L133 718L133 43L475 43L475 0Z"  horiz-adv-x="505" vert-adv-y="1000"  />

      
      <glyph glyph-name="uni013A" unicode="&#x013A;" d="M134 786L78 786L179 913L237 913L134 786M127 0L81 0L81 718L127 718L127 0Z"  horiz-adv-x="208" vert-adv-y="1000"  />

      
      <glyph glyph-name="uni013B" unicode="&#x013B;" d="M475 0L84 0L84 718L133 718L133 43L475 43L475 0M341-117Q341-152 312-178.50Q283-205 235-204L235-177Q268-176 286.50-162.50Q305-149 306-127Q284-137 266.50-127.50Q249-118 249-98Q249-81 260.50-71.50Q272-62 290-62Q313-62 327-78Q341-94 341-117Z"  horiz-adv-x="505" vert-adv-y="1000"  />

      
      <glyph glyph-name="uni013C" unicode="&#x013C;" d="M127 0L81 0L81 718L127 718L127 0M153-117Q153-152 124-178.50Q95-205 48-204L48-177Q80-176 98.50-162.50Q117-149 118-127Q96-137 78.50-127.50Q61-118 61-98Q61-81 72.50-71.50Q84-62 102-62Q125-62 139-78Q153-94 153-117Z"  horiz-adv-x="208" vert-adv-y="1000"  />

      
      <glyph glyph-name="uni013D" unicode="&#x013D;" d="M475 0L84 0L84 718L133 718L133 43L475 43L475 0M280 574L249 574L249 718L294 718L280 574Z"  horiz-adv-x="505" vert-adv-y="1000"  />

      
      <glyph glyph-name="uni013E" unicode="&#x013E;" d="M127 0L81 0L81 718L127 718L127 0M218 574L187 574L187 718L233 718L218 574Z"  horiz-adv-x="208" vert-adv-y="1000"  />

      
      <glyph glyph-name="uni0141" unicode="&#x0141;" d="M475 0L84 0L84 330L-25 299L-25 340L84 371L84 718L133 718L133 385L339 444L339 404L133 345L133 43L475 43L475 0Z"  horiz-adv-x="505" vert-adv-y="1000"  />

      
      <glyph glyph-name="uni0142" unicode="&#x0142;" d="M127 0L81 0L81 334L-43 299L-43 337L81 372L81 718L127 718L127 385L254 421L254 382L127 347L127 0Z"  horiz-adv-x="208" vert-adv-y="1000"  />

      
      <glyph glyph-name="uni0143" unicode="&#x0143;" d="M389 786L333 786L434 913L492 913L389 786M580 0L130 649L130 0L84 0L84 718L139 718L589 70L589 718L635 718L635 0L580 0Z"  horiz-adv-x="719" vert-adv-y="1000"  />

      
      <glyph glyph-name="uni0144" unicode="&#x0144;" d="M311 592L255 592L356 719L414 719L311 592M127 312L127 0L81 0L81 524L125 524L125 417Q149 470 196.50 502Q244 534 302 534Q386 534 434 483.50Q482 433 482 341L482 0L436 0L436 324Q436 406 398.50 450.50Q361 495 291 495Q223 495 175 442Q127 389 127 312Z"  horiz-adv-x="558" vert-adv-y="1000"  />

      
      <glyph glyph-name="uni0145" unicode="&#x0145;" d="M580 0L130 649L130 0L84 0L84 718L139 718L589 70L589 718L635 718L635 0L580 0M408-117Q408-152 379-178.50Q350-205 303-204L303-177Q335-176 354-162.50Q373-149 374-127Q352-137 334-127.50Q316-118 316-98Q316-81 328-71.50Q340-62 358-62Q381-62 394.50-78Q408-94 408-117Z"  horiz-adv-x="719" vert-adv-y="1000"  />

      
      <glyph glyph-name="uni0146" unicode="&#x0146;" d="M127 312L127 0L81 0L81 524L125 524L125 417Q149 470 196.50 502Q244 534 302 534Q386 534 434 483.50Q482 433 482 341L482 0L436 0L436 324Q436 406 398.50 450.50Q361 495 291 495Q223 495 175 442Q127 389 127 312M330-117Q330-152 301-178.50Q272-205 225-204L225-177Q257-176 276-162.50Q295-149 296-127Q274-137 256-127.50Q238-118 238-98Q238-81 250-71.50Q262-62 280-62Q303-62 316.50-78Q330-94 330-117Z"  horiz-adv-x="558" vert-adv-y="1000"  />

      
      <glyph glyph-name="uni0147" unicode="&#x0147;" d="M383 786L338 786L207 913L263 913L360 819L458 913L513 913L383 786M580 0L130 649L130 0L84 0L84 718L139 718L589 70L589 718L635 718L635 0L580 0Z"  horiz-adv-x="719" vert-adv-y="1000"  />

      
      <glyph glyph-name="uni0148" unicode="&#x0148;" d="M305 592L260 592L129 719L185 719L282 625L380 719L435 719L305 592M127 312L127 0L81 0L81 524L125 524L125 417Q149 470 196.50 502Q244 534 302 534Q386 534 434 483.50Q482 433 482 341L482 0L436 0L436 324Q436 406 398.50 450.50Q361 495 291 495Q223 495 175 442Q127 389 127 312Z"  horiz-adv-x="558" vert-adv-y="1000"  />

      
      <glyph glyph-name="uni014C" unicode="&#x014C;" d="M537 800L270 800L270 836L537 836L537 800M660.50 94Q660.50 94 608.75 39.50Q557-15 403-15Q249-15 146 94Q43 203 43 360Q43 517 145.50 625Q248 733 403 733Q558 733 661 625Q764 517 764 360Q764 203 660.50 94M403 28Q539 28 626 123.50Q713 219 713 360Q713 501 626 595.50Q539 690 403 690Q268 690 180.50 595.50Q93 501 93 360Q93 219 180.50 123.50Q268 28 403 28Z"  horiz-adv-x="806" vert-adv-y="1000"  />

      
      <glyph glyph-name="uni014D" unicode="&#x014D;" d="M417 607L150 607L150 642L417 642L417 607M459.50 66Q459.50 66 425.25 28Q391-10 284-10Q177-10 108.50 66Q40 142 40 263Q40 382 108.50 457.50Q177 533 284 533Q391 533 459.50 457.50Q528 382 528 263Q528 142 459.50 66M142.50 93.50Q142.50 93.50 170.25 61.25Q198 29 284 29Q370 29 425.50 93.50Q481 158 481 263Q481 366 425.50 430Q370 494 284 494Q198 494 142.50 430Q87 366 87 263Q87 158 142.50 93.50Z"  horiz-adv-x="568" vert-adv-y="1000"  />

      
      <glyph glyph-name="uni0150" unicode="&#x0150;" d="M500 786L445 786L546 913L603 913L500 786M338 786L283 786L383 913L439 913L338 786M660.50 94Q660.50 94 608.75 39.50Q557-15 403-15Q249-15 146 94Q43 203 43 360Q43 517 145.50 625Q248 733 403 733Q558 733 661 625Q764 517 764 360Q764 203 660.50 94M403 28Q539 28 626 123.50Q713 219 713 360Q713 501 626 595.50Q539 690 403 690Q268 690 180.50 595.50Q93 501 93 360Q93 219 180.50 123.50Q268 28 403 28Z"  horiz-adv-x="806" vert-adv-y="1000"  />

      
      <glyph glyph-name="uni0151" unicode="&#x0151;" d="M380 592L325 592L426 719L483 719L380 592M218 592L163 592L263 719L319 719L218 592M459.50 66Q459.50 66 425.25 28Q391-10 284-10Q177-10 108.50 66Q40 142 40 263Q40 382 108.50 457.50Q177 533 284 533Q391 533 459.50 457.50Q528 382 528 263Q528 142 459.50 66M142.50 93.50Q142.50 93.50 170.25 61.25Q198 29 284 29Q370 29 425.50 93.50Q481 158 481 263Q481 366 425.50 430Q370 494 284 494Q198 494 142.50 430Q87 366 87 263Q87 158 142.50 93.50Z"  horiz-adv-x="568" vert-adv-y="1000"  />

      
      <glyph glyph-name="uni0152" unicode="&#x0152;" d="M130 90.50Q130 90.50 86.50 143.25Q43 196 43 360Q43 524 130 628.50Q217 733 358 733Q452 733 522 681.50Q592 630 626 541L626 718L1029 718L1029 676L672 676L672 392L999 392L999 350L672 350L672 42L1036 42L1036 0L626 0L626 180Q592 89 522 37Q452-15 358-15Q217-15 130 90.50M165.50 599Q165.50 599 129.25 553.50Q93 508 93 360Q93 212 165.50 120Q238 28 359 28Q480 28 552 120Q624 212 624 360Q624 508 552 599Q480 690 359 690Q238 690 165.50 599Z"  horiz-adv-x="1098" vert-adv-y="1000"  />

      
      <glyph glyph-name="uni0153" unicode="&#x0153;" d="M40 263Q40 383 106.50 458Q173 533 274 533Q346 533 402 492Q458 451 484 380Q509 452 563 493Q617 534 687 534Q793 534 852.50 458Q912 382 908 251L508 251Q510 144 559.50 85.50Q609 27 691 27Q761 27 807 67Q853 107 865 177L909 177Q894 91 835 40Q776-11 692-11Q617-11 562.50 29.50Q508 70 484 145Q458 73 402.50 31.50Q347-10 274-10Q172-10 106 66Q40 142 40 263M687 498Q612 498 562 441.50Q512 385 509 287L861 287Q856 389 810 443.50Q764 498 687 498M87 263Q87 158 138.50 93.50Q190 29 274 29Q358 29 410 93Q462 157 462 263Q462 367 410 430.50Q358 494 274 494Q191 494 139 430.50Q87 367 87 263Z"  horiz-adv-x="950" vert-adv-y="1000"  />

      
      <glyph glyph-name="uni0154" unicode="&#x0154;" d="M334 786L278 786L379 913L437 913L334 786M133 0L84 0L84 718L331 718Q439 718 501.50 662Q564 606 564 506Q564 422 512.50 365.50Q461 309 373 299L582 0L524 0L320 295L133 295L133 0M133 677L133 336L325 336Q413 336 464 380.50Q515 425 515 506Q515 587 464 632Q413 677 325 677L133 677Z"  horiz-adv-x="621" vert-adv-y="1000"  />

      
      <glyph glyph-name="uni0155" unicode="&#x0155;" d="M239 592L183 592L284 719L341 719L239 592M127 290L127 0L81 0L81 524L125 524L125 398Q151 460 204.50 497Q258 534 323 534L323 485Q240 486 183.50 430.50Q127 375 127 290Z"  horiz-adv-x="333" vert-adv-y="1000"  />

      
      <glyph glyph-name="uni0156" unicode="&#x0156;" d="M133 0L84 0L84 718L331 718Q439 718 501.50 662Q564 606 564 506Q564 422 512.50 365.50Q461 309 373 299L582 0L524 0L320 295L133 295L133 0M133 677L133 336L325 336Q413 336 464 380.50Q515 425 515 506Q515 587 464 632Q413 677 325 677L133 677M353-117Q353-152 324-178.50Q295-205 248-204L248-177Q281-176 299.50-162.50Q318-149 319-127Q296-137 278.50-127.50Q261-118 261-98Q261-81 273-71.50Q285-62 303-62Q326-62 339.50-78Q353-94 353-117Z"  horiz-adv-x="621" vert-adv-y="1000"  />

      
      <glyph glyph-name="uni0157" unicode="&#x0157;" d="M127 290L127 0L81 0L81 524L125 524L125 398Q151 460 204.50 497Q258 534 323 534L323 485Q240 486 183.50 430.50Q127 375 127 290M152-117Q152-152 123.50-178.50Q95-205 47-204L47-177Q80-176 98.50-162.50Q117-149 118-127Q96-137 78.50-127.50Q61-118 61-98Q61-81 72.50-71.50Q84-62 102-62Q125-62 138.50-78Q152-94 152-117Z"  horiz-adv-x="333" vert-adv-y="1000"  />

      
      <glyph glyph-name="uni0158" unicode="&#x0158;" d="M328 786L283 786L153 913L208 913L305 819L403 913L458 913L328 786M133 0L84 0L84 718L331 718Q439 718 501.50 662Q564 606 564 506Q564 422 512.50 365.50Q461 309 373 299L582 0L524 0L320 295L133 295L133 0M133 677L133 336L325 336Q413 336 464 380.50Q515 425 515 506Q515 587 464 632Q413 677 325 677L133 677Z"  horiz-adv-x="621" vert-adv-y="1000"  />

      
      <glyph glyph-name="uni0159" unicode="&#x0159;" d="M232 592L187 592L57 719L112 719L210 625L308 719L363 719L232 592M127 290L127 0L81 0L81 524L125 524L125 398Q151 460 204.50 497Q258 534 323 534L323 485Q240 486 183.50 430.50Q127 375 127 290Z"  horiz-adv-x="333" vert-adv-y="1000"  />

      
      <glyph glyph-name="uni015A" unicode="&#x015A;" d="M338 786L282 786L383 913L441 913L338 786M570 190Q570 106 503.50 48Q437-10 320-10Q201-10 132.50 51Q64 112 59 213L109 213Q115 128 168.50 79.50Q222 31 320 31Q406 31 463 73Q520 115 520 185Q520 247 483 279Q446 311 358 329L276 346Q237 354 206.50 365Q176 376 145.50 396.50Q115 417 98 451Q81 485 81 530Q81 614 147.50 671Q214 728 317 728Q419 728 488 668Q557 608 562 509L511 509Q506 587 453 637Q400 687 317 687Q231 687 181 641Q131 595 131 532Q131 497 144 471.50Q157 446 183.50 430Q210 414 236 405Q262 396 301 388L382 371Q477 351 523.50 310Q570 269 570 190Z"  horiz-adv-x="637" vert-adv-y="1000"  />

      
      <glyph glyph-name="uni015B" unicode="&#x015B;" d="M275 592L220 592L320 719L378 719L275 592M456 138Q456 70 402.50 30Q349-10 257-10Q165-10 109 35Q53 80 46 159L90 159Q94 98 139 62.50Q184 27 257 27Q329 27 369 54.50Q409 82 409 132Q409 176 382 199Q355 222 287 236L217 249Q65 279 65 391Q65 454 116 494Q167 534 249 534Q337 534 390.50 490Q444 446 449 370L405 370Q400 431 359 464.50Q318 498 250 498Q188 498 149.50 469.50Q111 441 111 394Q111 350 139.50 326Q168 302 234 289L305 275Q384 260 420 227.50Q456 195 456 138Z"  horiz-adv-x="506" vert-adv-y="1000"  />

      
      <glyph glyph-name="uni015E" unicode="&#x015E;" d="M411-120Q411-155 384-176.50Q357-198 316-198Q274-198 245-176.50Q216-155 211-117L248-117Q252-141 270.50-154.50Q289-168 316-168Q341-168 356-154.50Q371-141 371-120Q371-86 343-70.50Q315-55 279-60L296-9Q188-3 126 57.50Q64 118 59 213L109 213Q115 128 168.50 79.50Q222 31 320 31Q406 31 463 73Q520 115 520 185Q520 247 483 279Q446 311 358 329L276 346Q237 354 206.50 365Q176 376 145.50 396.50Q115 417 98 451Q81 485 81 530Q81 614 147.50 671Q214 728 317 728Q419 728 488 668Q557 608 562 509L511 509Q506 587 453 637Q400 687 317 687Q231 687 181 641Q131 595 131 532Q131 497 144 471.50Q157 446 183.50 430Q210 414 236 405Q262 396 301 388L382 371Q477 351 523.50 310Q570 269 570 190Q570 108 506 50.50Q442-7 330-10L319-39Q358-41 384.50-63.50Q411-86 411-120Z"  horiz-adv-x="637" vert-adv-y="1000"  />

      
      <glyph glyph-name="uni015F" unicode="&#x015F;" d="M356-120Q356-155 329-176.50Q302-198 262-198Q220-198 190.50-176.50Q161-155 156-117L193-117Q197-141 215.50-154.50Q234-168 261-168Q286-168 301-154.50Q316-141 316-120Q316-86 288.50-70.50Q261-55 224-60L241-10Q156-6 104.50 39Q53 84 46 159L90 159Q94 98 139 62.50Q184 27 257 27Q329 27 369 54.50Q409 82 409 132Q409 176 382 199Q355 222 287 236L217 249Q65 279 65 391Q65 454 116 494Q167 534 249 534Q337 534 390.50 490Q444 446 449 370L405 370Q400 431 359 464.50Q318 498 250 498Q188 498 149.50 469.50Q111 441 111 394Q111 350 139.50 326Q168 302 234 289L305 275Q384 260 420 227.50Q456 195 456 138Q456 73 407.50 34Q359-5 275-10L264-39Q303-41 329.50-63.50Q356-86 356-120Z"  horiz-adv-x="506" vert-adv-y="1000"  />

      
      <glyph glyph-name="uni0160" unicode="&#x0160;" d="M332 786L287 786L157 913L212 913L309 819L408 913L463 913L332 786M570 190Q570 106 503.50 48Q437-10 320-10Q201-10 132.50 51Q64 112 59 213L109 213Q115 128 168.50 79.50Q222 31 320 31Q406 31 463 73Q520 115 520 185Q520 247 483 279Q446 311 358 329L276 346Q237 354 206.50 365Q176 376 145.50 396.50Q115 417 98 451Q81 485 81 530Q81 614 147.50 671Q214 728 317 728Q419 728 488 668Q557 608 562 509L511 509Q506 587 453 637Q400 687 317 687Q231 687 181 641Q131 595 131 532Q131 497 144 471.50Q157 446 183.50 430Q210 414 236 405Q262 396 301 388L382 371Q477 351 523.50 310Q570 269 570 190Z"  horiz-adv-x="637" vert-adv-y="1000"  />

      
      <glyph glyph-name="uni0161" unicode="&#x0161;" d="M269 592L224 592L94 719L149 719L246 625L345 719L400 719L269 592M456 138Q456 70 402.50 30Q349-10 257-10Q165-10 109 35Q53 80 46 159L90 159Q94 98 139 62.50Q184 27 257 27Q329 27 369 54.50Q409 82 409 132Q409 176 382 199Q355 222 287 236L217 249Q65 279 65 391Q65 454 116 494Q167 534 249 534Q337 534 390.50 490Q444 446 449 370L405 370Q400 431 359 464.50Q318 498 250 498Q188 498 149.50 469.50Q111 441 111 394Q111 350 139.50 326Q168 302 234 289L305 275Q384 260 420 227.50Q456 195 456 138Z"  horiz-adv-x="506" vert-adv-y="1000"  />

      
      <glyph glyph-name="uni0162" unicode="&#x0162;" d="M315 0L303 0L289-39Q328-41 354.50-63.50Q381-86 381-120Q381-155 354-176.50Q327-198 287-198Q245-198 215.50-176.50Q186-155 181-117L218-117Q222-141 240.50-154.50Q259-168 286-168Q311-168 326-154.50Q341-141 341-120Q341-86 313.50-70.50Q286-55 249-60L269 0L267 0L267 675L21 675L21 718L560 718L560 675L315 675L315 0Z"  horiz-adv-x="582" vert-adv-y="1000"  />

      
      <glyph glyph-name="uni0163" unicode="&#x0163;" d="M331 43L331 2Q298-10 266-10Q254-10 232-8L221-39Q261-41 287.50-63.50Q314-86 314-120Q314-155 286.50-176.50Q259-198 219-198Q177-198 148-176.50Q119-155 114-117L150-117Q154-141 172.50-154.50Q191-168 218-168Q243-168 258-154.50Q273-141 273-120Q273-86 245.50-70.50Q218-55 181-60L201 0Q120 30 120 140L120 486L-9 486L-9 524L120 524L120 680L167 680L167 524L336 524L336 486L167 486L167 149Q167 33 272 33Q304 33 331 43Z"  horiz-adv-x="368" vert-adv-y="1000"  />

      
      <glyph glyph-name="uni0164" unicode="&#x0164;" d="M313 786L268 786L138 913L193 913L291 819L389 913L444 913L313 786M315 0L267 0L267 675L21 675L21 718L560 718L560 675L315 675L315 0Z"  horiz-adv-x="582" vert-adv-y="1000"  />

      
      <glyph glyph-name="uni0165" unicode="&#x0165;" d="M258 574L227 574L227 718L272 718L258 574M331 43L331 2Q298-10 266-10Q200-10 160 25.50Q120 61 120 140L120 486L-9 486L-9 524L120 524L120 680L167 680L167 524L336 524L336 486L167 486L167 149Q167 33 272 33Q304 33 331 43Z"  horiz-adv-x="368" vert-adv-y="1000"  />

      
      <glyph glyph-name="uni016A" unicode="&#x016A;" d="M466 800L199 800L199 836L466 836L466 800M584 718L584 237Q584 120 515 52.50Q446-15 333-15Q220-15 151 52Q82 119 82 237L82 718L131 718L131 233Q131 140 188 84Q245 28 333 28Q421 28 478.50 84Q536 140 536 233L536 718L584 718Z"  horiz-adv-x="665" vert-adv-y="1000"  />

      
      <glyph glyph-name="uni016B" unicode="&#x016B;" d="M408 607L141 607L141 642L408 642L408 607M421 208L421 524L468 524L468 0L424 0L424 104Q403 53 356.50 21.50Q310-10 251-10Q168-10 122 37.50Q76 85 76 181L76 524L122 524L122 192Q122 108 159.50 68.50Q197 29 261 29Q332 29 376.50 80Q421 131 421 208Z"  horiz-adv-x="548" vert-adv-y="1000"  />

      
      </font>
</defs>
</svg>
