<?xml version="1.0" standalone="no"?>
  <!DOCTYPE svg PUBLIC "-//W3C//DTD SVG 1.1//EN" "http://www.w3.org/Graphics/SVG/1.1/DTD/svg11.dtd" >
  <svg>
  <metadata>
  Created by font-carrier
  </metadata>
  <defs>
  <font id="false" horiz-adv-x="1739" vert-adv-y="1739" >
    <font-face
      
      font-family="General Sans Semibold"
      
      font-weight="400"
      
      font-stretch="normal"
      
      units-per-em="1000"
      
      ascent="1010"
      
      descent="-240"
      
    />
      <missing-glyph />

      

      
      <glyph glyph-name="uni21" unicode="&#x21;" d="M195 216L90 216L55 718L231 718L195 216M212 152Q212 152 225.50 139Q239 126 239 86Q239 46 211.50 20.50Q184-5 143-5Q102-5 74.50 20.50Q47 46 47 86Q47 126 74 152Q101 178 143 178Q185 178 212 152Z"  horiz-adv-x="287" vert-adv-y="1000"  />

      
      <glyph glyph-name="uni22" unicode="&#x22;" d="M182 453L74 453L65 718L191 718L182 453M373 453L266 453L257 718L382 718L373 453Z"  horiz-adv-x="448" vert-adv-y="1000"  />

      
      <glyph glyph-name="uni23" unicode="&#x23;" d="M219 0L113 0L152 182L70 182L70 285L172 285L195 392L110 392L110 498L215 498L254 676L360 676L321 498L403 498L442 676L547 676L508 498L590 498L590 392L489 392L465 285L550 285L550 182L446 182L406 0L301 0L340 182L258 182L219 0M301 392L278 285L360 285L383 392L301 392Z"  horiz-adv-x="660" vert-adv-y="1000"  />

      
      <glyph glyph-name="uni24" unicode="&#x24;" d="M344-89L253-89L253-6Q154 7 95.50 66Q37 125 30 218L169 218Q171 164 205 133.50Q239 103 301 103Q354 103 388.50 126Q423 149 423 189Q423 249 337 268L235 289Q152 308 103.50 351Q55 394 55 477Q55 557 110 613.50Q165 670 253 683L253 767L344 767L344 683Q437 671 496 612.50Q555 554 562 463L423 463Q420 513 387.50 543Q355 573 303 573Q255 573 225.50 550Q196 527 196 488Q196 429 282 412L382 391Q571 351 571 207Q571 117 510.50 58.50Q450 0 344-8L344-89Z"  horiz-adv-x="609" vert-adv-y="1000"  />

      
      <glyph glyph-name="uni25" unicode="&#x25;" d="M399 323.50Q399 323.50 367.50 292.75Q336 262 243 262Q150 262 87 323.50Q24 385 24 472Q24 560 86.50 621Q149 682 243 682Q336 682 399 621Q462 560 462 472Q462 385 399 323.50M409 0L298 0L682 676L793 676L409 0M167.50 389.50Q167.50 389.50 182.75 374.75Q198 360 243 360Q288 360 318 389.50Q348 419 348 472Q348 525 318 554.50Q288 584 243 584Q198 584 167.50 554.50Q137 525 137 472Q137 419 167.50 389.50M1021 52.50Q1021 52.50 989.50 21.75Q958-9 865-9Q772-9 709 52.50Q646 114 646 201Q646 289 708.50 350Q771 411 865 411Q959 411 1021.50 350Q1084 289 1084 201Q1084 114 1021 52.50M789.50 119Q789.50 119 804.75 104.50Q820 90 865 90Q910 90 940.50 119Q971 148 971 201Q971 255 940.50 284Q910 313 865 313Q820 313 789.50 284Q759 255 759 201Q759 148 789.50 119Z"  horiz-adv-x="1108" vert-adv-y="1000"  />

      
      <glyph glyph-name="uni26" unicode="&#x26;" d="M328 392L456 254Q464 294 466 347L593 347Q591 254 542 162L692 0L521 0L462 63Q379-9 281-9Q169-9 102 50.50Q35 110 35 211Q35 325 157 394Q120 446 120 506Q120 584 180 635Q240 686 331 686Q422 686 478 636Q534 586 535 503L406 503Q402 538 382 556.50Q362 575 331 575Q302 575 282.50 555.50Q263 536 263 505Q263 479 277.50 455.50Q292 432 328 392M168 219Q168 169 200 136.50Q232 104 291 104Q348 104 391 139L228 312Q168 281 168 219Z"  horiz-adv-x="693" vert-adv-y="1000"  />

      
      <glyph glyph-name="uni27" unicode="&#x27;" d="M182 453L74 453L65 718L191 718L182 453Z"  horiz-adv-x="256" vert-adv-y="1000"  />

      
      <glyph glyph-name="uni28" unicode="&#x28;" d="M317-193L178-193Q51 1 51 263Q51 524 178 718L317 718Q194 533 194 263Q194-8 317-193Z"  horiz-adv-x="318" vert-adv-y="1000"  />

      
      <glyph glyph-name="uni29" unicode="&#x29;" d="M140-193L2-193Q124-7 124 263Q124 532 2 718L140 718Q267 524 267 263Q267 1 140-193Z"  horiz-adv-x="318" vert-adv-y="1000"  />

      
      <glyph glyph-name="uni2a" unicode="&#x2a;" d="M250 434L158 315L77 375L169 488L31 532L60 625L202 577L196 718L304 718L298 577L440 625L469 532L331 488L423 375L342 315L250 434Z"  horiz-adv-x="500" vert-adv-y="1000"  />

      
      <glyph glyph-name="uni2b" unicode="&#x2b;" d="M395 96L265 96L265 281L80 281L80 401L265 401L265 586L395 586L395 401L580 401L580 281L395 281L395 96Z"  horiz-adv-x="660" vert-adv-y="1000"  />

      
      <glyph glyph-name="uni2c" unicode="&#x2c;" d="M225 54Q225-35 161-90Q97-145 1-146L1-72Q56-71 91.50-47.50Q127-24 133 17Q124 14 112 14Q79 14 56 38Q33 62 33 96Q33 135 58.50 159Q84 183 123 183Q172 183 198.50 150Q225 117 225 54Z"  horiz-adv-x="263" vert-adv-y="1000"  />

      
      <glyph glyph-name="uni2d" unicode="&#x2d;" d="M333 213L28 213L28 337L333 337L333 213Z"  horiz-adv-x="360" vert-adv-y="1000"  />

      
      <glyph glyph-name="uni2e" unicode="&#x2e;" d="M225 89Q225 48 199 21.50Q173-5 132-5Q91-5 64.50 21.50Q38 48 38 89Q38 131 64.50 157.50Q91 184 132 184Q173 184 199 157.50Q225 131 225 89Z"  horiz-adv-x="263" vert-adv-y="1000"  />

      
      <glyph glyph-name="uni2f" unicode="&#x2f;" d="M101-193L-36-193L405 718L542 718L101-193Z"  horiz-adv-x="505" vert-adv-y="1000"  />

      
      <glyph glyph-name="uni30" unicode="&#x30;" d="M113 79.50Q113 79.50 79.50 124.25Q46 169 46 337Q46 505 114 595.50Q182 686 307 686Q432 686 500.50 595.50Q569 505 569 337Q569 170 501.50 80Q434-10 307-10Q180-10 113 79.50M189 337Q189 114 307 114Q365 114 395.50 171Q426 228 426 337Q426 446 395.50 504Q365 562 307 562Q250 562 219.50 504Q189 446 189 337Z"  horiz-adv-x="614" vert-adv-y="1000"  />

      
      <glyph glyph-name="uni31" unicode="&#x31;" d="M286 0L147 0L147 556L19 556L19 676L286 676L286 0Z"  horiz-adv-x="359" vert-adv-y="1000"  />

      
      <glyph glyph-name="uni32" unicode="&#x32;" d="M520 124L520 0L48 0L48 79L253 289Q316 353 340 390.50Q364 428 364 470Q364 512 338 537Q312 562 268 562Q219 562 191 533.50Q163 505 163 455L28 455Q28 556 97 621Q166 686 275 686Q376 686 442.50 629.50Q509 573 509 487Q509 425 479 374Q449 323 361 234L259 124L520 124Z"  horiz-adv-x="558" vert-adv-y="1000"  />

      
      <glyph glyph-name="uni33" unicode="&#x33;" d="M283-9Q174-9 104 49Q34 107 33 199L168 199Q171 153 202 127Q233 101 285 101Q339 101 369 126.50Q399 152 399 197Q399 241 364 266Q329 291 267 291L194 291L194 401L259 401Q310 401 339 425Q368 449 368 490Q368 530 343 553Q318 576 275 576Q232 576 207 550.50Q182 525 181 481L46 481Q47 569 114.50 627.50Q182 686 282 686Q387 686 449 634.50Q511 583 511 500Q511 408 410 355Q473 335 507.50 295Q542 255 542 201Q542 107 470.50 49Q399-9 283-9Z"  horiz-adv-x="577" vert-adv-y="1000"  />

      
      <glyph glyph-name="uni34" unicode="&#x34;" d="M569 133L474 133L474 0L336 0L336 133L15 133L15 236L364 676L474 676L474 254L569 254L569 133M167 254L336 254L336 477L167 254Z"  horiz-adv-x="595" vert-adv-y="1000"  />

      
      <glyph glyph-name="uni35" unicode="&#x35;" d="M287-10Q179-10 106 51Q33 112 30 206L169 206Q175 162 206.50 138Q238 114 286 114Q343 114 371 144.50Q399 175 399 221Q399 265 369.50 296.50Q340 328 282 328Q198 328 167 260L53 297L112 676L503 676L503 552L213 552L192 414Q241 446 305 446Q419 446 481 380Q543 314 543 221Q543 127 475.50 58.50Q408-10 287-10Z"  horiz-adv-x="571" vert-adv-y="1000"  />

      
      <glyph glyph-name="uni36" unicode="&#x36;" d="M288-8Q175-8 101 57.50Q27 123 27 216Q27 278 47 325Q67 372 115 430L319 676L476 676L282 439Q296 444 315 444Q418 444 484 382.50Q550 321 550 225Q550 126 476 59Q402-8 288-8M289 108Q338 108 372 138Q406 168 406 220Q406 275 372.50 305Q339 335 289 335Q238 335 205 306Q172 277 172 221Q172 168 205.50 138Q239 108 289 108Z"  horiz-adv-x="577" vert-adv-y="1000"  />

      
      <glyph glyph-name="uni37" unicode="&#x37;" d="M493 595L243 0L94 0L339 552L18 552L18 676L493 676L493 595Z"  horiz-adv-x="514" vert-adv-y="1000"  />

      
      <glyph glyph-name="uni38" unicode="&#x38;" d="M556 196Q556 106 484.50 48.50Q413-9 297-9Q179-9 107.50 48Q36 105 36 196Q36 301 150 351Q59 401 59 492Q59 577 125 631.50Q191 686 297 686Q401 686 467 631.50Q533 577 533 492Q533 401 442 351Q556 300 556 196M202 487Q202 449 227.50 426.50Q253 404 297 404Q340 404 365.50 426.50Q391 449 391 487Q391 528 365.50 552Q340 576 297 576Q253 576 227.50 552Q202 528 202 487M179 199Q179 153 210.50 127Q242 101 297 101Q351 101 382.50 127.50Q414 154 414 199Q414 242 382 268Q350 294 297 294Q242 294 210.50 268.50Q179 243 179 199Z"  horiz-adv-x="592" vert-adv-y="1000"  />

      
      <glyph glyph-name="uni39" unicode="&#x39;" d="M289 684Q402 684 476 618.50Q550 553 550 460Q550 398 530 351Q510 304 461 246L258 0L101 0L295 237Q280 232 261 232Q158 232 92.50 293.50Q27 355 27 451Q27 550 100.50 617Q174 684 289 684M288 568Q238 568 204.50 538Q171 508 171 456Q171 401 204 371Q237 341 288 341Q338 341 371.50 370Q405 399 405 455Q405 508 371 538Q337 568 288 568Z"  horiz-adv-x="577" vert-adv-y="1000"  />

      
      <glyph glyph-name="uni3a" unicode="&#x3a;" d="M225 441Q225 400 199 373.50Q173 347 132 347Q91 347 64.50 373.50Q38 400 38 441Q38 483 64.50 509.50Q91 536 132 536Q173 536 199 509.50Q225 483 225 441M225 89Q225 48 199 21.50Q173-5 132-5Q91-5 64.50 21.50Q38 48 38 89Q38 131 64.50 157.50Q91 184 132 184Q173 184 199 157.50Q225 131 225 89Z"  horiz-adv-x="263" vert-adv-y="1000"  />

      
      <glyph glyph-name="uni3b" unicode="&#x3b;" d="M224 441Q224 400 198 373.50Q172 347 131 347Q89 347 62.50 373.50Q36 400 36 441Q36 483 62.50 509.50Q89 536 131 536Q172 536 198 509.50Q224 483 224 441M225 54Q225-35 161-90Q97-145 1-146L1-72Q56-71 91.50-47.50Q127-24 133 17Q124 14 112 14Q79 14 56 38Q33 62 33 96Q33 135 58.50 159Q84 183 123 183Q172 183 198.50 150Q225 117 225 54Z"  horiz-adv-x="263" vert-adv-y="1000"  />

      
      <glyph glyph-name="uni3c" unicode="&#x3c;" d="M80 392L580 596L580 475L220 337L580 198L580 78L80 282L80 392Z"  horiz-adv-x="660" vert-adv-y="1000"  />

      
      <glyph glyph-name="uni3d" unicode="&#x3d;" d="M580 397L80 397L80 518L580 518L580 397M580 165L80 165L80 285L580 285L580 165Z"  horiz-adv-x="660" vert-adv-y="1000"  />

      
      <glyph glyph-name="uni3e" unicode="&#x3e;" d="M580 282L80 78L80 198L440 337L80 475L80 596L580 392L580 282Z"  horiz-adv-x="660" vert-adv-y="1000"  />

      
      <glyph glyph-name="uni3f" unicode="&#x3f;" d="M148 517L18 517Q22 610 91 669Q160 728 264 728Q369 728 434.50 675Q500 622 500 538Q500 462 410 388L341 333Q307 304 298 280.50Q289 257 295 216L206 216Q182 270 185.50 311.50Q189 353 231 388L298 445Q324 468 335 485.50Q346 503 346 527Q346 562 320 583.50Q294 605 250 605Q206 605 178.50 581Q151 557 148 517M313.50 152Q313.50 152 327.25 139Q341 126 341 86Q341 46 313.50 20.50Q286-5 244-5Q202-5 174 20.50Q146 46 146 86Q146 126 173.50 152Q201 178 244 178Q286 178 313.50 152Z"  horiz-adv-x="518" vert-adv-y="1000"  />

      
      <glyph glyph-name="uni40" unicode="&#x40;" d="M753-22L753-136Q637-203 492-203Q297-203 164.50-74Q32 55 32 241Q32 428 167.50 557Q303 686 502 686Q689 686 816 575Q943 464 943 311Q943 190 878 114Q813 38 715 38Q612 38 576 107Q522 38 432 38Q356 38 309 91Q262 144 262 230Q262 327 315 393Q368 459 451 459Q527 459 567 402L575 445L699 445L665 244Q661 216 661 202Q661 143 721 143Q768 143 793.50 185Q819 227 819 298Q819 411 731 495.50Q643 580 502 580Q352 580 254 482.50Q156 385 156 241Q156 99 251.50 1Q347-97 492-97Q649-97 753-22M393 237Q393 196 411.50 169.50Q430 143 461 143Q495 143 517.50 176Q540 209 540 257Q540 353 475 353Q436 353 414.50 319Q393 285 393 237Z"  horiz-adv-x="975" vert-adv-y="1000"  />

      
      <glyph glyph-name="uni41" unicode="&#x41;" d="M554 0L500 154L221 154L166 0L13 0L283 718L449 718L717 0L554 0M362 552L264 275L458 275L362 552Z"  horiz-adv-x="730" vert-adv-y="1000"  />

      
      <glyph glyph-name="uni42" unicode="&#x42;" d="M611 211Q611 112 542.50 56Q474 0 355 0L74 0L74 718L344 718Q458 718 523 668Q588 618 588 527Q588 427 487 375Q611 332 611 211M332 598L212 598L212 431L332 431Q387 431 415.50 453Q444 475 444 515Q444 554 415.50 576Q387 598 332 598M343 310L212 310L212 120L343 120Q404 120 436 145.50Q468 171 468 217Q468 260 436 285Q404 310 343 310Z"  horiz-adv-x="647" vert-adv-y="1000"  />

      
      <glyph glyph-name="uni43" unicode="&#x43;" d="M392-15Q240-15 136 93.50Q32 202 32 360Q32 517 136 625Q240 733 392 733Q534 733 634.50 647Q735 561 754 423L593 423Q580 500 525 548.50Q470 597 394 597Q302 597 245 531Q188 465 188 360Q188 254 245 187.50Q302 121 394 121Q470 121 524.50 169.50Q579 218 593 296L754 296Q735 157 634.50 71Q534-15 392-15Z"  horiz-adv-x="786" vert-adv-y="1000"  />

      
      <glyph glyph-name="uni44" unicode="&#x44;" d="M329 0L74 0L74 718L329 718Q498 718 596.50 620Q695 522 695 363Q695 204 594.50 102Q494 0 329 0M226 587L226 131L321 131Q428 131 483.50 191Q539 251 539 363Q539 471 483.50 529Q428 587 321 587L226 587Z"  horiz-adv-x="727" vert-adv-y="1000"  />

      
      <glyph glyph-name="uni45" unicode="&#x45;" d="M557 132L557 0L74 0L74 718L550 718L550 586L226 586L226 435L520 435L520 304L226 304L226 132L557 132Z"  horiz-adv-x="601" vert-adv-y="1000"  />

      
      <glyph glyph-name="uni46" unicode="&#x46;" d="M226 0L74 0L74 718L538 718L538 586L226 586L226 405L489 405L489 274L226 274L226 0Z"  horiz-adv-x="568" vert-adv-y="1000"  />

      
      <glyph glyph-name="uni47" unicode="&#x47;" d="M402-15Q244-15 138 91Q32 197 32 362Q32 521 135.50 627Q239 733 396 733Q530 733 624.50 661Q719 589 755 469L576 469Q559 526 510.50 561.50Q462 597 392 597Q302 597 245 533.50Q188 470 188 358Q188 251 246 182.50Q304 114 409 114Q486 114 536 155.50Q586 197 602 266L394 266L394 387L764 387Q771 210 671.50 97.50Q572-15 402-15Z"  horiz-adv-x="796" vert-adv-y="1000"  />

      
      <glyph glyph-name="uni48" unicode="&#x48;" d="M226 0L74 0L74 718L226 718L226 435L537 435L537 718L689 718L689 0L537 0L537 304L226 304L226 0Z"  horiz-adv-x="763" vert-adv-y="1000"  />

      
      <glyph glyph-name="uni49" unicode="&#x49;" d="M226 0L74 0L74 718L226 718L226 0Z"  horiz-adv-x="299" vert-adv-y="1000"  />

      
      <glyph glyph-name="uni4a" unicode="&#x4a;" d="M556 718L556 258Q556 134 484.50 59.50Q413-15 282-15Q154-15 83 58.50Q12 132 10 250L162 250Q165 121 282 121Q403 121 403 254L403 718L556 718Z"  horiz-adv-x="624" vert-adv-y="1000"  />

      
      <glyph glyph-name="uni4b" unicode="&#x4b;" d="M226 0L74 0L74 718L226 718L226 402L487 718L661 718L376 374L669 0L482 0L226 328L226 0Z"  horiz-adv-x="680" vert-adv-y="1000"  />

      
      <glyph glyph-name="uni4c" unicode="&#x4c;" d="M538 0L74 0L74 718L226 718L226 137L538 137L538 0Z"  horiz-adv-x="568" vert-adv-y="1000"  />

      
      <glyph glyph-name="uni4d" unicode="&#x4d;" d="M400 0L212 477L212 0L74 0L74 718L256 718L464 186L673 718L855 718L855 0L717 0L717 481L527 0L400 0Z"  horiz-adv-x="928" vert-adv-y="1000"  />

      
      <glyph glyph-name="uni4e" unicode="&#x4e;" d="M542 0L213 501L213 0L74 0L74 718L238 718L551 242L551 718L691 718L691 0L542 0Z"  horiz-adv-x="765" vert-adv-y="1000"  />

      
      <glyph glyph-name="uni4f" unicode="&#x4f;" d="M399-15Q243-15 137.50 92Q32 199 32 360Q32 520 137.50 626.50Q243 733 399 733Q556 733 662 626.50Q768 520 768 360Q768 199 662 92Q556-15 399-15M245.50 189.50Q245.50 189.50 274.25 155.25Q303 121 399 121Q495 121 553 189.50Q611 258 611 360Q611 462 553.50 529.50Q496 597 399 597Q303 597 245.50 529.50Q188 462 188 360Q188 258 245.50 189.50Z"  horiz-adv-x="799" vert-adv-y="1000"  />

      
      <glyph glyph-name="uni50" unicode="&#x50;" d="M339 234L226 234L226 0L74 0L74 718L339 718Q472 718 547.50 656Q623 594 623 479Q623 363 547 298.50Q471 234 339 234M338 590L226 590L226 362L338 362Q402 362 437 393Q472 424 472 478Q472 531 437 560.50Q402 590 338 590Z"  horiz-adv-x="652" vert-adv-y="1000"  />

      
      <glyph glyph-name="uni51" unicode="&#x51;" d="M399-15Q243-15 137.50 92Q32 199 32 360Q32 520 137.50 626.50Q243 733 399 733Q556 733 662 626.50Q768 520 768 360Q768 256 721 171.50Q674 87 593 38L713-182L559-182L463-10Q428-15 399-15M245.50 189.50Q245.50 189.50 274.25 155.25Q303 121 399 121Q495 121 553 189.50Q611 258 611 360Q611 462 553.50 529.50Q496 597 399 597Q303 597 245.50 529.50Q188 462 188 360Q188 258 245.50 189.50Z"  horiz-adv-x="799" vert-adv-y="1000"  />

      
      <glyph glyph-name="uni52" unicode="&#x52;" d="M226 0L74 0L74 718L355 718Q491 718 566 657Q641 596 641 485Q641 412 598.50 357.50Q556 303 479 277L664 0L483 0L321 254L226 254L226 0M226 592L226 379L348 379Q489 379 489 485Q489 592 348 592L226 592Z"  horiz-adv-x="685" vert-adv-y="1000"  />

      
      <glyph glyph-name="uni53" unicode="&#x53;" d="M625 223Q625 119 546.50 54.50Q468-10 335-10Q200-10 119 57Q38 124 30 239L184 239Q187 179 225.50 144Q264 109 332 109Q391 109 427.50 133.50Q464 158 464 201Q464 266 368 285L250 308Q162 325 109.50 374Q57 423 57 507Q57 603 133 665Q209 727 325 727Q447 727 527 660.50Q607 594 614 483L460 483Q456 540 420 574.50Q384 609 327 609Q273 609 242 582.50Q211 556 211 517Q211 456 308 437L431 412Q625 374 625 223Z"  horiz-adv-x="663" vert-adv-y="1000"  />

      
      <glyph glyph-name="uni54" unicode="&#x54;" d="M395 0L243 0L243 581L17 581L17 718L622 718L622 581L395 581L395 0Z"  horiz-adv-x="639" vert-adv-y="1000"  />

      
      <glyph glyph-name="uni55" unicode="&#x55;" d="M663 718L663 273Q663 143 584.50 64Q506-15 368-15Q228-15 150 64Q72 143 72 273L72 718L224 718L224 270Q224 200 259.50 160.50Q295 121 368 121Q440 121 475.50 160.50Q511 200 511 270L511 718L663 718Z"  horiz-adv-x="734" vert-adv-y="1000"  />

      
      <glyph glyph-name="uni56" unicode="&#x56;" d="M692 718L432 0L266 0L8 718L172 718L354 177L540 718L692 718Z"  horiz-adv-x="700" vert-adv-y="1000"  />

      
      <glyph glyph-name="uni57" unicode="&#x57;" d="M619 0L485 502L351 0L197 0L13 718L161 718L277 231L409 718L564 718L692 229L809 718L958 718L773 0L619 0Z"  horiz-adv-x="970" vert-adv-y="1000"  />

      
      <glyph glyph-name="uni58" unicode="&#x58;" d="M200 0L22 0L247 367L45 718L222 718L362 461L511 718L681 718L472 361L694 0L515 0L358 270L200 0Z"  horiz-adv-x="716" vert-adv-y="1000"  />

      
      <glyph glyph-name="uni59" unicode="&#x59;" d="M412 270L412 0L260 0L260 270L6 718L170 718L341 409L515 718L668 718L412 270Z"  horiz-adv-x="674" vert-adv-y="1000"  />

      
      <glyph glyph-name="uni5a" unicode="&#x5a;" d="M607 0L41 0L41 120L408 587L42 587L42 718L595 718L595 596L226 131L607 131L607 0Z"  horiz-adv-x="644" vert-adv-y="1000"  />

      
      <glyph glyph-name="uni5b" unicode="&#x5b;" d="M308-193L67-193L67 718L308 718L308 598L210 598L210-73L308-73L308-193Z"  horiz-adv-x="324" vert-adv-y="1000"  />

      
      <glyph glyph-name="uni5c" unicode="&#x5c;" d="M542-193L405-193L-36 718L101 718L542-193Z"  horiz-adv-x="505" vert-adv-y="1000"  />

      
      <glyph glyph-name="uni5d" unicode="&#x5d;" d="M257-193L16-193L16-73L114-73L114 598L16 598L16 718L257 718L257-193Z"  horiz-adv-x="324" vert-adv-y="1000"  />

      
      <glyph glyph-name="uni5e" unicode="&#x5e;" d="M467 274L331 541L194 274L54 274L264 676L398 676L607 274L467 274Z"  horiz-adv-x="661" vert-adv-y="1000"  />

      
      <glyph glyph-name="uni5f" unicode="&#x5f;" d="M500-193L0-193L0-73L500-73L500-193Z"  horiz-adv-x="500" vert-adv-y="1000"  />

      
      <glyph glyph-name="uni60" unicode="&#x60;" d="M380 577L236 577L119 729L280 729L380 577Z"  horiz-adv-x="500" vert-adv-y="1000"  />

      
      <glyph glyph-name="uni61" unicode="&#x61;" d="M380 0L380 66Q327-10 219-10Q136-10 85 35Q34 80 34 155Q34 233 95.50 274Q157 315 274 315Q314 315 363 309L363 341Q363 386 339 411Q315 436 271 436Q226 436 200 411Q174 386 170 341L45 341Q51 433 112.50 488.50Q174 544 271 544Q376 544 434.50 489Q493 434 493 336L493 0L380 0M165 159Q165 125 187.50 105.50Q210 86 249 86Q302 86 332.50 113Q363 140 363 187L363 225Q317 232 283 232Q165 232 165 159Z"  horiz-adv-x="551" vert-adv-y="1000"  />

      
      <glyph glyph-name="uni62" unicode="&#x62;" d="M595 267Q595 148 529.50 69Q464-10 358-10Q254-10 190 77L190 0L62 0L62 718L201 718L201 465Q260 544 358 544Q464 544 529.50 465.50Q595 387 595 267M452 267Q452 340 416.50 380.50Q381 421 327 421Q274 421 238 381Q202 341 202 269Q202 196 237.50 155Q273 114 327 114Q381 114 416.50 154.50Q452 195 452 267Z"  horiz-adv-x="622" vert-adv-y="1000"  />

      
      <glyph glyph-name="uni63" unicode="&#x63;" d="M287-10Q172-10 99.50 67.50Q27 145 27 267Q27 387 100.50 465.50Q174 544 287 544Q391 544 462 479Q533 414 546 306L400 306Q395 359 364.50 390Q334 421 287 421Q233 421 201 379.50Q169 338 169 267Q169 195 200.50 154Q232 113 287 113Q335 113 364.50 143Q394 173 400 228L546 228Q534 118 464 54Q394-10 287-10Z"  horiz-adv-x="573" vert-adv-y="1000"  />

      
      <glyph glyph-name="uni64" unicode="&#x64;" d="M27 267Q27 387 92.50 465.50Q158 544 264 544Q360 544 422 465L422 718L560 718L560 0L433 0L433 77Q368-10 264-10Q158-10 92.50 69Q27 148 27 267M170 267Q170 195 205.50 154.50Q241 114 295 114Q349 114 385 155Q421 196 421 269Q421 342 385 381.50Q349 421 295 421Q241 421 205.50 380.50Q170 340 170 267Z"  horiz-adv-x="622" vert-adv-y="1000"  />

      
      <glyph glyph-name="uni65" unicode="&#x65;" d="M294-9Q174-9 100.50 67.50Q27 144 27 269Q27 388 102 466Q177 544 292 544Q419 544 493 454Q567 364 548 233L169 233Q183 98 291 98Q384 98 409 181L547 181Q525 90 458.50 40.50Q392-9 294-9M289 442Q189 442 171 321L401 321Q398 377 368 409.50Q338 442 289 442Z"  horiz-adv-x="579" vert-adv-y="1000"  />

      
      <glyph glyph-name="uni66" unicode="&#x66;" d="M251 0L113 0L113 415L5 415L5 534L113 534L113 563Q113 643 155.50 686Q198 729 281 729Q330 729 367 713L367 603Q344 612 314 612Q251 612 251 560L251 534L390 534L390 415L251 415L251 0Z"  horiz-adv-x="399" vert-adv-y="1000"  />

      
      <glyph glyph-name="uni67" unicode="&#x67;" d="M289-203Q181-203 114-148.50Q47-94 43-2L177-2Q186-95 288-95Q405-95 405 23L405 101Q383 63 344 41.50Q305 20 256 20Q158 20 92.50 94.50Q27 169 27 282Q27 398 89.50 471Q152 544 251 544Q357 544 416 461L416 534L543 534L543 25Q543-81 475.50-142Q408-203 289-203M198 385.50Q198 385.50 182 366.25Q166 347 166 282Q166 217 197.50 178.50Q229 140 283 140Q338 140 371 179Q404 218 404 281Q404 346 371 385Q338 424 283 424Q230 424 198 385.50Z"  horiz-adv-x="606" vert-adv-y="1000"  />

      
      <glyph glyph-name="uni68" unicode="&#x68;" d="M201 291L201 0L62 0L62 718L201 718L201 464Q261 544 354 544Q436 544 485.50 492Q535 440 535 345L535 0L397 0L397 298Q397 421 303 421Q259 421 230 387Q201 353 201 291Z"  horiz-adv-x="593" vert-adv-y="1000"  />

      
      <glyph glyph-name="uni69" unicode="&#x69;" d="M223 658Q223 622 197 599Q171 576 130 576Q90 576 64 599.50Q38 623 38 658Q38 695 64 718.50Q90 742 130 742Q171 742 197 718.50Q223 695 223 658M201 0L62 0L62 534L201 534L201 0Z"  horiz-adv-x="263" vert-adv-y="1000"  />

      
      <glyph glyph-name="uni6a" unicode="&#x6a;" d="M223 658Q223 622 197 599Q171 576 130 576Q89 576 63 599Q37 622 37 658Q37 695 63 718.50Q89 742 130 742Q171 742 197 718.50Q223 695 223 658M200 534L200 2Q200-101 150-152Q100-203 16-203Q-30-203-59-192L-59-63Q-36-75-1-75Q62-75 62 6L62 534L200 534Z"  horiz-adv-x="262" vert-adv-y="1000"  />

      
      <glyph glyph-name="uni6b" unicode="&#x6b;" d="M201 0L62 0L62 718L201 718L201 308L396 534L556 534L335 278L582 0L405 0L201 248L201 0Z"  horiz-adv-x="584" vert-adv-y="1000"  />

      
      <glyph glyph-name="uni6c" unicode="&#x6c;" d="M202 0L62 0L62 718L202 718L202 0Z"  horiz-adv-x="265" vert-adv-y="1000"  />

      
      <glyph glyph-name="uni6d" unicode="&#x6d;" d="M201 0L62 0L62 534L190 534L190 458Q252 544 350 544Q464 544 506 449Q574 544 682 544Q765 544 814 491.50Q863 439 863 345L863 0L725 0L725 301Q725 358 701 389.50Q677 421 632 421Q589 421 560.50 388.50Q532 356 532 298L532 0L394 0L394 301Q394 358 370 389.50Q346 421 301 421Q257 421 229 388.50Q201 356 201 298L201 0Z"  horiz-adv-x="920" vert-adv-y="1000"  />

      
      <glyph glyph-name="uni6e" unicode="&#x6e;" d="M201 291L201 0L62 0L62 534L190 534L190 458Q253 544 354 544Q436 544 485.50 492Q535 440 535 345L535 0L397 0L397 298Q397 421 303 421Q259 421 230 387Q201 353 201 291Z"  horiz-adv-x="593" vert-adv-y="1000"  />

      
      <glyph glyph-name="uni6f" unicode="&#x6f;" d="M491.50 70Q491.50 70 452.75 30Q414-10 298-10Q182-10 104.50 70Q27 150 27 267Q27 384 104.50 464Q182 544 298 544Q414 544 491.50 464Q569 384 569 267Q569 150 491.50 70M207 154Q207 154 225.50 133.50Q244 113 298 113Q352 113 389 154Q426 195 426 267Q426 338 389 379Q352 420 298 420Q244 420 207 379Q170 338 170 267Q170 195 207 154Z"  horiz-adv-x="596" vert-adv-y="1000"  />

      
      <glyph glyph-name="uni70" unicode="&#x70;" d="M529.50 465.50Q529.50 465.50 562.25 426.25Q595 387 595 267Q595 147 529.50 68.50Q464-10 358-10Q262-10 201 69L201-193L62-193L62 534L190 534L190 456Q253 544 358 544Q464 544 529.50 465.50M452 267Q452 339 416 380Q380 421 327 421Q273 421 237.50 380.50Q202 340 202 267Q202 194 237.50 154Q273 114 327 114Q381 114 416.50 154Q452 194 452 267Z"  horiz-adv-x="622" vert-adv-y="1000"  />

      
      <glyph glyph-name="uni71" unicode="&#x71;" d="M92.50 68.50Q92.50 68.50 59.75 107.75Q27 147 27 267Q27 387 92.50 465.50Q158 544 264 544Q367 544 433 456L433 534L560 534L560-193L422-193L422 69Q361-10 264-10Q158-10 92.50 68.50M170 267Q170 194 205.50 154Q241 114 295 114Q349 114 385 154Q421 194 421 267Q421 340 385 380.50Q349 421 295 421Q242 421 206 380Q170 339 170 267Z"  horiz-adv-x="622" vert-adv-y="1000"  />

      
      <glyph glyph-name="uni72" unicode="&#x72;" d="M201 259L201 0L62 0L62 534L190 534L190 431Q219 481 276 510.50Q333 540 398 540L398 396Q302 403 251.50 373Q201 343 201 259Z"  horiz-adv-x="408" vert-adv-y="1000"  />

      
      <glyph glyph-name="uni73" unicode="&#x73;" d="M513 171Q513 86 451 38Q389-10 276-10Q164-10 100 40.50Q36 91 28 182L161 182Q162 141 194 116.50Q226 92 278 92Q321 92 347 106Q373 120 373 147Q373 172 356 184.50Q339 197 300 205L204 223Q131 236 90.50 275.50Q50 315 50 376Q50 451 109.50 497.50Q169 544 268 544Q369 544 433 494Q497 444 504 358L371 358Q367 397 339.50 419.50Q312 442 268 442Q229 442 206 428Q183 414 183 389Q183 366 199.50 354Q216 342 253 335L356 316Q513 286 513 171Z"  horiz-adv-x="546" vert-adv-y="1000"  />

      
      <glyph glyph-name="uni74" unicode="&#x74;" d="M394 135L394 14Q346-10 287-10Q203-10 155.50 37Q108 84 108 173L108 415L0 415L0 534L108 534L108 692L246 692L246 534L399 534L399 415L246 415L246 205Q246 118 324 118Q363 118 394 135Z"  horiz-adv-x="422" vert-adv-y="1000"  />

      
      <glyph glyph-name="uni75" unicode="&#x75;" d="M387 225L387 534L525 534L525 0L398 0L398 70Q376 34 334 12Q292-10 242-10Q158-10 107.50 41.50Q57 93 57 194L57 534L196 534L196 221Q196 113 289 113Q329 113 358 143Q387 173 387 225Z"  horiz-adv-x="588" vert-adv-y="1000"  />

      
      <glyph glyph-name="uni76" unicode="&#x76;" d="M543 534L347 0L195 0L-2 534L148 534L275 158L403 534L543 534Z"  horiz-adv-x="542" vert-adv-y="1000"  />

      
      <glyph glyph-name="uni77" unicode="&#x77;" d="M500 0L399 347L299 0L160 0L8 534L143 534L234 196L332 534L469 534L564 196L654 534L791 534L638 0L500 0Z"  horiz-adv-x="799" vert-adv-y="1000"  />

      
      <glyph glyph-name="uni78" unicode="&#x78;" d="M167 0L12 0L192 272L24 534L184 534L293 350L403 534L549 534L383 267L562 0L404 0L284 192L167 0Z"  horiz-adv-x="573" vert-adv-y="1000"  />

      
      <glyph glyph-name="uni79" unicode="&#x79;" d="M543 534L283-193L132-193L208 6L-2 534L148 534L282 168L404 534L543 534Z"  horiz-adv-x="542" vert-adv-y="1000"  />

      
      <glyph glyph-name="uni7a" unicode="&#x7a;" d="M494 0L39 0L39 112L314 414L38 414L38 534L486 534L486 420L210 121L494 121L494 0Z"  horiz-adv-x="529" vert-adv-y="1000"  />

      
      <glyph glyph-name="uni7b" unicode="&#x7b;" d="M11 203L11 323Q57 323 77 341Q97 359 97 399L97 557Q97 635 146 678Q195 721 284 721Q304 721 328 718L328 598Q313 601 301 601Q241 601 241 543L241 383Q241 283 150 264Q241 243 241 143L241-17Q241-76 302-76Q315-76 328-73L328-193Q304-196 284-196Q195-196 146-153Q97-110 97-32L97 126Q97 166 77 184.50Q57 203 11 203Z"  horiz-adv-x="339" vert-adv-y="1000"  />

      
      <glyph glyph-name="uni7c" unicode="&#x7c;" d="M235-193L96-193L96 718L235 718L235-193Z"  horiz-adv-x="330" vert-adv-y="1000"  />

      
      <glyph glyph-name="uni7d" unicode="&#x7d;" d="M328 322L328 202Q282 202 262 184Q242 166 242 126L242-32Q242-110 193-153Q144-196 55-196Q35-196 11-193L11-73Q26-76 38-76Q98-76 98-18L98 142Q98 242 189 261Q98 282 98 382L98 542Q98 601 37 601Q24 601 11 598L11 718Q35 721 56 721Q144 721 193 678Q242 635 242 557L242 399Q242 359 262.50 340.50Q283 322 328 322Z"  horiz-adv-x="339" vert-adv-y="1000"  />

      
      <glyph glyph-name="uni7e" unicode="&#x7e;" d="M453 240Q412 240 364.50 260Q317 280 278.50 300Q240 320 220 320Q194 320 182 301.50Q170 283 171 238L58 238Q45 329 88 386.50Q131 444 208 444Q249 444 296 424Q343 404 382 384Q421 364 441 364Q467 364 478.50 382.50Q490 401 489 446L602 446Q616 355 573.50 297.50Q531 240 453 240Z"  horiz-adv-x="660" vert-adv-y="1000"  />

      
      <glyph glyph-name="unia1" unicode="&#xa1;" d="M239 447Q239 407 212 381Q185 355 143 355Q101 355 74 381Q47 407 47 447Q47 486 74.50 512Q102 538 143 538Q184 538 211.50 512Q239 486 239 447M231-193L56-193L91 316L195 316L231-193Z"  horiz-adv-x="286" vert-adv-y="1000"  />

      
      <glyph glyph-name="unia2" unicode="&#xa2;" d="M340-79L249-79L249-6Q150 10 88.50 85.50Q27 161 27 267Q27 374 88.50 449Q150 524 249 540L249 624L340 624L340 541Q433 528 494 465Q555 402 566 306L420 306Q415 356 382 388Q349 420 297 420Q240 420 204.50 378Q169 336 169 267Q169 199 204.50 156Q240 113 297 113Q348 113 381.50 146Q415 179 420 228L566 228Q555 133 493.50 69.50Q432 6 340-7L340-79Z"  horiz-adv-x="593" vert-adv-y="1000"  />

      
      <glyph glyph-name="unia3" unicode="&#xa3;" d="M186 82Q162 82 151.50 63.50Q141 45 142 0L29 0Q19 67 42 115.50Q65 164 112 184L112 304L37 304L37 394L112 394L112 470Q112 569 173.50 627.50Q235 686 336 686Q431 686 494.50 633Q558 580 564 482L415 482Q408 562 332 562Q294 562 273 538.50Q252 515 252 470L252 394L415 394L415 304L252 304L252 181Q268 173 301 154.50Q334 136 357 126.50Q380 117 401 117Q459 117 451 199L564 199Q578 108 536.50 50Q495-8 418-8Q377-8 330 14.50Q283 37 244.50 59.50Q206 82 186 82Z"  horiz-adv-x="594" vert-adv-y="1000"  />

      
      <glyph glyph-name="unia4" unicode="&#xa4;" d="M433 155Q388 128 330 128Q272 128 227 155L147 75L66 156L140 230Q109 278 109 338Q109 397 140 447L65 522L147 602L227 522Q276 548 330 548Q384 548 433 522L513 602L595 522L520 447Q551 397 551 338Q551 278 520 230L594 156L513 75L433 155M252.50 256Q252.50 256 267.75 241.50Q283 227 330 227Q377 227 407.50 256Q438 285 438 338Q438 391 407.50 420Q377 449 330 449Q283 449 252.50 420Q222 391 222 338Q222 285 252.50 256Z"  horiz-adv-x="660" vert-adv-y="1000"  />

      
      <glyph glyph-name="unia5" unicode="&#xa5;" d="M567 137L372 137L372 0L232 0L232 137L38 137L38 227L232 227L232 254L214 289L38 289L38 379L169 379L19 675L171 675L307 390L446 675L586 675L435 379L567 379L567 289L390 289L372 254L372 227L567 227L567 137Z"  horiz-adv-x="605" vert-adv-y="1000"  />

      
      <glyph glyph-name="unia6" unicode="&#xa6;" d="M96 718L232 718L232 314L96 314L96 718M96 211L232 211L232-193L96-193L96 211Z"  horiz-adv-x="328" vert-adv-y="1000"  />

      
      <glyph glyph-name="unia7" unicode="&#xa7;" d="M31 231Q31 329 151 372Q68 416 68 508Q68 588 128.50 636Q189 684 283 684Q383 684 446.50 630Q510 576 517 490L381 490Q376 531 349.50 555.50Q323 580 283 580Q246 580 223 561Q200 542 200 513Q200 458 285 438L380 413Q468 390 508.50 352Q549 314 549 253Q549 148 438 98Q524 60 524-30Q524-106 460-155.50Q396-205 300-205Q189-205 120-151Q51-97 43-6L179-6Q183-49 213-75Q243-101 291-101Q335-101 361.50-81.50Q388-62 388-29Q388-1 366.50 16Q345 33 296 45L201 68Q31 109 31 231M161 247Q161 207 202.50 185.50Q244 164 313 164Q419 164 419 236Q419 276 377 297.50Q335 319 266 319Q215 319 188 299.50Q161 280 161 247Z"  horiz-adv-x="580" vert-adv-y="1000"  />

      
      <glyph glyph-name="unia8" unicode="&#xa8;" d="M446 656Q446 621 422 598.50Q398 576 362 576Q324 576 300 598.50Q276 621 276 656Q276 693 300 715.50Q324 738 362 738Q398 738 422 715Q446 692 446 656M224 656Q224 621 200.50 598.50Q177 576 139 576Q102 576 78 598.50Q54 621 54 656Q54 692 78 715Q102 738 139 738Q177 738 200.50 715.50Q224 693 224 656Z"  horiz-adv-x="500" vert-adv-y="1000"  />

      
      <glyph glyph-name="unia9" unicode="&#xa9;" d="M393-9Q243-9 141 92Q39 193 39 338Q39 484 140.50 585Q242 686 393 686Q544 686 646 585Q748 484 748 338Q748 193 646 92Q544-9 393-9M393 63Q513 63 589.50 142Q666 221 666 338Q666 455 589.50 534Q513 613 393 613Q274 613 197.50 534Q121 455 121 338Q121 222 198 142.50Q275 63 393 63M484 310L573 310Q564 240 514 197.50Q464 155 393 155Q319 155 267 208Q215 261 215 338Q215 415 267 468Q319 521 393 521Q464 521 514 478Q564 435 573 366L484 366Q478 402 453.50 424Q429 446 394 446Q352 446 327 416Q302 386 302 338Q302 290 327 259.50Q352 229 394 229Q429 229 454 251.50Q479 274 484 310Z"  horiz-adv-x="787" vert-adv-y="1000"  />

      
      <glyph glyph-name="uniaa" unicode="&#xaa;" d="M298 255L298 304Q256 247 170 247Q103 247 62 282.50Q21 318 21 377Q21 439 70 471.50Q119 504 213 504Q245 504 283 499L283 523Q283 556 264 574Q245 592 211 592Q176 592 155 574Q134 556 133 523L29 523Q33 591 85.50 637Q138 683 212 683Q297 683 345 639Q393 595 393 518L393 255L298 255M130 381Q130 356 147.50 341.50Q165 327 195 327Q236 327 259.50 347Q283 367 283 400L283 429Q254 434 221 434Q130 434 130 381Z"  horiz-adv-x="428" vert-adv-y="1000"  />

      
      <glyph glyph-name="uniab" unicode="&#xab;" d="M315 62L163 62L17 267L163 472L315 472L177 267L315 62M556 62L404 62L258 267L404 472L556 472L419 267L556 62Z"  horiz-adv-x="574" vert-adv-y="1000"  />

      
      <glyph glyph-name="uniac" unicode="&#xac;" d="M570 173L440 173L440 389L80 389L80 509L570 509L570 173Z"  horiz-adv-x="660" vert-adv-y="1000"  />

      
      <glyph glyph-name="uniad" unicode="&#xad;" d="M333 213L28 213L28 337L333 337L333 213Z"  horiz-adv-x="360" vert-adv-y="1000"  />

      
      <glyph glyph-name="uniae" unicode="&#xae;" d="M393-9Q243-9 141 92Q39 193 39 338Q39 484 140.50 585Q242 686 393 686Q544 686 646 585Q748 484 748 338Q748 193 646 92Q544-9 393-9M393 63Q513 63 589.50 142Q666 221 666 338Q666 455 589.50 534Q513 613 393 613Q274 613 197.50 534Q121 455 121 338Q121 222 198 142.50Q275 63 393 63M454 162L379 282L340 282L340 162L257 162L257 514L398 514Q467 514 505 484Q543 454 543 398Q543 362 522 335Q501 308 466 296L556 162L454 162M394 445L340 445L340 352L394 352Q460 352 460 398Q460 445 394 445Z"  horiz-adv-x="787" vert-adv-y="1000"  />

      
      <glyph glyph-name="uniaf" unicode="&#xaf;" d="M414 589L87 589L87 680L414 680L414 589Z"  horiz-adv-x="500" vert-adv-y="1000"  />

      
      <glyph glyph-name="unib0" unicode="&#xb0;" d="M395 364Q395 364 363.50 333.50Q332 303 238 303Q144 303 81 364Q18 425 18 513Q18 601 81 662Q144 723 238 723Q332 723 395 662Q458 601 458 513Q458 425 395 364M161 432Q161 432 176.50 416.50Q192 401 238 401Q284 401 314.50 432Q345 463 345 513Q345 564 314.50 594.50Q284 625 238 625Q192 625 161 594.50Q130 564 130 513Q130 463 161 432Z"  horiz-adv-x="476" vert-adv-y="1000"  />

      
      <glyph glyph-name="unib1" unicode="&#xb1;" d="M395 177L265 177L265 362L80 362L80 483L265 483L265 667L395 667L395 483L580 483L580 362L395 362L395 177M580 0L80 0L80 121L580 121L580 0Z"  horiz-adv-x="660" vert-adv-y="1000"  />

      
      <glyph glyph-name="unib2" unicode="&#xb2;" d="M345 597L345 515L31 515L32 567L168 690Q209 726 225.50 747.50Q242 769 242 793Q242 815 224 830Q206 845 176 845Q143 845 125 829.50Q107 814 107 785L18 785Q18 848 64 887.50Q110 927 182 927Q253 927 295.50 890.50Q338 854 338 805Q338 766 316 735Q294 704 237 654L177 597L345 597Z"  horiz-adv-x="369" vert-adv-y="1000"  />

      
      <glyph glyph-name="unib3" unicode="&#xb3;" d="M368 638Q368 581 320.50 546Q273 511 196 511Q123 511 76.50 546.50Q30 582 30 637L119 637Q124 584 197 584Q232 584 252.50 597.50Q273 611 273 636Q273 660 249.50 673.50Q226 687 185 687L136 687L136 760L180 760Q214 760 233.50 773Q253 786 253 808Q253 830 236.50 842.50Q220 855 191 855Q162 855 145.50 841Q129 827 128 803L39 803Q40 856 84.50 892Q129 928 195 928Q265 928 306.50 896.50Q348 865 348 815Q348 762 285 729Q368 703 368 638Z"  horiz-adv-x="398" vert-adv-y="1000"  />

      
      <glyph glyph-name="unib4" unicode="&#xb4;" d="M264 577L119 577L219 729L380 729L264 577Z"  horiz-adv-x="500" vert-adv-y="1000"  />

      
      <glyph glyph-name="unib5" unicode="&#xb5;" d="M199-193L62-193L62 534L201 534L201 231Q201 113 302 113Q349 113 375 145.50Q401 178 401 228L401 534L539 534L539 0L404 0L404 57Q388 26 358 8Q328-10 293-10Q223-10 188 30L199-193Z"  horiz-adv-x="602" vert-adv-y="1000"  />

      
      <glyph glyph-name="unib6" unicode="&#xb6;" d="M415-193L277-193L277 196Q160 204 94.50 265.50Q29 327 29 435Q29 550 104.50 613.50Q180 677 310 677L718 677L718 553L639 553L639-193L500-193L500 553L415 553L415-193Z"  horiz-adv-x="738" vert-adv-y="1000"  />

      
      <glyph glyph-name="unib7" unicode="&#xb7;" d="M225 265Q225 224 199 197.50Q173 171 132 171Q91 171 64.50 197.50Q38 224 38 265Q38 307 64.50 333.50Q91 360 132 360Q173 360 199 333.50Q225 307 225 265Z"  horiz-adv-x="263" vert-adv-y="1000"  />

      
      <glyph glyph-name="unib8" unicode="&#xb8;" d="M376-113Q376-150 341.50-174Q307-198 253-198Q198-198 164.50-173Q131-148 125-102L210-102Q216-133 248-133Q263-133 272-125Q281-117 281-105Q281-61 205-69L227 16L295 16L281-32Q324-37 350-59Q376-81 376-113Z"  horiz-adv-x="500" vert-adv-y="1000"  />

      
      <glyph glyph-name="unib9" unicode="&#xb9;" d="M190 515L97 515L97 841L13 841L13 921L190 921L190 515Z"  horiz-adv-x="241" vert-adv-y="1000"  />

      
      <glyph glyph-name="uniba" unicode="&#xba;" d="M244 247Q150 247 87 310Q24 373 24 465Q24 557 87 620Q150 683 244 683Q337 683 400 620Q463 557 463 465Q463 373 400 310Q337 247 244 247M244 351Q286 351 314.50 381.50Q343 412 343 465Q343 518 314.50 548.50Q286 579 244 579Q202 579 173 548.50Q144 518 144 465Q144 412 172.50 381.50Q201 351 244 351Z"  horiz-adv-x="488" vert-adv-y="1000"  />

      
      <glyph glyph-name="unibb" unicode="&#xbb;" d="M17 472L170 472L315 267L170 62L17 62L155 267L17 472M258 472L411 472L556 267L411 62L258 62L396 267L258 472Z"  horiz-adv-x="574" vert-adv-y="1000"  />

      
      <glyph glyph-name="unibc" unicode="&#xbc;" d="M190 270L97 270L97 596L13 596L13 676L190 676L190 270M214 0L103 0L487 676L598 676L214 0M745 77L682 77L682 0L590 0L590 77L377 77L377 145L609 406L682 406L682 157L745 157L745 77M483 157L590 157L590 280L483 157Z"  horiz-adv-x="773" vert-adv-y="1000"  />

      
      <glyph glyph-name="unibd" unicode="&#xbd;" d="M190 270L97 270L97 596L13 596L13 676L190 676L190 270M214 0L103 0L487 676L598 676L214 0M797 82L797 0L483 0L484 52L621 175Q662 211 678.50 232.50Q695 254 695 278Q695 300 676.50 315Q658 330 628 330Q596 330 578 314.50Q560 299 560 270L471 270Q471 333 517 372.50Q563 412 635 412Q706 412 748.50 375.50Q791 339 791 290Q791 252 769 220.50Q747 189 690 139L630 82L797 82Z"  horiz-adv-x="822" vert-adv-y="1000"  />

      
      <glyph glyph-name="unibe" unicode="&#xbe;" d="M368 393Q368 336 320.50 301Q273 266 196 266Q123 266 76.50 301.50Q30 337 30 392L119 392Q124 339 197 339Q232 339 252.50 352.50Q273 366 273 391Q273 415 249.50 428.50Q226 442 185 442L136 442L136 515L180 515Q214 515 233.50 528Q253 541 253 563Q253 585 236.50 597.50Q220 610 191 610Q162 610 145.50 596Q129 582 128 558L39 558Q40 611 84.50 647Q129 683 195 683Q265 683 306.50 651.50Q348 620 348 570Q348 517 285 484Q368 458 368 393M371 0L260 0L644 676L755 676L371 0M904 77L841 77L841 0L750 0L750 77L536 77L536 145L768 406L841 406L841 157L904 157L904 77M642 157L750 157L750 280L642 157Z"  horiz-adv-x="933" vert-adv-y="1000"  />

      
      <glyph glyph-name="unibf" unicode="&#xbf;" d="M177 447Q177 486 204.50 512Q232 538 274 538Q316 538 344 512Q372 486 372 447Q372 406 344.50 380Q317 354 274 354Q232 354 204.50 380.50Q177 407 177 447M370 8L500 8Q496-85 427-144Q358-203 254-203Q149-203 83.50-150Q18-97 18-13Q18 57 108 137L176 200Q209 229 219 253Q229 277 222 316L312 316Q335 265 331 224Q327 183 287 144L220 80Q193 54 182 36.50Q171 19 171-2Q171-37 197-58.50Q223-80 268-80Q312-80 339-56Q366-32 370 8Z"  horiz-adv-x="518" vert-adv-y="1000"  />

      
      <glyph glyph-name="unic0" unicode="&#xc0;" d="M435 760L291 760L175 913L336 913L435 760M554 0L500 154L221 154L166 0L13 0L283 718L449 718L717 0L554 0M362 552L264 275L458 275L362 552Z"  horiz-adv-x="730" vert-adv-y="1000"  />

      
      <glyph glyph-name="unic1" unicode="&#xc1;" d="M440 760L296 760L396 913L557 913L440 760M554 0L500 154L221 154L166 0L13 0L283 718L449 718L717 0L554 0M362 552L264 275L458 275L362 552Z"  horiz-adv-x="730" vert-adv-y="1000"  />

      
      <glyph glyph-name="unic2" unicode="&#xc2;" d="M295 760L142 760L280 913L452 913L589 760L437 760L366 839L295 760M554 0L500 154L221 154L166 0L13 0L283 718L449 718L717 0L554 0M362 552L264 275L458 275L362 552Z"  horiz-adv-x="730" vert-adv-y="1000"  />

      
      <glyph glyph-name="unic3" unicode="&#xc3;" d="M266 756L181 756Q170 826 199.50 869.50Q229 913 285 913Q322 913 371 888Q420 863 432 863Q465 863 464 920L549 920Q560 852 529.50 808Q499 764 444 764Q407 764 358.50 788.50Q310 813 297 813Q263 813 266 756M554 0L500 154L221 154L166 0L13 0L283 718L449 718L717 0L554 0M362 552L264 275L458 275L362 552Z"  horiz-adv-x="730" vert-adv-y="1000"  />

      
      <glyph glyph-name="unic4" unicode="&#xc4;" d="M562 840Q562 805 538 782Q514 759 477 759Q440 759 415.50 782Q391 805 391 840Q391 877 415 899.50Q439 922 477 922Q514 922 538 899Q562 876 562 840M340 840Q340 804 316.50 781.50Q293 759 254 759Q218 759 194 782Q170 805 170 840Q170 876 194 899Q218 922 254 922Q293 922 316.50 899.50Q340 877 340 840M554 0L500 154L221 154L166 0L13 0L283 718L449 718L717 0L554 0M362 552L264 275L458 275L362 552Z"  horiz-adv-x="730" vert-adv-y="1000"  />

      
      <glyph glyph-name="unic5" unicode="&#xc5;" d="M366 755Q307 755 269 791Q231 827 231 878Q231 930 269 966.50Q307 1003 366 1003Q424 1003 463 966.50Q502 930 502 878Q502 828 463 791.50Q424 755 366 755M327 839Q327 839 335 832Q343 825 366 825Q389 825 404.50 838.50Q420 852 420 878Q420 904 404.50 918.50Q389 933 366 933Q343 933 327 918.50Q311 904 311 878Q311 853 327 839M554 0L500 154L221 154L166 0L13 0L283 718L449 718L717 0L554 0M362 552L264 275L458 275L362 552Z"  horiz-adv-x="730" vert-adv-y="1000"  />

      
      <glyph glyph-name="unic6" unicode="&#xc6;" d="M439 154L236 154L163 0L-7 0L348 718L873 718L873 587L591 587L591 435L843 435L843 304L591 304L591 131L880 131L880 0L439 0L439 154M439 275L439 585L293 275L439 275Z"  horiz-adv-x="925" vert-adv-y="1000"  />

      
      <glyph glyph-name="unic7" unicode="&#xc7;" d="M508-113Q508-150 473.50-174Q439-198 386-198Q331-198 297-173Q263-148 258-102L343-102Q349-133 381-133Q396-133 405-125Q414-117 414-105Q414-61 337-69L352-13Q215 2 123.50 107.50Q32 213 32 360Q32 517 136 625Q240 733 392 733Q534 733 634.50 647Q735 561 754 423L593 423Q580 500 525 548.50Q470 597 394 597Q302 597 245 531Q188 465 188 360Q188 254 245 187.50Q302 121 394 121Q470 121 524.50 169.50Q579 218 593 296L754 296Q736 164 644 79Q552-6 419-14L414-32Q457-37 482.50-59Q508-81 508-113Z"  horiz-adv-x="786" vert-adv-y="1000"  />

      
      <glyph glyph-name="unic8" unicode="&#xc8;" d="M384 760L240 760L124 913L285 913L384 760M557 132L557 0L74 0L74 718L550 718L550 586L226 586L226 435L520 435L520 304L226 304L226 132L557 132Z"  horiz-adv-x="601" vert-adv-y="1000"  />

      
      <glyph glyph-name="unic9" unicode="&#xc9;" d="M390 760L245 760L345 913L506 913L390 760M557 132L557 0L74 0L74 718L550 718L550 586L226 586L226 435L520 435L520 304L226 304L226 132L557 132Z"  horiz-adv-x="601" vert-adv-y="1000"  />

      
      <glyph glyph-name="unica" unicode="&#xca;" d="M244 760L91 760L229 913L401 913L539 760L386 760L315 839L244 760M557 132L557 0L74 0L74 718L550 718L550 586L226 586L226 435L520 435L520 304L226 304L226 132L557 132Z"  horiz-adv-x="601" vert-adv-y="1000"  />

      
      <glyph glyph-name="unicb" unicode="&#xcb;" d="M511 840Q511 805 487 782Q463 759 427 759Q389 759 364.50 782Q340 805 340 840Q340 877 364.50 899.50Q389 922 427 922Q463 922 487 899Q511 876 511 840M289 840Q289 804 265.50 781.50Q242 759 203 759Q167 759 143 782Q119 805 119 840Q119 876 143 899Q167 922 203 922Q242 922 265.50 899.50Q289 877 289 840M557 132L557 0L74 0L74 718L550 718L550 586L226 586L226 435L520 435L520 304L226 304L226 132L557 132Z"  horiz-adv-x="601" vert-adv-y="1000"  />

      
      <glyph glyph-name="unicc" unicode="&#xcc;" d="M220 760L75 760L-30 913L131 913L220 760M226 0L74 0L74 718L226 718L226 0Z"  horiz-adv-x="299" vert-adv-y="1000"  />

      
      <glyph glyph-name="unicd" unicode="&#xcd;" d="M225 760L81 760L171 913L331 913L225 760M226 0L74 0L74 718L226 718L226 0Z"  horiz-adv-x="299" vert-adv-y="1000"  />

      
      <glyph glyph-name="unice" unicode="&#xce;" d="M91 760L-62 760L63 913L239 913L362 760L210 760L151 839L91 760M226 0L74 0L74 718L226 718L226 0Z"  horiz-adv-x="299" vert-adv-y="1000"  />

      
      <glyph glyph-name="unicf" unicode="&#xcf;" d="M337 840Q337 805 314 782Q291 759 256 759Q219 759 195.50 782Q172 805 172 840Q172 877 195 899.50Q218 922 256 922Q292 922 314.50 899Q337 876 337 840M130 840Q130 805 106.50 782Q83 759 46 759Q11 759-12.50 782Q-36 805-36 840Q-36 876-13 899Q10 922 46 922Q84 922 107 899.50Q130 877 130 840M226 0L74 0L74 718L226 718L226 0Z"  horiz-adv-x="299" vert-adv-y="1000"  />

      
      <glyph glyph-name="unid0" unicode="&#xd0;" d="M359 0L103 0L103 308L6 308L6 431L103 431L103 718L359 718Q528 718 626.50 620Q725 522 725 363Q725 204 624.50 102Q524 0 359 0M399 308L255 308L255 131L351 131Q458 131 513.50 191Q569 251 569 363Q569 471 513 529Q457 587 351 587L255 587L255 431L399 431L399 308Z"  horiz-adv-x="756" vert-adv-y="1000"  />

      
      <glyph glyph-name="unid1" unicode="&#xd1;" d="M282 756L197 756Q186 826 215.50 869.50Q245 913 301 913Q338 913 387 888Q436 863 448 863Q483 863 480 920L566 920Q576 852 546 808Q516 764 460 764Q423 764 374.50 788.50Q326 813 314 813Q281 813 282 756M542 0L213 501L213 0L74 0L74 718L238 718L551 242L551 718L691 718L691 0L542 0Z"  horiz-adv-x="765" vert-adv-y="1000"  />

      
      <glyph glyph-name="unid2" unicode="&#xd2;" d="M469 760L325 760L208 913L369 913L469 760M399-15Q243-15 137.50 92Q32 199 32 360Q32 520 137.50 626.50Q243 733 399 733Q556 733 662 626.50Q768 520 768 360Q768 199 662 92Q556-15 399-15M245.50 189.50Q245.50 189.50 274.25 155.25Q303 121 399 121Q495 121 553 189.50Q611 258 611 360Q611 462 553.50 529.50Q496 597 399 597Q303 597 245.50 529.50Q188 462 188 360Q188 258 245.50 189.50Z"  horiz-adv-x="799" vert-adv-y="1000"  />

      
      <glyph glyph-name="unid3" unicode="&#xd3;" d="M474 760L330 760L430 913L590 913L474 760M399-15Q243-15 137.50 92Q32 199 32 360Q32 520 137.50 626.50Q243 733 399 733Q556 733 662 626.50Q768 520 768 360Q768 199 662 92Q556-15 399-15M245.50 189.50Q245.50 189.50 274.25 155.25Q303 121 399 121Q495 121 553 189.50Q611 258 611 360Q611 462 553.50 529.50Q496 597 399 597Q303 597 245.50 529.50Q188 462 188 360Q188 258 245.50 189.50Z"  horiz-adv-x="799" vert-adv-y="1000"  />

      
      <glyph glyph-name="unid4" unicode="&#xd4;" d="M329 760L176 760L314 913L486 913L623 760L471 760L399 839L329 760M399-15Q243-15 137.50 92Q32 199 32 360Q32 520 137.50 626.50Q243 733 399 733Q556 733 662 626.50Q768 520 768 360Q768 199 662 92Q556-15 399-15M245.50 189.50Q245.50 189.50 274.25 155.25Q303 121 399 121Q495 121 553 189.50Q611 258 611 360Q611 462 553.50 529.50Q496 597 399 597Q303 597 245.50 529.50Q188 462 188 360Q188 258 245.50 189.50Z"  horiz-adv-x="799" vert-adv-y="1000"  />

      
      <glyph glyph-name="unid5" unicode="&#xd5;" d="M300 756L215 756Q203 825 233 869Q263 913 318 913Q356 913 404.50 888Q453 863 465 863Q499 863 498 920L583 920Q593 852 563 808Q533 764 478 764Q441 764 392.50 788.50Q344 813 331 813Q297 813 300 756M399-15Q243-15 137.50 92Q32 199 32 360Q32 520 137.50 626.50Q243 733 399 733Q556 733 662 626.50Q768 520 768 360Q768 199 662 92Q556-15 399-15M245.50 189.50Q245.50 189.50 274.25 155.25Q303 121 399 121Q495 121 553 189.50Q611 258 611 360Q611 462 553.50 529.50Q496 597 399 597Q303 597 245.50 529.50Q188 462 188 360Q188 258 245.50 189.50Z"  horiz-adv-x="799" vert-adv-y="1000"  />

      
      <glyph glyph-name="unid6" unicode="&#xd6;" d="M595 840Q595 805 571 782Q547 759 511 759Q474 759 449.50 782Q425 805 425 840Q425 877 449 899.50Q473 922 511 922Q547 922 571 899Q595 876 595 840M374 840Q374 805 350 782Q326 759 288 759Q251 759 227 782Q203 805 203 840Q203 876 227 899Q251 922 288 922Q326 922 350 899.50Q374 877 374 840M399-15Q243-15 137.50 92Q32 199 32 360Q32 520 137.50 626.50Q243 733 399 733Q556 733 662 626.50Q768 520 768 360Q768 199 662 92Q556-15 399-15M245.50 189.50Q245.50 189.50 274.25 155.25Q303 121 399 121Q495 121 553 189.50Q611 258 611 360Q611 462 553.50 529.50Q496 597 399 597Q303 597 245.50 529.50Q188 462 188 360Q188 258 245.50 189.50Z"  horiz-adv-x="799" vert-adv-y="1000"  />

      
      <glyph glyph-name="unid7" unicode="&#xd7;" d="M171 99L91 181L248 338L91 496L171 578L329 419L486 577L569 497L410 338L568 181L486 100L329 257L171 99Z"  horiz-adv-x="660" vert-adv-y="1000"  />

      
      <glyph glyph-name="unid8" unicode="&#xd8;" d="M189 0L53 0L130 100Q32 206 32 360Q32 520 137.50 626.50Q243 733 399 733Q501 733 585 685L611 718L746 718L669 619Q768 514 768 360Q768 199 662 92Q556-15 399-15Q297-15 215 33L189 0M188 360Q188 281 224 220L498 573Q453 597 399 597Q303 597 245.50 529.50Q188 462 188 360M399 121Q495 121 553 189.50Q611 258 611 360Q611 440 576 498L301 145Q343 121 399 121Z"  horiz-adv-x="799" vert-adv-y="1000"  />

      
      <glyph glyph-name="unid9" unicode="&#xd9;" d="M437 760L293 760L176 913L337 913L437 760M663 718L663 273Q663 143 584.50 64Q506-15 368-15Q228-15 150 64Q72 143 72 273L72 718L224 718L224 270Q224 200 259.50 160.50Q295 121 368 121Q440 121 475.50 160.50Q511 200 511 270L511 718L663 718Z"  horiz-adv-x="734" vert-adv-y="1000"  />

      
      <glyph glyph-name="unida" unicode="&#xda;" d="M442 760L298 760L398 913L558 913L442 760M663 718L663 273Q663 143 584.50 64Q506-15 368-15Q228-15 150 64Q72 143 72 273L72 718L224 718L224 270Q224 200 259.50 160.50Q295 121 368 121Q440 121 475.50 160.50Q511 200 511 270L511 718L663 718Z"  horiz-adv-x="734" vert-adv-y="1000"  />

      
      <glyph glyph-name="unidb" unicode="&#xdb;" d="M297 760L144 760L282 913L454 913L591 760L439 760L368 839L297 760M663 718L663 273Q663 143 584.50 64Q506-15 368-15Q228-15 150 64Q72 143 72 273L72 718L224 718L224 270Q224 200 259.50 160.50Q295 121 368 121Q440 121 475.50 160.50Q511 200 511 270L511 718L663 718Z"  horiz-adv-x="734" vert-adv-y="1000"  />

      
      <glyph glyph-name="unidc" unicode="&#xdc;" d="M564 840Q564 805 540 782Q516 759 479 759Q442 759 417.50 782Q393 805 393 840Q393 877 417 899.50Q441 922 479 922Q516 922 540 899Q564 876 564 840M342 840Q342 805 318 782Q294 759 256 759Q220 759 196 782Q172 805 172 840Q172 876 196 899Q220 922 256 922Q294 922 318 899.50Q342 877 342 840M663 718L663 273Q663 143 584.50 64Q506-15 368-15Q228-15 150 64Q72 143 72 273L72 718L224 718L224 270Q224 200 259.50 160.50Q295 121 368 121Q440 121 475.50 160.50Q511 200 511 270L511 718L663 718Z"  horiz-adv-x="734" vert-adv-y="1000"  />

      
      <glyph glyph-name="unidd" unicode="&#xdd;" d="M416 760L272 760L372 913L532 913L416 760M412 270L412 0L260 0L260 270L6 718L170 718L341 409L515 718L668 718L412 270Z"  horiz-adv-x="674" vert-adv-y="1000"  />

      
      <glyph glyph-name="unide" unicode="&#xde;" d="M334 119L226 119L226 0L74 0L74 718L226 718L226 604L334 604Q467 604 542.50 542Q618 480 618 365Q618 248 542 183.50Q466 119 334 119M333 476L226 476L226 247L333 247Q397 247 432 278Q467 309 467 363Q467 417 432 446.50Q397 476 333 476Z"  horiz-adv-x="647" vert-adv-y="1000"  />

      
      <glyph glyph-name="unidf" unicode="&#xdf;" d="M611 209Q611 105 548 47.50Q485-10 372-10Q330-10 309-3L309 106Q338 101 362 101Q412 101 441 129.50Q470 158 470 207Q470 257 436.50 285.50Q403 314 344 314L309 314L309 426L333 426Q379 426 407.50 454Q436 482 436 528Q436 569 411.50 593.50Q387 618 346 618Q302 618 276.50 589.50Q251 561 251 512L251 0L113 0L113 415L5 415L5 534L114 534Q125 618 187 673Q249 728 348 728Q454 728 515.50 673.50Q577 619 577 538Q577 488 550 448Q523 408 477 386Q540 367 575.50 320.50Q611 274 611 209Z"  horiz-adv-x="636" vert-adv-y="1000"  />

      
      <glyph glyph-name="unie0" unicode="&#xe0;" d="M344 577L199 577L83 729L244 729L344 577M380 0L380 66Q327-10 219-10Q136-10 85 35Q34 80 34 155Q34 233 95.50 274Q157 315 274 315Q314 315 363 309L363 341Q363 386 339 411Q315 436 271 436Q226 436 200 411Q174 386 170 341L45 341Q51 433 112.50 488.50Q174 544 271 544Q376 544 434.50 489Q493 434 493 336L493 0L380 0M165 159Q165 125 187.50 105.50Q210 86 249 86Q302 86 332.50 113Q363 140 363 187L363 225Q317 232 283 232Q165 232 165 159Z"  horiz-adv-x="551" vert-adv-y="1000"  />

      
      <glyph glyph-name="unie1" unicode="&#xe1;" d="M349 577L204 577L305 729L465 729L349 577M380 0L380 66Q327-10 219-10Q136-10 85 35Q34 80 34 155Q34 233 95.50 274Q157 315 274 315Q314 315 363 309L363 341Q363 386 339 411Q315 436 271 436Q226 436 200 411Q174 386 170 341L45 341Q51 433 112.50 488.50Q174 544 271 544Q376 544 434.50 489Q493 434 493 336L493 0L380 0M165 159Q165 125 187.50 105.50Q210 86 249 86Q302 86 332.50 113Q363 140 363 187L363 225Q317 232 283 232Q165 232 165 159Z"  horiz-adv-x="551" vert-adv-y="1000"  />

      
      <glyph glyph-name="unie2" unicode="&#xe2;" d="M203 577L50 577L188 729L360 729L498 577L346 577L274 656L203 577M380 0L380 66Q327-10 219-10Q136-10 85 35Q34 80 34 155Q34 233 95.50 274Q157 315 274 315Q314 315 363 309L363 341Q363 386 339 411Q315 436 271 436Q226 436 200 411Q174 386 170 341L45 341Q51 433 112.50 488.50Q174 544 271 544Q376 544 434.50 489Q493 434 493 336L493 0L380 0M165 159Q165 125 187.50 105.50Q210 86 249 86Q302 86 332.50 113Q363 140 363 187L363 225Q317 232 283 232Q165 232 165 159Z"  horiz-adv-x="551" vert-adv-y="1000"  />

      
      <glyph glyph-name="unie3" unicode="&#xe3;" d="M174 573L89 573Q78 642 108 685.50Q138 729 193 729Q230 729 279 704.50Q328 680 340 680Q375 680 372 736L457 736Q468 668 437.50 624Q407 580 352 580Q315 580 266.50 604.50Q218 629 206 629Q171 629 174 573M380 0L380 66Q327-10 219-10Q136-10 85 35Q34 80 34 155Q34 233 95.50 274Q157 315 274 315Q314 315 363 309L363 341Q363 386 339 411Q315 436 271 436Q226 436 200 411Q174 386 170 341L45 341Q51 433 112.50 488.50Q174 544 271 544Q376 544 434.50 489Q493 434 493 336L493 0L380 0M165 159Q165 125 187.50 105.50Q210 86 249 86Q302 86 332.50 113Q363 140 363 187L363 225Q317 232 283 232Q165 232 165 159Z"  horiz-adv-x="551" vert-adv-y="1000"  />

      
      <glyph glyph-name="unie4" unicode="&#xe4;" d="M470 656Q470 621 446 598.50Q422 576 386 576Q348 576 324 598.50Q300 621 300 656Q300 693 324 715.50Q348 738 386 738Q422 738 446 715Q470 692 470 656M248 656Q248 621 224.50 598.50Q201 576 162 576Q126 576 102 598.50Q78 621 78 656Q78 692 102 715Q126 738 162 738Q201 738 224.50 715.50Q248 693 248 656M380 0L380 66Q327-10 219-10Q136-10 85 35Q34 80 34 155Q34 233 95.50 274Q157 315 274 315Q314 315 363 309L363 341Q363 386 339 411Q315 436 271 436Q226 436 200 411Q174 386 170 341L45 341Q51 433 112.50 488.50Q174 544 271 544Q376 544 434.50 489Q493 434 493 336L493 0L380 0M165 159Q165 125 187.50 105.50Q210 86 249 86Q302 86 332.50 113Q363 140 363 187L363 225Q317 232 283 232Q165 232 165 159Z"  horiz-adv-x="551" vert-adv-y="1000"  />

      
      <glyph glyph-name="unie5" unicode="&#xe5;" d="M274 572Q215 572 177 608Q139 644 139 695Q139 747 177 783Q215 819 274 819Q332 819 371 783Q410 747 410 695Q410 644 371 608Q332 572 274 572M274 642Q298 642 313 655.50Q328 669 328 695Q328 721 313 735Q298 749 274 749Q251 749 235 735Q219 721 219 695Q219 669 235 655.50Q251 642 274 642M380 0L380 66Q327-10 219-10Q136-10 85 35Q34 80 34 155Q34 233 95.50 274Q157 315 274 315Q314 315 363 309L363 341Q363 386 339 411Q315 436 271 436Q226 436 200 411Q174 386 170 341L45 341Q51 433 112.50 488.50Q174 544 271 544Q376 544 434.50 489Q493 434 493 336L493 0L380 0M165 159Q165 125 187.50 105.50Q210 86 249 86Q302 86 332.50 113Q363 140 363 187L363 225Q317 232 283 232Q165 232 165 159Z"  horiz-adv-x="551" vert-adv-y="1000"  />

      
      <glyph glyph-name="unie6" unicode="&#xe6;" d="M34 154Q34 231 95.50 272.50Q157 314 272 314Q326 314 363 309L363 340Q363 386 338.50 411Q314 436 270 436Q226 436 199 411Q172 386 171 341L46 341Q51 429 113.50 486.50Q176 544 269 544Q390 544 439 465Q503 544 610 544Q731 544 797 459Q863 374 848 235L489 235Q492 99 605 99Q693 99 707 181L847 181Q828 91 765.50 41Q703-9 611-9Q477-9 414 98Q356-10 226-10Q140-10 87 35.50Q34 81 34 154M601 442Q556 442 526 411Q496 380 492 323L706 323Q704 380 677 411Q650 442 601 442M165 158Q165 125 187.50 105.50Q210 86 249 86Q301 86 332 115.50Q363 145 363 195L363 225Q331 230 280 230Q165 230 165 158Z"  horiz-adv-x="879" vert-adv-y="1000"  />

      
      <glyph glyph-name="unie7" unicode="&#xe7;" d="M401-113Q401-150 366.50-174Q332-198 279-198Q224-198 190-173Q156-148 150-102L236-102Q242-133 274-133Q289-133 298-125Q307-117 307-105Q307-61 230-69L246-7Q147 7 87 81.50Q27 156 27 267Q27 387 100.50 465.50Q174 544 287 544Q391 544 462 479Q533 414 546 306L400 306Q395 359 364.50 390Q334 421 287 421Q233 421 201 379.50Q169 338 169 267Q169 195 200.50 154Q232 113 287 113Q335 113 364.50 143Q394 173 400 228L546 228Q535 125 473 62Q411-1 314-9L307-32Q349-37 375-59Q401-81 401-113Z"  horiz-adv-x="573" vert-adv-y="1000"  />

      
      <glyph glyph-name="unie8" unicode="&#xe8;" d="M355 577L211 577L95 729L256 729L355 577M294-9Q174-9 100.50 67.50Q27 144 27 269Q27 388 102 466Q177 544 292 544Q419 544 493 454Q567 364 548 233L169 233Q183 98 291 98Q384 98 409 181L547 181Q525 90 458.50 40.50Q392-9 294-9M289 442Q189 442 171 321L401 321Q398 377 368 409.50Q338 442 289 442Z"  horiz-adv-x="579" vert-adv-y="1000"  />

      
      <glyph glyph-name="unie9" unicode="&#xe9;" d="M360 577L216 577L316 729L477 729L360 577M294-9Q174-9 100.50 67.50Q27 144 27 269Q27 388 102 466Q177 544 292 544Q419 544 493 454Q567 364 548 233L169 233Q183 98 291 98Q384 98 409 181L547 181Q525 90 458.50 40.50Q392-9 294-9M289 442Q189 442 171 321L401 321Q398 377 368 409.50Q338 442 289 442Z"  horiz-adv-x="579" vert-adv-y="1000"  />

      
      <glyph glyph-name="uniea" unicode="&#xea;" d="M215 577L62 577L200 729L372 729L509 577L357 577L286 656L215 577M294-9Q174-9 100.50 67.50Q27 144 27 269Q27 388 102 466Q177 544 292 544Q419 544 493 454Q567 364 548 233L169 233Q183 98 291 98Q384 98 409 181L547 181Q525 90 458.50 40.50Q392-9 294-9M289 442Q189 442 171 321L401 321Q398 377 368 409.50Q338 442 289 442Z"  horiz-adv-x="579" vert-adv-y="1000"  />

      
      <glyph glyph-name="unieb" unicode="&#xeb;" d="M482 656Q482 621 458 598.50Q434 576 397 576Q359 576 335 598.50Q311 621 311 656Q311 693 335 715.50Q359 738 397 738Q434 738 458 715Q482 692 482 656M260 656Q260 621 236.50 598.50Q213 576 174 576Q138 576 114 598.50Q90 621 90 656Q90 692 114 715Q138 738 174 738Q213 738 236.50 715.50Q260 693 260 656M294-9Q174-9 100.50 67.50Q27 144 27 269Q27 388 102 466Q177 544 292 544Q419 544 493 454Q567 364 548 233L169 233Q183 98 291 98Q384 98 409 181L547 181Q525 90 458.50 40.50Q392-9 294-9M289 442Q189 442 171 321L401 321Q398 377 368 409.50Q338 442 289 442Z"  horiz-adv-x="579" vert-adv-y="1000"  />

      
      <glyph glyph-name="uniec" unicode="&#xec;" d="M201 577L55 577L-49 729L111 729L201 577M201 0L62 0L62 534L201 534L201 0Z"  horiz-adv-x="263" vert-adv-y="1000"  />

      
      <glyph glyph-name="unied" unicode="&#xed;" d="M206 577L61 577L152 729L311 729L206 577M201 0L62 0L62 534L201 534L201 0Z"  horiz-adv-x="263" vert-adv-y="1000"  />

      
      <glyph glyph-name="uniee" unicode="&#xee;" d="M71 577L-82 577L43 729L219 729L343 577L191 577L131 656L71 577M201 0L62 0L62 534L201 534L201 0Z"  horiz-adv-x="263" vert-adv-y="1000"  />

      
      <glyph glyph-name="unief" unicode="&#xef;" d="M317 656Q317 621 294 598.50Q271 576 236 576Q199 576 175.50 598.50Q152 621 152 656Q152 693 175 715.50Q198 738 236 738Q272 738 294.50 715Q317 692 317 656M110 656Q110 620 87 598Q64 576 26 576Q-9 576-32 598.50Q-55 621-55 656Q-55 692-32.50 715Q-10 738 26 738Q64 738 87 715.50Q110 693 110 656M201 0L62 0L62 534L201 534L201 0Z"  horiz-adv-x="263" vert-adv-y="1000"  />

      
      <glyph glyph-name="unif0" unicode="&#xf0;" d="M27 264Q27 379 94 452Q161 525 274 525Q298 525 315 516L263 583L131 545L131 635L205 659L160 718L316 718L337 692L478 731L478 641L395 615L472 514Q522 449 542 394Q562 339 562 261Q562 151 486 70.50Q410-10 295-10Q178-10 102.50 69Q27 148 27 264M169 265Q169 194 205 154Q241 114 294 114Q347 114 382.50 153.50Q418 193 418 263Q418 336 382.50 377Q347 418 294 418Q240 418 204.50 377.50Q169 337 169 265Z"  horiz-adv-x="589" vert-adv-y="1000"  />

      
      <glyph glyph-name="unif1" unicode="&#xf1;" d="M197 573L112 573Q101 642 131 685.50Q161 729 216 729Q253 729 302 704.50Q351 680 363 680Q396 680 395 736L480 736Q491 668 460.50 624Q430 580 375 580Q338 580 289.50 604.50Q241 629 229 629Q194 629 197 573M201 291L201 0L62 0L62 534L190 534L190 458Q253 544 354 544Q436 544 485.50 492Q535 440 535 345L535 0L397 0L397 298Q397 421 303 421Q259 421 230 387Q201 353 201 291Z"  horiz-adv-x="593" vert-adv-y="1000"  />

      
      <glyph glyph-name="unif2" unicode="&#xf2;" d="M368 577L223 577L107 729L268 729L368 577M491.50 70Q491.50 70 452.75 30Q414-10 298-10Q182-10 104.50 70Q27 150 27 267Q27 384 104.50 464Q182 544 298 544Q414 544 491.50 464Q569 384 569 267Q569 150 491.50 70M207 154Q207 154 225.50 133.50Q244 113 298 113Q352 113 389 154Q426 195 426 267Q426 338 389 379Q352 420 298 420Q244 420 207 379Q170 338 170 267Q170 195 207 154Z"  horiz-adv-x="596" vert-adv-y="1000"  />

      
      <glyph glyph-name="unif3" unicode="&#xf3;" d="M373 577L228 577L329 729L489 729L373 577M491.50 70Q491.50 70 452.75 30Q414-10 298-10Q182-10 104.50 70Q27 150 27 267Q27 384 104.50 464Q182 544 298 544Q414 544 491.50 464Q569 384 569 267Q569 150 491.50 70M207 154Q207 154 225.50 133.50Q244 113 298 113Q352 113 389 154Q426 195 426 267Q426 338 389 379Q352 420 298 420Q244 420 207 379Q170 338 170 267Q170 195 207 154Z"  horiz-adv-x="596" vert-adv-y="1000"  />

      
      <glyph glyph-name="unif4" unicode="&#xf4;" d="M227 577L74 577L213 729L384 729L522 577L370 577L298 656L227 577M491.50 70Q491.50 70 452.75 30Q414-10 298-10Q182-10 104.50 70Q27 150 27 267Q27 384 104.50 464Q182 544 298 544Q414 544 491.50 464Q569 384 569 267Q569 150 491.50 70M207 154Q207 154 225.50 133.50Q244 113 298 113Q352 113 389 154Q426 195 426 267Q426 338 389 379Q352 420 298 420Q244 420 207 379Q170 338 170 267Q170 195 207 154Z"  horiz-adv-x="596" vert-adv-y="1000"  />

      
      <glyph glyph-name="unif5" unicode="&#xf5;" d="M198 573L113 573Q102 642 132 685.50Q162 729 217 729Q254 729 303 704.50Q352 680 364 680Q399 680 396 736L481 736Q492 668 461.50 624Q431 580 376 580Q339 580 290.50 604.50Q242 629 230 629Q197 629 198 573M491.50 70Q491.50 70 452.75 30Q414-10 298-10Q182-10 104.50 70Q27 150 27 267Q27 384 104.50 464Q182 544 298 544Q414 544 491.50 464Q569 384 569 267Q569 150 491.50 70M207 154Q207 154 225.50 133.50Q244 113 298 113Q352 113 389 154Q426 195 426 267Q426 338 389 379Q352 420 298 420Q244 420 207 379Q170 338 170 267Q170 195 207 154Z"  horiz-adv-x="596" vert-adv-y="1000"  />

      
      <glyph glyph-name="unif6" unicode="&#xf6;" d="M494 656Q494 621 470 598.50Q446 576 410 576Q372 576 348 598.50Q324 621 324 656Q324 693 348 715.50Q372 738 410 738Q446 738 470 715Q494 692 494 656M272 656Q272 621 248.50 598.50Q225 576 187 576Q150 576 126 598.50Q102 621 102 656Q102 692 126 715Q150 738 187 738Q225 738 248.50 715.50Q272 693 272 656M491.50 70Q491.50 70 452.75 30Q414-10 298-10Q182-10 104.50 70Q27 150 27 267Q27 384 104.50 464Q182 544 298 544Q414 544 491.50 464Q569 384 569 267Q569 150 491.50 70M207 154Q207 154 225.50 133.50Q244 113 298 113Q352 113 389 154Q426 195 426 267Q426 338 389 379Q352 420 298 420Q244 420 207 379Q170 338 170 267Q170 195 207 154Z"  horiz-adv-x="596" vert-adv-y="1000"  />

      
      <glyph glyph-name="unif7" unicode="&#xf7;" d="M423 531Q423 490 397 463.50Q371 437 330 437Q289 437 262.50 463.50Q236 490 236 531Q236 573 262.50 599.50Q289 626 330 626Q371 626 397 599.50Q423 573 423 531M580 281L80 281L80 401L580 401L580 281M423 154Q423 113 397 86.50Q371 60 330 60Q289 60 262.50 86.50Q236 113 236 154Q236 196 262.50 222.50Q289 249 330 249Q371 249 397 222.50Q423 196 423 154Z"  horiz-adv-x="660" vert-adv-y="1000"  />

      
      <glyph glyph-name="unif8" unicode="&#xf8;" d="M153 0L48 0L102 73Q27 153 27 267Q27 384 104.50 464Q182 544 298 544Q370 544 428 512L444 534L550 534L495 460Q569 381 569 267Q569 150 491.50 70Q414-10 298-10Q227-10 169 22L153 0M170 267Q170 223 186 186L351 408Q327 420 298 420Q244 420 207 379Q170 338 170 267M298 113Q352 113 389 154Q426 195 426 267Q426 311 410 346L246 125Q270 113 298 113Z"  horiz-adv-x="596" vert-adv-y="1000"  />

      
      <glyph glyph-name="unif9" unicode="&#xf9;" d="M363 577L219 577L102 729L263 729L363 577M387 225L387 534L525 534L525 0L398 0L398 70Q376 34 334 12Q292-10 242-10Q158-10 107.50 41.50Q57 93 57 194L57 534L196 534L196 221Q196 113 289 113Q329 113 358 143Q387 173 387 225Z"  horiz-adv-x="588" vert-adv-y="1000"  />

      
      <glyph glyph-name="unifa" unicode="&#xfa;" d="M368 577L224 577L324 729L484 729L368 577M387 225L387 534L525 534L525 0L398 0L398 70Q376 34 334 12Q292-10 242-10Q158-10 107.50 41.50Q57 93 57 194L57 534L196 534L196 221Q196 113 289 113Q329 113 358 143Q387 173 387 225Z"  horiz-adv-x="588" vert-adv-y="1000"  />

      
      <glyph glyph-name="unifb" unicode="&#xfb;" d="M223 577L70 577L208 729L379 729L517 577L365 577L293 656L223 577M387 225L387 534L525 534L525 0L398 0L398 70Q376 34 334 12Q292-10 242-10Q158-10 107.50 41.50Q57 93 57 194L57 534L196 534L196 221Q196 113 289 113Q329 113 358 143Q387 173 387 225Z"  horiz-adv-x="588" vert-adv-y="1000"  />

      
      <glyph glyph-name="unifc" unicode="&#xfc;" d="M489 656Q489 621 465 598.50Q441 576 405 576Q367 576 343 598.50Q319 621 319 656Q319 693 343 715.50Q367 738 405 738Q441 738 465 715Q489 692 489 656M268 656Q268 621 244 598.50Q220 576 182 576Q145 576 121 598.50Q97 621 97 656Q97 692 121 715Q145 738 182 738Q220 738 244 715.50Q268 693 268 656M387 225L387 534L525 534L525 0L398 0L398 70Q376 34 334 12Q292-10 242-10Q158-10 107.50 41.50Q57 93 57 194L57 534L196 534L196 221Q196 113 289 113Q329 113 358 143Q387 173 387 225Z"  horiz-adv-x="588" vert-adv-y="1000"  />

      
      <glyph glyph-name="unifd" unicode="&#xfd;" d="M346 577L202 577L302 729L462 729L346 577M543 534L283-193L132-193L208 6L-2 534L148 534L282 168L404 534L543 534Z"  horiz-adv-x="542" vert-adv-y="1000"  />

      
      <glyph glyph-name="unife" unicode="&#xfe;" d="M529.50 465.50Q529.50 465.50 562.25 426.25Q595 387 595 267Q595 147 529.50 68.50Q464-10 358-10Q262-10 201 69L201-193L62-193L62 718L201 718L201 466Q262 544 358 544Q464 544 529.50 465.50M452 267Q452 339 416 380Q380 421 327 421Q273 421 237.50 380.50Q202 340 202 267Q202 194 237.50 154Q273 114 327 114Q381 114 416.50 154Q452 194 452 267Z"  horiz-adv-x="622" vert-adv-y="1000"  />

      
      <glyph glyph-name="uniff" unicode="&#xff;" d="M468 656Q468 621 444 598.50Q420 576 383 576Q345 576 321 598.50Q297 621 297 656Q297 693 321 715.50Q345 738 383 738Q420 738 444 715Q468 692 468 656M246 656Q246 621 222 598.50Q198 576 160 576Q124 576 100 598.50Q76 621 76 656Q76 692 100 715Q124 738 160 738Q198 738 222 715.50Q246 693 246 656M543 534L283-193L132-193L208 6L-2 534L148 534L282 168L404 534L543 534Z"  horiz-adv-x="542" vert-adv-y="1000"  />

      
      <glyph glyph-name="uni0100" unicode="&#x0100;" d="M530 773L202 773L202 863L530 863L530 773M554 0L500 154L221 154L166 0L13 0L283 718L449 718L717 0L554 0M362 552L264 275L458 275L362 552Z"  horiz-adv-x="730" vert-adv-y="1000"  />

      
      <glyph glyph-name="uni0101" unicode="&#x0101;" d="M438 589L110 589L110 680L438 680L438 589M380 0L380 66Q327-10 219-10Q136-10 85 35Q34 80 34 155Q34 233 95.50 274Q157 315 274 315Q314 315 363 309L363 341Q363 386 339 411Q315 436 271 436Q226 436 200 411Q174 386 170 341L45 341Q51 433 112.50 488.50Q174 544 271 544Q376 544 434.50 489Q493 434 493 336L493 0L380 0M165 159Q165 125 187.50 105.50Q210 86 249 86Q302 86 332.50 113Q363 140 363 187L363 225Q317 232 283 232Q165 232 165 159Z"  horiz-adv-x="551" vert-adv-y="1000"  />

      
      <glyph glyph-name="uni0102" unicode="&#x0102;" d="M441 913L539 913Q539 841 492.50 798.50Q446 756 366 756Q285 756 238.50 798.50Q192 841 192 913L290 913Q290 881 310.50 862.50Q331 844 366 844Q401 844 421 862.50Q441 881 441 913M554 0L500 154L221 154L166 0L13 0L283 718L449 718L717 0L554 0M362 552L264 275L458 275L362 552Z"  horiz-adv-x="730" vert-adv-y="1000"  />

      
      <glyph glyph-name="uni0103" unicode="&#x0103;" d="M349 729L447 729Q447 657 400.50 614.50Q354 572 274 572Q193 572 146.50 614.50Q100 657 100 729L199 729Q199 697 219 678.50Q239 660 274 660Q309 660 329 678.50Q349 697 349 729M380 0L380 66Q327-10 219-10Q136-10 85 35Q34 80 34 155Q34 233 95.50 274Q157 315 274 315Q314 315 363 309L363 341Q363 386 339 411Q315 436 271 436Q226 436 200 411Q174 386 170 341L45 341Q51 433 112.50 488.50Q174 544 271 544Q376 544 434.50 489Q493 434 493 336L493 0L380 0M165 159Q165 125 187.50 105.50Q210 86 249 86Q302 86 332.50 113Q363 140 363 187L363 225Q317 232 283 232Q165 232 165 159Z"  horiz-adv-x="551" vert-adv-y="1000"  />

      
      <glyph glyph-name="uni0104" unicode="&#x0104;" d="M666-95L666-187Q635-197 600-197Q548-197 515-170.50Q482-144 482-95Q482-39 547 21L500 154L221 154L166 0L13 0L283 718L449 718L717 0L613 0Q589-27 589-56Q589-78 601-90Q613-102 633-102Q649-102 666-95M362 552L264 275L458 275L362 552Z"  horiz-adv-x="730" vert-adv-y="1000"  />

      
      <glyph glyph-name="uni0105" unicode="&#x0105;" d="M493-95L493-187Q460-197 427-197Q375-197 341.50-170.50Q308-144 308-95Q308-38 380 28L380 66Q327-10 219-10Q136-10 85 35Q34 80 34 155Q34 233 95.50 274Q157 315 274 315Q314 315 363 309L363 341Q363 386 339 411Q315 436 271 436Q226 436 200 411Q174 386 170 341L45 341Q51 433 112.50 488.50Q174 544 271 544Q376 544 434.50 489Q493 434 493 336L493 0L440 0Q416-27 416-56Q416-78 427.50-90Q439-102 459-102Q476-102 493-95M165 159Q165 125 187.50 105.50Q210 86 249 86Q302 86 332.50 113Q363 140 363 187L363 225Q317 232 283 232Q165 232 165 159Z"  horiz-adv-x="551" vert-adv-y="1000"  />

      
      <glyph glyph-name="uni0106" unicode="&#x0106;" d="M467 760L323 760L423 913L583 913L467 760M392-15Q240-15 136 93.50Q32 202 32 360Q32 517 136 625Q240 733 392 733Q534 733 634.50 647Q735 561 754 423L593 423Q580 500 525 548.50Q470 597 394 597Q302 597 245 531Q188 465 188 360Q188 254 245 187.50Q302 121 394 121Q470 121 524.50 169.50Q579 218 593 296L754 296Q735 157 634.50 71Q534-15 392-15Z"  horiz-adv-x="786" vert-adv-y="1000"  />

      
      <glyph glyph-name="uni0107" unicode="&#x0107;" d="M360 577L216 577L316 729L476 729L360 577M287-10Q172-10 99.50 67.50Q27 145 27 267Q27 387 100.50 465.50Q174 544 287 544Q391 544 462 479Q533 414 546 306L400 306Q395 359 364.50 390Q334 421 287 421Q233 421 201 379.50Q169 338 169 267Q169 195 200.50 154Q232 113 287 113Q335 113 364.50 143Q394 173 400 228L546 228Q534 118 464 54Q394-10 287-10Z"  horiz-adv-x="573" vert-adv-y="1000"  />

      
      <glyph glyph-name="uni010C" unicode="&#x010C;" d="M479 760L307 760L169 913L322 913L392 834L464 913L616 913L479 760M392-15Q240-15 136 93.50Q32 202 32 360Q32 517 136 625Q240 733 392 733Q534 733 634.50 647Q735 561 754 423L593 423Q580 500 525 548.50Q470 597 394 597Q302 597 245 531Q188 465 188 360Q188 254 245 187.50Q302 121 394 121Q470 121 524.50 169.50Q579 218 593 296L754 296Q735 157 634.50 71Q534-15 392-15Z"  horiz-adv-x="786" vert-adv-y="1000"  />

      
      <glyph glyph-name="uni010D" unicode="&#x010D;" d="M371 577L200 577L62 729L215 729L285 650L357 729L509 729L371 577M287-10Q172-10 99.50 67.50Q27 145 27 267Q27 387 100.50 465.50Q174 544 287 544Q391 544 462 479Q533 414 546 306L400 306Q395 359 364.50 390Q334 421 287 421Q233 421 201 379.50Q169 338 169 267Q169 195 200.50 154Q232 113 287 113Q335 113 364.50 143Q394 173 400 228L546 228Q534 118 464 54Q394-10 287-10Z"  horiz-adv-x="573" vert-adv-y="1000"  />

      
      <glyph glyph-name="uni010E" unicode="&#x010E;" d="M448 760L276 760L138 913L291 913L362 834L433 913L586 913L448 760M329 0L74 0L74 718L329 718Q498 718 596.50 620Q695 522 695 363Q695 204 594.50 102Q494 0 329 0M226 587L226 131L321 131Q428 131 483.50 191Q539 251 539 363Q539 471 483.50 529Q428 587 321 587L226 587Z"  horiz-adv-x="727" vert-adv-y="1000"  />

      
      <glyph glyph-name="uni010F" unicode="&#x010F;" d="M27 267Q27 387 92.50 465.50Q158 544 264 544Q360 544 422 465L422 718L560 718L560 0L433 0L433 77Q368-10 264-10Q158-10 92.50 69Q27 148 27 267M684 564L593 564L593 718L708 718L684 564M170 267Q170 195 205.50 154.50Q241 114 295 114Q349 114 385 155Q421 196 421 269Q421 342 385 381.50Q349 421 295 421Q241 421 205.50 380.50Q170 340 170 267Z"  horiz-adv-x="622" vert-adv-y="1000"  />

      
      <glyph glyph-name="uni0110" unicode="&#x0110;" d="M359 0L103 0L103 308L6 308L6 431L103 431L103 718L359 718Q528 718 626.50 620Q725 522 725 363Q725 204 624.50 102Q524 0 359 0M399 308L255 308L255 131L351 131Q458 131 513.50 191Q569 251 569 363Q569 471 513 529Q457 587 351 587L255 587L255 431L399 431L399 308Z"  horiz-adv-x="756" vert-adv-y="1000"  />

      
      <glyph glyph-name="uni0111" unicode="&#x0111;" d="M27 267Q27 387 92.50 465.50Q158 544 264 544Q360 544 422 465L422 588L278 588L278 678L422 678L422 718L560 718L560 678L637 678L637 588L560 588L560 0L433 0L433 77Q368-10 264-10Q158-10 92.50 69Q27 148 27 267M170 267Q170 195 205.50 154.50Q241 114 295 114Q349 114 385 155Q421 196 421 269Q421 342 385 381.50Q349 421 295 421Q241 421 205.50 380.50Q170 340 170 267Z"  horiz-adv-x="622" vert-adv-y="1000"  />

      
      <glyph glyph-name="uni0112" unicode="&#x0112;" d="M479 773L151 773L151 863L479 863L479 773M557 132L557 0L74 0L74 718L550 718L550 586L226 586L226 435L520 435L520 304L226 304L226 132L557 132Z"  horiz-adv-x="601" vert-adv-y="1000"  />

      
      <glyph glyph-name="uni0113" unicode="&#x0113;" d="M450 589L122 589L122 680L450 680L450 589M294-9Q174-9 100.50 67.50Q27 144 27 269Q27 388 102 466Q177 544 292 544Q419 544 493 454Q567 364 548 233L169 233Q183 98 291 98Q384 98 409 181L547 181Q525 90 458.50 40.50Q392-9 294-9M289 442Q189 442 171 321L401 321Q398 377 368 409.50Q338 442 289 442Z"  horiz-adv-x="579" vert-adv-y="1000"  />

      
      <glyph glyph-name="uni0116" unicode="&#x0116;" d="M381 901.50Q381 901.50 394 889.75Q407 878 407 842Q407 806 381 782.50Q355 759 314 759Q274 759 248 782.50Q222 806 222 842Q222 878 248 901.50Q274 925 314 925Q355 925 381 901.50M557 132L557 0L74 0L74 718L550 718L550 586L226 586L226 435L520 435L520 304L226 304L226 132L557 132Z"  horiz-adv-x="601" vert-adv-y="1000"  />

      
      <glyph glyph-name="uni0117" unicode="&#x0117;" d="M378 658Q378 622 352 599Q326 576 285 576Q244 576 218 599Q192 622 192 658Q192 695 218 718.50Q244 742 285 742Q326 742 352 718.50Q378 695 378 658M294-9Q174-9 100.50 67.50Q27 144 27 269Q27 388 102 466Q177 544 292 544Q419 544 493 454Q567 364 548 233L169 233Q183 98 291 98Q384 98 409 181L547 181Q525 90 458.50 40.50Q392-9 294-9M289 442Q189 442 171 321L401 321Q398 377 368 409.50Q338 442 289 442Z"  horiz-adv-x="579" vert-adv-y="1000"  />

      
      <glyph glyph-name="uni0118" unicode="&#x0118;" d="M520-95L520-187Q489-197 454-197Q402-197 369-170.50Q336-144 336-95Q336-47 380 0L74 0L74 718L550 718L550 586L226 586L226 435L520 435L520 304L226 304L226 132L557 132L557 0L467 0Q443-27 443-56Q443-78 455-90Q467-102 487-102Q503-102 520-95Z"  horiz-adv-x="601" vert-adv-y="1000"  />

      
      <glyph glyph-name="uni0119" unicode="&#x0119;" d="M294-9Q174-9 100.50 67.50Q27 144 27 269Q27 388 102 466Q177 544 292 544Q419 544 493 454Q567 364 548 233L169 233Q183 98 291 98Q384 98 409 181L547 181Q520 70 427 21Q381-16 381-56Q381-78 393-90Q405-102 425-102Q441-102 458-95L458-187Q427-197 392-197Q340-197 307-170.50Q274-144 274-95Q274-51 310-9L294-9M289 442Q189 442 171 321L401 321Q398 377 368 409.50Q338 442 289 442Z"  horiz-adv-x="579" vert-adv-y="1000"  />

      
      <glyph glyph-name="uni011A" unicode="&#x011A;" d="M401 760L229 760L91 913L244 913L315 834L386 913L539 913L401 760M557 132L557 0L74 0L74 718L550 718L550 586L226 586L226 435L520 435L520 304L226 304L226 132L557 132Z"  horiz-adv-x="601" vert-adv-y="1000"  />

      
      <glyph glyph-name="uni011B" unicode="&#x011B;" d="M372 577L200 577L62 729L215 729L286 650L357 729L509 729L372 577M294-9Q174-9 100.50 67.50Q27 144 27 269Q27 388 102 466Q177 544 292 544Q419 544 493 454Q567 364 548 233L169 233Q183 98 291 98Q384 98 409 181L547 181Q525 90 458.50 40.50Q392-9 294-9M289 442Q189 442 171 321L401 321Q398 377 368 409.50Q338 442 289 442Z"  horiz-adv-x="579" vert-adv-y="1000"  />

      
      <glyph glyph-name="uni011E" unicode="&#x011E;" d="M471 913L569 913Q569 841 522.50 798.50Q476 756 396 756Q315 756 268.50 798.50Q222 841 222 913L321 913Q321 881 341 862.50Q361 844 396 844Q431 844 451 862.50Q471 881 471 913M402-15Q244-15 138 91Q32 197 32 362Q32 521 135.50 627Q239 733 396 733Q530 733 624.50 661Q719 589 755 469L576 469Q559 526 510.50 561.50Q462 597 392 597Q302 597 245 533.50Q188 470 188 358Q188 251 246 182.50Q304 114 409 114Q486 114 536 155.50Q586 197 602 266L394 266L394 387L764 387Q771 210 671.50 97.50Q572-15 402-15Z"  horiz-adv-x="796" vert-adv-y="1000"  />

      
      <glyph glyph-name="uni011F" unicode="&#x011F;" d="M366 729L464 729Q464 657 417.50 614.50Q371 572 291 572Q210 572 163 614.50Q116 657 116 729L215 729Q215 697 235.50 678.50Q256 660 291 660Q326 660 346 678.50Q366 697 366 729M289-203Q181-203 114-148.50Q47-94 43-2L177-2Q186-95 288-95Q405-95 405 23L405 101Q383 63 344 41.50Q305 20 256 20Q158 20 92.50 94.50Q27 169 27 282Q27 398 89.50 471Q152 544 251 544Q357 544 416 461L416 534L543 534L543 25Q543-81 475.50-142Q408-203 289-203M198 385.50Q198 385.50 182 366.25Q166 347 166 282Q166 217 197.50 178.50Q229 140 283 140Q338 140 371 179Q404 218 404 281Q404 346 371 385Q338 424 283 424Q230 424 198 385.50Z"  horiz-adv-x="606" vert-adv-y="1000"  />

      
      <glyph glyph-name="uni0122" unicode="&#x0122;" d="M402-15Q244-15 138 91Q32 197 32 362Q32 521 135.50 627Q239 733 396 733Q530 733 624.50 661Q719 589 755 469L576 469Q559 526 510.50 561.50Q462 597 392 597Q302 597 245 533.50Q188 470 188 358Q188 251 246 182.50Q304 114 409 114Q486 114 536 155.50Q586 197 602 266L394 266L394 387L764 387Q771 210 671.50 97.50Q572-15 402-15M475-114Q475-169 426-203Q377-237 308-228L308-176Q386-186 399-142Q366-150 341.50-135.50Q317-121 317-94Q317-68 337-52Q357-36 391-36Q428-36 451.50-57.50Q475-79 475-114Z"  horiz-adv-x="796" vert-adv-y="1000"  />

      
      <glyph glyph-name="uni0123" unicode="&#x0123;" d="M211 648Q211 704 260 737.50Q309 771 379 762L379 711Q299 719 287 676Q298 679 309 679Q335 679 352 664.50Q369 650 369 628Q369 602 349 586.50Q329 571 295 571Q258 571 234.50 592.50Q211 614 211 648M289-203Q181-203 114-148.50Q47-94 43-2L177-2Q186-95 288-95Q405-95 405 23L405 101Q383 63 344 41.50Q305 20 256 20Q158 20 92.50 94.50Q27 169 27 282Q27 398 89.50 471Q152 544 251 544Q357 544 416 461L416 534L543 534L543 25Q543-81 475.50-142Q408-203 289-203M198 385.50Q198 385.50 182 366.25Q166 347 166 282Q166 217 197.50 178.50Q229 140 283 140Q338 140 371 179Q404 218 404 281Q404 346 371 385Q338 424 283 424Q230 424 198 385.50Z"  horiz-adv-x="606" vert-adv-y="1000"  />

      
      <glyph glyph-name="uni012A" unicode="&#x012A;" d="M315 773L-13 773L-13 863L315 863L315 773M226 0L74 0L74 718L226 718L226 0Z"  horiz-adv-x="299" vert-adv-y="1000"  />

      
      <glyph glyph-name="uni012B" unicode="&#x012B;" d="M295 589L-33 589L-33 680L295 680L295 589M201 0L62 0L62 534L201 534L201 0Z"  horiz-adv-x="263" vert-adv-y="1000"  />

      
      <glyph glyph-name="uni012E" unicode="&#x012E;" d="M186-95L186-187Q153-197 120-197Q68-197 34.50-170.50Q1-144 1-95Q1-36 74 29L74 718L226 718L226 0L133 0Q109-27 109-56Q109-78 121-90Q133-102 153-102Q169-102 186-95Z"  horiz-adv-x="299" vert-adv-y="1000"  />

      
      <glyph glyph-name="uni012F" unicode="&#x012F;" d="M223 658Q223 622 197 599Q171 576 130 576Q90 576 64 599.50Q38 623 38 658Q38 695 64 718.50Q90 742 130 742Q171 742 197 718.50Q223 695 223 658M175-95L175-187Q142-197 109-197Q57-197 23.50-170.50Q-10-144-10-95Q-10-38 62 28L62 534L201 534L201 0L122 0Q98-27 98-56Q98-78 110-90Q122-102 142-102Q158-102 175-95Z"  horiz-adv-x="263" vert-adv-y="1000"  />

      
      <glyph glyph-name="uni0130" unicode="&#x0130;" d="M217 901.50Q217 901.50 230 889.75Q243 878 243 842Q243 806 217 782.50Q191 759 150 759Q109 759 83 782.50Q57 806 57 842Q57 878 83 901.50Q109 925 150 925Q191 925 217 901.50M226 0L74 0L74 718L226 718L226 0Z"  horiz-adv-x="299" vert-adv-y="1000"  />

      
      <glyph glyph-name="uni0131" unicode="&#x0131;" d="M201 0L62 0L62 534L201 534L201 0Z"  horiz-adv-x="263" vert-adv-y="1000"  />

      
      <glyph glyph-name="uni0136" unicode="&#x0136;" d="M226 0L74 0L74 718L226 718L226 402L487 718L661 718L376 374L669 0L482 0L226 328L226 0M427-114Q427-169 377.50-203Q328-237 259-228L259-176Q337-186 351-142Q318-150 293-135.50Q268-121 268-94Q268-68 288.50-52Q309-36 343-36Q379-36 403-57.50Q427-79 427-114Z"  horiz-adv-x="680" vert-adv-y="1000"  />

      
      <glyph glyph-name="uni0137" unicode="&#x0137;" d="M201 0L62 0L62 718L201 718L201 308L396 534L556 534L335 278L582 0L405 0L201 248L201 0M377-114Q377-169 328-203Q279-237 210-228L210-176Q288-186 301-142Q268-150 243.50-135.50Q219-121 219-94Q219-68 239-52Q259-36 293-36Q330-36 353.50-57.50Q377-79 377-114Z"  horiz-adv-x="584" vert-adv-y="1000"  />

      
      <glyph glyph-name="uni0139" unicode="&#x0139;" d="M229 760L85 760L185 913L345 913L229 760M538 0L74 0L74 718L226 718L226 137L538 137L538 0Z"  horiz-adv-x="568" vert-adv-y="1000"  />

      
      <glyph glyph-name="uni013A" unicode="&#x013A;" d="M207 760L63 760L163 913L323 913L207 760M202 0L62 0L62 718L202 718L202 0Z"  horiz-adv-x="265" vert-adv-y="1000"  />

      
      <glyph glyph-name="uni013B" unicode="&#x013B;" d="M538 0L74 0L74 718L226 718L226 137L538 137L538 0M383-114Q383-169 333.50-203Q284-237 215-228L215-176Q293-186 307-142Q274-150 249.50-135.50Q225-121 225-94Q225-68 245-52Q265-36 299-36Q336-36 359.50-57.50Q383-79 383-114Z"  horiz-adv-x="568" vert-adv-y="1000"  />

      
      <glyph glyph-name="uni013C" unicode="&#x013C;" d="M202 0L62 0L62 718L202 718L202 0M212-114Q212-169 162.50-203Q113-237 44-228L44-176Q122-186 136-142Q103-150 78.50-135.50Q54-121 54-94Q54-68 74-52Q94-36 128-36Q165-36 188.50-57.50Q212-79 212-114Z"  horiz-adv-x="265" vert-adv-y="1000"  />

      
      <glyph glyph-name="uni013D" unicode="&#x013D;" d="M538 0L74 0L74 718L226 718L226 137L538 137L538 0M390 564L298 564L298 718L413 718L390 564Z"  horiz-adv-x="568" vert-adv-y="1000"  />

      
      <glyph glyph-name="uni013E" unicode="&#x013E;" d="M202 0L62 0L62 718L202 718L202 0M326 564L235 564L235 718L350 718L326 564Z"  horiz-adv-x="265" vert-adv-y="1000"  />

      
      <glyph glyph-name="uni0141" unicode="&#x0141;" d="M538 0L74 0L74 276L-18 253L-18 375L74 397L74 718L226 718L226 434L427 483L427 363L226 313L226 137L538 137L538 0Z"  horiz-adv-x="568" vert-adv-y="1000"  />

      
      <glyph glyph-name="uni0142" unicode="&#x0142;" d="M202 0L62 0L62 290L-32 268L-32 383L62 405L62 718L202 718L202 437L295 459L295 343L202 322L202 0Z"  horiz-adv-x="265" vert-adv-y="1000"  />

      
      <glyph glyph-name="uni0143" unicode="&#x0143;" d="M457 760L312 760L413 913L573 913L457 760M542 0L213 501L213 0L74 0L74 718L238 718L551 242L551 718L691 718L691 0L542 0Z"  horiz-adv-x="765" vert-adv-y="1000"  />

      
      <glyph glyph-name="uni0144" unicode="&#x0144;" d="M371 577L227 577L327 729L488 729L371 577M201 291L201 0L62 0L62 534L190 534L190 458Q253 544 354 544Q436 544 485.50 492Q535 440 535 345L535 0L397 0L397 298Q397 421 303 421Q259 421 230 387Q201 353 201 291Z"  horiz-adv-x="593" vert-adv-y="1000"  />

      
      <glyph glyph-name="uni0145" unicode="&#x0145;" d="M542 0L213 501L213 0L74 0L74 718L238 718L551 242L551 718L691 718L691 0L542 0M462-114Q462-169 412.50-203Q363-237 294-228L294-176Q372-186 386-142Q353-150 328.50-135.50Q304-121 304-94Q304-68 324-52Q344-36 378-36Q415-36 438.50-57.50Q462-79 462-114Z"  horiz-adv-x="765" vert-adv-y="1000"  />

      
      <glyph glyph-name="uni0146" unicode="&#x0146;" d="M201 291L201 0L62 0L62 534L190 534L190 458Q253 544 354 544Q436 544 485.50 492Q535 440 535 345L535 0L397 0L397 298Q397 421 303 421Q259 421 230 387Q201 353 201 291M376-114Q376-169 327-203Q278-237 209-228L209-176Q287-186 300-142Q267-150 242.50-135.50Q218-121 218-94Q218-68 238-52Q258-36 292-36Q329-36 352.50-57.50Q376-79 376-114Z"  horiz-adv-x="593" vert-adv-y="1000"  />

      
      <glyph glyph-name="uni0147" unicode="&#x0147;" d="M468 760L297 760L159 913L311 913L382 834L454 913L606 913L468 760M542 0L213 501L213 0L74 0L74 718L238 718L551 242L551 718L691 718L691 0L542 0Z"  horiz-adv-x="765" vert-adv-y="1000"  />

      
      <glyph glyph-name="uni0148" unicode="&#x0148;" d="M383 577L211 577L73 729L226 729L297 650L368 729L521 729L383 577M201 291L201 0L62 0L62 534L190 534L190 458Q253 544 354 544Q436 544 485.50 492Q535 440 535 345L535 0L397 0L397 298Q397 421 303 421Q259 421 230 387Q201 353 201 291Z"  horiz-adv-x="593" vert-adv-y="1000"  />

      
      <glyph glyph-name="uni014C" unicode="&#x014C;" d="M563 773L236 773L236 863L563 863L563 773M399-15Q243-15 137.50 92Q32 199 32 360Q32 520 137.50 626.50Q243 733 399 733Q556 733 662 626.50Q768 520 768 360Q768 199 662 92Q556-15 399-15M245.50 189.50Q245.50 189.50 274.25 155.25Q303 121 399 121Q495 121 553 189.50Q611 258 611 360Q611 462 553.50 529.50Q496 597 399 597Q303 597 245.50 529.50Q188 462 188 360Q188 258 245.50 189.50Z"  horiz-adv-x="799" vert-adv-y="1000"  />

      
      <glyph glyph-name="uni014D" unicode="&#x014D;" d="M462 589L135 589L135 680L462 680L462 589M491.50 70Q491.50 70 452.75 30Q414-10 298-10Q182-10 104.50 70Q27 150 27 267Q27 384 104.50 464Q182 544 298 544Q414 544 491.50 464Q569 384 569 267Q569 150 491.50 70M207 154Q207 154 225.50 133.50Q244 113 298 113Q352 113 389 154Q426 195 426 267Q426 338 389 379Q352 420 298 420Q244 420 207 379Q170 338 170 267Q170 195 207 154Z"  horiz-adv-x="596" vert-adv-y="1000"  />

      
      <glyph glyph-name="uni0150" unicode="&#x0150;" d="M559 760L423 760L531 913L675 913L559 760M350 760L214 760L314 913L457 913L350 760M399-15Q243-15 137.50 92Q32 199 32 360Q32 520 137.50 626.50Q243 733 399 733Q556 733 662 626.50Q768 520 768 360Q768 199 662 92Q556-15 399-15M245.50 189.50Q245.50 189.50 274.25 155.25Q303 121 399 121Q495 121 553 189.50Q611 258 611 360Q611 462 553.50 529.50Q496 597 399 597Q303 597 245.50 529.50Q188 462 188 360Q188 258 245.50 189.50Z"  horiz-adv-x="799" vert-adv-y="1000"  />

      
      <glyph glyph-name="uni0151" unicode="&#x0151;" d="M457 577L321 577L429 729L574 729L457 577M248 577L112 577L212 729L356 729L248 577M491.50 70Q491.50 70 452.75 30Q414-10 298-10Q182-10 104.50 70Q27 150 27 267Q27 384 104.50 464Q182 544 298 544Q414 544 491.50 464Q569 384 569 267Q569 150 491.50 70M207 154Q207 154 225.50 133.50Q244 113 298 113Q352 113 389 154Q426 195 426 267Q426 338 389 379Q352 420 298 420Q244 420 207 379Q170 338 170 267Q170 195 207 154Z"  horiz-adv-x="596" vert-adv-y="1000"  />

      
      <glyph glyph-name="uni0152" unicode="&#x0152;" d="M126 89Q126 89 79 141Q32 193 32 360Q32 527 125.50 630Q219 733 363 733Q424 733 480 709.50Q536 686 568 646L568 718L1021 718L1021 587L703 587L703 435L992 435L992 304L703 304L703 131L1028 131L1028 0L568 0L568 76Q488-15 363-15Q220-15 126 89M236.50 532.50Q236.50 532.50 212.25 500.25Q188 468 188 360Q188 252 236.50 186.50Q285 121 369 121Q454 121 502.50 186.50Q551 252 551 360Q551 468 502.50 532.50Q454 597 369 597Q285 597 236.50 532.50Z"  horiz-adv-x="1072" vert-adv-y="1000"  />

      
      <glyph glyph-name="uni0153" unicode="&#x0153;" d="M27 267Q27 389 101.50 466.50Q176 544 289 544Q349 544 399.50 517.50Q450 491 483 444Q548 544 669 544Q797 544 867.50 457Q938 370 921 233L552 233Q557 98 673 98Q719 98 746.50 121Q774 144 779 181L920 181Q896 91 831.50 41Q767-9 673-9Q545-9 482 90Q450 43 399.50 16.50Q349-10 289-10Q176-10 101.50 68Q27 146 27 267M669 442Q622 442 590.50 410.50Q559 379 555 321L779 321Q777 379 748.50 410.50Q720 442 669 442M205 380Q205 380 187.50 360Q170 340 170 267Q170 194 205 153.50Q240 113 293 113Q345 113 380 153.50Q415 194 415 267Q415 340 380 380Q345 420 293 420Q240 420 205 380Z"  horiz-adv-x="952" vert-adv-y="1000"  />

      
      <glyph glyph-name="uni0154" unicode="&#x0154;" d="M417 760L273 760L373 913L533 913L417 760M226 0L74 0L74 718L355 718Q491 718 566 657Q641 596 641 485Q641 412 598.50 357.50Q556 303 479 277L664 0L483 0L321 254L226 254L226 0M226 592L226 379L348 379Q489 379 489 485Q489 592 348 592L226 592Z"  horiz-adv-x="685" vert-adv-y="1000"  />

      
      <glyph glyph-name="uni0155" unicode="&#x0155;" d="M318 577L173 577L274 729L434 729L318 577M201 259L201 0L62 0L62 534L190 534L190 431Q219 481 276 510.50Q333 540 398 540L398 396Q302 403 251.50 373Q201 343 201 259Z"  horiz-adv-x="408" vert-adv-y="1000"  />

      
      <glyph glyph-name="uni0156" unicode="&#x0156;" d="M226 0L74 0L74 718L355 718Q491 718 566 657Q641 596 641 485Q641 412 598.50 357.50Q556 303 479 277L664 0L483 0L321 254L226 254L226 0M226 592L226 379L348 379Q489 379 489 485Q489 592 348 592L226 592M422-114Q422-169 373-203Q324-237 255-228L255-176Q333-186 346-142Q313-150 288.50-135.50Q264-121 264-94Q264-68 284-52Q304-36 338-36Q375-36 398.50-57.50Q422-79 422-114Z"  horiz-adv-x="685" vert-adv-y="1000"  />

      
      <glyph glyph-name="uni0157" unicode="&#x0157;" d="M201 259L201 0L62 0L62 534L190 534L190 431Q219 481 276 510.50Q333 540 398 540L398 396Q302 403 251.50 373Q201 343 201 259M215-114Q215-169 166-203Q117-237 48-228L48-176Q126-186 139-142Q106-150 81.50-135.50Q57-121 57-94Q57-68 77-52Q97-36 131-36Q168-36 191.50-57.50Q215-79 215-114Z"  horiz-adv-x="408" vert-adv-y="1000"  />

      
      <glyph glyph-name="uni0158" unicode="&#x0158;" d="M429 760L257 760L119 913L272 913L343 834L414 913L566 913L429 760M226 0L74 0L74 718L355 718Q491 718 566 657Q641 596 641 485Q641 412 598.50 357.50Q556 303 479 277L664 0L483 0L321 254L226 254L226 0M226 592L226 379L348 379Q489 379 489 485Q489 592 348 592L226 592Z"  horiz-adv-x="685" vert-adv-y="1000"  />

      
      <glyph glyph-name="uni0159" unicode="&#x0159;" d="M329 577L158 577L19 729L172 729L243 650L315 729L467 729L329 577M201 259L201 0L62 0L62 534L190 534L190 431Q219 481 276 510.50Q333 540 398 540L398 396Q302 403 251.50 373Q201 343 201 259Z"  horiz-adv-x="408" vert-adv-y="1000"  />

      
      <glyph glyph-name="uni015A" unicode="&#x015A;" d="M400 760L256 760L356 913L516 913L400 760M625 223Q625 119 546.50 54.50Q468-10 335-10Q200-10 119 57Q38 124 30 239L184 239Q187 179 225.50 144Q264 109 332 109Q391 109 427.50 133.50Q464 158 464 201Q464 266 368 285L250 308Q162 325 109.50 374Q57 423 57 507Q57 603 133 665Q209 727 325 727Q447 727 527 660.50Q607 594 614 483L460 483Q456 540 420 574.50Q384 609 327 609Q273 609 242 582.50Q211 556 211 517Q211 456 308 437L431 412Q625 374 625 223Z"  horiz-adv-x="663" vert-adv-y="1000"  />

      
      <glyph glyph-name="uni015B" unicode="&#x015B;" d="M346 577L201 577L302 730L462 730L346 577M513 171Q513 86 451 38Q389-10 276-10Q164-10 100 40.50Q36 91 28 182L161 182Q162 141 194 116.50Q226 92 278 92Q321 92 347 106Q373 120 373 147Q373 172 356 184.50Q339 197 300 205L204 223Q131 236 90.50 275.50Q50 315 50 376Q50 451 109.50 497.50Q169 544 268 544Q369 544 433 494Q497 444 504 358L371 358Q367 397 339.50 419.50Q312 442 268 442Q229 442 206 428Q183 414 183 389Q183 366 199.50 354Q216 342 253 335L356 316Q513 286 513 171Z"  horiz-adv-x="546" vert-adv-y="1000"  />

      
      <glyph glyph-name="uni015E" unicode="&#x015E;" d="M449-113Q449-150 414.50-174Q380-198 327-198Q272-198 238-173Q204-148 199-102L284-102Q290-133 322-133Q337-133 346-125Q355-117 355-105Q355-61 278-69L294-8Q177 2 107.50 68Q38 134 30 239L184 239Q187 179 225.50 144Q264 109 332 109Q391 109 427.50 133.50Q464 158 464 201Q464 266 368 285L250 308Q162 325 109.50 374Q57 423 57 507Q57 603 133 665Q209 727 325 727Q447 727 527 660.50Q607 594 614 483L460 483Q456 540 420 574.50Q384 609 327 609Q273 609 242 582.50Q211 556 211 517Q211 456 308 437L431 412Q625 374 625 223Q625 124 554.50 61Q484-2 362-9L355-32Q398-37 423.50-59Q449-81 449-113Z"  horiz-adv-x="663" vert-adv-y="1000"  />

      
      <glyph glyph-name="uni015F" unicode="&#x015F;" d="M395-113Q395-150 360.50-174Q326-198 273-198Q218-198 184-173Q150-148 144-102L230-102Q236-133 268-133Q283-133 292-125Q301-117 301-105Q301-61 224-69L240-9Q144-1 90 49Q36 99 28 182L161 182Q162 141 194 116.50Q226 92 278 92Q321 92 347 106Q373 120 373 147Q373 172 356 184.50Q339 197 300 205L204 223Q131 236 90.50 275.50Q50 315 50 376Q50 451 109.50 497.50Q169 544 268 544Q369 544 433 494Q497 444 504 358L371 358Q367 397 339.50 419.50Q312 442 268 442Q229 442 206 428Q183 414 183 389Q183 366 199.50 354Q216 342 253 335L356 316Q513 286 513 171Q513 92 459.50 45Q406-2 308-9L301-32Q343-37 369-59Q395-81 395-113Z"  horiz-adv-x="546" vert-adv-y="1000"  />

      
      <glyph glyph-name="uni0160" unicode="&#x0160;" d="M411 760L240 760L102 913L255 913L325 834L397 913L549 913L411 760M625 223Q625 119 546.50 54.50Q468-10 335-10Q200-10 119 57Q38 124 30 239L184 239Q187 179 225.50 144Q264 109 332 109Q391 109 427.50 133.50Q464 158 464 201Q464 266 368 285L250 308Q162 325 109.50 374Q57 423 57 507Q57 603 133 665Q209 727 325 727Q447 727 527 660.50Q607 594 614 483L460 483Q456 540 420 574.50Q384 609 327 609Q273 609 242 582.50Q211 556 211 517Q211 456 308 437L431 412Q625 374 625 223Z"  horiz-adv-x="663" vert-adv-y="1000"  />

      
      <glyph glyph-name="uni0161" unicode="&#x0161;" d="M357 577L186 577L48 730L201 730L271 651L343 730L495 730L357 577M513 171Q513 86 451 38Q389-10 276-10Q164-10 100 40.50Q36 91 28 182L161 182Q162 141 194 116.50Q226 92 278 92Q321 92 347 106Q373 120 373 147Q373 172 356 184.50Q339 197 300 205L204 223Q131 236 90.50 275.50Q50 315 50 376Q50 451 109.50 497.50Q169 544 268 544Q369 544 433 494Q497 444 504 358L371 358Q367 397 339.50 419.50Q312 442 268 442Q229 442 206 428Q183 414 183 389Q183 366 199.50 354Q216 342 253 335L356 316Q513 286 513 171Z"  horiz-adv-x="546" vert-adv-y="1000"  />

      
      <glyph glyph-name="uni0162" unicode="&#x0162;" d="M395 0L350 0L341-32Q383-37 409-59Q435-81 435-113Q435-150 400.50-174Q366-198 313-198Q257-198 223.50-173Q190-148 184-102L270-102Q274-133 307-133Q322-133 331-125Q340-117 340-105Q340-61 264-69L282 0L243 0L243 581L17 581L17 718L622 718L622 581L395 581L395 0Z"  horiz-adv-x="639" vert-adv-y="1000"  />

      
      <glyph glyph-name="uni0163" unicode="&#x0163;" d="M371-113Q371-150 336.50-174Q302-198 248-198Q193-198 159.50-173Q126-148 120-102L205-102Q211-133 243-133Q258-133 267-125Q276-117 276-105Q276-61 200-69L218 0Q108 35 108 173L108 415L0 415L0 534L108 534L108 692L246 692L246 534L399 534L399 415L246 415L246 205Q246 118 324 118Q363 118 394 135L394 14Q346-10 287-10L282-10L276-32Q319-37 345-59Q371-81 371-113Z"  horiz-adv-x="422" vert-adv-y="1000"  />

      
      <glyph glyph-name="uni0164" unicode="&#x0164;" d="M405 760L233 760L95 913L248 913L319 834L391 913L543 913L405 760M395 0L243 0L243 581L17 581L17 718L622 718L622 581L395 581L395 0Z"  horiz-adv-x="639" vert-adv-y="1000"  />

      
      <glyph glyph-name="uni0165" unicode="&#x0165;" d="M370 564L279 564L279 718L394 718L370 564M394 135L394 14Q346-10 287-10Q203-10 155.50 37Q108 84 108 173L108 415L0 415L0 534L108 534L108 692L246 692L246 534L399 534L399 415L246 415L246 205Q246 118 324 118Q363 118 394 135Z"  horiz-adv-x="422" vert-adv-y="1000"  />

      
      <glyph glyph-name="uni016A" unicode="&#x016A;" d="M531 773L204 773L204 863L531 863L531 773M663 718L663 273Q663 143 584.50 64Q506-15 368-15Q228-15 150 64Q72 143 72 273L72 718L224 718L224 270Q224 200 259.50 160.50Q295 121 368 121Q440 121 475.50 160.50Q511 200 511 270L511 718L663 718Z"  horiz-adv-x="734" vert-adv-y="1000"  />

      
      <glyph glyph-name="uni016B" unicode="&#x016B;" d="M457 589L130 589L130 680L457 680L457 589M387 225L387 534L525 534L525 0L398 0L398 70Q376 34 334 12Q292-10 242-10Q158-10 107.50 41.50Q57 93 57 194L57 534L196 534L196 221Q196 113 289 113Q329 113 358 143Q387 173 387 225Z"  horiz-adv-x="588" vert-adv-y="1000"  />

      
      <glyph glyph-name="uni016E" unicode="&#x016E;" d="M368 755Q309 755 271 791Q233 827 233 878Q233 930 271 966.50Q309 1003 368 1003Q426 1003 464.50 966.50Q503 930 503 878Q503 827 464.50 791Q426 755 368 755M329 839Q329 839 337 832Q345 825 368 825Q391 825 406.50 838.50Q422 852 422 878Q422 904 406.50 918.50Q391 933 368 933Q345 933 329 918.50Q313 904 313 878Q313 853 329 839M663 718L663 273Q663 143 584.50 64Q506-15 368-15Q228-15 150 64Q72 143 72 273L72 718L224 718L224 270Q224 200 259.50 160.50Q295 121 368 121Q440 121 475.50 160.50Q511 200 511 270L511 718L663 718Z"  horiz-adv-x="734" vert-adv-y="1000"  />

      
      <glyph glyph-name="uni016F" unicode="&#x016F;" d="M390.50 608Q390.50 608 371.25 590Q352 572 293 572Q234 572 196 608Q158 644 158 695Q158 747 196 783Q234 819 293 819Q352 819 390.50 783Q429 747 429 695Q429 644 390.50 608M293 642Q317 642 332 655.50Q347 669 347 695Q347 721 332 735Q317 749 293 749Q270 749 254.50 735Q239 721 239 695Q239 669 254.50 655.50Q270 642 293 642M387 225L387 534L525 534L525 0L398 0L398 70Q376 34 334 12Q292-10 242-10Q158-10 107.50 41.50Q57 93 57 194L57 534L196 534L196 221Q196 113 289 113Q329 113 358 143Q387 173 387 225Z"  horiz-adv-x="588" vert-adv-y="1000"  />

      
      <glyph glyph-name="uni0170" unicode="&#x0170;" d="M527 760L391 760L499 913L643 913L527 760M318 760L182 760L282 913L425 913L318 760M663 718L663 273Q663 143 584.50 64Q506-15 368-15Q228-15 150 64Q72 143 72 273L72 718L224 718L224 270Q224 200 259.50 160.50Q295 121 368 121Q440 121 475.50 160.50Q511 200 511 270L511 718L663 718Z"  horiz-adv-x="734" vert-adv-y="1000"  />

      
      <glyph glyph-name="uni0171" unicode="&#x0171;" d="M453 577L317 577L424 729L569 729L453 577M244 577L108 577L208 729L351 729L244 577M387 225L387 534L525 534L525 0L398 0L398 70Q376 34 334 12Q292-10 242-10Q158-10 107.50 41.50Q57 93 57 194L57 534L196 534L196 221Q196 113 289 113Q329 113 358 143Q387 173 387 225Z"  horiz-adv-x="588" vert-adv-y="1000"  />

      
      <glyph glyph-name="uni0172" unicode="&#x0172;" d="M558-95L558-187Q525-197 492-197Q440-197 406.50-170.50Q373-144 373-95Q373-55 405-13Q381-15 368-15Q228-15 150 64Q72 143 72 273L72 718L224 718L224 270Q224 200 259.50 160.50Q295 121 368 121Q440 121 475.50 160.50Q511 200 511 270L511 718L663 718L663 273Q663 188 628 123Q593 58 528 22Q481-16 481-56Q481-78 493-90Q505-102 525-102Q541-102 558-95Z"  horiz-adv-x="734" vert-adv-y="1000"  />

      
      <glyph glyph-name="uni0173" unicode="&#x0173;" d="M387 225L387 534L525 534L525 0L457 0Q433-27 433-56Q433-78 445-90Q457-102 477-102Q493-102 511-95L511-187Q478-197 445-197Q393-197 359.50-170.50Q326-144 326-95Q326-38 398 28L398 70Q376 34 334 12Q292-10 242-10Q158-10 107.50 41.50Q57 93 57 194L57 534L196 534L196 221Q196 113 289 113Q329 113 358 143Q387 173 387 225Z"  horiz-adv-x="588" vert-adv-y="1000"  />

      
      <glyph glyph-name="uni0174" unicode="&#x0174;" d="M415 760L262 760L400 913L571 913L709 760L557 760L485 839L415 760M619 0L485 502L351 0L197 0L13 718L161 718L277 231L409 718L564 718L692 229L809 718L958 718L773 0L619 0Z"  horiz-adv-x="970" vert-adv-y="1000"  />

      
      <glyph glyph-name="uni0175" unicode="&#x0175;" d="M329 577L176 577L314 729L486 729L623 577L471 577L399 656L329 577M500 0L399 347L299 0L160 0L8 534L143 534L234 196L332 534L469 534L564 196L654 534L791 534L638 0L500 0Z"  horiz-adv-x="799" vert-adv-y="1000"  />

      
      <glyph glyph-name="uni0176" unicode="&#x0176;" d="M271 760L118 760L256 913L428 913L565 760L413 760L341 839L271 760M412 270L412 0L260 0L260 270L6 718L170 718L341 409L515 718L668 718L412 270Z"  horiz-adv-x="674" vert-adv-y="1000"  />

      
      <glyph glyph-name="uni0177" unicode="&#x0177;" d="M201 577L48 577L186 729L358 729L495 577L343 577L272 656L201 577M543 534L283-193L132-193L208 6L-2 534L148 534L282 168L404 534L543 534Z"  horiz-adv-x="542" vert-adv-y="1000"  />

      
      </font>
</defs>
</svg>
