<svg width="40" height="40" viewBox="0 0 40 40" fill="none" xmlns="http://www.w3.org/2000/svg">
<g clip-path="url(#clip0_178_241)">
<path d="M34.1421 5.85797C30.3646 2.08031 25.3421 0 20 0C14.6579 0 9.63539 2.08031 5.85789 5.85797C2.08031 9.63539 0 14.6579 0 20C0 25.3421 2.08031 30.3646 5.85789 34.1421C9.63539 37.9197 14.6579 40 20 40C25.3421 40 30.3646 37.9197 34.1421 34.142C37.9197 30.3646 40 25.3421 40 20C40 14.6579 37.9197 9.63539 34.1421 5.85797ZM20 38.7369C9.66844 38.7369 1.26312 30.3316 1.26312 20C1.26312 9.66844 9.66844 1.26312 20 1.26312C30.3316 1.26312 38.7369 9.66844 38.7369 20C38.7369 30.3316 30.3316 38.7369 20 38.7369Z" fill="#C7AB80"/>
<path d="M14.1038 16H9.89328C9.54445 16 9.26172 16.2827 9.26172 16.6316V29.2631C9.26172 29.612 9.54453 29.8947 9.89328 29.8947H14.1038C14.4527 29.8947 14.7354 29.612 14.7354 29.2631V16.6316C14.7355 16.2827 14.4527 16 14.1038 16ZM13.4723 28.6316H10.5249V17.2631H13.4723V28.6316Z" fill="#C7AB80"/>
<path d="M11.5798 8.42188C9.83844 8.42188 8.42188 9.83844 8.42188 11.5798C8.42188 13.3211 9.83844 14.7377 11.5798 14.7377C13.3211 14.7377 14.7377 13.3211 14.7377 11.5798C14.7377 9.83844 13.3211 8.42188 11.5798 8.42188ZM11.5798 13.4745C10.535 13.4745 9.685 12.6245 9.685 11.5798C9.685 10.5351 10.5349 9.685 11.5798 9.685C12.6245 9.685 13.4745 10.535 13.4745 11.5798C13.4745 12.6245 12.6246 13.4745 11.5798 13.4745Z" fill="#C7AB80"/>
<path d="M25.8941 16C24.6399 16 23.4043 16.3247 22.3152 16.9294V16.6316C22.3152 16.2828 22.0323 16.0001 21.6836 16.0001H18.3152C17.9663 16.0001 17.6836 16.2829 17.6836 16.6316V29.2632C17.6836 29.612 17.9664 29.8948 18.3152 29.8948H22.5257C22.8745 29.8948 23.1573 29.612 23.1573 29.2632V24.7288C23.1573 23.2438 23.4859 21.4738 25.052 21.4738C26.2207 21.4738 26.7001 22.4596 26.8682 23.5771C26.9143 23.8835 27.1798 24.109 27.4898 24.109C27.8788 24.109 28.1713 23.7602 28.1112 23.376C27.7941 21.3468 26.7184 20.2106 25.052 20.2106C23.0452 20.2106 21.8941 21.8575 21.8941 24.7288V28.6316H18.9468V17.2631H21.052V18.0936C21.052 18.2895 21.1336 18.4808 21.2867 18.6029C21.5245 18.7924 21.8519 18.7859 22.0787 18.6038C23.1726 17.7268 24.4919 17.2631 25.8941 17.2631C29.5298 17.2631 31.1573 20.3295 31.1573 23.3684V28.6315H28.2099V26.5518C28.2099 26.204 27.928 25.922 27.5802 25.922H27.5766C27.2288 25.922 26.9469 26.204 26.9469 26.5518V29.263C26.9469 29.6119 27.2297 29.8946 27.5784 29.8946H31.789C32.1378 29.8946 32.4205 29.6118 32.4205 29.263V23.3683C32.4204 19.03 29.7367 16 25.8941 16Z" fill="#C7AB80"/>
</g>
<defs>
<clipPath id="clip0_178_241">
<rect width="40" height="40" fill="white"/>
</clipPath>
</defs>
</svg>
