<svg width="10" height="18" viewBox="0 0 10 18" fill="none" xmlns="http://www.w3.org/2000/svg">
<mask id="path-1-inside-1_7001_4482" fill="white">
<path fill-rule="evenodd" clip-rule="evenodd" d="M7.1416 9.42952L-6.62468e-08 2.28791L1.42854 0.859375L8.57014 8.00098L8.57227 7.99885L10.0008 9.42739L9.99868 9.42952L9.99978 9.43061L8.57124 10.8592L8.57014 10.8581L1.42956 17.9986L0.00102563 16.5701L7.1416 9.42952Z"/>
</mask>
<path d="M-6.62468e-08 2.28791L-0.707107 2.99502L-1.41421 2.28791L-0.707107 1.58081L-6.62468e-08 2.28791ZM7.1416 9.42952L7.84871 8.72241L8.55582 9.42952L7.84871 10.1366L7.1416 9.42952ZM1.42854 0.859375L0.721433 0.152268L1.42854 -0.554838L2.13565 0.152268L1.42854 0.859375ZM8.57014 8.00098L9.27725 8.70808L8.57014 9.41519L7.86303 8.70808L8.57014 8.00098ZM8.57227 7.99885L7.86516 7.29175L8.57227 6.58464L9.27937 7.29175L8.57227 7.99885ZM10.0008 9.42739L10.7079 8.72028L11.415 9.42739L10.7079 10.1345L10.0008 9.42739ZM9.99868 9.42952L9.29157 10.1366L8.58447 9.42952L9.29157 8.72241L9.99868 9.42952ZM9.99978 9.43061L10.7069 8.72351L11.414 9.43061L10.7069 10.1377L9.99978 9.43061ZM8.57124 10.8592L9.27834 11.5663L8.57124 12.2734L7.86413 11.5663L8.57124 10.8592ZM8.57014 10.8581L7.86303 10.1509L8.57014 9.44384L9.27725 10.1509L8.57014 10.8581ZM1.42956 17.9986L2.13667 18.7057L1.42956 19.4128L0.722458 18.7057L1.42956 17.9986ZM0.00102563 16.5701L-0.706081 17.2772L-1.41319 16.5701L-0.706081 15.863L0.00102563 16.5701ZM0.707107 1.58081L7.84871 8.72241L6.43449 10.1366L-0.707107 2.99502L0.707107 1.58081ZM2.13565 1.56648L0.707107 2.99502L-0.707107 1.58081L0.721433 0.152268L2.13565 1.56648ZM7.86303 8.70808L0.721433 1.56648L2.13565 0.152268L9.27725 7.29387L7.86303 8.70808ZM9.27937 8.70596L9.27725 8.70808L7.86303 7.29387L7.86516 7.29175L9.27937 8.70596ZM9.2937 10.1345L7.86516 8.70596L9.27937 7.29175L10.7079 8.72028L9.2937 10.1345ZM9.29157 8.72241L9.2937 8.72028L10.7079 10.1345L10.7058 10.1366L9.29157 8.72241ZM9.29267 10.1377L9.29157 10.1366L10.7058 8.72241L10.7069 8.72351L9.29267 10.1377ZM7.86413 10.152L9.29267 8.72351L10.7069 10.1377L9.27834 11.5663L7.86413 10.152ZM9.27725 10.1509L9.27834 10.152L7.86413 11.5663L7.86303 11.5652L9.27725 10.1509ZM0.722458 17.2915L7.86303 10.1509L9.27725 11.5652L2.13667 18.7057L0.722458 17.2915ZM0.708132 15.863L2.13667 17.2915L0.722458 18.7057L-0.706081 17.2772L0.708132 15.863ZM7.84871 10.1366L0.708132 17.2772L-0.706081 15.863L6.43449 8.72241L7.84871 10.1366Z" fill="black" mask="url(#path-1-inside-1_7001_4482)"/>
</svg>
