<svg width="41" height="41" viewBox="0 0 41 41" fill="none" xmlns="http://www.w3.org/2000/svg">
<g clip-path="url(#clip0_6001_597)">
<path d="M34.2939 6.72904C30.5316 2.96651 25.5292 0.894531 20.2085 0.894531C14.8878 0.894531 9.88537 2.96651 6.123 6.72904C2.36055 10.4913 0.288574 15.4937 0.288574 20.8144C0.288574 26.1351 2.36055 31.1375 6.123 34.8999C9.88537 38.6623 14.8878 40.7343 20.2085 40.7343C25.5292 40.7343 30.5316 38.6623 34.2939 34.8998C38.0564 31.1375 40.1284 26.1351 40.1284 20.8144C40.1284 15.4937 38.0564 10.4913 34.2939 6.72904ZM20.2085 39.4763C9.91829 39.4763 1.54664 31.1046 1.54664 20.8144C1.54664 10.5242 9.91829 2.1526 20.2085 2.1526C30.4987 2.1526 38.8703 10.5242 38.8703 20.8144C38.8703 31.1046 30.4987 39.4763 20.2085 39.4763Z" fill="#C7AB80"/>
<path d="M14.3335 16.8359H10.1398C9.79234 16.8359 9.51074 17.1175 9.51074 17.465V30.0459C9.51074 30.3934 9.79242 30.675 10.1398 30.675H14.3335C14.6809 30.675 14.9625 30.3934 14.9625 30.0459V17.465C14.9626 17.1175 14.6809 16.8359 14.3335 16.8359ZM13.7044 29.4169H10.7689V18.094H13.7044V29.4169Z" fill="#C7AB80"/>
<path d="M11.8161 9.28516C10.0818 9.28516 8.6709 10.696 8.6709 12.4304C8.6709 14.1648 10.0818 15.5756 11.8161 15.5756C13.5505 15.5756 14.9614 14.1648 14.9614 12.4304C14.9614 10.696 13.5505 9.28516 11.8161 9.28516ZM11.8161 14.3176C10.7756 14.3176 9.92896 13.471 9.92896 12.4304C9.92896 11.3899 10.7755 10.5432 11.8161 10.5432C12.8567 10.5432 13.7033 11.3898 13.7033 12.4304C13.7033 13.471 12.8568 14.3176 11.8161 14.3176Z" fill="#C7AB80"/>
<path d="M26.0824 16.8359C24.8333 16.8359 23.6026 17.1593 22.5178 17.7616V17.465C22.5178 17.1176 22.2361 16.836 21.8888 16.836H18.5338C18.1864 16.836 17.9048 17.1177 17.9048 17.465V30.046C17.9048 30.3934 18.1865 30.6751 18.5338 30.6751H22.7275C23.0749 30.6751 23.3565 30.3934 23.3565 30.046V25.5298C23.3565 24.0508 23.6839 22.2878 25.2437 22.2878C26.4077 22.2878 26.8852 23.2697 27.0526 24.3827C27.0985 24.6879 27.363 24.9124 27.6718 24.9124C28.0592 24.9124 28.3504 24.5651 28.2907 24.1824C27.9748 22.1613 26.9034 21.0297 25.2437 21.0297C23.2449 21.0297 22.0985 22.67 22.0985 25.5298V29.417H19.1629V18.094H21.2597V18.9211C21.2597 19.1162 21.341 19.3068 21.4935 19.4284C21.7303 19.6172 22.0564 19.6106 22.2823 19.4293C23.3718 18.5558 24.6858 18.094 26.0824 18.094C29.7036 18.094 31.3245 21.148 31.3245 24.1748V29.4168H28.389V27.3455C28.389 26.9991 28.1081 26.7182 27.7618 26.7182H27.7581C27.4117 26.7182 27.131 26.9991 27.131 27.3455V30.0459C27.131 30.3933 27.4126 30.6749 27.76 30.6749H31.9537C32.3011 30.6749 32.5827 30.3932 32.5827 30.0459V24.1747C32.5826 19.8538 29.9096 16.8359 26.0824 16.8359Z" fill="#C7AB80"/>
</g>
<defs>
<clipPath id="clip0_6001_597">
<rect width="39.8398" height="39.8398" fill="white" transform="translate(0.285156 0.902344)"/>
</clipPath>
</defs>
</svg>
