<?xml version="1.0" standalone="no"?>
  <!DOCTYPE svg PUBLIC "-//W3C//DTD SVG 1.1//EN" "http://www.w3.org/Graphics/SVG/1.1/DTD/svg11.dtd" >
  <svg>
  <metadata>
  Created by font-carrier
  </metadata>
  <defs>
  <font id="false" horiz-adv-x="1819" vert-adv-y="1819" >
    <font-face
      
      font-family="General Sans Extralight Italic"
      
      font-weight="400"
      
      font-stretch="normal"
      
      units-per-em="1000"
      
      ascent="1010"
      
      descent="-240"
      
    />
      <missing-glyph />

      

      
      <glyph glyph-name="uni21" unicode="&#x21;" d="M110 161L85 161L180 718L212 718L110 161M123 52Q123 29 106.50 12Q90-5 69-5Q52-5 41.50 5.50Q31 16 31 33Q31 55 47.50 72.50Q64 90 85 90Q102 90 112.50 79Q123 68 123 52Z"  horiz-adv-x="231" vert-adv-y="1000"  />

      
      <glyph glyph-name="uni22" unicode="&#x22;" d="M193 572L169 572L191 718L223 718L193 572M295 572L271 572L294 718L326 718L295 572Z"  horiz-adv-x="357" vert-adv-y="1000"  />

      
      <glyph glyph-name="uni23" unicode="&#x23;" d="M101 0L71 0L177 225L64 225L69 252L189 252L263 409L133 409L138 436L275 436L388 676L418 676L305 436L446 436L559 676L589 676L476 436L594 436L589 409L464 409L390 252L525 252L520 225L378 225L272 0L242 0L348 225L207 225L101 0M293 409L219 252L360 252L434 409L293 409Z"  horiz-adv-x="633" vert-adv-y="1000"  />

      
      <glyph glyph-name="uni24" unicode="&#x24;" d="M270-89L241-89L256-7Q161-1 106.50 53Q52 107 52 197L85 197Q87 114 138 68Q189 22 280 22Q364 22 416.50 65.50Q469 109 469 179Q469 234 441 264.50Q413 295 345 314L279 332Q124 374 124 503Q124 585 179 633.50Q234 682 332 685L345 767L374 767L361 684Q444 679 495 623Q546 567 546 482L513 482Q513 559 466 607Q419 655 343 655Q254 655 206 615.50Q158 576 158 503Q158 448 190 414Q222 380 290 362L358 344Q503 306 503 179Q503 97 443 45.50Q383-6 285-8L270-89Z"  horiz-adv-x="591" vert-adv-y="1000"  />

      
      <glyph glyph-name="uni25" unicode="&#x25;" d="M228 262Q159 262 116.50 308Q74 354 74 428Q74 531 140 606.50Q206 682 296 682Q365 682 407.50 636Q450 590 450 516Q450 413 384 337.50Q318 262 228 262M278 0L246 0L723 676L755 676L278 0M230 289Q307 289 363 356Q419 423 419 516Q419 579 385 617Q351 655 294 655Q217 655 161 588Q105 521 105 428Q105 365 139 327Q173 289 230 289M704-8Q635-8 592.50 38Q550 84 550 158Q550 261 616 336.50Q682 412 772 412Q841 412 883.50 366Q926 320 926 246Q926 143 860 67.50Q794-8 704-8M706 19Q783 19 839 86Q895 153 895 246Q895 309 861 347Q827 385 770 385Q693 385 637 318Q581 251 581 158Q581 95 615 57Q649 19 706 19Z"  horiz-adv-x="973" vert-adv-y="1000"  />

      
      <glyph glyph-name="uni26" unicode="&#x26;" d="M242 371L396 113Q447 180 477 297L509 297Q477 169 411 88L464 0L430 0L391 66Q314-11 205-11Q123-11 72.50 37Q22 85 22 163Q22 234 69 291.50Q116 349 203 380Q163 452 163 513Q163 592 209.50 639Q256 686 334 686Q400 686 442.50 643Q485 600 485 533L453 533Q453 589 420.50 623.50Q388 658 334 658Q269 658 232.50 619.50Q196 581 196 513Q196 449 242 371M56 163Q56 96 97 56.50Q138 17 206 17Q308 17 376 89L216 357Q138 329 97 278Q56 227 56 163Z"  horiz-adv-x="538" vert-adv-y="1000"  />

      
      <glyph glyph-name="uni27" unicode="&#x27;" d="M193 572L169 572L191 718L223 718L193 572Z"  horiz-adv-x="254" vert-adv-y="1000"  />

      
      <glyph glyph-name="uni28" unicode="&#x28;" d="M169-193L142-193Q86-69 86 95Q86 257 143 426Q200 595 298 718L329 718Q231 597 173 424Q115 251 115 86Q115-76 169-193Z"  horiz-adv-x="287" vert-adv-y="1000"  />

      
      <glyph glyph-name="uni29" unicode="&#x29;" d="M-10-193L-42-193Q55-73 113.50 100Q172 273 172 439Q172 600 119 718L146 718Q201 593 201 431Q201 268 144 98.50Q87-71-10-193Z"  horiz-adv-x="287" vert-adv-y="1000"  />

      
      <glyph glyph-name="uni2a" unicode="&#x2a;" d="M282 493L142 348L124 369L265 513L102 564L116 588L275 537L307 718L334 718L302 537L480 588L484 562L303 511L391 367L370 348L282 493Z"  horiz-adv-x="480" vert-adv-y="1000"  />

      
      <glyph glyph-name="uni2b" unicode="&#x2b;" d="M313 83L284 83L326 319L103 319L108 346L331 346L372 581L401 581L360 346L582 346L577 319L355 319L313 83Z"  horiz-adv-x="660" vert-adv-y="1000"  />

      
      <glyph glyph-name="uni2c" unicode="&#x2c;" d="M130 43Q130-10 90.50-51.50Q51-93-2-96L3-70Q37-66 63.50-42.50Q90-19 97 12Q87 7 74 7Q59 7 49 16Q39 25 39 40Q39 60 54 75Q69 90 89 90Q130 90 130 43Z"  horiz-adv-x="250" vert-adv-y="1000"  />

      
      <glyph glyph-name="uni2d" unicode="&#x2d;" d="M326 262L20 262L25 292L331 292L326 262Z"  horiz-adv-x="346" vert-adv-y="1000"  />

      
      <glyph glyph-name="uni2e" unicode="&#x2e;" d="M132 52Q132 29 116 12Q100-5 79-5Q62-5 51.50 5.50Q41 16 41 33Q41 56 57 73Q73 90 95 90Q111 90 121.50 79.50Q132 69 132 52Z"  horiz-adv-x="250" vert-adv-y="1000"  />

      
      <glyph glyph-name="uni2f" unicode="&#x2f;" d="M-50-193L-83-193L495 718L528 718L-50-193Z"  horiz-adv-x="445" vert-adv-y="1000"  />

      
      <glyph glyph-name="uni30" unicode="&#x30;" d="M59 217Q59 420 139 553Q219 686 341 686Q419 686 467.50 622Q516 558 516 455Q516 253 435.50 121.50Q355-10 232-10Q153-10 106 52Q59 114 59 217M92 220Q92 127 130.50 73Q169 19 236 19Q342 19 412.50 143.50Q483 268 483 455Q483 548 444 602.50Q405 657 338 657Q232 657 162 532Q92 407 92 220Z"  horiz-adv-x="549" vert-adv-y="1000"  />

      
      <glyph glyph-name="uni31" unicode="&#x31;" d="M132 0L100 0L214 647L85 647L90 676L251 676L132 0Z"  horiz-adv-x="271" vert-adv-y="1000"  />

      
      <glyph glyph-name="uni32" unicode="&#x32;" d="M373 29L368 0L12 0L15 19L272 281Q353 364 387.50 421.50Q422 479 422 532Q422 588 385.50 622.50Q349 657 290 657Q224 657 178.50 615Q133 573 120 498L88 498Q105 587 158 636.50Q211 686 290 686Q363 686 409 643Q455 600 455 533Q455 474 420.50 416Q386 358 294 264L64 29L373 29Z"  horiz-adv-x="467" vert-adv-y="1000"  />

      
      <glyph glyph-name="uni33" unicode="&#x33;" d="M258-9Q168-9 110.50 43Q53 95 53 180L82 180Q82 108 132 64Q182 20 258 20Q337 20 384.50 66.50Q432 113 432 192Q432 254 388.50 294.50Q345 335 278 335L214 335L219 364L280 364Q355 364 407.50 412.50Q460 461 460 531Q460 584 422 620.50Q384 657 328 657Q261 657 216.50 617.50Q172 578 162 511L131 511Q142 591 195.50 638.50Q249 686 328 686Q398 686 445.50 641.50Q493 597 493 531Q493 465 453.50 418Q414 371 341 349Q396 336 430.50 292Q465 248 465 192Q465 101 407.50 46Q350-9 258-9Z"  horiz-adv-x="553" vert-adv-y="1000"  />

      
      <glyph glyph-name="uni34" unicode="&#x34;" d="M453 176L370 176L339 0L306 0L337 176L22 176L25 193L441 676L458 676L375 205L458 205L453 176M72 205L342 205L414 602L72 205Z"  horiz-adv-x="520" vert-adv-y="1000"  />

      
      <glyph glyph-name="uni35" unicode="&#x35;" d="M230-9Q147-9 95.50 43Q44 95 44 180L73 180Q73 109 116.50 64.50Q160 20 230 20Q311 20 364.50 78.50Q418 137 418 226Q418 297 378 340.50Q338 384 273 384Q224 384 185 364Q146 344 103 297L80 301L202 676L495 676L490 647L222 647L127 351Q197 413 275 413Q351 413 401 360Q451 307 451 226Q451 125 388 58Q325-9 230-9Z"  horiz-adv-x="506" vert-adv-y="1000"  />

      
      <glyph glyph-name="uni36" unicode="&#x36;" d="M212-10Q130-10 80 40Q30 90 30 172Q30 287 152 417L393 676L431 676L179 402Q226 429 284 429Q362 429 411 379Q460 329 460 250Q460 143 387.50 66.50Q315-10 212-10M214 18Q302 18 364.50 86Q427 154 427 250Q427 319 386.50 361Q346 403 279 403Q188 403 125 336Q62 269 62 172Q62 100 102.50 59Q143 18 214 18Z"  horiz-adv-x="508" vert-adv-y="1000"  />

      
      <glyph glyph-name="uni37" unicode="&#x37;" d="M492 657L110 0L75 0L453 646L87 646L92 676L495 676L492 657Z"  horiz-adv-x="451" vert-adv-y="1000"  />

      
      <glyph glyph-name="uni38" unicode="&#x38;" d="M488 202Q488 110 422.50 50.50Q357-9 256-9Q169-9 112.50 37.50Q56 84 56 157Q56 228 104.50 281Q153 334 236 354Q196 366 170 404Q144 442 144 488Q144 571 204 628.50Q264 686 349 686Q421 686 469 642.50Q517 599 517 534Q517 470 477 419Q437 368 371 349Q423 335 455.50 294.50Q488 254 488 202M177 488Q177 433 212.50 399Q248 365 305 365Q382 365 433 413Q484 461 484 534Q484 589 445.50 623Q407 657 346 657Q274 657 225.50 608.50Q177 560 177 488M89 157Q89 96 136.50 58Q184 20 259 20Q345 20 400 71.50Q455 123 455 202Q455 261 412 298Q369 335 300 335Q208 335 148.50 284.50Q89 234 89 157Z"  horiz-adv-x="574" vert-adv-y="1000"  />

      
      <glyph glyph-name="uni39" unicode="&#x39;" d="M323 686Q405 686 455 636Q505 586 505 504Q505 389 383 259L142 0L104 0L356 274Q309 247 251 247Q173 247 124 297Q75 347 75 426Q75 533 147.50 609.50Q220 686 323 686M321 658Q233 658 170.50 590Q108 522 108 426Q108 357 148.50 315Q189 273 256 273Q347 273 410 340Q473 407 473 504Q473 576 432.50 617Q392 658 321 658Z"  horiz-adv-x="508" vert-adv-y="1000"  />

      
      <glyph glyph-name="uni3a" unicode="&#x3a;" d="M209 487Q209 464 193.50 447Q178 430 156 430Q139 430 129 440.50Q119 451 119 468Q119 491 135 508Q151 525 173 525Q189 525 199 514.50Q209 504 209 487M132 52Q132 29 116 12Q100-5 79-5Q62-5 51.50 5.50Q41 16 41 33Q41 56 57 73Q73 90 95 90Q111 90 121.50 79.50Q132 69 132 52Z"  horiz-adv-x="250" vert-adv-y="1000"  />

      
      <glyph glyph-name="uni3b" unicode="&#x3b;" d="M205 487Q205 464 189.50 447Q174 430 152 430Q135 430 125 440.50Q115 451 115 468Q115 491 131 508Q147 525 169 525Q185 525 195 514.50Q205 504 205 487M130 43Q130-10 90.50-51.50Q51-93-2-96L3-70Q37-66 63.50-42.50Q90-19 97 12Q84 7 75 7Q59 7 49 16Q39 25 39 40Q39 60 54 75Q69 90 89 90Q130 90 130 43Z"  horiz-adv-x="250" vert-adv-y="1000"  />

      
      <glyph glyph-name="uni3c" unicode="&#x3c;" d="M108 345L622 575L617 543L140 330L542 117L536 90L103 319L108 345Z"  horiz-adv-x="660" vert-adv-y="1000"  />

      
      <glyph glyph-name="uni3d" unicode="&#x3d;" d="M593 410L119 410L124 437L598 437L593 410M561 228L87 228L92 255L566 255L561 228Z"  horiz-adv-x="660" vert-adv-y="1000"  />

      
      <glyph glyph-name="uni3e" unicode="&#x3e;" d="M577 320L64 90L69 122L545 335L144 548L150 575L582 346L577 320Z"  horiz-adv-x="660" vert-adv-y="1000"  />

      
      <glyph glyph-name="uni3f" unicode="&#x3f;" d="M103 561L71 561Q91 640 143 684Q195 728 268 728Q335 728 376 688.50Q417 649 417 585Q417 494 301 400L258 365Q212 328 192 290.50Q172 253 159 161L133 161Q145 257 164 298.50Q183 340 230 379L281 421Q384 505 384 585Q384 637 352.50 667.50Q321 698 268 698Q207 698 163.50 662Q120 626 103 561M178 52Q178 29 162 12Q146-5 124-5Q108-5 97.50 6Q87 17 87 33Q87 55 103.50 72.50Q120 90 141 90Q157 90 167.50 79.50Q178 69 178 52Z"  horiz-adv-x="380" vert-adv-y="1000"  />

      
      <glyph glyph-name="uni40" unicode="&#x40;" d="M615-107L609-144Q507-203 373-203Q222-203 127.50-103.50Q33-4 33 155Q33 294 101 417Q169 540 283.50 613Q398 686 528 686Q676 686 770.50 592.50Q865 499 865 353Q865 217 799 122.50Q733 28 639 28Q590 28 564 54Q538 80 541 126Q471 28 366 28Q305 28 268.50 68.50Q232 109 232 177Q232 283 304.50 366Q377 449 470 449Q528 449 563 416Q598 383 603 324L643 435L674 435L589 203Q571 155 571 122Q571 56 642 56Q721 56 777 143Q833 230 833 352Q833 488 747 573Q661 658 524 658Q404 658 297.50 588.50Q191 519 128 402.50Q65 286 65 154Q65 7 150.50-84Q236-175 374-175Q509-175 615-107M265 178Q265 121 292.50 88.50Q320 56 369 56Q450 56 514.50 131Q579 206 579 301Q579 359 550.50 390Q522 421 468 421Q389 421 327 346.50Q265 272 265 178Z"  horiz-adv-x="900" vert-adv-y="1000"  />

      
      <glyph glyph-name="uni41" unicode="&#x41;" d="M533 0L489 222L145 222L23 0L-12 0L385 718L423 718L565 0L533 0M399 683L162 252L484 252L399 683Z"  horiz-adv-x="645" vert-adv-y="1000"  />

      
      <glyph glyph-name="uni42" unicode="&#x42;" d="M509 220Q509 119 441 59.50Q373 0 258 0L39 0L166 718L368 718Q445 718 491.50 676Q538 634 538 564Q538 490 496.50 438Q455 386 384 370Q441 357 475 317Q509 277 509 220M362 688L193 688L140 385L312 385Q403 385 453.50 432Q504 479 504 564Q504 623 466.50 655.50Q429 688 362 688M321 355L135 355L77 30L263 30Q360 30 417.50 81.50Q475 133 475 220Q475 282 433 318.50Q391 355 321 355Z"  horiz-adv-x="592" vert-adv-y="1000"  />

      
      <glyph glyph-name="uni43" unicode="&#x43;" d="M352-15Q223-15 140.50 73Q58 161 58 298Q58 480 175 606.50Q292 733 460 733Q576 733 649 657Q722 581 722 459L689 459Q689 569 625.50 636Q562 703 456 703Q302 703 197 586Q92 469 92 298Q92 172 165 93.50Q238 15 355 15Q575 15 654 260L688 260Q599-15 352-15Z"  horiz-adv-x="732" vert-adv-y="1000"  />

      
      <glyph glyph-name="uni44" unicode="&#x44;" d="M227 0L39 0L166 718L341 718Q463 718 539.50 633.50Q616 549 616 414Q616 235 505.50 117.50Q395 0 227 0M193 688L77 30L233 30Q383 30 482.50 139Q582 248 582 414Q582 537 514.50 612.50Q447 688 336 688L193 688Z"  horiz-adv-x="641" vert-adv-y="1000"  />

      
      <glyph glyph-name="uni45" unicode="&#x45;" d="M428 30L423 0L39 0L166 718L543 718L537 688L193 688L140 386L456 386L451 356L135 356L77 30L428 30Z"  horiz-adv-x="534" vert-adv-y="1000"  />

      
      <glyph glyph-name="uni46" unicode="&#x46;" d="M72 0L39 0L166 718L532 718L526 688L193 688L135 356L423 356L417 326L129 326L72 0Z"  horiz-adv-x="482" vert-adv-y="1000"  />

      
      <glyph glyph-name="uni47" unicode="&#x47;" d="M362-15Q227-15 142.50 72Q58 159 58 298Q58 481 177.50 607Q297 733 470 733Q592 733 668.50 661Q745 589 745 473L712 473Q712 577 645 640Q578 703 466 703Q307 703 199.50 586.50Q92 470 92 298Q92 170 167 92.50Q242 15 365 15Q487 15 576 95.50Q665 176 696 315L390 315L396 345L734 345Q707 180 606.50 82.50Q506-15 362-15Z"  horiz-adv-x="763" vert-adv-y="1000"  />

      
      <glyph glyph-name="uni48" unicode="&#x48;" d="M72 0L39 0L166 718L199 718L140 386L575 386L634 718L667 718L540 0L507 0L570 356L135 356L72 0Z"  horiz-adv-x="672" vert-adv-y="1000"  />

      
      <glyph glyph-name="uni49" unicode="&#x49;" d="M72 0L39 0L166 718L199 718L72 0Z"  horiz-adv-x="204" vert-adv-y="1000"  />

      
      <glyph glyph-name="uni4a" unicode="&#x4a;" d="M528 718L441 227Q398-15 211-15Q120-15 66 41.50Q12 98 12 193L44 193Q44 113 89.50 64.50Q135 16 211 16Q370 16 406 220L494 718L528 718Z"  horiz-adv-x="528" vert-adv-y="1000"  />

      
      <glyph glyph-name="uni4b" unicode="&#x4b;" d="M71 0L39 0L166 718L198 718L134 356L556 718L600 718L169 348L479 0L436 0L132 343L71 0Z"  horiz-adv-x="555" vert-adv-y="1000"  />

      
      <glyph glyph-name="uni4c" unicode="&#x4c;" d="M402 0L39 0L166 718L199 718L77 30L407 30L402 0Z"  horiz-adv-x="478" vert-adv-y="1000"  />

      
      <glyph glyph-name="uni4d" unicode="&#x4d;" d="M353 0L190 678L71 0L39 0L166 718L213 718L376 42L779 718L828 718L701 0L669 0L789 676L387 0L353 0Z"  horiz-adv-x="833" vert-adv-y="1000"  />

      
      <glyph glyph-name="uni4e" unicode="&#x4e;" d="M514 0L190 672L71 0L39 0L166 718L205 718L530 42L650 718L682 718L555 0L514 0Z"  horiz-adv-x="687" vert-adv-y="1000"  />

      
      <glyph glyph-name="uni4f" unicode="&#x4f;" d="M352-15Q223-15 140.50 73Q58 161 58 298Q58 480 175 606.50Q292 733 460 733Q588 733 670 646Q752 559 752 423Q752 241 635 113Q518-15 352-15M355 15Q508 15 613 133Q718 251 718 423Q718 548 645.50 625.50Q573 703 456 703Q302 703 197 586Q92 469 92 298Q92 172 165 93.50Q238 15 355 15Z"  horiz-adv-x="775" vert-adv-y="1000"  />

      
      <glyph glyph-name="uni50" unicode="&#x50;" d="M297 280L121 280L72 0L39 0L166 718L370 718Q453 718 506 667Q559 616 559 534Q559 422 486 351Q413 280 297 280M363 688L193 688L127 310L302 310Q402 310 463.50 372Q525 434 525 534Q525 604 480.50 646Q436 688 363 688Z"  horiz-adv-x="554" vert-adv-y="1000"  />

      
      <glyph glyph-name="uni51" unicode="&#x51;" d="M352-15Q223-15 140.50 73Q58 161 58 298Q58 480 175 606.50Q292 733 460 733Q588 733 670 646Q752 559 752 423Q752 288 685 179Q618 70 509 19L600-182L566-182L480 8Q419-15 352-15M355 15Q508 15 613 133Q718 251 718 423Q718 548 645.50 625.50Q573 703 456 703Q302 703 197 586Q92 469 92 298Q92 172 165 93.50Q238 15 355 15Z"  horiz-adv-x="775" vert-adv-y="1000"  />

      
      <glyph glyph-name="uni52" unicode="&#x52;" d="M72 0L39 0L166 718L389 718Q472 718 525.50 667.50Q579 617 579 538Q579 441 517 376.50Q455 312 352 302L501 0L465 0L317 300L125 300L72 0M193 688L130 330L322 330Q423 330 484 387Q545 444 545 538Q545 605 500 646.50Q455 688 381 688L193 688Z"  horiz-adv-x="589" vert-adv-y="1000"  />

      
      <glyph glyph-name="uni53" unicode="&#x53;" d="M529 188Q529 100 463.50 45Q398-10 293-10Q183-10 118.50 49Q54 108 54 209L87 209Q90 120 144.50 70Q199 20 293 20Q382 20 438.50 67Q495 114 495 188Q495 246 464.50 279Q434 312 362 332L292 351Q128 396 128 531Q128 622 190.50 675Q253 728 360 728Q454 728 514.50 668Q575 608 575 513L542 513Q542 595 491 646.50Q440 698 360 698Q268 698 215 653.50Q162 609 162 531Q162 471 198 435.50Q234 400 304 381L376 361Q455 339 492 297Q529 255 529 188Z"  horiz-adv-x="615" vert-adv-y="1000"  />

      
      <glyph glyph-name="uni54" unicode="&#x54;" d="M235 0L203 0L324 688L88 688L93 718L597 718L592 688L356 688L235 0Z"  horiz-adv-x="530" vert-adv-y="1000"  />

      
      <glyph glyph-name="uni55" unicode="&#x55;" d="M630 718L544 232Q523 114 454 49.50Q385-15 278-15Q174-15 116 51.50Q58 118 78 232L164 718L197 718L110 228Q92 125 141.50 70Q191 15 276 15Q371 15 432 71.50Q493 128 510 228L597 718L630 718Z"  horiz-adv-x="633" vert-adv-y="1000"  />

      
      <glyph glyph-name="uni56" unicode="&#x56;" d="M665 718L278 0L241 0L109 718L141 718L266 40L631 718L665 718Z"  horiz-adv-x="614" vert-adv-y="1000"  />

      
      <glyph glyph-name="uni57" unicode="&#x57;" d="M558 0L503 672L208 0L169 0L114 718L146 718L196 48L491 718L529 718L584 47L872 718L906 718L598 0L558 0Z"  horiz-adv-x="860" vert-adv-y="1000"  />

      
      <glyph glyph-name="uni58" unicode="&#x58;" d="M32 0L-6 0L289 374L136 718L170 718L313 396L568 718L606 718L326 366L489 0L455 0L302 345L32 0Z"  horiz-adv-x="575" vert-adv-y="1000"  />

      
      <glyph glyph-name="uni59" unicode="&#x59;" d="M315 269L267 0L234 0L282 269L109 718L143 718L303 303L609 718L647 718L315 269Z"  horiz-adv-x="596" vert-adv-y="1000"  />

      
      <glyph glyph-name="uni5a" unicode="&#x5a;" d="M471 0L-10 0L-6 20L530 688L130 688L136 718L582 718L578 698L42 30L476 30L471 0Z"  horiz-adv-x="553" vert-adv-y="1000"  />

      
      <glyph glyph-name="uni5b" unicode="&#x5b;" d="M161-193L33-193L194 718L322 718L317 691L218 691L67-166L166-166L161-193Z"  horiz-adv-x="290" vert-adv-y="1000"  />

      
      <glyph glyph-name="uni5c" unicode="&#x5c;" d="M368-193L339-193L77 718L106 718L368-193Z"  horiz-adv-x="445" vert-adv-y="1000"  />

      
      <glyph glyph-name="uni5d" unicode="&#x5d;" d="M96-193L-32-193L-27-166L72-166L223 691L124 691L129 718L257 718L96-193Z"  horiz-adv-x="290" vert-adv-y="1000"  />

      
      <glyph glyph-name="uni5e" unicode="&#x5e;" d="M502 274L386 644L140 274L108 274L375 676L404 676L531 274L502 274Z"  horiz-adv-x="635" vert-adv-y="1000"  />

      
      <glyph glyph-name="uni5f" unicode="&#x5f;" d="M395-193L-80-193L-75-166L400-166L395-193Z"  horiz-adv-x="475" vert-adv-y="1000"  />

      
      <glyph glyph-name="uni60" unicode="&#x60;" d="M374 594L339 594L264 718L299 718L374 594Z"  horiz-adv-x="500" vert-adv-y="1000"  />

      
      <glyph glyph-name="uni61" unicode="&#x61;" d="M347 0L366 111Q333 54 282.50 22Q232-10 174-10Q104-10 64.50 25.50Q25 61 25 123Q25 204 91.50 250Q158 296 275 296Q319 296 397 290L406 341Q419 416 386.50 460.50Q354 505 287 505Q148 505 113 342L82 342Q98 434 151.50 483.50Q205 533 289 533Q370 533 411.50 481.50Q453 430 439 347L378 0L347 0M58 123Q58 72 88 45Q118 18 176 18Q248 18 308 72Q368 126 383 213L392 264Q332 269 271 269Q172 269 115 230Q58 191 58 123Z"  horiz-adv-x="502" vert-adv-y="1000"  />

      
      <glyph glyph-name="uni62" unicode="&#x62;" d="M521 334Q521 189 443 89.50Q365-10 251-10Q189-10 146.50 26.50Q104 63 91 128L68 0L37 0L164 718L195 718L137 389Q172 456 227.50 494.50Q283 533 344 533Q425 533 473 479Q521 425 521 334M489 333Q489 415 450 460Q411 505 341 505Q240 505 172.50 406Q105 307 105 189Q105 110 145 64Q185 18 255 18Q353 18 421 109.50Q489 201 489 333Z"  horiz-adv-x="557" vert-adv-y="1000"  />

      
      <glyph glyph-name="uni63" unicode="&#x63;" d="M227-10Q144-10 91.50 51Q39 112 39 207Q39 346 113.50 439Q188 532 301 532Q380 532 428 478.50Q476 425 477 332L447 332Q444 415 405 459.50Q366 504 298 504Q201 504 136 418.50Q71 333 71 207Q71 122 115 70Q159 18 230 18Q369 18 422 191L453 191Q394-10 227-10Z"  horiz-adv-x="507" vert-adv-y="1000"  />

      
      <glyph glyph-name="uni64" unicode="&#x64;" d="M36 189Q36 334 114 433.50Q192 533 306 533Q368 533 410.50 496.50Q453 460 466 395L523 718L554 718L427 0L396 0L420 134Q385 67 329.50 28.50Q274-10 213-10Q132-10 84 44Q36 98 36 189M68 190Q68 108 107 63Q146 18 216 18Q317 18 384.50 117Q452 216 452 334Q452 413 412 459Q372 505 302 505Q204 505 136 413.50Q68 322 68 190Z"  horiz-adv-x="557" vert-adv-y="1000"  />

      
      <glyph glyph-name="uni65" unicode="&#x65;" d="M237-10Q149-10 94 50Q39 110 39 207Q39 345 115.50 438.50Q192 532 305 532Q405 532 452 454Q499 376 473 254L74 254Q71 232 71 207Q71 121 117 69.50Q163 18 240 18Q373 18 427 176L458 176Q398-10 237-10M302 504Q220 504 158.50 442Q97 380 78 282L446 282Q461 384 421.50 444Q382 504 302 504Z"  horiz-adv-x="517" vert-adv-y="1000"  />

      
      <glyph glyph-name="uni66" unicode="&#x66;" d="M102 0L69 0L156 496L31 496L36 523L161 523L171 581Q195 724 312 724Q343 724 369 716L363 685Q341 694 309 694Q263 694 239 667.50Q215 641 204 581L194 523L350 523L345 496L189 496L102 0Z"  horiz-adv-x="307" vert-adv-y="1000"  />

      
      <glyph glyph-name="uni67" unicode="&#x67;" d="M202-203Q114-203 66.50-156.50Q19-110 19-23L49-23Q49-97 88.50-136Q128-175 204-175Q282-175 332-129.50Q382-84 398 4L421 134Q387 69 332 32Q277-5 214-5Q133-5 85 49Q37 103 37 194Q37 336 115.50 434.50Q194 533 307 533Q369 533 411.50 496.50Q454 460 467 395L490 523L521 523L429 5Q411-97 353-150Q295-203 202-203M69 195Q69 113 108 68Q147 23 217 23Q319 23 386 119.50Q453 216 453 334Q453 413 413 459Q373 505 303 505Q206 505 137.50 414.50Q69 324 69 195Z"  horiz-adv-x="558" vert-adv-y="1000"  />

      
      <glyph glyph-name="uni68" unicode="&#x68;" d="M125 315L69 0L37 0L163 718L194 718L141 412Q172 469 221 501Q270 533 326 533Q403 533 443.50 479Q484 425 469 340L409 0L377 0L434 328Q448 411 418.50 458Q389 505 322 505Q254 505 196.50 450Q139 395 125 315Z"  horiz-adv-x="533" vert-adv-y="1000"  />

      
      <glyph glyph-name="uni69" unicode="&#x69;" d="M203 651Q203 633 190 619.50Q177 606 160 606Q147 606 138.50 614.50Q130 623 130 636Q130 654 143 667Q156 680 173 680Q186 680 194.50 672Q203 664 203 651M69 0L37 0L129 523L161 523L69 0Z"  horiz-adv-x="198" vert-adv-y="1000"  />

      
      <glyph glyph-name="uni6a" unicode="&#x6a;" d="M202 651Q202 633 189 619.50Q176 606 159 606Q146 606 137.50 614.50Q129 623 129 636Q129 654 142 667Q155 680 172 680Q185 680 193.50 672Q202 664 202 651M159 523L53-77Q42-138 5-170.50Q-32-203-90-203Q-125-203-145-193L-140-163Q-113-172-86-172Q3-172 20-77L126 523L159 523Z"  horiz-adv-x="196" vert-adv-y="1000"  />

      
      <glyph glyph-name="uni6b" unicode="&#x6b;" d="M69 0L37 0L164 718L196 718L116 268L430 523L473 523L151 261L400 0L359 0L114 256L69 0Z"  horiz-adv-x="446" vert-adv-y="1000"  />

      
      <glyph glyph-name="uni6c" unicode="&#x6c;" d="M68 0L37 0L164 718L195 718L68 0Z"  horiz-adv-x="198" vert-adv-y="1000"  />

      
      <glyph glyph-name="uni6d" unicode="&#x6d;" d="M69 0L37 0L129 523L160 523L141 412Q173 469 221 501Q269 533 324 533Q388 533 425 497Q462 461 465 397Q495 461 549 497Q603 533 660 533Q738 533 777 479.50Q816 426 801 340L741 0L709 0L766 328Q780 411 751.50 458Q723 505 656 505Q590 505 532 450Q474 395 461 319L405 0L372 0L430 328Q444 411 415.50 458Q387 505 320 505Q252 505 195.50 450Q139 395 125 315L69 0Z"  horiz-adv-x="865" vert-adv-y="1000"  />

      
      <glyph glyph-name="uni6e" unicode="&#x6e;" d="M125 315L69 0L37 0L129 523L160 523L141 412Q172 469 221 501Q270 533 326 533Q404 533 444 479Q484 425 469 340L409 0L377 0L434 328Q448 411 418.50 458Q389 505 322 505Q254 505 196.50 450Q139 395 125 315Z"  horiz-adv-x="533" vert-adv-y="1000"  />

      
      <glyph glyph-name="uni6f" unicode="&#x6f;" d="M225-10Q141-10 89 48Q37 106 37 200Q37 337 119.50 434.50Q202 532 317 532Q401 532 453 474Q505 416 505 322Q505 185 422.50 87.50Q340-10 225-10M228 18Q328 18 400.50 108Q473 198 473 322Q473 405 430 454.50Q387 504 314 504Q214 504 141.50 414Q69 324 69 200Q69 117 112 67.50Q155 18 228 18Z"  horiz-adv-x="542" vert-adv-y="1000"  />

      
      <glyph glyph-name="uni70" unicode="&#x70;" d="M521 334Q521 189 443 89.50Q365-10 251-10Q189-10 146.50 26.50Q104 63 91 128L34-193L3-193L130 523L161 523L137 389Q172 456 227.50 494.50Q283 533 344 533Q425 533 473 479Q521 425 521 334M489 333Q489 415 450 460Q411 505 341 505Q240 505 172.50 406Q105 307 105 189Q105 110 145 64Q185 18 255 18Q353 18 421 109.50Q489 201 489 333Z"  horiz-adv-x="557" vert-adv-y="1000"  />

      
      <glyph glyph-name="uni71" unicode="&#x71;" d="M36 189Q36 334 114 433.50Q192 533 306 533Q368 533 410.50 496.50Q453 460 466 395L489 523L520 523L393-193L362-193L420 134Q385 67 329.50 28.50Q274-10 213-10Q132-10 84 44Q36 98 36 189M68 190Q68 108 107 63Q146 18 216 18Q317 18 384.50 117Q452 216 452 334Q452 413 412 459Q372 505 302 505Q204 505 136 413.50Q68 322 68 190Z"  horiz-adv-x="557" vert-adv-y="1000"  />

      
      <glyph glyph-name="uni72" unicode="&#x72;" d="M121 294L69 0L37 0L129 523L160 523L137 394Q168 455 228 494Q288 533 350 533L344 498Q268 498 202 438.50Q136 379 121 294Z"  horiz-adv-x="312" vert-adv-y="1000"  />

      
      <glyph glyph-name="uni73" unicode="&#x73;" d="M408 137Q408 67 359 28.50Q310-10 218-10Q135-10 84 33Q33 76 29 156L59 156Q63 89 107 53Q151 17 220 17Q293 17 334.50 47.50Q376 78 376 137Q376 180 352 202Q328 224 274 237L213 252Q86 282 86 387Q86 453 136 493Q186 533 270 533Q349 533 393 490.50Q437 448 440 372L410 372Q399 506 270 506Q200 506 159 474Q118 442 118 388Q118 342 144 318Q170 294 221 282L283 267Q340 253 374 223.50Q408 194 408 137Z"  horiz-adv-x="486" vert-adv-y="1000"  />

      
      <glyph glyph-name="uni74" unicode="&#x74;" d="M259 32L254 0Q228-10 196-10Q134-10 105 29.50Q76 69 88 136L151 496L26 496L31 523L156 523L183 678L216 678L189 523L352 523L347 496L184 496L121 136Q101 20 198 20Q230 20 259 32Z"  horiz-adv-x="339" vert-adv-y="1000"  />

      
      <glyph glyph-name="uni75" unicode="&#x75;" d="M398 208L454 523L486 523L394 0L363 0L382 111Q350 54 303 22Q256-10 202-10Q124-10 86.50 43.50Q49 97 64 183L124 523L156 523L98 195Q84 112 111.50 65Q139 18 206 18Q273 18 328.50 73Q384 128 398 208Z"  horiz-adv-x="523" vert-adv-y="1000"  />

      
      <glyph glyph-name="uni76" unicode="&#x76;" d="M474 523L186 0L156 0L54 523L87 523L178 42L439 523L474 523Z"  horiz-adv-x="436" vert-adv-y="1000"  />

      
      <glyph glyph-name="uni77" unicode="&#x77;" d="M452 0L387 479L153 0L119 0L64 523L96 523L145 48L377 523L410 523L475 47L691 523L725 523L485 0L452 0Z"  horiz-adv-x="697" vert-adv-y="1000"  />

      
      <glyph glyph-name="uni78" unicode="&#x78;" d="M1 0L-36 0L202 272L69 523L104 523L226 294L428 523L465 523L241 269L381 0L346 0L217 247L1 0Z"  horiz-adv-x="437" vert-adv-y="1000"  />

      
      <glyph glyph-name="uni79" unicode="&#x79;" d="M474 523L87-193L53-193L162 8L54 523L87 523L185 51L439 523L474 523Z"  horiz-adv-x="436" vert-adv-y="1000"  />

      
      <glyph glyph-name="uni7a" unicode="&#x7a;" d="M362 0L-22 0L-19 19L391 495L80 495L85 523L441 523L437 501L30 28L367 28L362 0Z"  horiz-adv-x="432" vert-adv-y="1000"  />

      
      <glyph glyph-name="uni7b" unicode="&#x7b;" d="M26 248L31 276Q91 276 114.50 296.50Q138 317 146 363L190 612Q199 661 232 691Q265 721 310 721Q322 721 336 718L331 691Q325 692 314 692Q277 692 251 668Q225 644 218 602L177 369Q168 324 149.50 296.50Q131 269 91 260Q121 252 133.50 223Q146 194 139 155L98-77Q90-120 105.50-144Q121-168 159-168Q166-168 180-166L175-193Q159-195 153-195Q108-195 83.50-163.50Q59-132 67-87L111 162Q119 206 101 227Q83 248 26 248Z"  horiz-adv-x="284" vert-adv-y="1000"  />

      
      <glyph glyph-name="uni7c" unicode="&#x7c;" d="M53-193L24-193L185 718L214 718L53-193Z"  horiz-adv-x="238" vert-adv-y="1000"  />

      
      <glyph glyph-name="uni7d" unicode="&#x7d;" d="M258 278L253 250Q193 250 169.50 229.50Q146 209 138 163L94-86Q85-135 52-165Q19-195-26-195Q-38-195-52-192L-47-165Q-41-166-30-166Q7-166 33-142Q59-118 66-76L107 157Q116 202 134.50 229.50Q153 257 193 266Q163 274 150.50 303Q138 332 145 371L186 603Q202 694 125 694Q118 694 104 692L109 719Q125 721 131 721Q176 721 200.50 689.50Q225 658 217 613L173 364Q165 319 183 298.50Q201 278 258 278Z"  horiz-adv-x="283" vert-adv-y="1000"  />

      
      <glyph glyph-name="uni7e" unicode="&#x7e;" d="M464 273Q436 273 402 290.50Q368 308 341.50 328.50Q315 349 282 366.50Q249 384 222 384Q147 384 130 279L100 279Q125 411 225 411Q256 411 290.50 393.50Q325 376 350.50 355.50Q376 335 408 317.50Q440 300 467 300Q542 300 559 405L589 405Q564 273 464 273Z"  horiz-adv-x="660" vert-adv-y="1000"  />

      
      <glyph glyph-name="unia1" unicode="&#xa1;" d="M200 492Q200 470 183.50 452.50Q167 435 146 435Q129 435 118.50 445.50Q108 456 108 473Q108 496 124.50 513Q141 530 163 530Q179 530 189.50 519Q200 508 200 492M52-193L19-193L121 364L146 364L52-193Z"  horiz-adv-x="230" vert-adv-y="1000"  />

      
      <glyph glyph-name="unia2" unicode="&#xa2;" d="M218-90L190-90L204-9Q130 0 84.50 59.50Q39 119 39 207Q39 342 110.50 435Q182 528 292 532L306 613L334 613L320 531Q391 525 433.50 472Q476 419 477 332L447 332Q444 415 405 459.50Q366 504 298 504Q201 504 136 418.50Q71 333 71 207Q71 122 115 70Q159 18 230 18Q369 18 422 191L453 191Q396-7 231-10L218-90Z"  horiz-adv-x="507" vert-adv-y="1000"  />

      
      <glyph glyph-name="unia3" unicode="&#xa3;" d="M101 102Q28 102 8 0L-22 0Q3 125 98 132L131 319L46 319L51 346L136 346L161 485Q178 578 223.50 632Q269 686 345 686Q416 686 456 641Q496 596 496 511L464 511Q464 658 345 658Q226 658 192 475L168 346L367 346L362 319L163 319L130 129Q165 121 222.50 72.50Q280 24 315 24Q384 24 402 126L433 126Q412-6 310-6Q283-6 253 11Q223 28 201.50 48Q180 68 152.50 85Q125 102 101 102Z"  horiz-adv-x="499" vert-adv-y="1000"  />

      
      <glyph glyph-name="unia4" unicode="&#xa4;" d="M285 128Q214 128 168 176L105 119L88 139L153 196Q127 234 127 286Q127 400 206 479L161 537L180 556L225 497Q287 548 365 548Q438 548 483 498L547 556L565 537L499 478Q523 438 523 390Q523 280 447 199L494 139L475 119L428 181Q364 128 285 128M287 156Q374 156 433.50 226Q493 296 493 390Q493 449 457 484.50Q421 520 363 520Q275 520 216 450.50Q157 381 157 286Q157 227 193 191.50Q229 156 287 156Z"  horiz-adv-x="626" vert-adv-y="1000"  />

      
      <glyph glyph-name="unia5" unicode="&#xa5;" d="M445 192L255 192L221 0L187 0L221 192L32 192L37 219L226 219L232 253L211 319L54 319L59 346L203 346L101 675L135 675L254 290L508 675L546 675L328 346L472 346L467 319L310 319L266 253L260 219L450 219L445 192Z"  horiz-adv-x="501" vert-adv-y="1000"  />

      
      <glyph glyph-name="unia6" unicode="&#xa6;" d="M185 718L214 718L139 293L110 293L185 718M99 232L128 232L53-193L24-193L99 232Z"  horiz-adv-x="238" vert-adv-y="1000"  />

      
      <glyph glyph-name="unia7" unicode="&#xa7;" d="M54 236Q54 294 94 336Q134 378 205 391Q122 432 122 530Q122 597 172.50 641.50Q223 686 306 686Q385 686 429 643.50Q473 601 476 525L446 525Q435 659 306 659Q238 659 196 622.50Q154 586 154 531Q154 427 257 405L319 392Q377 380 410.50 344Q444 308 444 253Q444 194 403.50 150.50Q363 107 293 93Q376 52 376-46Q376-113 325.50-157.50Q275-202 192-202Q113-202 69-159.50Q25-117 22-41L52-41Q63-175 192-175Q260-175 302-138.50Q344-102 344-47Q344 57 241 79L179 92Q122 104 88 142.50Q54 181 54 236M86 236Q86 178 132.50 144.50Q179 111 251 111Q318 111 365 152.50Q412 194 412 253Q412 310 368 341.50Q324 373 247 373Q179 373 132.50 334Q86 295 86 236Z"  horiz-adv-x="504" vert-adv-y="1000"  />

      
      <glyph glyph-name="unia8" unicode="&#xa8;" d="M433 655Q433 636 419 621Q405 606 386 606Q372 606 362.50 616Q353 626 353 640Q353 659 367.50 673.50Q382 688 401 688Q415 688 424 679Q433 670 433 655M284 655Q284 636 270 621Q256 606 237 606Q222 606 213 615.50Q204 625 204 640Q204 659 218.50 673.50Q233 688 252 688Q266 688 275 679Q284 670 284 655Z"  horiz-adv-x="500" vert-adv-y="1000"  />

      
      <glyph glyph-name="unia9" unicode="&#xa9;" d="M336-9Q211-9 129 74.50Q47 158 47 288Q47 455 162.50 570.50Q278 686 442 686Q568 686 650.50 602.50Q733 519 733 389Q733 222 616.50 106.50Q500-9 336-9M336 18Q485 18 593 126.50Q701 235 701 389Q701 509 628 584Q555 659 442 659Q293 659 186 550.50Q79 442 79 288Q79 168 151 93Q223 18 336 18M505 293L536 293Q488 155 365 155Q300 155 260.50 195.50Q221 236 221 303Q221 394 277.50 457.50Q334 521 415 521Q476 521 514 482.50Q552 444 552 383L521 383Q521 432 491.50 463Q462 494 415 494Q348 494 300.50 438.50Q253 383 253 303Q253 247 283.50 214.50Q314 182 367 182Q416 182 452 211Q488 240 505 293Z"  horiz-adv-x="753" vert-adv-y="1000"  />

      
      <glyph glyph-name="uniaa" unicode="&#xaa;" d="M318 255L334 343Q308 298 267.50 272.50Q227 247 181 247Q125 247 90.50 276Q56 305 56 353Q56 417 112 455Q168 493 261 493Q294 493 358 490L365 527Q376 585 350.50 619.50Q325 654 271 654Q164 654 136 529L106 529Q120 602 163 642Q206 682 272 682Q339 682 374 639.50Q409 597 398 532L350 255L318 255M89 353Q89 275 183 275Q243 275 290 318Q337 361 348 425L354 462Q315 466 258 466Q178 466 133.50 436Q89 406 89 353Z"  horiz-adv-x="413" vert-adv-y="1000"  />

      
      <glyph glyph-name="uniab" unicode="&#xab;" d="M166 62L135 62L41 267L206 472L241 472L73 264L166 62M316 62L285 62L191 267L356 472L391 472L223 264L316 62Z"  horiz-adv-x="394" vert-adv-y="1000"  />

      
      <glyph glyph-name="uniac" unicode="&#xac;" d="M551 228L522 228L554 411L119 411L124 438L588 438L551 228Z"  horiz-adv-x="660" vert-adv-y="1000"  />

      
      <glyph glyph-name="uniad" unicode="&#xad;" d="M326 262L20 262L25 292L331 292L326 262Z"  horiz-adv-x="346" vert-adv-y="1000"  />

      
      <glyph glyph-name="uniae" unicode="&#xae;" d="M336-9Q211-9 129 74.50Q47 158 47 288Q47 455 162.50 570.50Q278 686 442 686Q568 686 650.50 602.50Q733 519 733 389Q733 222 616.50 106.50Q500-9 336-9M336 18Q485 18 593 126.50Q701 235 701 389Q701 509 628 584Q555 659 442 659Q293 659 186 550.50Q79 442 79 288Q79 168 151 93Q223 18 336 18M454 162L388 303L307 303L282 162L252 162L314 514L432 514Q475 514 501.50 489Q528 464 528 423Q528 376 499.50 345Q471 314 419 305L487 162L454 162M423 487L340 487L312 330L395 330Q442 330 470 355.50Q498 381 498 423Q498 453 478 470Q458 487 423 487Z"  horiz-adv-x="753" vert-adv-y="1000"  />

      
      <glyph glyph-name="uniaf" unicode="&#xaf;" d="M434 609L188 609L193 637L439 637L434 609Z"  horiz-adv-x="500" vert-adv-y="1000"  />

      
      <glyph glyph-name="unib0" unicode="&#xb0;" d="M238 303Q158 303 111 349Q64 395 64 474Q64 577 132.50 650Q201 723 298 723Q378 723 425 677Q472 631 472 552Q472 449 403.50 376Q335 303 238 303M241 330Q323 330 381.50 395Q440 460 440 552Q440 620 401.50 658Q363 696 295 696Q213 696 154.50 631Q96 566 96 474Q96 406 134.50 368Q173 330 241 330Z"  horiz-adv-x="447" vert-adv-y="1000"  />

      
      <glyph glyph-name="unib1" unicode="&#xb1;" d="M319 114L290 114L332 350L109 350L113 377L336 377L378 612L407 612L365 377L587 377L583 350L361 350L319 114M521 1L47 1L52 28L526 28L521 1Z"  horiz-adv-x="660" vert-adv-y="1000"  />

      
      <glyph glyph-name="unib2" unicode="&#xb2;" d="M324 541L319 515L82 515L85 532L247 679Q338 761 338 829Q338 860 316.50 880Q295 900 261 900Q217 900 188.50 876.50Q160 853 153 810L125 810Q136 865 171.50 896Q207 927 261 927Q308 927 338 900Q368 873 368 830Q368 788 344.50 749Q321 710 264 659L133 541L324 541Z"  horiz-adv-x="308" vert-adv-y="1000"  />

      
      <glyph glyph-name="unib3" unicode="&#xb3;" d="M378 631Q378 579 340 545Q302 511 244 511Q182 511 143.50 543Q105 575 105 626L132 626Q132 588 163.50 563Q195 538 244 538Q289 538 318 564Q347 590 347 631Q347 665 318.50 688.50Q290 712 248 712L208 712L213 738L253 738Q298 738 330.50 766.50Q363 795 363 835Q363 866 342.50 883.50Q322 901 286 901Q247 901 218 879Q189 857 179 820L151 820Q162 868 199.50 898Q237 928 286 928Q333 928 363 902Q393 876 393 835Q393 797 369.50 767.50Q346 738 303 724Q378 698 378 631Z"  horiz-adv-x="356" vert-adv-y="1000"  />

      
      <glyph glyph-name="unib4" unicode="&#xb4;" d="M282 594L240 594L358 718L400 718L282 594Z"  horiz-adv-x="500" vert-adv-y="1000"  />

      
      <glyph glyph-name="unib5" unicode="&#xb5;" d="M39-193L6-193L129 523L161 523L103 195Q88 111 117 64.50Q146 18 211 18Q277 18 333 73Q389 128 403 208L459 523L491 523L399 0L368 0L387 111Q356 53 308.50 21.50Q261-10 207-10Q162-10 128 12Q94 34 83 70L39-193Z"  horiz-adv-x="528" vert-adv-y="1000"  />

      
      <glyph glyph-name="unib6" unicode="&#xb6;" d="M241-193L211-193L288 239Q191 232 131 282Q71 332 71 421Q71 537 143 606.50Q215 676 334 676L637 676L632 647L518 647L369-193L340-193L489 647L390 647L241-193Z"  horiz-adv-x="584" vert-adv-y="1000"  />

      
      <glyph glyph-name="unib7" unicode="&#xb7;" d="M171 278Q171 255 155 238Q139 221 118 221Q101 221 90.50 231.50Q80 242 80 259Q80 282 96 299Q112 316 134 316Q150 316 160.50 305.50Q171 295 171 278Z"  horiz-adv-x="249" vert-adv-y="1000"  />

      
      <glyph glyph-name="unib8" unicode="&#xb8;" d="M274-114Q274-150 247-174Q220-198 179-198Q138-198 114-176.50Q90-155 90-119L119-119Q119-144 135.50-158.50Q152-173 179-173Q208-173 225.50-157Q243-141 243-114Q243-86 219.50-70Q196-54 164-59L197 7L224 7L200-40Q232-41 253-62Q274-83 274-114Z"  horiz-adv-x="500" vert-adv-y="1000"  />

      
      <glyph glyph-name="unib9" unicode="&#xb9;" d="M167 515L139 515L206 895L123 895L128 921L239 921L167 515Z"  horiz-adv-x="205" vert-adv-y="1000"  />

      
      <glyph glyph-name="uniba" unicode="&#xba;" d="M234 247Q165 247 122.50 293.50Q80 340 80 415Q80 525 147 603.50Q214 682 308 682Q377 682 419.50 635.50Q462 589 462 514Q462 404 395 325.50Q328 247 234 247M236 275Q316 275 372.50 344.50Q429 414 429 514Q429 580 396.50 617Q364 654 306 654Q226 654 169.50 584.50Q113 515 113 415Q113 349 145.50 312Q178 275 236 275Z"  horiz-adv-x="470" vert-adv-y="1000"  />

      
      <glyph glyph-name="unibb" unicode="&#xbb;" d="M80 472L111 472L205 267L40 62L5 62L173 270L80 472M230 472L261 472L355 267L190 62L155 62L323 270L230 472Z"  horiz-adv-x="394" vert-adv-y="1000"  />

      
      <glyph glyph-name="unibc" unicode="&#xbc;" d="M124 270L96 270L163 650L80 650L85 676L196 676L124 270M55 0L25 0L503 676L534 676L55 0M534 102L480 102L462 0L433 0L451 102L247 102L250 120L516 406L534 406L485 128L539 128L534 102M288 128L456 128L497 352L288 128Z"  horiz-adv-x="595" vert-adv-y="1000"  />

      
      <glyph glyph-name="unibd" unicode="&#xbd;" d="M124 270L96 270L163 650L80 650L85 676L196 676L124 270M55 0L25 0L503 676L534 676L55 0M560 26L555 0L318 0L321 17L483 164Q574 246 574 314Q574 345 552.50 365Q531 385 497 385Q453 385 424.50 361.50Q396 338 389 295L361 295Q372 350 407.50 381Q443 412 497 412Q544 412 574 385Q604 358 604 315Q604 273 580.50 234Q557 195 500 144L369 26L560 26Z"  horiz-adv-x="635" vert-adv-y="1000"  />

      
      <glyph glyph-name="unibe" unicode="&#xbe;" d="M335 386Q335 334 297 300Q259 266 201 266Q139 266 100.50 298Q62 330 62 381L89 381Q89 343 120.50 318Q152 293 201 293Q246 293 275 319Q304 345 304 386Q304 420 275.50 443.50Q247 467 205 467L165 467L170 493L210 493Q255 493 287.50 521.50Q320 550 320 590Q320 621 299.50 638.50Q279 656 243 656Q204 656 175 634Q146 612 136 575L108 575Q119 623 156.50 653Q194 683 243 683Q290 683 320 657Q350 631 350 590Q350 552 326.50 522.50Q303 493 260 479Q335 454 335 386M206 0L176 0L654 676L685 676L206 0M714 102L660 102L642 0L613 0L631 102L427 102L430 120L696 406L714 406L665 128L719 128L714 102M468 128L636 128L677 352L468 128Z"  horiz-adv-x="775" vert-adv-y="1000"  />

      
      <glyph glyph-name="unibf" unicode="&#xbf;" d="M203 473Q203 496 219 513Q235 530 257 530Q273 530 283.50 519Q294 508 294 492Q294 470 277.50 452.50Q261 435 240 435Q224 435 213.50 445.50Q203 456 203 473M278-36L310-36Q290-115 238-159Q186-203 113-203Q46-203 5-163.50Q-36-124-36-60Q-36 31 80 125L123 160Q169 197 189 234.50Q209 272 222 364L248 364Q236 268 217 226.50Q198 185 151 146L100 104Q-3 20-3-60Q-3-112 28.50-142.50Q60-173 113-173Q174-173 217.50-137Q261-101 278-36Z"  horiz-adv-x="380" vert-adv-y="1000"  />

      
      <glyph glyph-name="unic0" unicode="&#xc0;" d="M429 789L394 789L319 913L354 913L429 789M533 0L489 222L145 222L23 0L-12 0L385 718L423 718L565 0L533 0M399 683L162 252L484 252L399 683Z"  horiz-adv-x="645" vert-adv-y="1000"  />

      
      <glyph glyph-name="unic1" unicode="&#xc1;" d="M439 789L397 789L515 913L557 913L439 789M533 0L489 222L145 222L23 0L-12 0L385 718L423 718L565 0L533 0M399 683L162 252L484 252L399 683Z"  horiz-adv-x="645" vert-adv-y="1000"  />

      
      <glyph glyph-name="unic2" unicode="&#xc2;" d="M324 789L281 789L426 913L451 913L553 789L517 789L437 885L324 789M533 0L489 222L145 222L23 0L-12 0L385 718L423 718L565 0L533 0M399 683L162 252L484 252L399 683Z"  horiz-adv-x="645" vert-adv-y="1000"  />

      
      <glyph glyph-name="unic3" unicode="&#xc3;" d="M299 789L272 789Q279 845 304 876.50Q329 908 365 908Q386 908 403.50 894.50Q421 881 432 864.50Q443 848 458 834.50Q473 821 490 821Q513 821 529 845.50Q545 870 551 913L579 913Q571 857 546.50 825.50Q522 794 486 794Q460 794 439 816Q418 838 400 859.50Q382 881 361 881Q312 881 299 789M533 0L489 222L145 222L23 0L-12 0L385 718L423 718L565 0L533 0M399 683L162 252L484 252L399 683Z"  horiz-adv-x="645" vert-adv-y="1000"  />

      
      <glyph glyph-name="unic4" unicode="&#xc4;" d="M541 850Q541 831 527 816Q513 801 494 801Q480 801 470.50 811Q461 821 461 835Q461 854 475.50 868.50Q490 883 509 883Q523 883 532 874Q541 865 541 850M392 850Q392 831 378 816Q364 801 345 801Q330 801 321 810.50Q312 820 312 835Q312 854 326.50 868.50Q341 883 360 883Q374 883 383 874Q392 865 392 850M533 0L489 222L145 222L23 0L-12 0L385 718L423 718L565 0L533 0M399 683L162 252L484 252L399 683Z"  horiz-adv-x="645" vert-adv-y="1000"  />

      
      <glyph glyph-name="unic5" unicode="&#xc5;" d="M419 785Q382 785 357.50 808.50Q333 832 333 868Q333 913 366.50 946Q400 979 446 979Q483 979 508 955Q533 931 533 895Q533 851 499 818Q465 785 419 785M422 811Q456 811 480 835.50Q504 860 504 895Q504 921 487 937Q470 953 443 953Q409 953 385.50 928.50Q362 904 362 868Q362 842 378 826.50Q394 811 422 811M533 0L489 222L145 222L23 0L-12 0L385 718L423 718L565 0L533 0M399 683L162 252L484 252L399 683Z"  horiz-adv-x="645" vert-adv-y="1000"  />

      
      <glyph glyph-name="unic6" unicode="&#xc6;" d="M405 222L164 222L4 0L-32 0L488 718L822 718L816 688L520 688L467 386L734 386L729 356L462 356L404 30L706 30L701 0L366 0L405 222M410 252L483 663L186 252L410 252Z"  horiz-adv-x="812" vert-adv-y="1000"  />

      
      <glyph glyph-name="unic7" unicode="&#xc7;" d="M352-15L335-15L322-40Q354-41 375-62Q396-83 396-114Q396-150 369-174Q342-198 301-198Q260-198 236-176.50Q212-155 212-119L241-119Q241-144 257.50-158.50Q274-173 301-173Q330-173 347.50-157Q365-141 365-114Q365-86 341.50-70Q318-54 286-59L309-12Q197 2 127.50 87.50Q58 173 58 298Q58 480 175 606.50Q292 733 460 733Q576 733 649 657Q722 581 722 459L689 459Q689 569 625.50 636Q562 703 456 703Q302 703 197 586Q92 469 92 298Q92 172 165 93.50Q238 15 355 15Q575 15 654 260L688 260Q599-15 352-15Z"  horiz-adv-x="732" vert-adv-y="1000"  />

      
      <glyph glyph-name="unic8" unicode="&#xc8;" d="M385 789L350 789L275 913L310 913L385 789M428 30L423 0L39 0L166 718L543 718L537 688L193 688L140 386L456 386L451 356L135 356L77 30L428 30Z"  horiz-adv-x="534" vert-adv-y="1000"  />

      
      <glyph glyph-name="unic9" unicode="&#xc9;" d="M395 789L353 789L471 913L513 913L395 789M428 30L423 0L39 0L166 718L543 718L537 688L193 688L140 386L456 386L451 356L135 356L77 30L428 30Z"  horiz-adv-x="534" vert-adv-y="1000"  />

      
      <glyph glyph-name="unica" unicode="&#xca;" d="M280 789L237 789L382 913L407 913L509 789L473 789L393 885L280 789M428 30L423 0L39 0L166 718L543 718L537 688L193 688L140 386L456 386L451 356L135 356L77 30L428 30Z"  horiz-adv-x="534" vert-adv-y="1000"  />

      
      <glyph glyph-name="unicb" unicode="&#xcb;" d="M497 850Q497 831 483 816Q469 801 450 801Q436 801 426.50 811Q417 821 417 835Q417 854 431.50 868.50Q446 883 465 883Q479 883 488 874Q497 865 497 850M348 850Q348 831 334 816Q320 801 301 801Q286 801 277 810.50Q268 820 268 835Q268 854 282.50 868.50Q297 883 316 883Q330 883 339 874Q348 865 348 850M428 30L423 0L39 0L166 718L543 718L537 688L193 688L140 386L456 386L451 356L135 356L77 30L428 30Z"  horiz-adv-x="534" vert-adv-y="1000"  />

      
      <glyph glyph-name="unicc" unicode="&#xcc;" d="M206 789L172 789L107 913L141 913L206 789M72 0L39 0L166 718L199 718L72 0Z"  horiz-adv-x="204" vert-adv-y="1000"  />

      
      <glyph glyph-name="unicd" unicode="&#xcd;" d="M217 789L177 789L285 913L325 913L217 789M72 0L39 0L166 718L199 718L72 0Z"  horiz-adv-x="204" vert-adv-y="1000"  />

      
      <glyph glyph-name="unice" unicode="&#xce;" d="M110 789L70 789L203 913L225 913L314 789L281 789L212 885L110 789M72 0L39 0L166 718L199 718L72 0Z"  horiz-adv-x="204" vert-adv-y="1000"  />

      
      <glyph glyph-name="unicf" unicode="&#xcf;" d="M311 851Q311 831 297.50 816Q284 801 266 801Q252 801 244 810.50Q236 820 236 834Q236 854 249.50 868.50Q263 883 281 883Q294 883 302.50 874Q311 865 311 851M174 851Q174 831 160.50 816Q147 801 129 801Q115 801 106.50 810.50Q98 820 98 834Q98 854 111.50 868.50Q125 883 144 883Q157 883 165.50 874Q174 865 174 851M72 0L39 0L166 718L199 718L72 0Z"  horiz-adv-x="204" vert-adv-y="1000"  />

      
      <glyph glyph-name="unid0" unicode="&#xd0;" d="M268 0L80 0L143 357L23 357L28 385L148 385L207 718L382 718Q504 718 580.50 633.50Q657 549 657 414Q657 235 546.50 117.50Q436 0 268 0M331 357L176 357L118 30L274 30Q424 30 523.50 139Q623 248 623 414Q623 537 555.50 612.50Q488 688 377 688L234 688L181 385L336 385L331 357Z"  horiz-adv-x="682" vert-adv-y="1000"  />

      
      <glyph glyph-name="unid1" unicode="&#xd1;" d="M319 789L292 789Q299 845 324 876.50Q349 908 385 908Q406 908 423.50 894.50Q441 881 452 864.50Q463 848 478 834.50Q493 821 510 821Q533 821 549 845.50Q565 870 571 913L599 913Q591 857 566.50 825.50Q542 794 506 794Q480 794 459 816Q438 838 420 859.50Q402 881 381 881Q332 881 319 789M514 0L190 672L71 0L39 0L166 718L205 718L530 42L650 718L682 718L555 0L514 0Z"  horiz-adv-x="687" vert-adv-y="1000"  />

      
      <glyph glyph-name="unid2" unicode="&#xd2;" d="M483 789L448 789L373 913L408 913L483 789M352-15Q223-15 140.50 73Q58 161 58 298Q58 480 175 606.50Q292 733 460 733Q588 733 670 646Q752 559 752 423Q752 241 635 113Q518-15 352-15M355 15Q508 15 613 133Q718 251 718 423Q718 548 645.50 625.50Q573 703 456 703Q302 703 197 586Q92 469 92 298Q92 172 165 93.50Q238 15 355 15Z"  horiz-adv-x="775" vert-adv-y="1000"  />

      
      <glyph glyph-name="unid3" unicode="&#xd3;" d="M493 789L451 789L569 913L611 913L493 789M352-15Q223-15 140.50 73Q58 161 58 298Q58 480 175 606.50Q292 733 460 733Q588 733 670 646Q752 559 752 423Q752 241 635 113Q518-15 352-15M355 15Q508 15 613 133Q718 251 718 423Q718 548 645.50 625.50Q573 703 456 703Q302 703 197 586Q92 469 92 298Q92 172 165 93.50Q238 15 355 15Z"  horiz-adv-x="775" vert-adv-y="1000"  />

      
      <glyph glyph-name="unid4" unicode="&#xd4;" d="M378 789L335 789L480 913L505 913L607 789L571 789L491 885L378 789M352-15Q223-15 140.50 73Q58 161 58 298Q58 480 175 606.50Q292 733 460 733Q588 733 670 646Q752 559 752 423Q752 241 635 113Q518-15 352-15M355 15Q508 15 613 133Q718 251 718 423Q718 548 645.50 625.50Q573 703 456 703Q302 703 197 586Q92 469 92 298Q92 172 165 93.50Q238 15 355 15Z"  horiz-adv-x="775" vert-adv-y="1000"  />

      
      <glyph glyph-name="unid5" unicode="&#xd5;" d="M353 789L326 789Q333 845 358 876.50Q383 908 419 908Q440 908 457.50 894.50Q475 881 486 864.50Q497 848 512 834.50Q527 821 544 821Q567 821 583 845.50Q599 870 605 913L633 913Q625 857 600.50 825.50Q576 794 540 794Q514 794 493 816Q472 838 454 859.50Q436 881 415 881Q366 881 353 789M352-15Q223-15 140.50 73Q58 161 58 298Q58 480 175 606.50Q292 733 460 733Q588 733 670 646Q752 559 752 423Q752 241 635 113Q518-15 352-15M355 15Q508 15 613 133Q718 251 718 423Q718 548 645.50 625.50Q573 703 456 703Q302 703 197 586Q92 469 92 298Q92 172 165 93.50Q238 15 355 15Z"  horiz-adv-x="775" vert-adv-y="1000"  />

      
      <glyph glyph-name="unid6" unicode="&#xd6;" d="M595 850Q595 831 581 816Q567 801 548 801Q534 801 524.50 811Q515 821 515 835Q515 854 529.50 868.50Q544 883 563 883Q577 883 586 874Q595 865 595 850M446 850Q446 831 432 816Q418 801 399 801Q384 801 375 810.50Q366 820 366 835Q366 854 380.50 868.50Q395 883 414 883Q428 883 437 874Q446 865 446 850M352-15Q223-15 140.50 73Q58 161 58 298Q58 480 175 606.50Q292 733 460 733Q588 733 670 646Q752 559 752 423Q752 241 635 113Q518-15 352-15M355 15Q508 15 613 133Q718 251 718 423Q718 548 645.50 625.50Q573 703 456 703Q302 703 197 586Q92 469 92 298Q92 172 165 93.50Q238 15 355 15Z"  horiz-adv-x="775" vert-adv-y="1000"  />

      
      <glyph glyph-name="unid7" unicode="&#xd7;" d="M129 130L112 150L325 339L180 527L200 545L345 357L557 545L574 525L361 336L506 148L486 130L341 318L129 130Z"  horiz-adv-x="660" vert-adv-y="1000"  />

      
      <glyph glyph-name="unid8" unicode="&#xd8;" d="M65 0L27 0L122 95Q58 178 58 298Q58 480 175 606.50Q292 733 460 733Q591 733 674 642L750 718L788 718L691 622Q752 539 752 423Q752 241 635 113Q518-15 352-15Q223-15 139 74L65 0M92 298Q92 191 145 118L651 619Q578 703 456 703Q302 703 197 586Q92 469 92 298M355 15Q508 15 613 133Q718 251 718 423Q718 527 667 598L162 97Q236 15 355 15Z"  horiz-adv-x="775" vert-adv-y="1000"  />

      
      <glyph glyph-name="unid9" unicode="&#xd9;" d="M422 789L387 789L312 913L347 913L422 789M630 718L544 232Q523 114 454 49.50Q385-15 278-15Q174-15 116 51.50Q58 118 78 232L164 718L197 718L110 228Q92 125 141.50 70Q191 15 276 15Q371 15 432 71.50Q493 128 510 228L597 718L630 718Z"  horiz-adv-x="633" vert-adv-y="1000"  />

      
      <glyph glyph-name="unida" unicode="&#xda;" d="M432 789L390 789L508 913L550 913L432 789M630 718L544 232Q523 114 454 49.50Q385-15 278-15Q174-15 116 51.50Q58 118 78 232L164 718L197 718L110 228Q92 125 141.50 70Q191 15 276 15Q371 15 432 71.50Q493 128 510 228L597 718L630 718Z"  horiz-adv-x="633" vert-adv-y="1000"  />

      
      <glyph glyph-name="unidb" unicode="&#xdb;" d="M317 789L274 789L419 913L444 913L546 789L510 789L430 885L317 789M630 718L544 232Q523 114 454 49.50Q385-15 278-15Q174-15 116 51.50Q58 118 78 232L164 718L197 718L110 228Q92 125 141.50 70Q191 15 276 15Q371 15 432 71.50Q493 128 510 228L597 718L630 718Z"  horiz-adv-x="633" vert-adv-y="1000"  />

      
      <glyph glyph-name="unidc" unicode="&#xdc;" d="M534 850Q534 831 520 816Q506 801 487 801Q473 801 463.50 811Q454 821 454 835Q454 854 468.50 868.50Q483 883 502 883Q516 883 525 874Q534 865 534 850M385 850Q385 831 371 816Q357 801 338 801Q323 801 314 810.50Q305 820 305 835Q305 854 319.50 868.50Q334 883 353 883Q367 883 376 874Q385 865 385 850M630 718L544 232Q523 114 454 49.50Q385-15 278-15Q174-15 116 51.50Q58 118 78 232L164 718L197 718L110 228Q92 125 141.50 70Q191 15 276 15Q371 15 432 71.50Q493 128 510 228L597 718L630 718Z"  horiz-adv-x="633" vert-adv-y="1000"  />

      
      <glyph glyph-name="unidd" unicode="&#xdd;" d="M410 789L368 789L486 913L528 913L410 789M315 269L267 0L234 0L282 269L109 718L143 718L303 303L609 718L647 718L315 269Z"  horiz-adv-x="596" vert-adv-y="1000"  />

      
      <glyph glyph-name="unide" unicode="&#xde;" d="M268 142L97 142L72 0L39 0L166 718L199 718L174 580L340 580Q425 580 478 528.50Q531 477 531 396Q531 284 457.50 213Q384 142 268 142M334 550L169 550L102 172L272 172Q373 172 435 234Q497 296 497 396Q497 465 452 507.50Q407 550 334 550Z"  horiz-adv-x="550" vert-adv-y="1000"  />

      
      <glyph glyph-name="unidf" unicode="&#xdf;" d="M495 209Q495 106 429 48Q363-10 263-10Q230-10 199-4L204 25Q234 18 264 18Q348 18 405.50 67.50Q463 117 463 209Q463 280 415 318.50Q367 357 298 357L263 357L268 385L303 385Q385 385 440 435.50Q495 486 495 573Q495 630 461 664.50Q427 699 368 699Q303 699 255.50 653Q208 607 194 526L102 0L69 0L156 496L31 496L36 523L161 523Q178 619 233 673Q288 727 370 727Q441 727 484.50 683.50Q528 640 528 573Q528 491 482 440Q436 389 370 370Q495 330 495 209Z"  horiz-adv-x="553" vert-adv-y="1000"  />

      
      <glyph glyph-name="unie0" unicode="&#xe0;" d="M322 594L287 594L212 718L247 718L322 594M347 0L366 111Q333 54 282.50 22Q232-10 174-10Q104-10 64.50 25.50Q25 61 25 123Q25 204 91.50 250Q158 296 275 296Q319 296 397 290L406 341Q419 416 386.50 460.50Q354 505 287 505Q148 505 113 342L82 342Q98 434 151.50 483.50Q205 533 289 533Q370 533 411.50 481.50Q453 430 439 347L378 0L347 0M58 123Q58 72 88 45Q118 18 176 18Q248 18 308 72Q368 126 383 213L392 264Q332 269 271 269Q172 269 115 230Q58 191 58 123Z"  horiz-adv-x="502" vert-adv-y="1000"  />

      
      <glyph glyph-name="unie1" unicode="&#xe1;" d="M332 594L290 594L408 718L450 718L332 594M347 0L366 111Q333 54 282.50 22Q232-10 174-10Q104-10 64.50 25.50Q25 61 25 123Q25 204 91.50 250Q158 296 275 296Q319 296 397 290L406 341Q419 416 386.50 460.50Q354 505 287 505Q148 505 113 342L82 342Q98 434 151.50 483.50Q205 533 289 533Q370 533 411.50 481.50Q453 430 439 347L378 0L347 0M58 123Q58 72 88 45Q118 18 176 18Q248 18 308 72Q368 126 383 213L392 264Q332 269 271 269Q172 269 115 230Q58 191 58 123Z"  horiz-adv-x="502" vert-adv-y="1000"  />

      
      <glyph glyph-name="unie2" unicode="&#xe2;" d="M217 594L174 594L319 718L344 718L446 594L410 594L330 690L217 594M347 0L366 111Q333 54 282.50 22Q232-10 174-10Q104-10 64.50 25.50Q25 61 25 123Q25 204 91.50 250Q158 296 275 296Q319 296 397 290L406 341Q419 416 386.50 460.50Q354 505 287 505Q148 505 113 342L82 342Q98 434 151.50 483.50Q205 533 289 533Q370 533 411.50 481.50Q453 430 439 347L378 0L347 0M58 123Q58 72 88 45Q118 18 176 18Q248 18 308 72Q368 126 383 213L392 264Q332 269 271 269Q172 269 115 230Q58 191 58 123Z"  horiz-adv-x="502" vert-adv-y="1000"  />

      
      <glyph glyph-name="unie3" unicode="&#xe3;" d="M192 594L165 594Q172 650 197 681.50Q222 713 258 713Q279 713 296.50 699.50Q314 686 325 669.50Q336 653 351 639.50Q366 626 383 626Q406 626 422 650.50Q438 675 444 718L472 718Q464 662 439.50 630.50Q415 599 379 599Q358 599 340.50 612.50Q323 626 312 642.50Q301 659 286 672.50Q271 686 254 686Q205 686 192 594M347 0L366 111Q333 54 282.50 22Q232-10 174-10Q104-10 64.50 25.50Q25 61 25 123Q25 204 91.50 250Q158 296 275 296Q319 296 397 290L406 341Q419 416 386.50 460.50Q354 505 287 505Q148 505 113 342L82 342Q98 434 151.50 483.50Q205 533 289 533Q370 533 411.50 481.50Q453 430 439 347L378 0L347 0M58 123Q58 72 88 45Q118 18 176 18Q248 18 308 72Q368 126 383 213L392 264Q332 269 271 269Q172 269 115 230Q58 191 58 123Z"  horiz-adv-x="502" vert-adv-y="1000"  />

      
      <glyph glyph-name="unie4" unicode="&#xe4;" d="M434 655Q434 636 420 621Q406 606 387 606Q373 606 363.50 616Q354 626 354 640Q354 659 368.50 673.50Q383 688 402 688Q416 688 425 679Q434 670 434 655M285 655Q285 636 271 621Q257 606 238 606Q223 606 214 615.50Q205 625 205 640Q205 659 219.50 673.50Q234 688 253 688Q267 688 276 679Q285 670 285 655M347 0L366 111Q333 54 282.50 22Q232-10 174-10Q104-10 64.50 25.50Q25 61 25 123Q25 204 91.50 250Q158 296 275 296Q319 296 397 290L406 341Q419 416 386.50 460.50Q354 505 287 505Q148 505 113 342L82 342Q98 434 151.50 483.50Q205 533 289 533Q370 533 411.50 481.50Q453 430 439 347L378 0L347 0M58 123Q58 72 88 45Q118 18 176 18Q248 18 308 72Q368 126 383 213L392 264Q332 269 271 269Q172 269 115 230Q58 191 58 123Z"  horiz-adv-x="502" vert-adv-y="1000"  />

      
      <glyph glyph-name="unie5" unicode="&#xe5;" d="M312 590Q275 590 250.50 613.50Q226 637 226 673Q226 718 259.50 751Q293 784 339 784Q376 784 401 760Q426 736 426 700Q426 656 392 623Q358 590 312 590M315 616Q349 616 373 640.50Q397 665 397 700Q397 726 380 742Q363 758 336 758Q302 758 278.50 733.50Q255 709 255 673Q255 647 271 631.50Q287 616 315 616M347 0L366 111Q333 54 282.50 22Q232-10 174-10Q104-10 64.50 25.50Q25 61 25 123Q25 204 91.50 250Q158 296 275 296Q319 296 397 290L406 341Q419 416 386.50 460.50Q354 505 287 505Q148 505 113 342L82 342Q98 434 151.50 483.50Q205 533 289 533Q370 533 411.50 481.50Q453 430 439 347L378 0L347 0M58 123Q58 72 88 45Q118 18 176 18Q248 18 308 72Q368 126 383 213L392 264Q332 269 271 269Q172 269 115 230Q58 191 58 123Z"  horiz-adv-x="502" vert-adv-y="1000"  />

      
      <glyph glyph-name="unie6" unicode="&#xe6;" d="M25 123Q25 203 91 245.50Q157 288 275 288Q319 288 397 282L406 341Q417 417 385.50 461Q354 505 287 505Q148 505 113 342L82 342Q98 434 151.50 483.50Q205 533 289 533Q355 533 395.50 498.50Q436 464 442 404Q478 464 533.50 498Q589 532 655 532Q755 532 802 454Q849 376 823 254L424 254Q412 149 456 83.50Q500 18 590 18Q723 18 777 176L808 176Q748-10 587-10Q511-10 459.50 35.50Q408 81 394 157Q368 76 306.50 33Q245-10 174-10Q104-10 64.50 25.50Q25 61 25 123M652 504Q570 504 508.50 442Q447 380 428 282L796 282Q810 383 771 443.50Q732 504 652 504M58 123Q58 72 88 45Q118 18 176 18Q253 18 309 73.50Q365 129 383 213L392 256Q332 261 271 261Q170 261 114 225.50Q58 190 58 123Z"  horiz-adv-x="867" vert-adv-y="1000"  />

      
      <glyph glyph-name="unie7" unicode="&#xe7;" d="M297-114Q297-150 270-174Q243-198 202-198Q161-198 137-176.50Q113-155 113-119L142-119Q142-144 158.50-158.50Q175-173 202-173Q231-173 248.50-157Q266-141 266-114Q266-86 242.50-70Q219-54 187-59L212-9Q135-4 87 56Q39 116 39 207Q39 346 113.50 439Q188 532 301 532Q380 532 428 478.50Q476 425 477 332L447 332Q444 415 405 459.50Q366 504 298 504Q201 504 136 418.50Q71 333 71 207Q71 122 115 70Q159 18 230 18Q369 18 422 191L453 191Q396-3 238-10L223-40Q254-41 275.50-62Q297-83 297-114Z"  horiz-adv-x="507" vert-adv-y="1000"  />

      
      <glyph glyph-name="unie8" unicode="&#xe8;" d="M334 594L299 594L224 718L259 718L334 594M237-10Q149-10 94 50Q39 110 39 207Q39 345 115.50 438.50Q192 532 305 532Q405 532 452 454Q499 376 473 254L74 254Q71 232 71 207Q71 121 117 69.50Q163 18 240 18Q373 18 427 176L458 176Q398-10 237-10M302 504Q220 504 158.50 442Q97 380 78 282L446 282Q461 384 421.50 444Q382 504 302 504Z"  horiz-adv-x="517" vert-adv-y="1000"  />

      
      <glyph glyph-name="unie9" unicode="&#xe9;" d="M344 594L302 594L420 718L462 718L344 594M237-10Q149-10 94 50Q39 110 39 207Q39 345 115.50 438.50Q192 532 305 532Q405 532 452 454Q499 376 473 254L74 254Q71 232 71 207Q71 121 117 69.50Q163 18 240 18Q373 18 427 176L458 176Q398-10 237-10M302 504Q220 504 158.50 442Q97 380 78 282L446 282Q461 384 421.50 444Q382 504 302 504Z"  horiz-adv-x="517" vert-adv-y="1000"  />

      
      <glyph glyph-name="uniea" unicode="&#xea;" d="M229 594L186 594L331 718L356 718L458 594L422 594L342 690L229 594M237-10Q149-10 94 50Q39 110 39 207Q39 345 115.50 438.50Q192 532 305 532Q405 532 452 454Q499 376 473 254L74 254Q71 232 71 207Q71 121 117 69.50Q163 18 240 18Q373 18 427 176L458 176Q398-10 237-10M302 504Q220 504 158.50 442Q97 380 78 282L446 282Q461 384 421.50 444Q382 504 302 504Z"  horiz-adv-x="517" vert-adv-y="1000"  />

      
      <glyph glyph-name="unieb" unicode="&#xeb;" d="M446 655Q446 636 432 621Q418 606 399 606Q385 606 375.50 616Q366 626 366 640Q366 659 380.50 673.50Q395 688 414 688Q428 688 437 679Q446 670 446 655M297 655Q297 636 283 621Q269 606 250 606Q235 606 226 615.50Q217 625 217 640Q217 659 231.50 673.50Q246 688 265 688Q279 688 288 679Q297 670 297 655M237-10Q149-10 94 50Q39 110 39 207Q39 345 115.50 438.50Q192 532 305 532Q405 532 452 454Q499 376 473 254L74 254Q71 232 71 207Q71 121 117 69.50Q163 18 240 18Q373 18 427 176L458 176Q398-10 237-10M302 504Q220 504 158.50 442Q97 380 78 282L446 282Q461 384 421.50 444Q382 504 302 504Z"  horiz-adv-x="517" vert-adv-y="1000"  />

      
      <glyph glyph-name="uniec" unicode="&#xec;" d="M168 594L134 594L69 718L103 718L168 594M69 0L37 0L129 523L161 523L69 0Z"  horiz-adv-x="198" vert-adv-y="1000"  />

      
      <glyph glyph-name="unied" unicode="&#xed;" d="M179 594L139 594L247 718L287 718L179 594M69 0L37 0L129 523L161 523L69 0Z"  horiz-adv-x="198" vert-adv-y="1000"  />

      
      <glyph glyph-name="uniee" unicode="&#xee;" d="M72 594L32 594L165 718L187 718L276 594L243 594L174 690L72 594M69 0L37 0L129 523L161 523L69 0Z"  horiz-adv-x="198" vert-adv-y="1000"  />

      
      <glyph glyph-name="unief" unicode="&#xef;" d="M273 656Q273 636 259.50 621Q246 606 228 606Q214 606 206 615.50Q198 625 198 639Q198 659 211.50 673.50Q225 688 243 688Q256 688 264.50 679Q273 670 273 656M136 656Q136 636 122.50 621Q109 606 91 606Q77 606 68.50 615.50Q60 625 60 639Q60 659 73.50 673.50Q87 688 106 688Q119 688 127.50 679Q136 670 136 656M69 0L37 0L129 523L161 523L69 0Z"  horiz-adv-x="198" vert-adv-y="1000"  />

      
      <glyph glyph-name="unif0" unicode="&#xf0;" d="M37 200Q37 336 118 434Q199 532 309 532Q376 532 421 492L345 628L216 569L221 599L332 650L294 718L327 718L358 661L488 720L483 690L371 639L454 490Q505 400 505 322Q505 185 422.50 87.50Q340-10 225-10Q141-10 89 48Q37 106 37 200M69 200Q69 117 112 67.50Q155 18 228 18Q328 18 400.50 108Q473 198 473 322Q473 405 430 454.50Q387 504 314 504Q214 504 141.50 414Q69 324 69 200Z"  horiz-adv-x="542" vert-adv-y="1000"  />

      
      <glyph glyph-name="unif1" unicode="&#xf1;" d="M211 594L184 594Q191 650 216 681.50Q241 713 277 713Q298 713 315.50 699.50Q333 686 344 669.50Q355 653 370 639.50Q385 626 402 626Q425 626 441 650.50Q457 675 463 718L491 718Q483 662 458.50 630.50Q434 599 398 599Q377 599 359.50 612.50Q342 626 331 642.50Q320 659 305 672.50Q290 686 273 686Q224 686 211 594M125 315L69 0L37 0L129 523L160 523L141 412Q172 469 221 501Q270 533 326 533Q404 533 444 479Q484 425 469 340L409 0L377 0L434 328Q448 411 418.50 458Q389 505 322 505Q254 505 196.50 450Q139 395 125 315Z"  horiz-adv-x="533" vert-adv-y="1000"  />

      
      <glyph glyph-name="unif2" unicode="&#xf2;" d="M342 594L307 594L232 718L267 718L342 594M225-10Q141-10 89 48Q37 106 37 200Q37 337 119.50 434.50Q202 532 317 532Q401 532 453 474Q505 416 505 322Q505 185 422.50 87.50Q340-10 225-10M228 18Q328 18 400.50 108Q473 198 473 322Q473 405 430 454.50Q387 504 314 504Q214 504 141.50 414Q69 324 69 200Q69 117 112 67.50Q155 18 228 18Z"  horiz-adv-x="542" vert-adv-y="1000"  />

      
      <glyph glyph-name="unif3" unicode="&#xf3;" d="M352 594L310 594L428 718L470 718L352 594M225-10Q141-10 89 48Q37 106 37 200Q37 337 119.50 434.50Q202 532 317 532Q401 532 453 474Q505 416 505 322Q505 185 422.50 87.50Q340-10 225-10M228 18Q328 18 400.50 108Q473 198 473 322Q473 405 430 454.50Q387 504 314 504Q214 504 141.50 414Q69 324 69 200Q69 117 112 67.50Q155 18 228 18Z"  horiz-adv-x="542" vert-adv-y="1000"  />

      
      <glyph glyph-name="unif4" unicode="&#xf4;" d="M237 594L194 594L339 718L364 718L466 594L430 594L350 690L237 594M225-10Q141-10 89 48Q37 106 37 200Q37 337 119.50 434.50Q202 532 317 532Q401 532 453 474Q505 416 505 322Q505 185 422.50 87.50Q340-10 225-10M228 18Q328 18 400.50 108Q473 198 473 322Q473 405 430 454.50Q387 504 314 504Q214 504 141.50 414Q69 324 69 200Q69 117 112 67.50Q155 18 228 18Z"  horiz-adv-x="542" vert-adv-y="1000"  />

      
      <glyph glyph-name="unif5" unicode="&#xf5;" d="M212 594L185 594Q192 650 217 681.50Q242 713 278 713Q299 713 316.50 699.50Q334 686 345 669.50Q356 653 371 639.50Q386 626 403 626Q426 626 442 650.50Q458 675 464 718L492 718Q484 662 459.50 630.50Q435 599 399 599Q378 599 360.50 612.50Q343 626 332 642.50Q321 659 306 672.50Q291 686 274 686Q225 686 212 594M225-10Q141-10 89 48Q37 106 37 200Q37 337 119.50 434.50Q202 532 317 532Q401 532 453 474Q505 416 505 322Q505 185 422.50 87.50Q340-10 225-10M228 18Q328 18 400.50 108Q473 198 473 322Q473 405 430 454.50Q387 504 314 504Q214 504 141.50 414Q69 324 69 200Q69 117 112 67.50Q155 18 228 18Z"  horiz-adv-x="542" vert-adv-y="1000"  />

      
      <glyph glyph-name="unif6" unicode="&#xf6;" d="M454 655Q454 636 440 621Q426 606 407 606Q393 606 383.50 616Q374 626 374 640Q374 659 388.50 673.50Q403 688 422 688Q436 688 445 679Q454 670 454 655M305 655Q305 636 291 621Q277 606 258 606Q243 606 234 615.50Q225 625 225 640Q225 659 239.50 673.50Q254 688 273 688Q287 688 296 679Q305 670 305 655M225-10Q141-10 89 48Q37 106 37 200Q37 337 119.50 434.50Q202 532 317 532Q401 532 453 474Q505 416 505 322Q505 185 422.50 87.50Q340-10 225-10M228 18Q328 18 400.50 108Q473 198 473 322Q473 405 430 454.50Q387 504 314 504Q214 504 141.50 414Q69 324 69 200Q69 117 112 67.50Q155 18 228 18Z"  horiz-adv-x="542" vert-adv-y="1000"  />

      
      <glyph glyph-name="unif7" unicode="&#xf7;" d="M419 517Q419 494 403 477Q387 460 366 460Q349 460 338.50 470.50Q328 481 328 498Q328 521 344.50 538Q361 555 383 555Q399 555 409 544.50Q419 534 419 517M577 319L103 319L108 346L582 346L577 319M358 171Q358 148 342 131Q326 114 305 114Q288 114 277.50 124.50Q267 135 267 152Q267 175 283.50 192Q300 209 322 209Q338 209 348 198.50Q358 188 358 171Z"  horiz-adv-x="660" vert-adv-y="1000"  />

      
      <glyph glyph-name="unif8" unicode="&#xf8;" d="M38 0L1 0L71 73Q37 126 37 200Q37 337 119.50 434.50Q202 532 317 532Q402 532 454 472L503 523L540 523L471 451Q505 397 505 322Q505 185 422.50 87.50Q340-10 225-10Q139-10 87 51L38 0M69 200Q69 138 93 96L433 450Q391 504 314 504Q214 504 141.50 414Q69 324 69 200M228 18Q328 18 400.50 108Q473 198 473 322Q473 382 449 428L108 73Q150 18 228 18Z"  horiz-adv-x="542" vert-adv-y="1000"  />

      
      <glyph glyph-name="unif9" unicode="&#xf9;" d="M326 594L291 594L216 718L251 718L326 594M398 208L454 523L486 523L394 0L363 0L382 111Q350 54 303 22Q256-10 202-10Q124-10 86.50 43.50Q49 97 64 183L124 523L156 523L98 195Q84 112 111.50 65Q139 18 206 18Q273 18 328.50 73Q384 128 398 208Z"  horiz-adv-x="523" vert-adv-y="1000"  />

      
      <glyph glyph-name="unifa" unicode="&#xfa;" d="M336 594L294 594L412 718L454 718L336 594M398 208L454 523L486 523L394 0L363 0L382 111Q350 54 303 22Q256-10 202-10Q124-10 86.50 43.50Q49 97 64 183L124 523L156 523L98 195Q84 112 111.50 65Q139 18 206 18Q273 18 328.50 73Q384 128 398 208Z"  horiz-adv-x="523" vert-adv-y="1000"  />

      
      <glyph glyph-name="unifb" unicode="&#xfb;" d="M221 594L178 594L323 718L348 718L450 594L414 594L334 690L221 594M398 208L454 523L486 523L394 0L363 0L382 111Q350 54 303 22Q256-10 202-10Q124-10 86.50 43.50Q49 97 64 183L124 523L156 523L98 195Q84 112 111.50 65Q139 18 206 18Q273 18 328.50 73Q384 128 398 208Z"  horiz-adv-x="523" vert-adv-y="1000"  />

      
      <glyph glyph-name="unifc" unicode="&#xfc;" d="M438 655Q438 636 424 621Q410 606 391 606Q377 606 367.50 616Q358 626 358 640Q358 659 372.50 673.50Q387 688 406 688Q420 688 429 679Q438 670 438 655M289 655Q289 636 275 621Q261 606 242 606Q227 606 218 615.50Q209 625 209 640Q209 659 223.50 673.50Q238 688 257 688Q271 688 280 679Q289 670 289 655M398 208L454 523L486 523L394 0L363 0L382 111Q350 54 303 22Q256-10 202-10Q124-10 86.50 43.50Q49 97 64 183L124 523L156 523L98 195Q84 112 111.50 65Q139 18 206 18Q273 18 328.50 73Q384 128 398 208Z"  horiz-adv-x="523" vert-adv-y="1000"  />

      
      <glyph glyph-name="unifd" unicode="&#xfd;" d="M299 594L257 594L375 718L417 718L299 594M474 523L87-193L53-193L162 8L54 523L87 523L185 51L439 523L474 523Z"  horiz-adv-x="436" vert-adv-y="1000"  />

      
      <glyph glyph-name="unife" unicode="&#xfe;" d="M521 334Q521 189 443 89.50Q365-10 251-10Q189-10 146.50 26.50Q104 63 91 128L34-193L3-193L164 718L195 718L137 389Q172 456 227.50 494.50Q283 533 344 533Q425 533 473 479Q521 425 521 334M489 333Q489 415 450 460Q411 505 341 505Q240 505 172.50 406Q105 307 105 190Q105 112 143.50 65Q182 18 255 18Q353 18 421 109.50Q489 201 489 333Z"  horiz-adv-x="557" vert-adv-y="1000"  />

      
      <glyph glyph-name="uniff" unicode="&#xff;" d="M401 655Q401 636 387 621Q373 606 354 606Q340 606 330.50 616Q321 626 321 640Q321 659 335.50 673.50Q350 688 369 688Q383 688 392 679Q401 670 401 655M252 655Q252 636 238 621Q224 606 205 606Q190 606 181 615.50Q172 625 172 640Q172 659 186.50 673.50Q201 688 220 688Q234 688 243 679Q252 670 252 655M474 523L87-193L53-193L162 8L54 523L87 523L185 51L439 523L474 523Z"  horiz-adv-x="436" vert-adv-y="1000"  />

      
      <glyph glyph-name="uni0100" unicode="&#x0100;" d="M541 804L295 804L300 832L546 832L541 804M533 0L489 222L145 222L23 0L-12 0L385 718L423 718L565 0L533 0M399 683L162 252L484 252L399 683Z"  horiz-adv-x="645" vert-adv-y="1000"  />

      
      <glyph glyph-name="uni0101" unicode="&#x0101;" d="M434 609L188 609L193 637L439 637L434 609M347 0L366 111Q333 54 282.50 22Q232-10 174-10Q104-10 64.50 25.50Q25 61 25 123Q25 204 91.50 250Q158 296 275 296Q319 296 397 290L406 341Q419 416 386.50 460.50Q354 505 287 505Q148 505 113 342L82 342Q98 434 151.50 483.50Q205 533 289 533Q370 533 411.50 481.50Q453 430 439 347L378 0L347 0M58 123Q58 72 88 45Q118 18 176 18Q248 18 308 72Q368 126 383 213L392 264Q332 269 271 269Q172 269 115 230Q58 191 58 123Z"  horiz-adv-x="502" vert-adv-y="1000"  />

      
      <glyph glyph-name="uni0102" unicode="&#x0102;" d="M525 913L556 913Q546 855 509 820.50Q472 786 420 786Q369 786 338.50 820.50Q308 855 308 913L338 913Q338 865 359.50 839Q381 813 420 813Q460 813 488.50 840Q517 867 525 913M533 0L489 222L145 222L23 0L-12 0L385 718L423 718L565 0L533 0M399 683L162 252L484 252L399 683Z"  horiz-adv-x="645" vert-adv-y="1000"  />

      
      <glyph glyph-name="uni0103" unicode="&#x0103;" d="M418 718L449 718Q439 660 402 625.50Q365 591 313 591Q262 591 231.50 625.50Q201 660 201 718L231 718Q231 670 252.50 644Q274 618 313 618Q353 618 381.50 645Q410 672 418 718M347 0L366 111Q333 54 282.50 22Q232-10 174-10Q104-10 64.50 25.50Q25 61 25 123Q25 204 91.50 250Q158 296 275 296Q319 296 397 290L406 341Q419 416 386.50 460.50Q354 505 287 505Q148 505 113 342L82 342Q98 434 151.50 483.50Q205 533 289 533Q370 533 411.50 481.50Q453 430 439 347L378 0L347 0M58 123Q58 72 88 45Q118 18 176 18Q248 18 308 72Q368 126 383 213L392 264Q332 269 271 269Q172 269 115 230Q58 191 58 123Z"  horiz-adv-x="502" vert-adv-y="1000"  />

      
      <glyph glyph-name="uni0104" unicode="&#x0104;" d="M544-160L539-190Q510-199 492-199Q460-199 440.50-180Q421-161 421-130Q421-91 450-54Q479-17 531 10L489 222L145 222L23 0L-12 0L385 718L423 718L565 0L552 0Q451-55 451-127Q451-171 497-171Q519-171 544-160M399 683L162 252L484 252L399 683Z"  horiz-adv-x="645" vert-adv-y="1000"  />

      
      <glyph glyph-name="uni0105" unicode="&#x0105;" d="M358-160L353-190Q325-199 306-199Q274-199 254.50-180Q235-161 235-130Q235-90 265.50-52.50Q296-15 349 12L366 111Q333 54 282.50 22Q232-10 174-10Q104-10 64.50 25.50Q25 61 25 123Q25 204 91.50 250Q158 296 275 296Q319 296 397 290L406 341Q419 416 386.50 460.50Q354 505 287 505Q148 505 113 342L82 342Q98 434 151.50 483.50Q205 533 289 533Q370 533 411.50 481.50Q453 430 439 347L378 0L366 0Q265-55 265-127Q265-171 311-171Q333-171 358-160M58 123Q58 72 88 45Q118 18 176 18Q248 18 308 72Q368 126 383 213L392 264Q332 269 271 269Q172 269 115 230Q58 191 58 123Z"  horiz-adv-x="502" vert-adv-y="1000"  />

      
      <glyph glyph-name="uni0106" unicode="&#x0106;" d="M495 789L453 789L571 913L613 913L495 789M352-15Q223-15 140.50 73Q58 161 58 298Q58 480 175 606.50Q292 733 460 733Q576 733 649 657Q722 581 722 459L689 459Q689 569 625.50 636Q562 703 456 703Q302 703 197 586Q92 469 92 298Q92 172 165 93.50Q238 15 355 15Q575 15 654 260L688 260Q599-15 352-15Z"  horiz-adv-x="732" vert-adv-y="1000"  />

      
      <glyph glyph-name="uni0107" unicode="&#x0107;" d="M339 594L297 594L415 718L457 718L339 594M227-10Q144-10 91.50 51Q39 112 39 207Q39 346 113.50 439Q188 532 301 532Q380 532 428 478.50Q476 425 477 332L447 332Q444 415 405 459.50Q366 504 298 504Q201 504 136 418.50Q71 333 71 207Q71 122 115 70Q159 18 230 18Q369 18 422 191L453 191Q394-10 227-10Z"  horiz-adv-x="507" vert-adv-y="1000"  />

      
      <glyph glyph-name="uni010C" unicode="&#x010C;" d="M485 789L460 789L358 913L394 913L474 817L587 913L630 913L485 789M352-15Q223-15 140.50 73Q58 161 58 298Q58 480 175 606.50Q292 733 460 733Q576 733 649 657Q722 581 722 459L689 459Q689 569 625.50 636Q562 703 456 703Q302 703 197 586Q92 469 92 298Q92 172 165 93.50Q238 15 355 15Q575 15 654 260L688 260Q599-15 352-15Z"  horiz-adv-x="732" vert-adv-y="1000"  />

      
      <glyph glyph-name="uni010D" unicode="&#x010D;" d="M329 594L304 594L202 718L238 718L318 622L431 718L474 718L329 594M227-10Q144-10 91.50 51Q39 112 39 207Q39 346 113.50 439Q188 532 301 532Q380 532 428 478.50Q476 425 477 332L447 332Q444 415 405 459.50Q366 504 298 504Q201 504 136 418.50Q71 333 71 207Q71 122 115 70Q159 18 230 18Q369 18 422 191L453 191Q394-10 227-10Z"  horiz-adv-x="507" vert-adv-y="1000"  />

      
      <glyph glyph-name="uni010E" unicode="&#x010E;" d="M396 789L371 789L269 913L305 913L385 817L498 913L541 913L396 789M227 0L39 0L166 718L341 718Q463 718 539.50 633.50Q616 549 616 414Q616 235 505.50 117.50Q395 0 227 0M193 688L77 30L233 30Q383 30 482.50 139Q582 248 582 414Q582 537 514.50 612.50Q447 688 336 688L193 688Z"  horiz-adv-x="641" vert-adv-y="1000"  />

      
      <glyph glyph-name="uni010F" unicode="&#x010F;" d="M36 189Q36 334 114 433.50Q192 533 306 533Q368 533 410.50 496.50Q453 460 466 395L523 718L554 718L427 0L396 0L420 134Q385 67 329.50 28.50Q274-10 213-10Q132-10 84 44Q36 98 36 189M612 575L590 575L615 718L649 718L612 575M68 190Q68 108 107 63Q146 18 216 18Q317 18 384.50 117Q452 216 452 334Q452 413 412 459Q372 505 302 505Q204 505 136 413.50Q68 322 68 190Z"  horiz-adv-x="557" vert-adv-y="1000"  />

      
      <glyph glyph-name="uni0110" unicode="&#x0110;" d="M268 0L80 0L143 357L23 357L28 385L148 385L207 718L382 718Q504 718 580.50 633.50Q657 549 657 414Q657 235 546.50 117.50Q436 0 268 0M331 357L176 357L118 30L274 30Q424 30 523.50 139Q623 248 623 414Q623 537 555.50 612.50Q488 688 377 688L234 688L181 385L336 385L331 357Z"  horiz-adv-x="682" vert-adv-y="1000"  />

      
      <glyph glyph-name="uni0111" unicode="&#x0111;" d="M36 189Q36 334 114 433.50Q192 533 306 533Q368 533 410.50 496.50Q453 460 466 395L504 609L389 609L394 637L509 637L523 718L554 718L540 637L640 637L635 609L535 609L427 0L396 0L420 134Q385 67 329.50 28.50Q274-10 213-10Q132-10 84 44Q36 98 36 189M68 190Q68 108 107 63Q146 18 216 18Q317 18 384.50 117Q452 216 452 334Q452 413 412 459Q372 505 302 505Q204 505 136 413.50Q68 322 68 190Z"  horiz-adv-x="557" vert-adv-y="1000"  />

      
      <glyph glyph-name="uni0112" unicode="&#x0112;" d="M497 804L251 804L256 832L502 832L497 804M428 30L423 0L39 0L166 718L543 718L537 688L193 688L140 386L456 386L451 356L135 356L77 30L428 30Z"  horiz-adv-x="534" vert-adv-y="1000"  />

      
      <glyph glyph-name="uni0113" unicode="&#x0113;" d="M446 609L200 609L205 637L451 637L446 609M237-10Q149-10 94 50Q39 110 39 207Q39 345 115.50 438.50Q192 532 305 532Q405 532 452 454Q499 376 473 254L74 254Q71 232 71 207Q71 121 117 69.50Q163 18 240 18Q373 18 427 176L458 176Q398-10 237-10M302 504Q220 504 158.50 442Q97 380 78 282L446 282Q461 384 421.50 444Q382 504 302 504Z"  horiz-adv-x="517" vert-adv-y="1000"  />

      
      <glyph glyph-name="uni0116" unicode="&#x0116;" d="M419 846Q419 828 406 814.50Q393 801 376 801Q363 801 354.50 809.50Q346 818 346 831Q346 849 359 862Q372 875 389 875Q402 875 410.50 867Q419 859 419 846M428 30L423 0L39 0L166 718L543 718L537 688L193 688L140 386L456 386L451 356L135 356L77 30L428 30Z"  horiz-adv-x="534" vert-adv-y="1000"  />

      
      <glyph glyph-name="uni0117" unicode="&#x0117;" d="M368 651Q368 633 355 619.50Q342 606 325 606Q312 606 303.50 614.50Q295 623 295 636Q295 654 308 667Q321 680 338 680Q351 680 359.50 672Q368 664 368 651M237-10Q149-10 94 50Q39 110 39 207Q39 345 115.50 438.50Q192 532 305 532Q405 532 452 454Q499 376 473 254L74 254Q71 232 71 207Q71 121 117 69.50Q163 18 240 18Q373 18 427 176L458 176Q398-10 237-10M302 504Q220 504 158.50 442Q97 380 78 282L446 282Q461 384 421.50 444Q382 504 302 504Z"  horiz-adv-x="517" vert-adv-y="1000"  />

      
      <glyph glyph-name="uni0118" unicode="&#x0118;" d="M360-160L355-190Q326-199 308-199Q276-199 256.50-180Q237-161 237-130Q237-55 330 0L39 0L166 718L543 718L537 688L193 688L140 386L456 386L451 356L135 356L77 30L428 30L423 0L368 0Q267-55 267-127Q267-171 313-171Q335-171 360-160Z"  horiz-adv-x="534" vert-adv-y="1000"  />

      
      <glyph glyph-name="uni0119" unicode="&#x0119;" d="M237-10Q149-10 94 50Q39 110 39 207Q39 345 115.50 438.50Q192 532 305 532Q405 532 452 454Q499 376 473 254L74 254Q71 232 71 207Q71 121 117 69.50Q163 18 240 18Q373 18 427 176L458 176Q413 39 314 3Q264-23 236-57.50Q208-92 208-127Q208-171 254-171Q276-171 301-160L296-190Q268-199 249-199Q217-199 197.50-180Q178-161 178-130Q178-63 256-9Q250-10 237-10M302 504Q220 504 158.50 442Q97 380 78 282L446 282Q461 384 421.50 444Q382 504 302 504Z"  horiz-adv-x="517" vert-adv-y="1000"  />

      
      <glyph glyph-name="uni011A" unicode="&#x011A;" d="M385 789L360 789L258 913L294 913L374 817L487 913L530 913L385 789M428 30L423 0L39 0L166 718L543 718L537 688L193 688L140 386L456 386L451 356L135 356L77 30L428 30Z"  horiz-adv-x="534" vert-adv-y="1000"  />

      
      <glyph glyph-name="uni011B" unicode="&#x011B;" d="M334 594L309 594L207 718L243 718L323 622L436 718L479 718L334 594M237-10Q149-10 94 50Q39 110 39 207Q39 345 115.50 438.50Q192 532 305 532Q405 532 452 454Q499 376 473 254L74 254Q71 232 71 207Q71 121 117 69.50Q163 18 240 18Q373 18 427 176L458 176Q398-10 237-10M302 504Q220 504 158.50 442Q97 380 78 282L446 282Q461 384 421.50 444Q382 504 302 504Z"  horiz-adv-x="517" vert-adv-y="1000"  />

      
      <glyph glyph-name="uni011E" unicode="&#x011E;" d="M581 913L612 913Q602 855 565 820.50Q528 786 476 786Q425 786 394.50 820.50Q364 855 364 913L394 913Q394 865 415.50 839Q437 813 476 813Q516 813 544.50 840Q573 867 581 913M362-15Q227-15 142.50 72Q58 159 58 298Q58 481 177.50 607Q297 733 470 733Q592 733 668.50 661Q745 589 745 473L712 473Q712 577 645 640Q578 703 466 703Q307 703 199.50 586.50Q92 470 92 298Q92 170 167 92.50Q242 15 365 15Q487 15 576 95.50Q665 176 696 315L390 315L396 345L734 345Q707 180 606.50 82.50Q506-15 362-15Z"  horiz-adv-x="763" vert-adv-y="1000"  />

      
      <glyph glyph-name="uni011F" unicode="&#x011F;" d="M424 718L455 718Q445 660 408 625.50Q371 591 319 591Q268 591 237.50 625.50Q207 660 207 718L237 718Q237 670 258.50 644Q280 618 319 618Q359 618 387.50 645Q416 672 424 718M202-203Q114-203 66.50-156.50Q19-110 19-23L49-23Q49-97 88.50-136Q128-175 204-175Q282-175 332-129.50Q382-84 398 4L421 134Q387 69 332 32Q277-5 214-5Q133-5 85 49Q37 103 37 194Q37 336 115.50 434.50Q194 533 307 533Q369 533 411.50 496.50Q454 460 467 395L490 523L521 523L429 5Q411-97 353-150Q295-203 202-203M69 195Q69 113 108 68Q147 23 217 23Q319 23 386 119.50Q453 216 453 334Q453 413 413 459Q373 505 303 505Q206 505 137.50 414.50Q69 324 69 195Z"  horiz-adv-x="558" vert-adv-y="1000"  />

      
      <glyph glyph-name="uni0122" unicode="&#x0122;" d="M362-15Q227-15 142.50 72Q58 159 58 298Q58 481 177.50 607Q297 733 470 733Q592 733 668.50 661Q745 589 745 473L712 473Q712 577 645 640Q578 703 466 703Q307 703 199.50 586.50Q92 470 92 298Q92 170 167 92.50Q242 15 365 15Q487 15 576 95.50Q665 176 696 315L390 315L396 345L734 345Q707 180 606.50 82.50Q506-15 362-15M396-106Q396-149 364-175Q332-201 288-201L292-177Q323-176 342.50-162Q362-148 366-125Q346-134 332-127.50Q318-121 318-105Q318-89 330.50-77.50Q343-66 360-66Q377-66 386.50-77.50Q396-89 396-106Z"  horiz-adv-x="763" vert-adv-y="1000"  />

      
      <glyph glyph-name="uni0123" unicode="&#x0123;" d="M281 629Q281 672 313 698Q345 724 389 724L385 700Q354 699 334.50 685Q315 671 311 648Q323 653 331 653Q359 653 359 628Q359 612 346.50 600.50Q334 589 317 589Q300 589 290.50 600.50Q281 612 281 629M202-203Q114-203 66.50-156.50Q19-110 19-23L49-23Q49-97 88.50-136Q128-175 204-175Q282-175 332-129.50Q382-84 398 4L421 134Q387 69 332 32Q277-5 214-5Q133-5 85 49Q37 103 37 194Q37 336 115.50 434.50Q194 533 307 533Q369 533 411.50 496.50Q454 460 467 395L490 523L521 523L429 5Q411-97 353-150Q295-203 202-203M69 195Q69 113 108 68Q147 23 217 23Q319 23 386 119.50Q453 216 453 334Q453 413 413 459Q373 505 303 505Q206 505 137.50 414.50Q69 324 69 195Z"  horiz-adv-x="558" vert-adv-y="1000"  />

      
      <glyph glyph-name="uni012A" unicode="&#x012A;" d="M319 804L73 804L78 832L324 832L319 804M72 0L39 0L166 718L199 718L72 0Z"  horiz-adv-x="204" vert-adv-y="1000"  />

      
      <glyph glyph-name="uni012B" unicode="&#x012B;" d="M281 609L35 609L40 637L286 637L281 609M69 0L37 0L129 523L161 523L69 0Z"  horiz-adv-x="198" vert-adv-y="1000"  />

      
      <glyph glyph-name="uni012E" unicode="&#x012E;" d="M72 0L58 0Q-43-55-43-127Q-43-171 3-171Q25-171 50-160L45-190Q16-199-2-199Q-34-199-53.50-180Q-73-161-73-130Q-73-90-42.50-52.50Q-12-15 41 12L166 718L199 718L72 0Z"  horiz-adv-x="204" vert-adv-y="1000"  />

      
      <glyph glyph-name="uni012F" unicode="&#x012F;" d="M203 651Q203 633 190 619.50Q177 606 160 606Q147 606 138.50 614.50Q130 623 130 636Q130 654 143 667Q156 680 173 680Q186 680 194.50 672Q203 664 203 651M69 0L56 0Q-45-55-45-127Q-45-171 1-171Q23-171 48-160L43-190Q15-199-4-199Q-36-199-55.50-180Q-75-161-75-130Q-75-90-44.50-52.50Q-14-15 39 12L129 523L161 523L69 0Z"  horiz-adv-x="198" vert-adv-y="1000"  />

      
      <glyph glyph-name="uni0130" unicode="&#x0130;" d="M241 846Q241 828 228 814.50Q215 801 198 801Q185 801 176.50 809.50Q168 818 168 831Q168 849 181 862Q194 875 211 875Q224 875 232.50 867Q241 859 241 846M72 0L39 0L166 718L199 718L72 0Z"  horiz-adv-x="204" vert-adv-y="1000"  />

      
      <glyph glyph-name="uni0131" unicode="&#x0131;" d="M69 0L37 0L129 523L161 523L69 0Z"  horiz-adv-x="198" vert-adv-y="1000"  />

      
      <glyph glyph-name="uni0136" unicode="&#x0136;" d="M71 0L39 0L166 718L198 718L134 356L556 718L600 718L169 348L479 0L436 0L132 343L71 0M277-106Q277-149 245-175Q213-201 169-201L173-177Q204-176 223.50-162Q243-148 247-125Q228-134 213.50-127.50Q199-121 199-105Q199-89 211.50-77.50Q224-66 241-66Q258-66 267.50-77.50Q277-89 277-106Z"  horiz-adv-x="555" vert-adv-y="1000"  />

      
      <glyph glyph-name="uni0137" unicode="&#x0137;" d="M69 0L37 0L164 718L196 718L116 268L430 523L473 523L151 261L400 0L359 0L114 256L69 0M233-106Q233-149 201-175Q169-201 125-201L129-177Q160-176 179.50-162Q199-148 203-125Q184-134 169.50-127.50Q155-121 155-105Q155-89 167.50-77.50Q180-66 197-66Q214-66 223.50-77.50Q233-89 233-106Z"  horiz-adv-x="446" vert-adv-y="1000"  />

      
      <glyph glyph-name="uni0139" unicode="&#x0139;" d="M213 789L171 789L289 913L331 913L213 789M402 0L39 0L166 718L199 718L77 30L407 30L402 0Z"  horiz-adv-x="478" vert-adv-y="1000"  />

      
      <glyph glyph-name="uni013A" unicode="&#x013A;" d="M215 789L173 789L291 913L333 913L215 789M68 0L37 0L164 718L195 718L68 0Z"  horiz-adv-x="198" vert-adv-y="1000"  />

      
      <glyph glyph-name="uni013B" unicode="&#x013B;" d="M402 0L39 0L166 718L199 718L77 30L407 30L402 0M258-106Q258-149 226-175Q194-201 150-201L154-177Q185-176 204.50-162Q224-148 228-125Q208-134 194-127.50Q180-121 180-105Q180-89 192.50-77.50Q205-66 222-66Q239-66 248.50-77.50Q258-89 258-106Z"  horiz-adv-x="478" vert-adv-y="1000"  />

      
      <glyph glyph-name="uni013C" unicode="&#x013C;" d="M68 0L37 0L164 718L195 718L68 0M76-106Q76-149 44-175Q12-201-32-201L-28-177Q3-176 22.50-162Q42-148 46-125Q26-134 12-127.50Q-2-121-2-105Q-2-89 10.50-77.50Q23-66 40-66Q57-66 66.50-77.50Q76-89 76-106Z"  horiz-adv-x="198" vert-adv-y="1000"  />

      
      <glyph glyph-name="uni013D" unicode="&#x013D;" d="M402 0L39 0L166 718L199 718L77 30L407 30L402 0M312 575L290 575L315 718L349 718L312 575Z"  horiz-adv-x="478" vert-adv-y="1000"  />

      
      <glyph glyph-name="uni013E" unicode="&#x013E;" d="M68 0L37 0L164 718L195 718L68 0M253 575L231 575L256 718L290 718L253 575Z"  horiz-adv-x="198" vert-adv-y="1000"  />

      
      <glyph glyph-name="uni0141" unicode="&#x0141;" d="M402 0L39 0L99 338L-14 305L-9 336L104 369L166 718L199 718L139 379L345 439L339 408L133 348L77 30L407 30L402 0Z"  horiz-adv-x="478" vert-adv-y="1000"  />

      
      <glyph glyph-name="uni0142" unicode="&#x0142;" d="M68 0L37 0L97 340L-33 303L-28 332L102 369L164 718L195 718L135 379L265 416L260 386L130 349L68 0Z"  horiz-adv-x="198" vert-adv-y="1000"  />

      
      <glyph glyph-name="uni0143" unicode="&#x0143;" d="M459 789L417 789L535 913L577 913L459 789M514 0L190 672L71 0L39 0L166 718L205 718L530 42L650 718L682 718L555 0L514 0Z"  horiz-adv-x="687" vert-adv-y="1000"  />

      
      <glyph glyph-name="uni0144" unicode="&#x0144;" d="M351 594L309 594L427 718L469 718L351 594M125 315L69 0L37 0L129 523L160 523L141 412Q172 469 221 501Q270 533 326 533Q404 533 444 479Q484 425 469 340L409 0L377 0L434 328Q448 411 418.50 458Q389 505 322 505Q254 505 196.50 450Q139 395 125 315Z"  horiz-adv-x="533" vert-adv-y="1000"  />

      
      <glyph glyph-name="uni0145" unicode="&#x0145;" d="M514 0L190 672L71 0L39 0L166 718L205 718L530 42L650 718L682 718L555 0L514 0M320-106Q320-149 288-175Q256-201 212-201L216-177Q247-176 266.50-162Q286-148 290-125Q270-134 256-127.50Q242-121 242-105Q242-89 254.50-77.50Q267-66 284-66Q301-66 310.50-77.50Q320-89 320-106Z"  horiz-adv-x="687" vert-adv-y="1000"  />

      
      <glyph glyph-name="uni0146" unicode="&#x0146;" d="M125 315L69 0L37 0L129 523L160 523L141 412Q172 469 221 501Q270 533 326 533Q404 533 444 479Q484 425 469 340L409 0L377 0L434 328Q448 411 418.50 458Q389 505 322 505Q254 505 196.50 450Q139 395 125 315M247-106Q247-149 215-175Q183-201 139-201L143-177Q174-176 193.50-162Q213-148 217-125Q198-134 183.50-127.50Q169-121 169-105Q169-89 181.50-77.50Q194-66 211-66Q228-66 237.50-77.50Q247-89 247-106Z"  horiz-adv-x="533" vert-adv-y="1000"  />

      
      <glyph glyph-name="uni0147" unicode="&#x0147;" d="M449 789L424 789L322 913L358 913L438 817L551 913L594 913L449 789M514 0L190 672L71 0L39 0L166 718L205 718L530 42L650 718L682 718L555 0L514 0Z"  horiz-adv-x="687" vert-adv-y="1000"  />

      
      <glyph glyph-name="uni0148" unicode="&#x0148;" d="M341 594L316 594L214 718L250 718L330 622L443 718L486 718L341 594M125 315L69 0L37 0L129 523L160 523L141 412Q172 469 221 501Q270 533 326 533Q404 533 444 479Q484 425 469 340L409 0L377 0L434 328Q448 411 418.50 458Q389 505 322 505Q254 505 196.50 450Q139 395 125 315Z"  horiz-adv-x="533" vert-adv-y="1000"  />

      
      <glyph glyph-name="uni014C" unicode="&#x014C;" d="M595 804L349 804L354 832L600 832L595 804M352-15Q223-15 140.50 73Q58 161 58 298Q58 480 175 606.50Q292 733 460 733Q588 733 670 646Q752 559 752 423Q752 241 635 113Q518-15 352-15M355 15Q508 15 613 133Q718 251 718 423Q718 548 645.50 625.50Q573 703 456 703Q302 703 197 586Q92 469 92 298Q92 172 165 93.50Q238 15 355 15Z"  horiz-adv-x="775" vert-adv-y="1000"  />

      
      <glyph glyph-name="uni014D" unicode="&#x014D;" d="M454 609L208 609L213 637L459 637L454 609M225-10Q141-10 89 48Q37 106 37 200Q37 337 119.50 434.50Q202 532 317 532Q401 532 453 474Q505 416 505 322Q505 185 422.50 87.50Q340-10 225-10M228 18Q328 18 400.50 108Q473 198 473 322Q473 405 430 454.50Q387 504 314 504Q214 504 141.50 414Q69 324 69 200Q69 117 112 67.50Q155 18 228 18Z"  horiz-adv-x="542" vert-adv-y="1000"  />

      
      <glyph glyph-name="uni0150" unicode="&#x0150;" d="M553 789L513 789L631 913L671 913L553 789M407 789L367 789L484 913L524 913L407 789M352-15Q223-15 140.50 73Q58 161 58 298Q58 480 175 606.50Q292 733 460 733Q588 733 670 646Q752 559 752 423Q752 241 635 113Q518-15 352-15M355 15Q508 15 613 133Q718 251 718 423Q718 548 645.50 625.50Q573 703 456 703Q302 703 197 586Q92 469 92 298Q92 172 165 93.50Q238 15 355 15Z"  horiz-adv-x="775" vert-adv-y="1000"  />

      
      <glyph glyph-name="uni0151" unicode="&#x0151;" d="M412 594L372 594L490 718L530 718L412 594M266 594L226 594L343 718L383 718L266 594M225-10Q141-10 89 48Q37 106 37 200Q37 337 119.50 434.50Q202 532 317 532Q401 532 453 474Q505 416 505 322Q505 185 422.50 87.50Q340-10 225-10M228 18Q328 18 400.50 108Q473 198 473 322Q473 405 430 454.50Q387 504 314 504Q214 504 141.50 414Q69 324 69 200Q69 117 112 67.50Q155 18 228 18Z"  horiz-adv-x="542" vert-adv-y="1000"  />

      
      <glyph glyph-name="uni0152" unicode="&#x0152;" d="M60 298Q60 485 159 609Q258 733 407 733Q501 733 560 672.50Q619 612 630 503L669 718L1045 718L1040 688L696 688L642 386L957 386L952 356L637 356L580 30L930 30L924 0L542 0L571 165Q525 80 455 32.50Q385-15 299-15Q191-15 125.50 71Q60 157 60 298M94 298Q94 167 150 91Q206 15 302 15Q432 15 521 135Q610 255 610 423Q610 553 554.50 628Q499 703 403 703Q271 703 182.50 587Q94 471 94 298Z"  horiz-adv-x="1036" vert-adv-y="1000"  />

      
      <glyph glyph-name="uni0153" unicode="&#x0153;" d="M37 200Q37 337 119.50 434.50Q202 532 317 532Q389 532 437.50 488.50Q486 445 499 371Q533 445 594 488.50Q655 532 730 532Q830 532 877 454Q924 376 898 254L499 254Q486 149 530 83.50Q574 18 665 18Q798 18 852 176L883 176Q823-10 662-10Q585-10 533 36.50Q481 83 468 162Q432 84 367 37Q302-10 225-10Q141-10 89 48Q37 106 37 200M69 200Q69 117 112 67.50Q155 18 228 18Q328 18 400.50 108Q473 198 473 322Q473 405 430 454.50Q387 504 314 504Q214 504 141.50 414Q69 324 69 200M727 504Q645 504 583.50 442Q522 380 503 282L871 282Q887 383 847.50 443.50Q808 504 727 504Z"  horiz-adv-x="942" vert-adv-y="1000"  />

      
      <glyph glyph-name="uni0154" unicode="&#x0154;" d="M385 789L343 789L461 913L503 913L385 789M72 0L39 0L166 718L389 718Q472 718 525.50 667.50Q579 617 579 538Q579 441 517 376.50Q455 312 352 302L501 0L465 0L317 300L125 300L72 0M193 688L130 330L322 330Q423 330 484 387Q545 444 545 538Q545 605 500 646.50Q455 688 381 688L193 688Z"  horiz-adv-x="589" vert-adv-y="1000"  />

      
      <glyph glyph-name="uni0155" unicode="&#x0155;" d="M280 594L238 594L356 718L398 718L280 594M121 294L69 0L37 0L129 523L160 523L137 394Q168 455 228 494Q288 533 350 533L344 498Q268 498 202 438.50Q136 379 121 294Z"  horiz-adv-x="312" vert-adv-y="1000"  />

      
      <glyph glyph-name="uni0156" unicode="&#x0156;" d="M72 0L39 0L166 718L389 718Q472 718 525.50 667.50Q579 617 579 538Q579 441 517 376.50Q455 312 352 302L501 0L465 0L317 300L125 300L72 0M193 688L130 330L322 330Q423 330 484 387Q545 444 545 538Q545 605 500 646.50Q455 688 381 688L193 688M285-106Q285-149 253-175Q221-201 177-201L181-177Q212-176 231.50-162Q251-148 255-125Q236-134 221.50-127.50Q207-121 207-105Q207-89 219.50-77.50Q232-66 249-66Q266-66 275.50-77.50Q285-89 285-106Z"  horiz-adv-x="589" vert-adv-y="1000"  />

      
      <glyph glyph-name="uni0157" unicode="&#x0157;" d="M121 294L69 0L37 0L129 523L160 523L137 394Q168 455 228 494Q288 533 350 533L344 498Q268 498 202 438.50Q136 379 121 294M79-106Q79-149 47-175Q15-201-29-201L-25-177Q6-176 25.50-162Q45-148 49-125Q30-134 15.50-127.50Q1-121 1-105Q1-89 13.50-77.50Q26-66 43-66Q60-66 69.50-77.50Q79-89 79-106Z"  horiz-adv-x="312" vert-adv-y="1000"  />

      
      <glyph glyph-name="uni0158" unicode="&#x0158;" d="M375 789L350 789L248 913L284 913L364 817L477 913L520 913L375 789M72 0L39 0L166 718L389 718Q472 718 525.50 667.50Q579 617 579 538Q579 441 517 376.50Q455 312 352 302L501 0L465 0L317 300L125 300L72 0M193 688L130 330L322 330Q423 330 484 387Q545 444 545 538Q545 605 500 646.50Q455 688 381 688L193 688Z"  horiz-adv-x="589" vert-adv-y="1000"  />

      
      <glyph glyph-name="uni0159" unicode="&#x0159;" d="M270 594L245 594L143 718L179 718L259 622L372 718L415 718L270 594M121 294L69 0L37 0L129 523L160 523L137 394Q168 455 228 494Q288 533 350 533L344 498Q268 498 202 438.50Q136 379 121 294Z"  horiz-adv-x="312" vert-adv-y="1000"  />

      
      <glyph glyph-name="uni015A" unicode="&#x015A;" d="M391 789L349 789L467 913L509 913L391 789M529 188Q529 100 463.50 45Q398-10 293-10Q183-10 118.50 49Q54 108 54 209L87 209Q90 120 144.50 70Q199 20 293 20Q382 20 438.50 67Q495 114 495 188Q495 246 464.50 279Q434 312 362 332L292 351Q128 396 128 531Q128 622 190.50 675Q253 728 360 728Q454 728 514.50 668Q575 608 575 513L542 513Q542 595 491 646.50Q440 698 360 698Q268 698 215 653.50Q162 609 162 531Q162 471 198 435.50Q234 400 304 381L376 361Q455 339 492 297Q529 255 529 188Z"  horiz-adv-x="615" vert-adv-y="1000"  />

      
      <glyph glyph-name="uni015B" unicode="&#x015B;" d="M314 594L272 594L390 718L432 718L314 594M408 137Q408 67 359 28.50Q310-10 218-10Q135-10 84 33Q33 76 29 156L59 156Q63 89 107 53Q151 17 220 17Q293 17 334.50 47.50Q376 78 376 137Q376 180 352 202Q328 224 274 237L213 252Q86 282 86 387Q86 453 136 493Q186 533 270 533Q349 533 393 490.50Q437 448 440 372L410 372Q399 506 270 506Q200 506 159 474Q118 442 118 388Q118 342 144 318Q170 294 221 282L283 267Q340 253 374 223.50Q408 194 408 137Z"  horiz-adv-x="486" vert-adv-y="1000"  />

      
      <glyph glyph-name="uni015E" unicode="&#x015E;" d="M362-114Q362-150 335-174Q308-198 267-198Q226-198 202-176.50Q178-155 178-119L207-119Q207-144 223.50-158.50Q240-173 267-173Q296-173 313.50-157Q331-141 331-114Q331-86 307.50-70Q284-54 252-59L277-10Q173-5 113.50 53.50Q54 112 54 209L87 209Q90 120 144.50 70Q199 20 293 20Q382 20 438.50 67Q495 114 495 188Q495 246 464.50 279Q434 312 362 332L292 351Q128 396 128 531Q128 622 190.50 675Q253 728 360 728Q454 728 514.50 668Q575 608 575 513L542 513Q542 595 491 646.50Q440 698 360 698Q268 698 215 653.50Q162 609 162 531Q162 471 198 435.50Q234 400 304 381L376 361Q455 339 492 297Q529 255 529 188Q529 102 466.50 47.50Q404-7 303-10L288-40Q320-41 341-62Q362-83 362-114Z"  horiz-adv-x="615" vert-adv-y="1000"  />

      
      <glyph glyph-name="uni015F" unicode="&#x015F;" d="M268-114Q268-150 241-174Q214-198 173-198Q132-198 108-176.50Q84-155 84-119L113-119Q113-144 129.50-158.50Q146-173 173-173Q202-173 219.50-157Q237-141 237-114Q237-86 213.50-70Q190-54 158-59L184-8Q115 0 74 42.50Q33 85 29 156L59 156Q63 89 107 53Q151 17 220 17Q293 17 334.50 47.50Q376 78 376 137Q376 180 352 202Q328 224 274 237L213 252Q86 282 86 387Q86 453 136 493Q186 533 270 533Q349 533 393 490.50Q437 448 440 372L410 372Q399 506 270 506Q200 506 159 474Q118 442 118 388Q118 342 144 318Q170 294 221 282L283 267Q340 253 374 223.50Q408 194 408 137Q408 67 359 28.50Q310-10 218-10L209-10L194-40Q226-41 247-62Q268-83 268-114Z"  horiz-adv-x="486" vert-adv-y="1000"  />

      
      <glyph glyph-name="uni0160" unicode="&#x0160;" d="M381 789L356 789L254 913L290 913L370 817L483 913L526 913L381 789M529 188Q529 100 463.50 45Q398-10 293-10Q183-10 118.50 49Q54 108 54 209L87 209Q90 120 144.50 70Q199 20 293 20Q382 20 438.50 67Q495 114 495 188Q495 246 464.50 279Q434 312 362 332L292 351Q128 396 128 531Q128 622 190.50 675Q253 728 360 728Q454 728 514.50 668Q575 608 575 513L542 513Q542 595 491 646.50Q440 698 360 698Q268 698 215 653.50Q162 609 162 531Q162 471 198 435.50Q234 400 304 381L376 361Q455 339 492 297Q529 255 529 188Z"  horiz-adv-x="615" vert-adv-y="1000"  />

      
      <glyph glyph-name="uni0161" unicode="&#x0161;" d="M304 594L279 594L177 718L213 718L293 622L406 718L449 718L304 594M408 137Q408 67 359 28.50Q310-10 218-10Q135-10 84 33Q33 76 29 156L59 156Q63 89 107 53Q151 17 220 17Q293 17 334.50 47.50Q376 78 376 137Q376 180 352 202Q328 224 274 237L213 252Q86 282 86 387Q86 453 136 493Q186 533 270 533Q349 533 393 490.50Q437 448 440 372L410 372Q399 506 270 506Q200 506 159 474Q118 442 118 388Q118 342 144 318Q170 294 221 282L283 267Q340 253 374 223.50Q408 194 408 137Z"  horiz-adv-x="486" vert-adv-y="1000"  />

      
      <glyph glyph-name="uni0162" unicode="&#x0162;" d="M235 0L227 0L207-40Q238-41 259.50-62Q281-83 281-114Q281-150 254-174Q227-198 186-198Q145-198 121-176.50Q97-155 97-119L126-119Q126-144 142.50-158.50Q159-173 186-173Q215-173 232.50-157Q250-141 250-114Q250-86 226.50-70Q203-54 171-59L204 7L324 688L88 688L93 718L597 718L592 688L356 688L235 0Z"  horiz-adv-x="530" vert-adv-y="1000"  />

      
      <glyph glyph-name="uni0163" unicode="&#x0163;" d="M219-114Q219-150 192-174Q165-198 124-198Q83-198 59-176.50Q35-155 35-119L64-119Q64-144 80.50-158.50Q97-173 124-173Q153-173 170.50-157Q188-141 188-114Q188-86 164.50-70Q141-54 109-59L139 2Q70 34 88 136L151 496L26 496L31 523L156 523L183 678L216 678L189 523L352 523L347 496L184 496L121 136Q101 20 198 20Q230 20 259 32L254 0Q228-10 196-10Q177-10 162-6L145-40Q177-41 198-62Q219-83 219-114Z"  horiz-adv-x="339" vert-adv-y="1000"  />

      
      <glyph glyph-name="uni0164" unicode="&#x0164;" d="M370 789L345 789L243 913L279 913L359 817L472 913L515 913L370 789M235 0L203 0L324 688L88 688L93 718L597 718L592 688L356 688L235 0Z"  horiz-adv-x="530" vert-adv-y="1000"  />

      
      <glyph glyph-name="uni0165" unicode="&#x0165;" d="M281 575L259 575L284 718L318 718L281 575M259 32L254 0Q228-10 196-10Q134-10 105 29.50Q76 69 88 136L151 496L26 496L31 523L156 523L183 678L216 678L189 523L352 523L347 496L184 496L121 136Q101 20 198 20Q230 20 259 32Z"  horiz-adv-x="339" vert-adv-y="1000"  />

      
      <glyph glyph-name="uni016A" unicode="&#x016A;" d="M534 804L288 804L293 832L539 832L534 804M630 718L544 232Q523 114 454 49.50Q385-15 278-15Q174-15 116 51.50Q58 118 78 232L164 718L197 718L110 228Q92 125 141.50 70Q191 15 276 15Q371 15 432 71.50Q493 128 510 228L597 718L630 718Z"  horiz-adv-x="633" vert-adv-y="1000"  />

      
      <glyph glyph-name="uni016B" unicode="&#x016B;" d="M438 609L192 609L197 637L443 637L438 609M398 208L454 523L486 523L394 0L363 0L382 111Q350 54 303 22Q256-10 202-10Q124-10 86.50 43.50Q49 97 64 183L124 523L156 523L98 195Q84 112 111.50 65Q139 18 206 18Q273 18 328.50 73Q384 128 398 208Z"  horiz-adv-x="523" vert-adv-y="1000"  />

      
      <glyph glyph-name="uni016E" unicode="&#x016E;" d="M412 785Q375 785 350.50 808.50Q326 832 326 868Q326 913 359.50 946Q393 979 439 979Q476 979 501 955Q526 931 526 895Q526 851 492 818Q458 785 412 785M415 811Q449 811 473 835.50Q497 860 497 895Q497 921 480 937Q463 953 436 953Q402 953 378.50 928.50Q355 904 355 868Q355 842 371 826.50Q387 811 415 811M630 718L544 232Q523 114 454 49.50Q385-15 278-15Q174-15 116 51.50Q58 118 78 232L164 718L197 718L110 228Q92 125 141.50 70Q191 15 276 15Q371 15 432 71.50Q493 128 510 228L597 718L630 718Z"  horiz-adv-x="633" vert-adv-y="1000"  />

      
      <glyph glyph-name="uni016F" unicode="&#x016F;" d="M316 590Q279 590 254.50 613.50Q230 637 230 673Q230 718 263.50 751Q297 784 343 784Q380 784 405 760Q430 736 430 700Q430 656 396 623Q362 590 316 590M319 616Q353 616 377 640.50Q401 665 401 700Q401 726 384 742Q367 758 340 758Q306 758 282.50 733.50Q259 709 259 673Q259 647 275 631.50Q291 616 319 616M398 208L454 523L486 523L394 0L363 0L382 111Q350 54 303 22Q256-10 202-10Q124-10 86.50 43.50Q49 97 64 183L124 523L156 523L98 195Q84 112 111.50 65Q139 18 206 18Q273 18 328.50 73Q384 128 398 208Z"  horiz-adv-x="523" vert-adv-y="1000"  />

      
      <glyph glyph-name="uni0170" unicode="&#x0170;" d="M492 789L452 789L570 913L610 913L492 789M346 789L306 789L423 913L463 913L346 789M630 718L544 232Q523 114 454 49.50Q385-15 278-15Q174-15 116 51.50Q58 118 78 232L164 718L197 718L110 228Q92 125 141.50 70Q191 15 276 15Q371 15 432 71.50Q493 128 510 228L597 718L630 718Z"  horiz-adv-x="633" vert-adv-y="1000"  />

      
      <glyph glyph-name="uni0171" unicode="&#x0171;" d="M396 594L356 594L474 718L514 718L396 594M250 594L210 594L327 718L367 718L250 594M398 208L454 523L486 523L394 0L363 0L382 111Q350 54 303 22Q256-10 202-10Q124-10 86.50 43.50Q49 97 64 183L124 523L156 523L98 195Q84 112 111.50 65Q139 18 206 18Q273 18 328.50 73Q384 128 398 208Z"  horiz-adv-x="523" vert-adv-y="1000"  />

      
      <glyph glyph-name="uni0172" unicode="&#x0172;" d="M366-160L361-190Q332-199 314-199Q282-199 262.50-180Q243-161 243-130Q243-65 316-13Q292-15 278-15Q174-15 116 51.50Q58 118 78 232L164 718L197 718L110 228Q92 125 141.50 70Q191 15 276 15Q371 15 432 71.50Q493 128 510 228L597 718L630 718L544 232Q512 55 381 3Q330-23 301.50-57Q273-91 273-127Q273-171 319-171Q341-171 366-160Z"  horiz-adv-x="633" vert-adv-y="1000"  />

      
      <glyph glyph-name="uni0173" unicode="&#x0173;" d="M374-160L369-190Q340-199 322-199Q290-199 270.50-180Q251-161 251-130Q251-90 281.50-52.50Q312-15 365 12L382 111Q350 54 303 22Q256-10 202-10Q124-10 86.50 43.50Q49 97 64 183L124 523L156 523L98 195Q84 112 111.50 65Q139 18 206 18Q273 18 328.50 73Q384 128 398 208L454 523L486 523L394 0L382 0Q281-55 281-127Q281-171 327-171Q349-171 374-160Z"  horiz-adv-x="523" vert-adv-y="1000"  />

      
      <glyph glyph-name="uni0174" unicode="&#x0174;" d="M430 789L387 789L532 913L557 913L659 789L623 789L543 885L430 789M558 0L503 672L208 0L169 0L114 718L146 718L196 48L491 718L529 718L584 47L872 718L906 718L598 0L558 0Z"  horiz-adv-x="860" vert-adv-y="1000"  />

      
      <glyph glyph-name="uni0175" unicode="&#x0175;" d="M315 594L272 594L417 718L442 718L544 594L508 594L428 690L315 594M452 0L387 479L153 0L119 0L64 523L96 523L145 48L377 523L410 523L475 47L691 523L725 523L485 0L452 0Z"  horiz-adv-x="697" vert-adv-y="1000"  />

      
      </font>
</defs>
</svg>
