<?xml version="1.0" standalone="no"?>
  <!DOCTYPE svg PUBLIC "-//W3C//DTD SVG 1.1//EN" "http://www.w3.org/Graphics/SVG/1.1/DTD/svg11.dtd" >
  <svg>
  <metadata>
  Created by font-carrier
  </metadata>
  <defs>
  <font id="GeneralSansVariable-BoldItalic" horiz-adv-x="1819" vert-adv-y="1819" >
    <font-face
      
      font-family="General Sans Variable"
      
      font-weight="400"
      
      font-stretch="normal"
      
      units-per-em="1000"
      
      ascent="1010"
      
      descent="-240"
      
    />
      <missing-glyph />

      

      
      <glyph glyph-name="uni41" unicode="&#x41;" d="M241 281L513 281L535 136L133 136L241 281M486 0L413 516L154 0L-41 0L344 718L544 718L671 0L486 0Z"  horiz-adv-x="724" vert-adv-y="1000"  />

      
      <glyph glyph-name="unic1" unicode="&#xc1;" d="M241 281L513 281L535 136L133 136L241 281M486 0L413 516L154 0L-41 0L344 718L544 718L671 0L486 0M537 752L361 752L486 913L683 913L537 752Z"  horiz-adv-x="724" vert-adv-y="1000"  />

      
      <glyph glyph-name="uni0102" unicode="&#x0102;" d="M241 281L513 281L535 136L133 136L241 281M486 0L413 516L154 0L-41 0L344 718L544 718L671 0L486 0M537 914L652 914Q637 831 587 789Q537 747 457 747Q409 747 371 767.50Q333 788 311 825.50Q289 863 289 914L405 914Q405 883 420.50 867.50Q436 852 464 852Q493 852 512.50 868Q532 884 537 914Z"  horiz-adv-x="724" vert-adv-y="1000"  />

      
      <glyph glyph-name="unic2" unicode="&#xc2;" d="M241 281L513 281L535 136L133 136L241 281M486 0L413 516L154 0L-41 0L344 718L544 718L671 0L486 0M392 750L200 750L365 914L574 914L682 750L511 750L464 828L392 750Z"  horiz-adv-x="724" vert-adv-y="1000"  />

      
      <glyph glyph-name="unic4" unicode="&#xc4;" d="M241 281L513 281L535 136L133 136L241 281M486 0L413 516L154 0L-41 0L344 718L544 718L671 0L486 0M681 858Q681 828 665.50 803Q650 778 624.50 762.50Q599 747 568 747Q531 747 508.50 768Q486 789 486 821Q486 852 501.50 876.50Q517 901 543.50 916Q570 931 601 931Q636 931 658.50 910.50Q681 890 681 858M447 858Q447 812 413.50 779.50Q380 747 333 747Q297 747 274.50 768Q252 789 252 821Q252 851 267.50 876Q283 901 309 916Q335 931 365 931Q403 931 425 910.50Q447 890 447 858Z"  horiz-adv-x="724" vert-adv-y="1000"  />

      
      <glyph glyph-name="unic0" unicode="&#xc0;" d="M241 281L513 281L535 136L133 136L241 281M486 0L413 516L154 0L-41 0L344 718L544 718L671 0L486 0M522 752L371 752L282 913L453 913L522 752Z"  horiz-adv-x="724" vert-adv-y="1000"  />

      
      <glyph glyph-name="uni0100" unicode="&#x0100;" d="M241 281L513 281L535 136L133 136L241 281M486 0L413 516L154 0L-41 0L344 718L544 718L671 0L486 0M622 764L283 764L301 872L640 872L622 764Z"  horiz-adv-x="724" vert-adv-y="1000"  />

      
      <glyph glyph-name="uni0104" unicode="&#x0104;" d="M241 281L513 281L535 136L133 136L241 281M486 0L413 516L154 0L-41 0L344 718L544 718L671 0L486 0M603-78L583-186Q567-191 545-194Q523-197 506-197Q459-197 432-173Q405-149 405-108Q405-57 446.50-14.50Q488 28 568 68L614 45Q579 22 559-4.50Q539-31 539-53Q539-84 573-84Q587-84 603-78Z"  horiz-adv-x="724" vert-adv-y="1000"  />

      
      <glyph glyph-name="unic5" unicode="&#xc5;" d="M241 281L513 281L535 136L133 136L241 281M486 0L413 516L154 0L-41 0L344 718L544 718L671 0L486 0M454 747Q400 747 365 776.50Q330 806 330 855Q330 898 351.50 932.50Q373 967 409.50 987.50Q446 1008 490 1008Q545 1008 579.50 978Q614 948 614 900Q614 858 592.50 823Q571 788 535 767.50Q499 747 454 747M463 828Q486 828 503 846.50Q520 865 520 889Q520 905 509 916.50Q498 928 481 928Q459 928 441.50 909.50Q424 891 424 866Q424 850 435 839Q446 828 463 828Z"  horiz-adv-x="724" vert-adv-y="1000"  />

      
      <glyph glyph-name="unic3" unicode="&#xc3;" d="M241 281L513 281L535 136L133 136L241 281M486 0L413 516L154 0L-41 0L344 718L544 718L671 0L486 0M360 749L260 749Q259 823 295 869Q331 915 387 915Q411 915 430.50 908.50Q450 902 467 894Q484 886 500 879.50Q516 873 534 873Q551 873 559 886Q567 899 567 923L667 923Q668 875 651 837.50Q634 800 605 778.50Q576 757 538 757Q514 757 495 763.50Q476 770 459.50 778Q443 786 427 792.50Q411 799 393 799Q377 799 368.50 786.50Q360 774 360 749Z"  horiz-adv-x="724" vert-adv-y="1000"  />

      
      <glyph glyph-name="unic6" unicode="&#xc6;" d="M406 136L147 136L236 281L431 281L481 564L147 0L-61 0L394 718L957 718L929 560L663 560L643 448L879 448L852 290L615 290L591 158L863 158L836 0L382 0L406 136Z"  horiz-adv-x="921" vert-adv-y="1000"  />

      
      <glyph glyph-name="uni42" unicode="&#x42;" d="M619 228Q619 158 581.50 107Q544 56 474.50 28Q405 0 310 0L23 0L150 718L428 718Q493 718 542 696Q591 674 618 634Q645 594 645 540Q645 482 611 437Q577 392 518 371Q565 354 592 316Q619 278 619 228M389 570L300 570L277 445L366 445Q415 445 441 462.50Q467 480 467 514Q467 542 447.50 556Q428 570 389 570M348 297L251 297L224 148L321 148Q376 148 407 170Q438 192 438 230Q438 262 415 279.50Q392 297 348 297Z"  horiz-adv-x="654" vert-adv-y="1000"  />

      
      <glyph glyph-name="uni43" unicode="&#x43;" d="M350-15Q260-15 190.50 25.50Q121 66 81 136.50Q41 207 41 297Q41 391 71.50 470.50Q102 550 157 609Q212 668 286.50 700.50Q361 733 448 733Q540 733 609 693Q678 653 716.50 581Q755 509 755 412L574 412Q572 463 554 498.50Q536 534 505 552.50Q474 571 430 571Q386 571 349.50 551Q313 531 286 495Q259 459 244 410Q229 361 229 302Q229 256 246.50 221Q264 186 295.50 166.50Q327 147 369 147Q433 147 482 188.50Q531 230 556 305L736 305Q711 206 656 134Q601 62 523 23.50Q445-15 350-15Z"  horiz-adv-x="758" vert-adv-y="1000"  />

      
      <glyph glyph-name="uni0106" unicode="&#x0106;" d="M350-15Q260-15 190.50 25.50Q121 66 81 136.50Q41 207 41 297Q41 391 71.50 470.50Q102 550 157 609Q212 668 286.50 700.50Q361 733 448 733Q540 733 609 693Q678 653 716.50 581Q755 509 755 412L574 412Q572 463 554 498.50Q536 534 505 552.50Q474 571 430 571Q386 571 349.50 551Q313 531 286 495Q259 459 244 410Q229 361 229 302Q229 256 246.50 221Q264 186 295.50 166.50Q327 147 369 147Q433 147 482 188.50Q531 230 556 305L736 305Q711 206 656 134Q601 62 523 23.50Q445-15 350-15M539 752L363 752L488 913L685 913L539 752Z"  horiz-adv-x="758" vert-adv-y="1000"  />

      
      <glyph glyph-name="uni010C" unicode="&#x010C;" d="M350-15Q260-15 190.50 25.50Q121 66 81 136.50Q41 207 41 297Q41 391 71.50 470.50Q102 550 157 609Q212 668 286.50 700.50Q361 733 448 733Q540 733 609 693Q678 653 716.50 581Q755 509 755 412L574 412Q572 463 554 498.50Q536 534 505 552.50Q474 571 430 571Q386 571 349.50 551Q313 531 286 495Q259 459 244 410Q229 361 229 302Q229 256 246.50 221Q264 186 295.50 166.50Q327 147 369 147Q433 147 482 188.50Q531 230 556 305L736 305Q711 206 656 134Q601 62 523 23.50Q445-15 350-15M557 750L348 750L240 914L411 914L458 836L530 914L722 914L557 750Z"  horiz-adv-x="758" vert-adv-y="1000"  />

      
      <glyph glyph-name="unic7" unicode="&#xc7;" d="M350-15Q260-15 190.50 25.50Q121 66 81 136.50Q41 207 41 297Q41 391 71.50 470.50Q102 550 157 609Q212 668 286.50 700.50Q361 733 448 733Q540 733 609 693Q678 653 716.50 581Q755 509 755 412L574 412Q572 463 554 498.50Q536 534 505 552.50Q474 571 430 571Q386 571 349.50 551Q313 531 286 495Q259 459 244 410Q229 361 229 302Q229 256 246.50 221Q264 186 295.50 166.50Q327 147 369 147Q433 147 482 188.50Q531 230 556 305L736 305Q711 206 656 134Q601 62 523 23.50Q445-15 350-15M451-108Q451-148 415-173Q379-198 318-198Q258-198 225-172Q192-146 192-98L292-98Q292-110 298-116.50Q304-123 316-123Q329-123 335.50-116.50Q342-110 342-98Q342-82 323-75Q304-68 278-72L315 19L394 19L372-31Q414-41 432.50-60Q451-79 451-108Z"  horiz-adv-x="758" vert-adv-y="1000"  />

      
      <glyph glyph-name="uni44" unicode="&#x44;" d="M303 0L23 0L150 718L413 718Q504 718 573.50 680Q643 642 682.50 574.50Q722 507 722 419Q722 328 691 251Q660 174 604 118Q548 62 471.50 31Q395 0 303 0M305 558L233 160L320 160Q368 160 407.50 177.50Q447 195 475.50 228Q504 261 519 307Q534 353 534 410Q534 457 516 490Q498 523 464.50 540.50Q431 558 383 558L305 558Z"  horiz-adv-x="731" vert-adv-y="1000"  />

      
      <glyph glyph-name="unid0" unicode="&#xd0;" d="M323 0L43 0L170 718L433 718Q524 718 593.50 680Q663 642 702.50 574.50Q742 507 742 419Q742 328 711 251Q680 174 624 118Q568 62 491.50 31Q415 0 323 0M325 558L253 160L340 160Q388 160 427.50 177.50Q467 195 495.50 228Q524 261 539 307Q554 353 554 410Q554 457 536.50 490Q519 523 485 540.50Q451 558 403 558L325 558M411 294L11 294L37 444L437 444L411 294Z"  horiz-adv-x="751" vert-adv-y="1000"  />

      
      <glyph glyph-name="uni010E" unicode="&#x010E;" d="M303 0L23 0L150 718L413 718Q504 718 573.50 680Q643 642 682.50 574.50Q722 507 722 419Q722 328 691 251Q660 174 604 118Q548 62 471.50 31Q395 0 303 0M305 558L233 160L320 160Q368 160 407.50 177.50Q447 195 475.50 228Q504 261 519 307Q534 353 534 410Q534 457 516 490Q498 523 464.50 540.50Q431 558 383 558L305 558M521 750L312 750L204 914L375 914L422 836L494 914L686 914L521 750Z"  horiz-adv-x="731" vert-adv-y="1000"  />

      
      <glyph glyph-name="uni0110" unicode="&#x0110;" d="M323 0L43 0L170 718L433 718Q524 718 593.50 680Q663 642 702.50 574.50Q742 507 742 419Q742 328 711 251Q680 174 624 118Q568 62 491.50 31Q415 0 323 0M325 558L253 160L340 160Q388 160 427.50 177.50Q467 195 495.50 228Q524 261 539 307Q554 353 554 410Q554 457 536.50 490Q519 523 485 540.50Q451 558 403 558L325 558M411 294L11 294L37 444L437 444L411 294Z"  horiz-adv-x="751" vert-adv-y="1000"  />

      
      <glyph glyph-name="uni45" unicode="&#x45;" d="M542 158L514 0L23 0L150 718L635 718L608 560L305 560L285 448L559 448L531 290L257 290L233 158L542 158Z"  horiz-adv-x="600" vert-adv-y="1000"  />

      
      <glyph glyph-name="unic9" unicode="&#xc9;" d="M542 158L514 0L23 0L150 718L635 718L608 560L305 560L285 448L559 448L531 290L257 290L233 158L542 158M488 752L312 752L437 913L634 913L488 752Z"  horiz-adv-x="600" vert-adv-y="1000"  />

      
      <glyph glyph-name="uni011A" unicode="&#x011A;" d="M542 158L514 0L23 0L150 718L635 718L608 560L305 560L285 448L559 448L531 290L257 290L233 158L542 158M506 750L297 750L189 914L360 914L407 836L479 914L671 914L506 750Z"  horiz-adv-x="600" vert-adv-y="1000"  />

      
      <glyph glyph-name="unica" unicode="&#xca;" d="M542 158L514 0L23 0L150 718L635 718L608 560L305 560L285 448L559 448L531 290L257 290L233 158L542 158M343 750L151 750L316 914L525 914L633 750L462 750L415 828L343 750Z"  horiz-adv-x="600" vert-adv-y="1000"  />

      
      <glyph glyph-name="unicb" unicode="&#xcb;" d="M542 158L514 0L23 0L150 718L635 718L608 560L305 560L285 448L559 448L531 290L257 290L233 158L542 158M632 858Q632 828 616.50 803Q601 778 575.50 762.50Q550 747 519 747Q482 747 459.50 768Q437 789 437 821Q437 852 452.50 876.50Q468 901 494.50 916Q521 931 552 931Q587 931 609.50 910.50Q632 890 632 858M398 858Q398 812 364.50 779.50Q331 747 284 747Q248 747 225.50 768Q203 789 203 821Q203 851 218.50 876Q234 901 260 916Q286 931 316 931Q354 931 376 910.50Q398 890 398 858Z"  horiz-adv-x="600" vert-adv-y="1000"  />

      
      <glyph glyph-name="uni0116" unicode="&#x0116;" d="M542 158L514 0L23 0L150 718L635 718L608 560L305 560L285 448L559 448L531 290L257 290L233 158L542 158M524 859Q524 829 507 803.50Q490 778 462 762.50Q434 747 399 747Q358 747 333 769.50Q308 792 308 826Q308 857 325 882.50Q342 908 370.50 923.50Q399 939 432 939Q474 939 499 916.50Q524 894 524 859Z"  horiz-adv-x="600" vert-adv-y="1000"  />

      
      <glyph glyph-name="unic8" unicode="&#xc8;" d="M542 158L514 0L23 0L150 718L635 718L608 560L305 560L285 448L559 448L531 290L257 290L233 158L542 158M473 752L322 752L233 913L404 913L473 752Z"  horiz-adv-x="600" vert-adv-y="1000"  />

      
      <glyph glyph-name="uni0112" unicode="&#x0112;" d="M542 158L514 0L23 0L150 718L635 718L608 560L305 560L285 448L559 448L531 290L257 290L233 158L542 158M573 764L234 764L252 872L591 872L573 764Z"  horiz-adv-x="600" vert-adv-y="1000"  />

      
      <glyph glyph-name="uni0118" unicode="&#x0118;" d="M542 158L514 0L23 0L150 718L635 718L608 560L305 560L285 448L559 448L531 290L257 290L233 158L542 158M467-78L447-186Q431-191 409-194Q387-197 370-197Q323-197 296-173Q269-149 269-108Q269-57 310.50-14.50Q352 28 432 68L478 45Q443 22 423-4.50Q403-31 403-53Q403-84 437-84Q451-84 467-78Z"  horiz-adv-x="600" vert-adv-y="1000"  />

      
      <glyph glyph-name="uni46" unicode="&#x46;" d="M206 0L23 0L150 718L623 718L595 560L305 560L279 418L522 418L495 260L251 260L206 0Z"  horiz-adv-x="574" vert-adv-y="1000"  />

      
      <glyph glyph-name="uni47" unicode="&#x47;" d="M361-15Q267-15 195 24.50Q123 64 82 134.50Q41 205 41 297Q41 390 72.50 469Q104 548 161 607.50Q218 667 294 700Q370 733 459 733Q547 733 614.50 700.50Q682 668 723 609Q764 550 771 469L584 469Q579 502 561 524.50Q543 547 514 559Q485 571 447 571Q400 571 360 551Q320 531 290.50 494.50Q261 458 245 408.50Q229 359 229 301Q229 253 248 216Q267 179 301 158Q335 137 379 137Q420 137 454.50 151Q489 165 514 191Q539 217 549 253L382 253L407 399L770 399Q753 269 699 176.50Q645 84 559.50 34.50Q474-15 361-15Z"  horiz-adv-x="776" vert-adv-y="1000"  />

      
      <glyph glyph-name="uni011E" unicode="&#x011E;" d="M361-15Q267-15 195 24.50Q123 64 82 134.50Q41 205 41 297Q41 390 72.50 469Q104 548 161 607.50Q218 667 294 700Q370 733 459 733Q547 733 614.50 700.50Q682 668 723 609Q764 550 771 469L584 469Q579 502 561 524.50Q543 547 514 559Q485 571 447 571Q400 571 360 551Q320 531 290.50 494.50Q261 458 245 408.50Q229 359 229 301Q229 253 248 216Q267 179 301 158Q335 137 379 137Q420 137 454.50 151Q489 165 514 191Q539 217 549 253L382 253L407 399L770 399Q753 269 699 176.50Q645 84 559.50 34.50Q474-15 361-15M552 914L667 914Q652 831 602 789Q552 747 472 747Q424 747 386 767.50Q348 788 326 825.50Q304 863 304 914L420 914Q420 883 435.50 867.50Q451 852 479 852Q508 852 527.50 868Q547 884 552 914Z"  horiz-adv-x="776" vert-adv-y="1000"  />

      
      <glyph glyph-name="uni0122" unicode="&#x0122;" d="M361-15Q267-15 195 24.50Q123 64 82 134.50Q41 205 41 297Q41 390 72.50 469Q104 548 161 607.50Q218 667 294 700Q370 733 459 733Q547 733 614.50 700.50Q682 668 723 609Q764 550 771 469L584 469Q579 502 561 524.50Q543 547 514 559Q485 571 447 571Q400 571 360 551Q320 531 290.50 494.50Q261 458 245 408.50Q229 359 229 301Q229 253 248 216Q267 179 301 158Q335 137 379 137Q420 137 454.50 151Q489 165 514 191Q539 217 549 253L382 253L407 399L770 399Q753 269 699 176.50Q645 84 559.50 34.50Q474-15 361-15M436-101Q436-151 405-183.50Q374-216 326.50-229.50Q279-243 228-235L238-176Q274-180 301-173.50Q328-167 340-146Q305-153 282.50-139Q260-125 260-101Q260-70 285.50-49Q311-28 351-28Q389-28 412.50-48.50Q436-69 436-101Z"  horiz-adv-x="776" vert-adv-y="1000"  />

      
      <glyph glyph-name="uni48" unicode="&#x48;" d="M206 0L23 0L150 718L333 718L285 449L542 449L590 718L773 718L646 0L463 0L514 289L257 289L206 0Z"  horiz-adv-x="764" vert-adv-y="1000"  />

      
      <glyph glyph-name="uni49" unicode="&#x49;" d="M206 0L23 0L150 718L333 718L206 0Z"  horiz-adv-x="324" vert-adv-y="1000"  />

      
      <glyph glyph-name="unicd" unicode="&#xcd;" d="M206 0L23 0L150 718L333 718L206 0M341 752L163 752L279 913L476 913L341 752Z"  horiz-adv-x="324" vert-adv-y="1000"  />

      
      <glyph glyph-name="unice" unicode="&#xce;" d="M206 0L23 0L150 718L333 718L206 0M203 752L18 752L169 913L373 913L467 752L300 752L264 827L203 752Z"  horiz-adv-x="324" vert-adv-y="1000"  />

      
      <glyph glyph-name="unicf" unicode="&#xcf;" d="M206 0L23 0L150 718L333 718L206 0M469 858Q469 829 454.50 803.50Q440 778 415 762.50Q390 747 360 747Q325 747 302.50 768Q280 789 280 821Q280 867 313 899Q346 931 392 931Q427 931 448 910.50Q469 890 469 858M250 858Q250 812 217 779.50Q184 747 137 747Q103 747 81.50 768Q60 789 60 821Q60 851 75 876Q90 901 115 916Q140 931 170 931Q205 931 227.50 911Q250 891 250 858Z"  horiz-adv-x="324" vert-adv-y="1000"  />

      
      <glyph glyph-name="uni0130" unicode="&#x0130;" d="M206 0L23 0L150 718L333 718L206 0M372 859Q372 829 355 803.50Q338 778 310 762.50Q282 747 247 747Q206 747 181 769.50Q156 792 156 826Q156 857 173 882.50Q190 908 218.50 923.50Q247 939 280 939Q322 939 347 916.50Q372 894 372 859Z"  horiz-adv-x="324" vert-adv-y="1000"  />

      
      <glyph glyph-name="unicc" unicode="&#xcc;" d="M206 0L23 0L150 718L333 718L206 0M316 752L165 752L88 913L258 913L316 752Z"  horiz-adv-x="324" vert-adv-y="1000"  />

      
      <glyph glyph-name="uni012A" unicode="&#x012A;" d="M206 0L23 0L150 718L333 718L206 0M421 764L82 764L100 872L439 872L421 764Z"  horiz-adv-x="324" vert-adv-y="1000"  />

      
      <glyph glyph-name="uni012E" unicode="&#x012E;" d="M206 0L23 0L150 718L333 718L206 0M140-78L120-186Q104-191 82-194Q60-197 43-197Q-4-197-31-173Q-58-149-58-108Q-58-57-16.50-14.50Q25 28 105 68L151 45Q116 22 96-4.50Q76-31 76-53Q76-84 110-84Q124-84 140-78Z"  horiz-adv-x="324" vert-adv-y="1000"  />

      
      <glyph glyph-name="uni4a" unicode="&#x4a;" d="M641 718L561 267Q535 121 465.50 53Q396-15 272-15Q149-15 78.50 60Q8 135 6 268L186 268Q188 210 212.50 179.50Q237 149 281 149Q322 149 345.50 176.50Q369 204 379 263L458 718L641 718Z"  horiz-adv-x="627" vert-adv-y="1000"  />

      
      <glyph glyph-name="uni4b" unicode="&#x4b;" d="M206 0L23 0L150 718L333 718L279 416L541 718L758 718L444 361L619 0L416 0L263 325L206 0Z"  horiz-adv-x="685" vert-adv-y="1000"  />

      
      <glyph glyph-name="uni0136" unicode="&#x0136;" d="M206 0L23 0L150 718L333 718L279 416L541 718L758 718L444 361L619 0L416 0L263 325L206 0M372-101Q372-151 341-183.50Q310-216 262.50-229.50Q215-243 164-235L174-176Q210-180 237-173.50Q264-167 276-146Q241-153 218.50-139Q196-125 196-101Q196-70 221.50-49Q247-28 287-28Q325-28 348.50-48.50Q372-69 372-101Z"  horiz-adv-x="685" vert-adv-y="1000"  />

      
      <glyph glyph-name="uni4c" unicode="&#x4c;" d="M498 0L23 0L150 718L333 718L234 166L527 166L498 0Z"  horiz-adv-x="575" vert-adv-y="1000"  />

      
      <glyph glyph-name="uni0139" unicode="&#x0139;" d="M498 0L23 0L150 718L333 718L234 166L527 166L498 0M333 752L157 752L282 913L479 913L333 752Z"  horiz-adv-x="575" vert-adv-y="1000"  />

      
      <glyph glyph-name="uni013D" unicode="&#x013D;" d="M498 0L23 0L150 718L333 718L234 166L527 166L498 0M470 560L360 560L388 718L524 718L470 560Z"  horiz-adv-x="575" vert-adv-y="1000"  />

      
      <glyph glyph-name="uni013B" unicode="&#x013B;" d="M498 0L23 0L150 718L333 718L234 166L527 166L498 0M346-119Q346-169 315-201.50Q284-234 236.50-247.50Q189-261 138-253L148-194Q184-198 211-191.50Q238-185 250-164Q215-171 192.50-157Q170-143 170-119Q170-88 195.50-67Q221-46 261-46Q299-46 322.50-66.50Q346-87 346-119Z"  horiz-adv-x="575" vert-adv-y="1000"  />

      
      <glyph glyph-name="uni0141" unicode="&#x0141;" d="M498 0L23 0L150 718L333 718L234 166L527 166L498 0M459 363L-21 257L5 409L484 513L459 363Z"  horiz-adv-x="575" vert-adv-y="1000"  />

      
      <glyph glyph-name="uni4d" unicode="&#x4d;" d="M339 0L265 423L189 0L23 0L150 718L361 718L449 224L711 718L932 718L805 0L638 0L715 428L488 0L339 0Z"  horiz-adv-x="923" vert-adv-y="1000"  />

      
      <glyph glyph-name="uni4e" unicode="&#x4e;" d="M468 0L274 456L194 0L23 0L150 718L346 718L525 295L600 718L771 718L644 0L468 0Z"  horiz-adv-x="762" vert-adv-y="1000"  />

      
      <glyph glyph-name="uni0143" unicode="&#x0143;" d="M468 0L274 456L194 0L23 0L150 718L346 718L525 295L600 718L771 718L644 0L468 0M553 752L377 752L502 913L699 913L553 752Z"  horiz-adv-x="762" vert-adv-y="1000"  />

      
      <glyph glyph-name="uni0147" unicode="&#x0147;" d="M468 0L274 456L194 0L23 0L150 718L346 718L525 295L600 718L771 718L644 0L468 0M571 750L362 750L254 914L425 914L472 836L544 914L736 914L571 750Z"  horiz-adv-x="762" vert-adv-y="1000"  />

      
      <glyph glyph-name="uni0145" unicode="&#x0145;" d="M468 0L274 456L194 0L23 0L150 718L346 718L525 295L600 718L771 718L644 0L468 0M403-101Q403-151 372-183.50Q341-216 293.50-229.50Q246-243 195-235L205-176Q241-180 268-173.50Q295-167 307-146Q272-153 249.50-139Q227-125 227-101Q227-70 252.50-49Q278-28 318-28Q356-28 379.50-48.50Q403-69 403-101Z"  horiz-adv-x="762" vert-adv-y="1000"  />

      
      <glyph glyph-name="unid1" unicode="&#xd1;" d="M468 0L274 456L194 0L23 0L150 718L346 718L525 295L600 718L771 718L644 0L468 0M376 749L276 749Q275 823 311 869Q347 915 403 915Q427 915 446.50 908.50Q466 902 483 894Q500 886 516 879.50Q532 873 550 873Q567 873 575 886Q583 899 583 923L683 923Q684 875 667 837.50Q650 800 621 778.50Q592 757 554 757Q530 757 511 763.50Q492 770 475.50 778Q459 786 443 792.50Q427 799 409 799Q393 799 384.50 786.50Q376 774 376 749Z"  horiz-adv-x="762" vert-adv-y="1000"  />

      
      <glyph glyph-name="uni4f" unicode="&#x4f;" d="M350-15Q260-15 190.50 25.50Q121 66 81 136.50Q41 207 41 297Q41 390 72.50 469.50Q104 549 161.50 608Q219 667 295.50 700Q372 733 462 733Q552 733 622 692.50Q692 652 732 582Q772 512 772 421Q772 328 740.50 248.50Q709 169 651.50 110Q594 51 517 18Q440-15 350-15M369 147Q415 147 454.50 167.50Q494 188 523 224.50Q552 261 568 310Q584 359 584 416Q584 463 566.50 497.50Q549 532 517.50 551.50Q486 571 444 571Q398 571 358.50 551Q319 531 290 494.50Q261 458 245 408.50Q229 359 229 301Q229 255 246.50 220Q264 185 295.50 166Q327 147 369 147Z"  horiz-adv-x="781" vert-adv-y="1000"  />

      
      <glyph glyph-name="unid3" unicode="&#xd3;" d="M350-15Q260-15 190.50 25.50Q121 66 81 136.50Q41 207 41 297Q41 390 72.50 469.50Q104 549 161.50 608Q219 667 295.50 700Q372 733 462 733Q552 733 622 692.50Q692 652 732 582Q772 512 772 421Q772 328 740.50 248.50Q709 169 651.50 110Q594 51 517 18Q440-15 350-15M369 147Q415 147 454.50 167.50Q494 188 523 224.50Q552 261 568 310Q584 359 584 416Q584 463 566.50 497.50Q549 532 517.50 551.50Q486 571 444 571Q398 571 358.50 551Q319 531 290 494.50Q261 458 245 408.50Q229 359 229 301Q229 255 246.50 220Q264 185 295.50 166Q327 147 369 147M554 752L378 752L503 913L700 913L554 752Z"  horiz-adv-x="781" vert-adv-y="1000"  />

      
      <glyph glyph-name="unid4" unicode="&#xd4;" d="M350-15Q260-15 190.50 25.50Q121 66 81 136.50Q41 207 41 297Q41 390 72.50 469.50Q104 549 161.50 608Q219 667 295.50 700Q372 733 462 733Q552 733 622 692.50Q692 652 732 582Q772 512 772 421Q772 328 740.50 248.50Q709 169 651.50 110Q594 51 517 18Q440-15 350-15M369 147Q415 147 454.50 167.50Q494 188 523 224.50Q552 261 568 310Q584 359 584 416Q584 463 566.50 497.50Q549 532 517.50 551.50Q486 571 444 571Q398 571 358.50 551Q319 531 290 494.50Q261 458 245 408.50Q229 359 229 301Q229 255 246.50 220Q264 185 295.50 166Q327 147 369 147M409 750L217 750L382 914L591 914L699 750L528 750L481 828L409 750Z"  horiz-adv-x="781" vert-adv-y="1000"  />

      
      <glyph glyph-name="unid6" unicode="&#xd6;" d="M350-15Q260-15 190.50 25.50Q121 66 81 136.50Q41 207 41 297Q41 390 72.50 469.50Q104 549 161.50 608Q219 667 295.50 700Q372 733 462 733Q552 733 622 692.50Q692 652 732 582Q772 512 772 421Q772 328 740.50 248.50Q709 169 651.50 110Q594 51 517 18Q440-15 350-15M369 147Q415 147 454.50 167.50Q494 188 523 224.50Q552 261 568 310Q584 359 584 416Q584 463 566.50 497.50Q549 532 517.50 551.50Q486 571 444 571Q398 571 358.50 551Q319 531 290 494.50Q261 458 245 408.50Q229 359 229 301Q229 255 246.50 220Q264 185 295.50 166Q327 147 369 147M698 858Q698 828 682.50 803Q667 778 641.50 762.50Q616 747 585 747Q548 747 525.50 768Q503 789 503 821Q503 852 518.50 876.50Q534 901 560.50 916Q587 931 618 931Q653 931 675.50 910.50Q698 890 698 858M464 858Q464 812 430.50 779.50Q397 747 350 747Q314 747 291.50 768Q269 789 269 821Q269 851 284.50 876Q300 901 326 916Q352 931 382 931Q420 931 442 910.50Q464 890 464 858Z"  horiz-adv-x="781" vert-adv-y="1000"  />

      
      <glyph glyph-name="unid2" unicode="&#xd2;" d="M350-15Q260-15 190.50 25.50Q121 66 81 136.50Q41 207 41 297Q41 390 72.50 469.50Q104 549 161.50 608Q219 667 295.50 700Q372 733 462 733Q552 733 622 692.50Q692 652 732 582Q772 512 772 421Q772 328 740.50 248.50Q709 169 651.50 110Q594 51 517 18Q440-15 350-15M369 147Q415 147 454.50 167.50Q494 188 523 224.50Q552 261 568 310Q584 359 584 416Q584 463 566.50 497.50Q549 532 517.50 551.50Q486 571 444 571Q398 571 358.50 551Q319 531 290 494.50Q261 458 245 408.50Q229 359 229 301Q229 255 246.50 220Q264 185 295.50 166Q327 147 369 147M539 752L388 752L299 913L470 913L539 752Z"  horiz-adv-x="781" vert-adv-y="1000"  />

      
      <glyph glyph-name="uni0150" unicode="&#x0150;" d="M350-15Q260-15 190.50 25.50Q121 66 81 136.50Q41 207 41 297Q41 390 72.50 469.50Q104 549 161.50 608Q219 667 295.50 700Q372 733 462 733Q552 733 622 692.50Q692 652 732 582Q772 512 772 421Q772 328 740.50 248.50Q709 169 651.50 110Q594 51 517 18Q440-15 350-15M369 147Q415 147 454.50 167.50Q494 188 523 224.50Q552 261 568 310Q584 359 584 416Q584 463 566.50 497.50Q549 532 517.50 551.50Q486 571 444 571Q398 571 358.50 551Q319 531 290 494.50Q261 458 245 408.50Q229 359 229 301Q229 255 246.50 220Q264 185 295.50 166Q327 147 369 147M643 752L483 752L618 913L788 913L643 752M423 752L264 752L389 913L558 913L423 752Z"  horiz-adv-x="781" vert-adv-y="1000"  />

      
      <glyph glyph-name="uni014C" unicode="&#x014C;" d="M350-15Q260-15 190.50 25.50Q121 66 81 136.50Q41 207 41 297Q41 390 72.50 469.50Q104 549 161.50 608Q219 667 295.50 700Q372 733 462 733Q552 733 622 692.50Q692 652 732 582Q772 512 772 421Q772 328 740.50 248.50Q709 169 651.50 110Q594 51 517 18Q440-15 350-15M369 147Q415 147 454.50 167.50Q494 188 523 224.50Q552 261 568 310Q584 359 584 416Q584 463 566.50 497.50Q549 532 517.50 551.50Q486 571 444 571Q398 571 358.50 551Q319 531 290 494.50Q261 458 245 408.50Q229 359 229 301Q229 255 246.50 220Q264 185 295.50 166Q327 147 369 147M639 764L300 764L318 872L657 872L639 764Z"  horiz-adv-x="781" vert-adv-y="1000"  />

      
      <glyph glyph-name="unid8" unicode="&#xd8;" d="M350-15Q260-15 190.50 25.50Q121 66 81 136.50Q41 207 41 297Q41 390 72.50 469.50Q104 549 161.50 608Q219 667 295.50 700Q372 733 462 733Q552 733 622 692.50Q692 652 732 582Q772 512 772 421Q772 328 740.50 248.50Q709 169 651.50 110Q594 51 517 18Q440-15 350-15M369 147Q415 147 454.50 167.50Q494 188 523 224.50Q552 261 568 310Q584 359 584 416Q584 463 566.50 497.50Q549 532 517.50 551.50Q486 571 444 571Q398 571 358.50 551Q319 531 290 494.50Q261 458 245 408.50Q229 359 229 301Q229 255 246.50 220Q264 185 295.50 166Q327 147 369 147M175 0L3 0L639 718L810 718L175 0Z"  horiz-adv-x="781" vert-adv-y="1000"  />

      
      <glyph glyph-name="unid5" unicode="&#xd5;" d="M350-15Q260-15 190.50 25.50Q121 66 81 136.50Q41 207 41 297Q41 390 72.50 469.50Q104 549 161.50 608Q219 667 295.50 700Q372 733 462 733Q552 733 622 692.50Q692 652 732 582Q772 512 772 421Q772 328 740.50 248.50Q709 169 651.50 110Q594 51 517 18Q440-15 350-15M369 147Q415 147 454.50 167.50Q494 188 523 224.50Q552 261 568 310Q584 359 584 416Q584 463 566.50 497.50Q549 532 517.50 551.50Q486 571 444 571Q398 571 358.50 551Q319 531 290 494.50Q261 458 245 408.50Q229 359 229 301Q229 255 246.50 220Q264 185 295.50 166Q327 147 369 147M377 749L277 749Q276 823 312 869Q348 915 404 915Q428 915 447.50 908.50Q467 902 484 894Q501 886 517 879.50Q533 873 551 873Q568 873 576 886Q584 899 584 923L684 923Q685 875 668 837.50Q651 800 622 778.50Q593 757 555 757Q531 757 512 763.50Q493 770 476.50 778Q460 786 444 792.50Q428 799 410 799Q394 799 385.50 786.50Q377 774 377 749Z"  horiz-adv-x="781" vert-adv-y="1000"  />

      
      <glyph glyph-name="uni0152" unicode="&#x0152;" d="M40 294Q40 387 70.50 467Q101 547 155 607Q209 667 281.50 700Q354 733 439 733Q490 733 532.50 719Q575 705 605 679L612 718L1068 718L1041 560L747 560L727 448L994 448L967 290L699 290L675 158L976 158L950 0L486 0L495 45Q451 15 403.50 0Q356-15 306-15Q227-15 167 24Q107 63 73.50 132.50Q40 202 40 294M228 296Q228 250 241.50 216.50Q255 183 281 165Q307 147 343 147Q383 147 417.50 168Q452 189 478 227Q504 265 519 315Q534 365 534 423Q534 492 503.50 531.50Q473 571 418 571Q380 571 345.50 549.50Q311 528 284.50 490Q258 452 243 402Q228 352 228 296Z"  horiz-adv-x="1035" vert-adv-y="1000"  />

      
      <glyph glyph-name="uni50" unicode="&#x50;" d="M333 221L244 221L206 0L23 0L150 718L421 718Q498 718 554.50 691.50Q611 665 642.50 616.50Q674 568 674 503Q674 418 632 354.50Q590 291 513.50 256Q437 221 333 221M392 560L305 560L272 379L359 379Q400 379 429 391.50Q458 404 473.50 427Q489 450 489 481Q489 519 463.50 539.50Q438 560 392 560Z"  horiz-adv-x="662" vert-adv-y="1000"  />

      
      <glyph glyph-name="unide" unicode="&#xde;" d="M309 113L226 113L206 0L23 0L150 718L333 718L313 610L396 610Q475 610 532.50 584Q590 558 622 511.50Q654 465 654 401Q654 311 613 246.50Q572 182 494.50 147.50Q417 113 309 113M371 452L284 452L251 271L338 271Q379 271 408 283.50Q437 296 452.50 319Q468 342 468 373Q468 411 442.50 431.50Q417 452 371 452Z"  horiz-adv-x="660" vert-adv-y="1000"  />

      
      <glyph glyph-name="uni52" unicode="&#x52;" d="M206 0L23 0L150 718L435 718Q513 718 570.50 692.50Q628 667 659.50 620.50Q691 574 691 511Q691 452 669 404.50Q647 357 603 322Q559 287 494 265L631 0L429 0L309 241L248 241L206 0M306 565L275 394L369 394Q414 394 445 405Q476 416 491.50 437Q507 458 507 489Q507 527 480.50 546Q454 565 400 565L306 565Z"  horiz-adv-x="693" vert-adv-y="1000"  />

      
      <glyph glyph-name="uni0154" unicode="&#x0154;" d="M206 0L23 0L150 718L435 718Q513 718 570.50 692.50Q628 667 659.50 620.50Q691 574 691 511Q691 452 669 404.50Q647 357 603 322Q559 287 494 265L631 0L429 0L309 241L248 241L206 0M306 565L275 394L369 394Q414 394 445 405Q476 416 491.50 437Q507 458 507 489Q507 527 480.50 546Q454 565 400 565L306 565M500 752L324 752L449 913L646 913L500 752Z"  horiz-adv-x="693" vert-adv-y="1000"  />

      
      <glyph glyph-name="uni0158" unicode="&#x0158;" d="M206 0L23 0L150 718L435 718Q513 718 570.50 692.50Q628 667 659.50 620.50Q691 574 691 511Q691 452 669 404.50Q647 357 603 322Q559 287 494 265L631 0L429 0L309 241L248 241L206 0M306 565L275 394L369 394Q414 394 445 405Q476 416 491.50 437Q507 458 507 489Q507 527 480.50 546Q454 565 400 565L306 565M518 750L309 750L201 914L372 914L419 836L491 914L683 914L518 750Z"  horiz-adv-x="693" vert-adv-y="1000"  />

      
      <glyph glyph-name="uni0156" unicode="&#x0156;" d="M206 0L23 0L150 718L435 718Q513 718 570.50 692.50Q628 667 659.50 620.50Q691 574 691 511Q691 452 669 404.50Q647 357 603 322Q559 287 494 265L631 0L429 0L309 241L248 241L206 0M306 565L275 394L369 394Q414 394 445 405Q476 416 491.50 437Q507 458 507 489Q507 527 480.50 546Q454 565 400 565L306 565M389-101Q389-151 358-183.50Q327-216 279.50-229.50Q232-243 181-235L191-176Q227-180 254-173.50Q281-167 293-146Q258-153 235.50-139Q213-125 213-101Q213-70 238.50-49Q264-28 304-28Q342-28 365.50-48.50Q389-69 389-101Z"  horiz-adv-x="693" vert-adv-y="1000"  />

      
      <glyph glyph-name="uni53" unicode="&#x53;" d="M606 230Q606 157 570.50 103Q535 49 470 19.50Q405-10 315-10Q176-10 96.50 58.50Q17 127 16 248L196 248Q196 198 232 167Q268 136 326 136Q357 136 378 143.50Q399 151 410.50 166Q422 181 422 201Q422 227 405.50 241Q389 255 345 268L233 301Q154 324 111.50 375Q69 426 69 496Q69 566 104.50 617.50Q140 669 205 698Q270 727 356 727Q439 727 500 696Q561 665 595.50 608.50Q630 552 630 475L450 475Q450 507 436.50 531Q423 555 399.50 569Q376 583 345 583Q301 583 276 564.50Q251 546 251 514Q251 491 267.50 475Q284 459 318 449L436 415Q519 391 562.50 343.50Q606 296 606 230Z"  horiz-adv-x="644" vert-adv-y="1000"  />

      
      <glyph glyph-name="uni015A" unicode="&#x015A;" d="M606 230Q606 157 570.50 103Q535 49 470 19.50Q405-10 315-10Q176-10 96.50 58.50Q17 127 16 248L196 248Q196 198 232 167Q268 136 326 136Q357 136 378 143.50Q399 151 410.50 166Q422 181 422 201Q422 227 405.50 241Q389 255 345 268L233 301Q154 324 111.50 375Q69 426 69 496Q69 566 104.50 617.50Q140 669 205 698Q270 727 356 727Q439 727 500 696Q561 665 595.50 608.50Q630 552 630 475L450 475Q450 507 436.50 531Q423 555 399.50 569Q376 583 345 583Q301 583 276 564.50Q251 546 251 514Q251 491 267.50 475Q284 459 318 449L436 415Q519 391 562.50 343.50Q606 296 606 230M456 752L280 752L405 913L602 913L456 752Z"  horiz-adv-x="644" vert-adv-y="1000"  />

      
      <glyph glyph-name="uni0160" unicode="&#x0160;" d="M606 230Q606 157 570.50 103Q535 49 470 19.50Q405-10 315-10Q176-10 96.50 58.50Q17 127 16 248L196 248Q196 198 232 167Q268 136 326 136Q357 136 378 143.50Q399 151 410.50 166Q422 181 422 201Q422 227 405.50 241Q389 255 345 268L233 301Q154 324 111.50 375Q69 426 69 496Q69 566 104.50 617.50Q140 669 205 698Q270 727 356 727Q439 727 500 696Q561 665 595.50 608.50Q630 552 630 475L450 475Q450 507 436.50 531Q423 555 399.50 569Q376 583 345 583Q301 583 276 564.50Q251 546 251 514Q251 491 267.50 475Q284 459 318 449L436 415Q519 391 562.50 343.50Q606 296 606 230M474 750L265 750L157 914L328 914L375 836L447 914L639 914L474 750Z"  horiz-adv-x="644" vert-adv-y="1000"  />

      
      <glyph glyph-name="uni015E" unicode="&#x015E;" d="M606 230Q606 157 570.50 103Q535 49 470 19.50Q405-10 315-10Q176-10 96.50 58.50Q17 127 16 248L196 248Q196 198 232 167Q268 136 326 136Q357 136 378 143.50Q399 151 410.50 166Q422 181 422 201Q422 227 405.50 241Q389 255 345 268L233 301Q154 324 111.50 375Q69 426 69 496Q69 566 104.50 617.50Q140 669 205 698Q270 727 356 727Q439 727 500 696Q561 665 595.50 608.50Q630 552 630 475L450 475Q450 507 436.50 531Q423 555 399.50 569Q376 583 345 583Q301 583 276 564.50Q251 546 251 514Q251 491 267.50 475Q284 459 318 449L436 415Q519 391 562.50 343.50Q606 296 606 230M408-108Q408-148 372-173Q336-198 275-198Q215-198 182-172Q149-146 149-98L249-98Q249-110 255-116.50Q261-123 273-123Q286-123 292.50-116.50Q299-110 299-98Q299-82 280-75Q261-68 235-72L272 19L351 19L329-31Q371-41 389.50-60Q408-79 408-108Z"  horiz-adv-x="644" vert-adv-y="1000"  />

      
      <glyph glyph-name="uni0218" unicode="&#x0218;" d="M606 230Q606 157 570.50 103Q535 49 470 19.50Q405-10 315-10Q176-10 96.50 58.50Q17 127 16 248L196 248Q196 198 232 167Q268 136 326 136Q357 136 378 143.50Q399 151 410.50 166Q422 181 422 201Q422 227 405.50 241Q389 255 345 268L233 301Q154 324 111.50 375Q69 426 69 496Q69 566 104.50 617.50Q140 669 205 698Q270 727 356 727Q439 727 500 696Q561 665 595.50 608.50Q630 552 630 475L450 475Q450 507 436.50 531Q423 555 399.50 569Q376 583 345 583Q301 583 276 564.50Q251 546 251 514Q251 491 267.50 475Q284 459 318 449L436 415Q519 391 562.50 343.50Q606 296 606 230M376-101Q376-151 345-183.50Q314-216 266.50-229.50Q219-243 168-235L178-176Q214-180 241-173.50Q268-167 280-146Q245-153 222.50-139Q200-125 200-101Q200-70 225.50-49Q251-28 291-28Q329-28 352.50-48.50Q376-69 376-101Z"  horiz-adv-x="644" vert-adv-y="1000"  />

      
      <glyph glyph-name="uni54" unicode="&#x54;" d="M364 0L181 0L278 552L65 552L94 718L702 718L674 552L461 552L364 0Z"  horiz-adv-x="639" vert-adv-y="1000"  />

      
      <glyph glyph-name="uni0164" unicode="&#x0164;" d="M364 0L181 0L278 552L65 552L94 718L702 718L674 552L461 552L364 0M509 750L300 750L192 914L363 914L410 836L482 914L674 914L509 750Z"  horiz-adv-x="639" vert-adv-y="1000"  />

      
      <glyph glyph-name="uni0162" unicode="&#x0162;" d="M364 0L181 0L278 552L65 552L94 718L702 718L674 552L461 552L364 0M374-108Q374-148 338-173Q302-198 241-198Q181-198 148-172Q115-146 115-98L215-98Q215-110 221-116.50Q227-123 239-123Q252-123 258.50-116.50Q265-110 265-98Q265-82 246-75Q227-68 201-72L238 19L317 19L295-31Q337-41 355.50-60Q374-79 374-108Z"  horiz-adv-x="639" vert-adv-y="1000"  />

      
      <glyph glyph-name="uni021A" unicode="&#x021A;" d="M364 0L181 0L278 552L65 552L94 718L702 718L674 552L461 552L364 0M342-101Q342-151 311-183.50Q280-216 232.50-229.50Q185-243 134-235L144-176Q180-180 207-173.50Q234-167 246-146Q211-153 188.50-139Q166-125 166-101Q166-70 191.50-49Q217-28 257-28Q295-28 318.50-48.50Q342-69 342-101Z"  horiz-adv-x="639" vert-adv-y="1000"  />

      
      <glyph glyph-name="uni55" unicode="&#x55;" d="M751 718L675 284Q649 133 565.50 59Q482-15 341-15Q248-15 181.50 23.50Q115 62 85.50 130Q56 198 71 284L148 718L331 718L253 281Q246 243 255 213Q264 183 289 166Q314 149 353 149Q414 149 446 179.50Q478 210 491 282L568 718L751 718Z"  horiz-adv-x="740" vert-adv-y="1000"  />

      
      <glyph glyph-name="unida" unicode="&#xda;" d="M751 718L675 284Q649 133 565.50 59Q482-15 341-15Q248-15 181.50 23.50Q115 62 85.50 130Q56 198 71 284L148 718L331 718L253 281Q246 243 255 213Q264 183 289 166Q314 149 353 149Q414 149 446 179.50Q478 210 491 282L568 718L751 718M542 752L366 752L491 913L688 913L542 752Z"  horiz-adv-x="740" vert-adv-y="1000"  />

      
      <glyph glyph-name="unidb" unicode="&#xdb;" d="M751 718L675 284Q649 133 565.50 59Q482-15 341-15Q248-15 181.50 23.50Q115 62 85.50 130Q56 198 71 284L148 718L331 718L253 281Q246 243 255 213Q264 183 289 166Q314 149 353 149Q414 149 446 179.50Q478 210 491 282L568 718L751 718M397 750L205 750L370 914L579 914L687 750L516 750L469 828L397 750Z"  horiz-adv-x="740" vert-adv-y="1000"  />

      
      <glyph glyph-name="unidc" unicode="&#xdc;" d="M751 718L675 284Q649 133 565.50 59Q482-15 341-15Q248-15 181.50 23.50Q115 62 85.50 130Q56 198 71 284L148 718L331 718L253 281Q246 243 255 213Q264 183 289 166Q314 149 353 149Q414 149 446 179.50Q478 210 491 282L568 718L751 718M686 858Q686 828 670.50 803Q655 778 629.50 762.50Q604 747 573 747Q536 747 513.50 768Q491 789 491 821Q491 852 506.50 876.50Q522 901 548.50 916Q575 931 606 931Q641 931 663.50 910.50Q686 890 686 858M452 858Q452 812 418.50 779.50Q385 747 338 747Q302 747 279.50 768Q257 789 257 821Q257 851 272.50 876Q288 901 314 916Q340 931 370 931Q408 931 430 910.50Q452 890 452 858Z"  horiz-adv-x="740" vert-adv-y="1000"  />

      
      <glyph glyph-name="unid9" unicode="&#xd9;" d="M751 718L675 284Q649 133 565.50 59Q482-15 341-15Q248-15 181.50 23.50Q115 62 85.50 130Q56 198 71 284L148 718L331 718L253 281Q246 243 255 213Q264 183 289 166Q314 149 353 149Q414 149 446 179.50Q478 210 491 282L568 718L751 718M527 752L376 752L287 913L458 913L527 752Z"  horiz-adv-x="740" vert-adv-y="1000"  />

      
      <glyph glyph-name="uni0170" unicode="&#x0170;" d="M751 718L675 284Q649 133 565.50 59Q482-15 341-15Q248-15 181.50 23.50Q115 62 85.50 130Q56 198 71 284L148 718L331 718L253 281Q246 243 255 213Q264 183 289 166Q314 149 353 149Q414 149 446 179.50Q478 210 491 282L568 718L751 718M631 752L471 752L606 913L776 913L631 752M411 752L252 752L377 913L546 913L411 752Z"  horiz-adv-x="740" vert-adv-y="1000"  />

      
      <glyph glyph-name="uni016A" unicode="&#x016A;" d="M751 718L675 284Q649 133 565.50 59Q482-15 341-15Q248-15 181.50 23.50Q115 62 85.50 130Q56 198 71 284L148 718L331 718L253 281Q246 243 255 213Q264 183 289 166Q314 149 353 149Q414 149 446 179.50Q478 210 491 282L568 718L751 718M627 764L288 764L306 872L645 872L627 764Z"  horiz-adv-x="740" vert-adv-y="1000"  />

      
      <glyph glyph-name="uni0172" unicode="&#x0172;" d="M751 718L675 284Q649 133 565.50 59Q482-15 341-15Q248-15 181.50 23.50Q115 62 85.50 130Q56 198 71 284L148 718L331 718L253 281Q246 243 255 213Q264 183 289 166Q314 149 353 149Q414 149 446 179.50Q478 210 491 282L568 718L751 718M537-78L517-186Q501-191 479-194Q457-197 440-197Q393-197 366-173Q339-149 339-108Q339-57 380.50-14.50Q422 28 502 68L548 45Q513 22 493-4.50Q473-31 473-53Q473-84 507-84Q521-84 537-78Z"  horiz-adv-x="740" vert-adv-y="1000"  />

      
      <glyph glyph-name="uni016E" unicode="&#x016E;" d="M751 718L675 284Q649 133 565.50 59Q482-15 341-15Q248-15 181.50 23.50Q115 62 85.50 130Q56 198 71 284L148 718L331 718L253 281Q246 243 255 213Q264 183 289 166Q314 149 353 149Q414 149 446 179.50Q478 210 491 282L568 718L751 718M459 747Q405 747 370 776.50Q335 806 335 855Q335 898 356.50 932.50Q378 967 414.50 987.50Q451 1008 495 1008Q550 1008 584.50 978Q619 948 619 900Q619 858 597.50 823Q576 788 540 767.50Q504 747 459 747M468 828Q491 828 508 846.50Q525 865 525 889Q525 905 514 916.50Q503 928 486 928Q464 928 446.50 909.50Q429 891 429 866Q429 850 440 839Q451 828 468 828Z"  horiz-adv-x="740" vert-adv-y="1000"  />

      
      <glyph glyph-name="uni56" unicode="&#x56;" d="M773 718L399 0L199 0L80 718L263 718L332 214L574 718L773 718Z"  horiz-adv-x="695" vert-adv-y="1000"  />

      
      <glyph glyph-name="uni57" unicode="&#x57;" d="M549 0L515 455L321 0L134 0L85 718L266 718L283 281L471 718L643 718L672 279L845 718L1035 718L730 0L549 0Z"  horiz-adv-x="962" vert-adv-y="1000"  />

      
      <glyph glyph-name="uni1E82" unicode="&#x1E82;" d="M549 0L515 455L321 0L134 0L85 718L266 718L283 281L471 718L643 718L672 279L845 718L1035 718L730 0L549 0M652 752L476 752L601 913L798 913L652 752Z"  horiz-adv-x="962" vert-adv-y="1000"  />

      
      <glyph glyph-name="uni0174" unicode="&#x0174;" d="M549 0L515 455L321 0L134 0L85 718L266 718L283 281L471 718L643 718L672 279L845 718L1035 718L730 0L549 0M507 750L315 750L480 914L689 914L797 750L626 750L579 828L507 750Z"  horiz-adv-x="962" vert-adv-y="1000"  />

      
      <glyph glyph-name="uni1E84" unicode="&#x1E84;" d="M549 0L515 455L321 0L134 0L85 718L266 718L283 281L471 718L643 718L672 279L845 718L1035 718L730 0L549 0M796 858Q796 828 780.50 803Q765 778 739.50 762.50Q714 747 683 747Q646 747 623.50 768Q601 789 601 821Q601 852 616.50 876.50Q632 901 658.50 916Q685 931 716 931Q751 931 773.50 910.50Q796 890 796 858M562 858Q562 812 528.50 779.50Q495 747 448 747Q412 747 389.50 768Q367 789 367 821Q367 851 382.50 876Q398 901 424 916Q450 931 480 931Q518 931 540 910.50Q562 890 562 858Z"  horiz-adv-x="962" vert-adv-y="1000"  />

      
      <glyph glyph-name="uni1E80" unicode="&#x1E80;" d="M549 0L515 455L321 0L134 0L85 718L266 718L283 281L471 718L643 718L672 279L845 718L1035 718L730 0L549 0M637 752L486 752L397 913L568 913L637 752Z"  horiz-adv-x="962" vert-adv-y="1000"  />

      
      <glyph glyph-name="uni58" unicode="&#x58;" d="M183 0L-31 0L232 370L98 718L290 718L381 473L540 718L756 718L489 356L631 0L438 0L341 251L183 0Z"  horiz-adv-x="694" vert-adv-y="1000"  />

      
      <glyph glyph-name="uni59" unicode="&#x59;" d="M427 270L379 0L196 0L244 270L80 718L263 718L354 438L547 718L752 718L427 270Z"  horiz-adv-x="674" vert-adv-y="1000"  />

      
      <glyph glyph-name="unidd" unicode="&#xdd;" d="M427 270L379 0L196 0L244 270L80 718L263 718L354 438L547 718L752 718L427 270M498 752L322 752L447 913L644 913L498 752Z"  horiz-adv-x="674" vert-adv-y="1000"  />

      
      <glyph glyph-name="uni0176" unicode="&#x0176;" d="M427 270L379 0L196 0L244 270L80 718L263 718L354 438L547 718L752 718L427 270M353 750L161 750L326 914L535 914L643 750L472 750L425 828L353 750Z"  horiz-adv-x="674" vert-adv-y="1000"  />

      
      <glyph glyph-name="uni0178" unicode="&#x0178;" d="M427 270L379 0L196 0L244 270L80 718L263 718L354 438L547 718L752 718L427 270M642 858Q642 828 626.50 803Q611 778 585.50 762.50Q560 747 529 747Q492 747 469.50 768Q447 789 447 821Q447 852 462.50 876.50Q478 901 504.50 916Q531 931 562 931Q597 931 619.50 910.50Q642 890 642 858M408 858Q408 812 374.50 779.50Q341 747 294 747Q258 747 235.50 768Q213 789 213 821Q213 851 228.50 876Q244 901 270 916Q296 931 326 931Q364 931 386 910.50Q408 890 408 858Z"  horiz-adv-x="674" vert-adv-y="1000"  />

      
      <glyph glyph-name="uni1EF2" unicode="&#x1EF2;" d="M427 270L379 0L196 0L244 270L80 718L263 718L354 438L547 718L752 718L427 270M483 752L332 752L243 913L414 913L483 752Z"  horiz-adv-x="674" vert-adv-y="1000"  />

      
      <glyph glyph-name="uni5a" unicode="&#x5a;" d="M560 0L-6 0L20 147L411 560L90 560L117 718L678 718L652 569L262 158L588 158L560 0Z"  horiz-adv-x="646" vert-adv-y="1000"  />

      
      <glyph glyph-name="uni0179" unicode="&#x0179;" d="M560 0L-6 0L20 147L411 560L90 560L117 718L678 718L652 569L262 158L588 158L560 0M498 752L322 752L447 913L644 913L498 752Z"  horiz-adv-x="646" vert-adv-y="1000"  />

      
      <glyph glyph-name="uni017D" unicode="&#x017D;" d="M560 0L-6 0L20 147L411 560L90 560L117 718L678 718L652 569L262 158L588 158L560 0M516 750L307 750L199 914L370 914L417 836L489 914L681 914L516 750Z"  horiz-adv-x="646" vert-adv-y="1000"  />

      
      <glyph glyph-name="uni017B" unicode="&#x017B;" d="M560 0L-6 0L20 147L411 560L90 560L117 718L678 718L652 569L262 158L588 158L560 0M534 859Q534 829 517 803.50Q500 778 472 762.50Q444 747 409 747Q368 747 343 769.50Q318 792 318 826Q318 857 335 882.50Q352 908 380.50 923.50Q409 939 442 939Q484 939 509 916.50Q534 894 534 859Z"  horiz-adv-x="646" vert-adv-y="1000"  />

      
      <glyph glyph-name="uni61" unicode="&#x61;" d="M315 0L325 54Q299 22 261 6Q223-10 172-10Q99-10 54 30Q9 70 9 135Q9 192 41.50 234Q74 276 133.50 299Q193 322 273 322Q296 322 315 320.50Q334 319 347 316L352 341Q359 376 341 396.50Q323 417 286 417Q214 417 201 341L52 341Q60 437 127.50 492.50Q195 548 304 548Q375 548 424.50 520.50Q474 493 496 444.50Q518 396 507 332L448 0L315 0M168 156Q168 134 186 119.50Q204 105 231 105Q256 105 275.50 114Q295 123 308 140Q321 157 325 180L331 215Q315 219 298.50 220.50Q282 222 266 222Q219 222 193.50 205Q168 188 168 156Z"  horiz-adv-x="547" vert-adv-y="1000"  />

      
      <glyph glyph-name="unie1" unicode="&#xe1;" d="M315 0L325 54Q299 22 261 6Q223-10 172-10Q99-10 54 30Q9 70 9 135Q9 192 41.50 234Q74 276 133.50 299Q193 322 273 322Q296 322 315 320.50Q334 319 347 316L352 341Q359 376 341 396.50Q323 417 286 417Q214 417 201 341L52 341Q60 437 127.50 492.50Q195 548 304 548Q375 548 424.50 520.50Q474 493 496 444.50Q518 396 507 332L448 0L315 0M168 156Q168 134 186 119.50Q204 105 231 105Q256 105 275.50 114Q295 123 308 140Q321 157 325 180L331 215Q315 219 298.50 220.50Q282 222 266 222Q219 222 193.50 205Q168 188 168 156M403 572L227 572L352 733L549 733L403 572Z"  horiz-adv-x="547" vert-adv-y="1000"  />

      
      <glyph glyph-name="uni0103" unicode="&#x0103;" d="M315 0L325 54Q299 22 261 6Q223-10 172-10Q99-10 54 30Q9 70 9 135Q9 192 41.50 234Q74 276 133.50 299Q193 322 273 322Q296 322 315 320.50Q334 319 347 316L352 341Q359 376 341 396.50Q323 417 286 417Q214 417 201 341L52 341Q60 437 127.50 492.50Q195 548 304 548Q375 548 424.50 520.50Q474 493 496 444.50Q518 396 507 332L448 0L315 0M168 156Q168 134 186 119.50Q204 105 231 105Q256 105 275.50 114Q295 123 308 140Q321 157 325 180L331 215Q315 219 298.50 220.50Q282 222 266 222Q219 222 193.50 205Q168 188 168 156M403 734L518 734Q503 651 453 609Q403 567 323 567Q275 567 237 587.50Q199 608 177 645.50Q155 683 155 734L271 734Q271 703 286.50 687.50Q302 672 330 672Q359 672 378.50 688Q398 704 403 734Z"  horiz-adv-x="547" vert-adv-y="1000"  />

      
      <glyph glyph-name="unie2" unicode="&#xe2;" d="M315 0L325 54Q299 22 261 6Q223-10 172-10Q99-10 54 30Q9 70 9 135Q9 192 41.50 234Q74 276 133.50 299Q193 322 273 322Q296 322 315 320.50Q334 319 347 316L352 341Q359 376 341 396.50Q323 417 286 417Q214 417 201 341L52 341Q60 437 127.50 492.50Q195 548 304 548Q375 548 424.50 520.50Q474 493 496 444.50Q518 396 507 332L448 0L315 0M168 156Q168 134 186 119.50Q204 105 231 105Q256 105 275.50 114Q295 123 308 140Q321 157 325 180L331 215Q315 219 298.50 220.50Q282 222 266 222Q219 222 193.50 205Q168 188 168 156M258 570L66 570L231 734L440 734L548 570L377 570L330 648L258 570Z"  horiz-adv-x="547" vert-adv-y="1000"  />

      
      <glyph glyph-name="unie4" unicode="&#xe4;" d="M315 0L325 54Q299 22 261 6Q223-10 172-10Q99-10 54 30Q9 70 9 135Q9 192 41.50 234Q74 276 133.50 299Q193 322 273 322Q296 322 315 320.50Q334 319 347 316L352 341Q359 376 341 396.50Q323 417 286 417Q214 417 201 341L52 341Q60 437 127.50 492.50Q195 548 304 548Q375 548 424.50 520.50Q474 493 496 444.50Q518 396 507 332L448 0L315 0M168 156Q168 134 186 119.50Q204 105 231 105Q256 105 275.50 114Q295 123 308 140Q321 157 325 180L331 215Q315 219 298.50 220.50Q282 222 266 222Q219 222 193.50 205Q168 188 168 156M547 678Q547 648 531.50 623Q516 598 490.50 582.50Q465 567 434 567Q397 567 374.50 588Q352 609 352 641Q352 672 367.50 696.50Q383 721 409.50 736Q436 751 467 751Q502 751 524.50 730.50Q547 710 547 678M313 678Q313 632 279.50 599.50Q246 567 199 567Q163 567 140.50 588Q118 609 118 641Q118 671 133.50 696Q149 721 175 736Q201 751 231 751Q269 751 291 730.50Q313 710 313 678Z"  horiz-adv-x="547" vert-adv-y="1000"  />

      
      <glyph glyph-name="unie0" unicode="&#xe0;" d="M315 0L325 54Q299 22 261 6Q223-10 172-10Q99-10 54 30Q9 70 9 135Q9 192 41.50 234Q74 276 133.50 299Q193 322 273 322Q296 322 315 320.50Q334 319 347 316L352 341Q359 376 341 396.50Q323 417 286 417Q214 417 201 341L52 341Q60 437 127.50 492.50Q195 548 304 548Q375 548 424.50 520.50Q474 493 496 444.50Q518 396 507 332L448 0L315 0M168 156Q168 134 186 119.50Q204 105 231 105Q256 105 275.50 114Q295 123 308 140Q321 157 325 180L331 215Q315 219 298.50 220.50Q282 222 266 222Q219 222 193.50 205Q168 188 168 156M388 572L237 572L148 733L319 733L388 572Z"  horiz-adv-x="547" vert-adv-y="1000"  />

      
      <glyph glyph-name="uni0101" unicode="&#x0101;" d="M315 0L325 54Q299 22 261 6Q223-10 172-10Q99-10 54 30Q9 70 9 135Q9 192 41.50 234Q74 276 133.50 299Q193 322 273 322Q296 322 315 320.50Q334 319 347 316L352 341Q359 376 341 396.50Q323 417 286 417Q214 417 201 341L52 341Q60 437 127.50 492.50Q195 548 304 548Q375 548 424.50 520.50Q474 493 496 444.50Q518 396 507 332L448 0L315 0M168 156Q168 134 186 119.50Q204 105 231 105Q256 105 275.50 114Q295 123 308 140Q321 157 325 180L331 215Q315 219 298.50 220.50Q282 222 266 222Q219 222 193.50 205Q168 188 168 156M488 584L149 584L167 692L506 692L488 584Z"  horiz-adv-x="547" vert-adv-y="1000"  />

      
      <glyph glyph-name="uni0105" unicode="&#x0105;" d="M315 0L325 54Q299 22 261 6Q223-10 172-10Q99-10 54 30Q9 70 9 135Q9 192 41.50 234Q74 276 133.50 299Q193 322 273 322Q296 322 315 320.50Q334 319 347 316L352 341Q359 376 341 396.50Q323 417 286 417Q214 417 201 341L52 341Q60 437 127.50 492.50Q195 548 304 548Q375 548 424.50 520.50Q474 493 496 444.50Q518 396 507 332L448 0L315 0M168 156Q168 134 186 119.50Q204 105 231 105Q256 105 275.50 114Q295 123 308 140Q321 157 325 180L331 215Q315 219 298.50 220.50Q282 222 266 222Q219 222 193.50 205Q168 188 168 156M432-78L412-186Q396-191 374-194Q352-197 335-197Q288-197 261-173Q234-149 234-108Q234-57 275.50-14.50Q317 28 397 68L443 45Q408 22 388-4.50Q368-31 368-53Q368-84 402-84Q416-84 432-78Z"  horiz-adv-x="547" vert-adv-y="1000"  />

      
      <glyph glyph-name="unie5" unicode="&#xe5;" d="M315 0L325 54Q299 22 261 6Q223-10 172-10Q99-10 54 30Q9 70 9 135Q9 192 41.50 234Q74 276 133.50 299Q193 322 273 322Q296 322 315 320.50Q334 319 347 316L352 341Q359 376 341 396.50Q323 417 286 417Q214 417 201 341L52 341Q60 437 127.50 492.50Q195 548 304 548Q375 548 424.50 520.50Q474 493 496 444.50Q518 396 507 332L448 0L315 0M168 156Q168 134 186 119.50Q204 105 231 105Q256 105 275.50 114Q295 123 308 140Q321 157 325 180L331 215Q315 219 298.50 220.50Q282 222 266 222Q219 222 193.50 205Q168 188 168 156M320 567Q266 567 231 596.50Q196 626 196 675Q196 718 217.50 752.50Q239 787 275.50 807.50Q312 828 356 828Q411 828 445.50 798Q480 768 480 720Q480 678 458.50 643Q437 608 401 587.50Q365 567 320 567M329 648Q352 648 369 666.50Q386 685 386 709Q386 725 375 736.50Q364 748 347 748Q325 748 307.50 729.50Q290 711 290 686Q290 670 301 659Q312 648 329 648Z"  horiz-adv-x="547" vert-adv-y="1000"  />

      
      <glyph glyph-name="unie3" unicode="&#xe3;" d="M315 0L325 54Q299 22 261 6Q223-10 172-10Q99-10 54 30Q9 70 9 135Q9 192 41.50 234Q74 276 133.50 299Q193 322 273 322Q296 322 315 320.50Q334 319 347 316L352 341Q359 376 341 396.50Q323 417 286 417Q214 417 201 341L52 341Q60 437 127.50 492.50Q195 548 304 548Q375 548 424.50 520.50Q474 493 496 444.50Q518 396 507 332L448 0L315 0M168 156Q168 134 186 119.50Q204 105 231 105Q256 105 275.50 114Q295 123 308 140Q321 157 325 180L331 215Q315 219 298.50 220.50Q282 222 266 222Q219 222 193.50 205Q168 188 168 156M226 569L126 569Q125 643 161 689Q197 735 253 735Q277 735 296.50 728.50Q316 722 333 714Q350 706 366 699.50Q382 693 400 693Q417 693 425 706Q433 719 433 743L533 743Q534 695 517 657.50Q500 620 471 598.50Q442 577 404 577Q380 577 361 583.50Q342 590 325.50 598Q309 606 293 612.50Q277 619 259 619Q243 619 234.50 606.50Q226 594 226 569Z"  horiz-adv-x="547" vert-adv-y="1000"  />

      
      <glyph glyph-name="unie6" unicode="&#xe6;" d="M9 135Q9 219 79 271Q149 323 273 323Q290 323 310 321.50Q330 320 347 317L352 341Q359 374 338 395.50Q317 417 286 417Q256 417 232.50 401.50Q209 386 201 341L52 341Q57 400 89 446.50Q121 493 174.50 520.50Q228 548 297 548Q353 548 388 534.50Q423 521 453 492Q488 519 531 533.50Q574 548 624 548Q709 548 764 505.50Q819 463 841 390.50Q863 318 849 227L501 227Q501 195 511.50 173.50Q522 152 542 141.50Q562 131 590 131Q645 131 669 184L839 184Q816 114 775.50 71Q735 28 684 9Q633-10 576-10Q518-10 468.50 11.50Q419 33 387 73Q371 55 344.50 35.50Q318 16 278 3Q238-10 183-10Q105-10 57 28Q9 66 9 135M622 418Q594 418 572.50 407Q551 396 537 376.50Q523 357 514 331L696 331Q695 366 677.50 392Q660 418 622 418M168 156Q168 131 187 118Q206 105 231 105Q256 105 275.50 114.50Q295 124 308 141.50Q321 159 325 182L331 215Q312 219 297.50 220.50Q283 222 266 222Q221 222 194.50 205.50Q168 189 168 156Z"  horiz-adv-x="878" vert-adv-y="1000"  />

      
      <glyph glyph-name="uni62" unicode="&#x62;" d="M601 323Q601 253 580.50 192Q560 131 523 86Q486 41 437 15.50Q388-10 331-10Q279-10 235 13Q191 36 174 73L160 0L9 0L136 718L301 718L257 474Q285 509 324 528.50Q363 548 405 548Q462 548 506.50 519.50Q551 491 576 440Q601 389 601 323M428 304Q428 346 404 372.50Q380 399 343 399Q316 399 293.50 387Q271 375 254.50 353.50Q238 332 229 301.50Q220 271 220 234Q220 191 244 165Q268 139 305 139Q342 139 369.50 160Q397 181 412.50 218.50Q428 256 428 304Z"  horiz-adv-x="620" vert-adv-y="1000"  />

      
      <glyph glyph-name="uni63" unicode="&#x63;" d="M259-10Q191-10 137 20Q83 50 51.50 103Q20 156 20 223Q20 316 59 389.50Q98 463 166 505.50Q234 548 319 548Q390 548 442 517.50Q494 487 523.50 431.50Q553 376 553 301L381 301Q381 346 361 372.50Q341 399 307 399Q273 399 247.50 378Q222 357 207.50 320Q193 283 193 235Q193 190 215 164Q237 138 275 138Q309 138 336.50 162.50Q364 187 380 239L546 239Q533 166 493 109.50Q453 53 393 21.50Q333-10 259-10Z"  horiz-adv-x="573" vert-adv-y="1000"  />

      
      <glyph glyph-name="uni0107" unicode="&#x0107;" d="M259-10Q191-10 137 20Q83 50 51.50 103Q20 156 20 223Q20 316 59 389.50Q98 463 166 505.50Q234 548 319 548Q390 548 442 517.50Q494 487 523.50 431.50Q553 376 553 301L381 301Q381 346 361 372.50Q341 399 307 399Q273 399 247.50 378Q222 357 207.50 320Q193 283 193 235Q193 190 215 164Q237 138 275 138Q309 138 336.50 162.50Q364 187 380 239L546 239Q533 166 493 109.50Q453 53 393 21.50Q333-10 259-10M411 572L235 572L360 733L557 733L411 572Z"  horiz-adv-x="573" vert-adv-y="1000"  />

      
      <glyph glyph-name="uni010D" unicode="&#x010D;" d="M259-10Q191-10 137 20Q83 50 51.50 103Q20 156 20 223Q20 316 59 389.50Q98 463 166 505.50Q234 548 319 548Q390 548 442 517.50Q494 487 523.50 431.50Q553 376 553 301L381 301Q381 346 361 372.50Q341 399 307 399Q273 399 247.50 378Q222 357 207.50 320Q193 283 193 235Q193 190 215 164Q237 138 275 138Q309 138 336.50 162.50Q364 187 380 239L546 239Q533 166 493 109.50Q453 53 393 21.50Q333-10 259-10M429 570L220 570L112 734L283 734L330 656L402 734L594 734L429 570Z"  horiz-adv-x="573" vert-adv-y="1000"  />

      
      <glyph glyph-name="unie7" unicode="&#xe7;" d="M259-10Q191-10 137 20Q83 50 51.50 103Q20 156 20 223Q20 316 59 389.50Q98 463 166 505.50Q234 548 319 548Q390 548 442 517.50Q494 487 523.50 431.50Q553 376 553 301L381 301Q381 346 361 372.50Q341 399 307 399Q273 399 247.50 378Q222 357 207.50 320Q193 283 193 235Q193 190 215 164Q237 138 275 138Q309 138 336.50 162.50Q364 187 380 239L546 239Q533 166 493 109.50Q453 53 393 21.50Q333-10 259-10M363-108Q363-148 327-173Q291-198 230-198Q170-198 137-172Q104-146 104-98L204-98Q204-110 210-116.50Q216-123 228-123Q241-123 247.50-116.50Q254-110 254-98Q254-82 235-75Q216-68 190-72L227 19L306 19L284-31Q326-41 344.50-60Q363-79 363-108Z"  horiz-adv-x="573" vert-adv-y="1000"  />

      
      <glyph glyph-name="uni64" unicode="&#x64;" d="M19 216Q19 287 39.50 347Q60 407 97 452.50Q134 498 183 523Q232 548 289 548Q342 548 379.50 525.50Q417 503 433 465L478 718L643 718L516 0L365 0L377 67Q349 33 307.50 12Q266-9 215-9Q158-9 114 20Q70 49 44.50 99.50Q19 150 19 216M192 235Q192 193 216 166.50Q240 140 277 140Q304 140 326.50 151.50Q349 163 365.50 185Q382 207 391 237.50Q400 268 400 305Q400 347 376.50 373.50Q353 400 315 400Q279 400 251.50 379Q224 358 208 321Q192 284 192 235Z"  horiz-adv-x="620" vert-adv-y="1000"  />

      
      <glyph glyph-name="unif0" unicode="&#xf0;" d="M18 218Q18 284 41 340Q64 396 105 437Q146 478 200 500.50Q254 523 316 523Q324 523 333 523Q342 523 348 522L320 573L175 536L195 645L260 662L229 718L405 718L415 700L564 735L542 623L469 609L495 557Q531 486 551 425Q571 364 571 310Q571 246 547 188Q523 130 480 85.50Q437 41 381 15.50Q325-10 261-10Q190-10 135 19Q80 48 49 99.50Q18 151 18 218M191 233Q191 190 215 164.50Q239 139 278 139Q304 139 325.50 151Q347 163 363.50 184Q380 205 389 232.50Q398 260 398 291Q398 335 374.50 360Q351 385 311 385Q286 385 264 373Q242 361 225.50 340Q209 319 200 291.50Q191 264 191 233Z"  horiz-adv-x="591" vert-adv-y="1000"  />

      
      <glyph glyph-name="uni010F" unicode="&#x010F;" d="M19 216Q19 287 39.50 347Q60 407 97 452.50Q134 498 183 523Q232 548 289 548Q342 548 379.50 525.50Q417 503 433 465L478 718L643 718L516 0L365 0L377 67Q349 33 307.50 12Q266-9 215-9Q158-9 114 20Q70 49 44.50 99.50Q19 150 19 216M192 235Q192 193 216 166.50Q240 140 277 140Q304 140 326.50 151.50Q349 163 365.50 185Q382 207 391 237.50Q400 268 400 305Q400 347 376.50 373.50Q353 400 315 400Q279 400 251.50 379Q224 358 208 321Q192 284 192 235M747 560L637 560L665 718L801 718L747 560Z"  horiz-adv-x="620" vert-adv-y="1000"  />

      
      <glyph glyph-name="uni0111" unicode="&#x0111;" d="M19 216Q19 287 39.50 347Q60 407 97 452.50Q134 498 183 523Q232 548 289 548Q342 548 379.50 525.50Q417 503 433 465L478 718L643 718L516 0L365 0L377 67Q349 33 307.50 12Q266-9 215-9Q158-9 114 20Q70 49 44.50 99.50Q19 150 19 216M192 235Q192 193 216 166.50Q240 140 277 140Q304 140 326.50 151.50Q349 163 365.50 185Q382 207 391 237.50Q400 268 400 305Q400 347 376.50 373.50Q353 400 315 400Q279 400 251.50 379Q224 358 208 321Q192 284 192 235M688 582L310 582L328 690L706 690L688 582Z"  horiz-adv-x="620" vert-adv-y="1000"  />

      
      <glyph glyph-name="uni65" unicode="&#x65;" d="M269-10Q201-10 144.50 17.50Q88 45 54.50 98Q21 151 21 226Q21 319 59.50 392Q98 465 165 506.50Q232 548 316 548Q403 548 457.50 504.50Q512 461 533.50 388.50Q555 316 541 227L111 227L130 331L389 331Q388 366 370 392Q352 418 315 418Q271 418 244 392Q217 366 205 324.50Q193 283 193 236Q193 184 216 157.50Q239 131 282 131Q338 131 361 184L531 184Q497 81 427.50 35.50Q358-10 269-10Z"  horiz-adv-x="570" vert-adv-y="1000"  />

      
      <glyph glyph-name="unie9" unicode="&#xe9;" d="M269-10Q201-10 144.50 17.50Q88 45 54.50 98Q21 151 21 226Q21 319 59.50 392Q98 465 165 506.50Q232 548 316 548Q403 548 457.50 504.50Q512 461 533.50 388.50Q555 316 541 227L111 227L130 331L389 331Q388 366 370 392Q352 418 315 418Q271 418 244 392Q217 366 205 324.50Q193 283 193 236Q193 184 216 157.50Q239 131 282 131Q338 131 361 184L531 184Q497 81 427.50 35.50Q358-10 269-10M409 572L233 572L358 733L555 733L409 572Z"  horiz-adv-x="570" vert-adv-y="1000"  />

      
      <glyph glyph-name="uni011B" unicode="&#x011B;" d="M269-10Q201-10 144.50 17.50Q88 45 54.50 98Q21 151 21 226Q21 319 59.50 392Q98 465 165 506.50Q232 548 316 548Q403 548 457.50 504.50Q512 461 533.50 388.50Q555 316 541 227L111 227L130 331L389 331Q388 366 370 392Q352 418 315 418Q271 418 244 392Q217 366 205 324.50Q193 283 193 236Q193 184 216 157.50Q239 131 282 131Q338 131 361 184L531 184Q497 81 427.50 35.50Q358-10 269-10M427 570L218 570L110 734L281 734L328 656L400 734L592 734L427 570Z"  horiz-adv-x="570" vert-adv-y="1000"  />

      
      <glyph glyph-name="uniea" unicode="&#xea;" d="M269-10Q201-10 144.50 17.50Q88 45 54.50 98Q21 151 21 226Q21 319 59.50 392Q98 465 165 506.50Q232 548 316 548Q403 548 457.50 504.50Q512 461 533.50 388.50Q555 316 541 227L111 227L130 331L389 331Q388 366 370 392Q352 418 315 418Q271 418 244 392Q217 366 205 324.50Q193 283 193 236Q193 184 216 157.50Q239 131 282 131Q338 131 361 184L531 184Q497 81 427.50 35.50Q358-10 269-10M264 570L72 570L237 734L446 734L554 570L383 570L336 648L264 570Z"  horiz-adv-x="570" vert-adv-y="1000"  />

      
      <glyph glyph-name="unieb" unicode="&#xeb;" d="M269-10Q201-10 144.50 17.50Q88 45 54.50 98Q21 151 21 226Q21 319 59.50 392Q98 465 165 506.50Q232 548 316 548Q403 548 457.50 504.50Q512 461 533.50 388.50Q555 316 541 227L111 227L130 331L389 331Q388 366 370 392Q352 418 315 418Q271 418 244 392Q217 366 205 324.50Q193 283 193 236Q193 184 216 157.50Q239 131 282 131Q338 131 361 184L531 184Q497 81 427.50 35.50Q358-10 269-10M553 678Q553 648 537.50 623Q522 598 496.50 582.50Q471 567 440 567Q403 567 380.50 588Q358 609 358 641Q358 672 373.50 696.50Q389 721 415.50 736Q442 751 473 751Q508 751 530.50 730.50Q553 710 553 678M319 678Q319 632 285.50 599.50Q252 567 205 567Q169 567 146.50 588Q124 609 124 641Q124 671 139.50 696Q155 721 181 736Q207 751 237 751Q275 751 297 730.50Q319 710 319 678Z"  horiz-adv-x="570" vert-adv-y="1000"  />

      
      <glyph glyph-name="uni0117" unicode="&#x0117;" d="M269-10Q201-10 144.50 17.50Q88 45 54.50 98Q21 151 21 226Q21 319 59.50 392Q98 465 165 506.50Q232 548 316 548Q403 548 457.50 504.50Q512 461 533.50 388.50Q555 316 541 227L111 227L130 331L389 331Q388 366 370 392Q352 418 315 418Q271 418 244 392Q217 366 205 324.50Q193 283 193 236Q193 184 216 157.50Q239 131 282 131Q338 131 361 184L531 184Q497 81 427.50 35.50Q358-10 269-10M445 679Q445 649 428 623.50Q411 598 383 582.50Q355 567 320 567Q279 567 254 589.50Q229 612 229 646Q229 677 246 702.50Q263 728 291.50 743.50Q320 759 353 759Q395 759 420 736.50Q445 714 445 679Z"  horiz-adv-x="570" vert-adv-y="1000"  />

      
      <glyph glyph-name="unie8" unicode="&#xe8;" d="M269-10Q201-10 144.50 17.50Q88 45 54.50 98Q21 151 21 226Q21 319 59.50 392Q98 465 165 506.50Q232 548 316 548Q403 548 457.50 504.50Q512 461 533.50 388.50Q555 316 541 227L111 227L130 331L389 331Q388 366 370 392Q352 418 315 418Q271 418 244 392Q217 366 205 324.50Q193 283 193 236Q193 184 216 157.50Q239 131 282 131Q338 131 361 184L531 184Q497 81 427.50 35.50Q358-10 269-10M394 572L243 572L154 733L325 733L394 572Z"  horiz-adv-x="570" vert-adv-y="1000"  />

      
      <glyph glyph-name="uni0113" unicode="&#x0113;" d="M269-10Q201-10 144.50 17.50Q88 45 54.50 98Q21 151 21 226Q21 319 59.50 392Q98 465 165 506.50Q232 548 316 548Q403 548 457.50 504.50Q512 461 533.50 388.50Q555 316 541 227L111 227L130 331L389 331Q388 366 370 392Q352 418 315 418Q271 418 244 392Q217 366 205 324.50Q193 283 193 236Q193 184 216 157.50Q239 131 282 131Q338 131 361 184L531 184Q497 81 427.50 35.50Q358-10 269-10M494 584L155 584L173 692L512 692L494 584Z"  horiz-adv-x="570" vert-adv-y="1000"  />

      
      <glyph glyph-name="uni0119" unicode="&#x0119;" d="M269-10Q201-10 144.50 17.50Q88 45 54.50 98Q21 151 21 226Q21 319 59.50 392Q98 465 165 506.50Q232 548 316 548Q403 548 457.50 504.50Q512 461 533.50 388.50Q555 316 541 227L111 227L130 331L389 331Q388 366 370 392Q352 418 315 418Q271 418 244 392Q217 366 205 324.50Q193 283 193 236Q193 184 216 157.50Q239 131 282 131Q338 131 361 184L531 184Q497 81 427.50 35.50Q358-10 269-10M427-78L407-186Q391-191 369-194Q347-197 330-197Q283-197 256-173Q229-149 229-108Q229-57 270.50-14.50Q312 28 392 68L438 45Q403 22 383-4.50Q363-31 363-53Q363-84 397-84Q411-84 427-78Z"  horiz-adv-x="570" vert-adv-y="1000"  />

      
      <glyph glyph-name="uni66" unicode="&#x66;" d="M222 0L58 0L127 394L30 394L56 538L153 538L157 558Q173 638 220.50 684Q268 730 362 730Q416 730 450 712L428 581Q421 585 406 587.50Q391 590 378 590Q354 590 338 580.50Q322 571 320 554L318 538L446 538L421 394L292 394L222 0Z"  horiz-adv-x="409" vert-adv-y="1000"  />

      
      <glyph glyph-name="uni67" unicode="&#x67;" d="M229-203Q162-203 110-178Q58-153 27-106.50Q-4-60-7 3L154 3Q156-31 179.50-52Q203-73 238-73Q277-73 304-49Q331-25 340 28L351 93Q326 63 288.50 46.50Q251 30 207 30Q151 30 109.50 56.50Q68 83 45 131Q22 179 22 243Q22 305 43.50 360Q65 415 102.50 457Q140 499 188.50 523.50Q237 548 291 548Q338 548 374 530.50Q410 513 434 479L442 538L595 538L506 30Q486-85 416.50-144Q347-203 229-203M191 260Q191 220 211.50 196Q232 172 266 172Q290 172 312 183.50Q334 195 350.50 215Q367 235 376.50 261.50Q386 288 386 318Q386 357 364.50 380Q343 403 306 403Q282 403 261.50 392Q241 381 225 361.50Q209 342 200 316Q191 290 191 260Z"  horiz-adv-x="604" vert-adv-y="1000"  />

      
      <glyph glyph-name="uni011F" unicode="&#x011F;" d="M229-203Q162-203 110-178Q58-153 27-106.50Q-4-60-7 3L154 3Q156-31 179.50-52Q203-73 238-73Q277-73 304-49Q331-25 340 28L351 93Q326 63 288.50 46.50Q251 30 207 30Q151 30 109.50 56.50Q68 83 45 131Q22 179 22 243Q22 305 43.50 360Q65 415 102.50 457Q140 499 188.50 523.50Q237 548 291 548Q338 548 374 530.50Q410 513 434 479L442 538L595 538L506 30Q486-85 416.50-144Q347-203 229-203M191 260Q191 220 211.50 196Q232 172 266 172Q290 172 312 183.50Q334 195 350.50 215Q367 235 376.50 261.50Q386 288 386 318Q386 357 364.50 380Q343 403 306 403Q282 403 261.50 392Q241 381 225 361.50Q209 342 200 316Q191 290 191 260M403 734L518 734Q503 651 453 609Q403 567 323 567Q275 567 237 587.50Q199 608 177 645.50Q155 683 155 734L271 734Q271 703 286.50 687.50Q302 672 330 672Q359 672 378.50 688Q398 704 403 734Z"  horiz-adv-x="604" vert-adv-y="1000"  />

      
      <glyph glyph-name="uni0123" unicode="&#x0123;" d="M229-203Q162-203 110-178Q58-153 27-106.50Q-4-60-7 3L154 3Q156-31 179.50-52Q203-73 238-73Q277-73 304-49Q331-25 340 28L351 93Q326 63 288.50 46.50Q251 30 207 30Q151 30 109.50 56.50Q68 83 45 131Q22 179 22 243Q22 305 43.50 360Q65 415 102.50 457Q140 499 188.50 523.50Q237 548 291 548Q338 548 374 530.50Q410 513 434 479L442 538L595 538L506 30Q486-85 416.50-144Q347-203 229-203M191 260Q191 220 211.50 196Q232 172 266 172Q290 172 312 183.50Q334 195 350.50 215Q367 235 376.50 261.50Q386 288 386 318Q386 357 364.50 380Q343 403 306 403Q282 403 261.50 392Q241 381 225 361.50Q209 342 200 316Q191 290 191 260M239 639Q239 688 269.50 720.50Q300 753 347.50 767Q395 781 447 772L437 714Q403 718 375 711.50Q347 705 336 684Q342 686 348 686Q354 686 357 686Q383 686 399 672.50Q415 659 415 638Q415 608 390 587Q365 566 324 566Q288 566 263.50 586Q239 606 239 639Z"  horiz-adv-x="604" vert-adv-y="1000"  />

      
      <glyph glyph-name="uni68" unicode="&#x68;" d="M225 285L174 0L9 0L135 718L286 718L244 471Q274 507 312.50 527.50Q351 548 397 548Q453 548 491 520Q529 492 544.50 442Q560 392 548 326L491 0L326 0L377 290Q386 342 371 370Q356 398 318 398Q290 398 272 385Q254 372 243 347Q232 322 225 285Z"  horiz-adv-x="589" vert-adv-y="1000"  />

      
      <glyph glyph-name="uni69" unicode="&#x69;" d="M174 0L9 0L104 538L269 538L174 0M315 679Q315 649 298 623.50Q281 598 253 582.50Q225 567 190 567Q149 567 124 589.50Q99 612 99 646Q99 677 116 702.50Q133 728 161.50 743.50Q190 759 223 759Q265 759 290 736.50Q315 714 315 679Z"  horiz-adv-x="278" vert-adv-y="1000"  />

      
      <glyph glyph-name="unied" unicode="&#xed;" d="M174 0L9 0L104 538L269 538L174 0M284 572L106 572L222 733L419 733L284 572Z"  horiz-adv-x="278" vert-adv-y="1000"  />

      
      <glyph glyph-name="uniee" unicode="&#xee;" d="M174 0L9 0L104 538L269 538L174 0M146 572L-39 572L112 733L316 733L410 572L243 572L207 647L146 572Z"  horiz-adv-x="278" vert-adv-y="1000"  />

      
      <glyph glyph-name="unief" unicode="&#xef;" d="M174 0L9 0L104 538L269 538L174 0M412 678Q412 649 397.50 623.50Q383 598 358 582.50Q333 567 303 567Q268 567 245.50 588Q223 609 223 641Q223 687 256 719Q289 751 335 751Q370 751 391 730.50Q412 710 412 678M193 678Q193 632 160 599.50Q127 567 80 567Q46 567 24.50 588Q3 609 3 641Q3 671 18 696Q33 721 58 736Q83 751 113 751Q148 751 170.50 731Q193 711 193 678Z"  horiz-adv-x="278" vert-adv-y="1000"  />

      
      <glyph glyph-name="uniec" unicode="&#xec;" d="M174 0L9 0L104 538L269 538L174 0M259 572L108 572L31 733L201 733L259 572Z"  horiz-adv-x="278" vert-adv-y="1000"  />

      
      <glyph glyph-name="uni012B" unicode="&#x012B;" d="M174 0L9 0L104 538L269 538L174 0M364 584L25 584L43 692L382 692L364 584Z"  horiz-adv-x="278" vert-adv-y="1000"  />

      
      <glyph glyph-name="uni012F" unicode="&#x012F;" d="M174 0L9 0L104 538L269 538L174 0M315 679Q315 649 298 623.50Q281 598 253 582.50Q225 567 190 567Q149 567 124 589.50Q99 612 99 646Q99 677 116 702.50Q133 728 161.50 743.50Q190 759 223 759Q265 759 290 736.50Q315 714 315 679M126-78L106-186Q90-191 68-194Q46-197 29-197Q-18-197-45-173Q-72-149-72-108Q-72-57-30.50-14.50Q11 28 91 68L137 45Q102 22 82-4.50Q62-31 62-53Q62-84 96-84Q110-84 126-78Z"  horiz-adv-x="278" vert-adv-y="1000"  />

      
      <glyph glyph-name="uni6a" unicode="&#x6a;" d="M263 538L171 24Q160-41 135-92.50Q110-144 65.50-173.50Q21-203-51-203Q-77-203-97-200Q-117-197-137-192L-110-36Q-92-48-61-48Q-28-48-14-28.50Q0-9 7 28L98 538L263 538M309 679Q309 649 292 623.50Q275 598 247 582.50Q219 567 184 567Q143 567 118 589.50Q93 612 93 646Q93 677 110 702.50Q127 728 155.50 743.50Q184 759 217 759Q259 759 284 736.50Q309 714 309 679Z"  horiz-adv-x="272" vert-adv-y="1000"  />

      
      <glyph glyph-name="uni6b" unicode="&#x6b;" d="M174 0L9 0L136 718L301 718L230 318L427 538L622 538L379 273L533 0L343 0L217 246L174 0Z"  horiz-adv-x="582" vert-adv-y="1000"  />

      
      <glyph glyph-name="uni0137" unicode="&#x0137;" d="M174 0L9 0L136 718L301 718L230 318L427 538L622 538L379 273L533 0L343 0L217 246L174 0M323-101Q323-151 292-183.50Q261-216 213.50-229.50Q166-243 115-235L125-176Q161-180 188-173.50Q215-167 227-146Q192-153 169.50-139Q147-125 147-101Q147-70 172.50-49Q198-28 238-28Q276-28 299.50-48.50Q323-69 323-101Z"  horiz-adv-x="582" vert-adv-y="1000"  />

      
      <glyph glyph-name="uni6c" unicode="&#x6c;" d="M174 0L9 0L136 718L301 718L174 0Z"  horiz-adv-x="278" vert-adv-y="1000"  />

      
      <glyph glyph-name="uni013A" unicode="&#x013A;" d="M174 0L9 0L136 718L301 718L174 0M312 752L136 752L261 913L458 913L312 752Z"  horiz-adv-x="278" vert-adv-y="1000"  />

      
      <glyph glyph-name="uni013E" unicode="&#x013E;" d="M174 0L9 0L136 718L301 718L174 0M405 560L295 560L323 718L459 718L405 560Z"  horiz-adv-x="278" vert-adv-y="1000"  />

      
      <glyph glyph-name="uni013C" unicode="&#x013C;" d="M174 0L9 0L136 718L301 718L174 0M161-119Q161-169 130-201.50Q99-234 51.50-247.50Q4-261-47-253L-37-194Q-1-198 26-191.50Q53-185 65-164Q30-171 7.50-157Q-15-143-15-119Q-15-88 10.50-67Q36-46 76-46Q114-46 137.50-66.50Q161-87 161-119Z"  horiz-adv-x="278" vert-adv-y="1000"  />

      
      <glyph glyph-name="uni0142" unicode="&#x0142;" d="M174 0L9 0L136 718L301 718L174 0M317 343L-23 277L0 420L340 488L317 343Z"  horiz-adv-x="278" vert-adv-y="1000"  />

      
      <glyph glyph-name="uni6d" unicode="&#x6d;" d="M174 0L9 0L104 538L255 538L244 471Q276 511 313.50 529.50Q351 548 392 548Q448 548 484 522Q520 496 535 451Q569 499 611 523.50Q653 548 703 548Q759 548 797 520Q835 492 850.50 442Q866 392 854 326L797 0L632 0L683 290Q692 341 678 369.50Q664 398 630 398Q604 398 585.50 386.50Q567 375 555 350Q543 325 536 285L486 0L321 0L372 290Q381 341 366.50 369.50Q352 398 318 398Q290 398 272 385Q254 372 243 347Q232 322 225 285L174 0Z"  horiz-adv-x="895" vert-adv-y="1000"  />

      
      <glyph glyph-name="uni6e" unicode="&#x6e;" d="M225 285L174 0L9 0L104 538L255 538L244 471Q274 507 312.50 527.50Q351 548 397 548Q453 548 491 520Q529 492 544.50 442Q560 392 548 326L491 0L326 0L377 290Q386 342 371 370Q356 398 318 398Q290 398 272 385Q254 372 243 347Q232 322 225 285Z"  horiz-adv-x="589" vert-adv-y="1000"  />

      
      <glyph glyph-name="uni0144" unicode="&#x0144;" d="M225 285L174 0L9 0L104 538L255 538L244 471Q274 507 312.50 527.50Q351 548 397 548Q453 548 491 520Q529 492 544.50 442Q560 392 548 326L491 0L326 0L377 290Q386 342 371 370Q356 398 318 398Q290 398 272 385Q254 372 243 347Q232 322 225 285M435 572L259 572L384 733L581 733L435 572Z"  horiz-adv-x="589" vert-adv-y="1000"  />

      
      <glyph glyph-name="uni0148" unicode="&#x0148;" d="M225 285L174 0L9 0L104 538L255 538L244 471Q274 507 312.50 527.50Q351 548 397 548Q453 548 491 520Q529 492 544.50 442Q560 392 548 326L491 0L326 0L377 290Q386 342 371 370Q356 398 318 398Q290 398 272 385Q254 372 243 347Q232 322 225 285M453 570L244 570L136 734L307 734L354 656L426 734L618 734L453 570Z"  horiz-adv-x="589" vert-adv-y="1000"  />

      
      <glyph glyph-name="uni0146" unicode="&#x0146;" d="M225 285L174 0L9 0L104 538L255 538L244 471Q274 507 312.50 527.50Q351 548 397 548Q453 548 491 520Q529 492 544.50 442Q560 392 548 326L491 0L326 0L377 290Q386 342 371 370Q356 398 318 398Q290 398 272 385Q254 372 243 347Q232 322 225 285M326-101Q326-151 295-183.50Q264-216 216.50-229.50Q169-243 118-235L128-176Q164-180 191-173.50Q218-167 230-146Q195-153 172.50-139Q150-125 150-101Q150-70 175.50-49Q201-28 241-28Q279-28 302.50-48.50Q326-69 326-101Z"  horiz-adv-x="589" vert-adv-y="1000"  />

      
      <glyph glyph-name="unif1" unicode="&#xf1;" d="M225 285L174 0L9 0L104 538L255 538L244 471Q274 507 312.50 527.50Q351 548 397 548Q453 548 491 520Q529 492 544.50 442Q560 392 548 326L491 0L326 0L377 290Q386 342 371 370Q356 398 318 398Q290 398 272 385Q254 372 243 347Q232 322 225 285M258 569L158 569Q157 643 193 689Q229 735 285 735Q309 735 328.50 728.50Q348 722 365 714Q382 706 398 699.50Q414 693 432 693Q449 693 457 706Q465 719 465 743L565 743Q566 695 549 657.50Q532 620 503 598.50Q474 577 436 577Q412 577 393 583.50Q374 590 357.50 598Q341 606 325 612.50Q309 619 291 619Q275 619 266.50 606.50Q258 594 258 569Z"  horiz-adv-x="589" vert-adv-y="1000"  />

      
      <glyph glyph-name="uni6f" unicode="&#x6f;" d="M261-10Q190-10 135 19Q80 48 49 99.50Q18 151 18 218Q18 286 42 346Q66 406 109 451.50Q152 497 208.50 522.50Q265 548 330 548Q401 548 455 519Q509 490 540 439Q571 388 571 321Q571 252 547 192Q523 132 480 86.50Q437 41 381 15.50Q325-10 261-10M278 139Q304 139 325.50 151.50Q347 164 363.50 186.50Q380 209 389 239Q398 269 398 304Q398 348 374.50 373.50Q351 399 311 399Q286 399 264 386.50Q242 374 225.50 351Q209 328 200 298Q191 268 191 233Q191 190 215 164.50Q239 139 278 139Z"  horiz-adv-x="589" vert-adv-y="1000"  />

      
      <glyph glyph-name="unif3" unicode="&#xf3;" d="M261-10Q190-10 135 19Q80 48 49 99.50Q18 151 18 218Q18 286 42 346Q66 406 109 451.50Q152 497 208.50 522.50Q265 548 330 548Q401 548 455 519Q509 490 540 439Q571 388 571 321Q571 252 547 192Q523 132 480 86.50Q437 41 381 15.50Q325-10 261-10M278 139Q304 139 325.50 151.50Q347 164 363.50 186.50Q380 209 389 239Q398 269 398 304Q398 348 374.50 373.50Q351 399 311 399Q286 399 264 386.50Q242 374 225.50 351Q209 328 200 298Q191 268 191 233Q191 190 215 164.50Q239 139 278 139M424 572L248 572L373 733L570 733L424 572Z"  horiz-adv-x="589" vert-adv-y="1000"  />

      
      <glyph glyph-name="unif4" unicode="&#xf4;" d="M261-10Q190-10 135 19Q80 48 49 99.50Q18 151 18 218Q18 286 42 346Q66 406 109 451.50Q152 497 208.50 522.50Q265 548 330 548Q401 548 455 519Q509 490 540 439Q571 388 571 321Q571 252 547 192Q523 132 480 86.50Q437 41 381 15.50Q325-10 261-10M278 139Q304 139 325.50 151.50Q347 164 363.50 186.50Q380 209 389 239Q398 269 398 304Q398 348 374.50 373.50Q351 399 311 399Q286 399 264 386.50Q242 374 225.50 351Q209 328 200 298Q191 268 191 233Q191 190 215 164.50Q239 139 278 139M279 570L87 570L252 734L461 734L569 570L398 570L351 648L279 570Z"  horiz-adv-x="589" vert-adv-y="1000"  />

      
      <glyph glyph-name="unif6" unicode="&#xf6;" d="M261-10Q190-10 135 19Q80 48 49 99.50Q18 151 18 218Q18 286 42 346Q66 406 109 451.50Q152 497 208.50 522.50Q265 548 330 548Q401 548 455 519Q509 490 540 439Q571 388 571 321Q571 252 547 192Q523 132 480 86.50Q437 41 381 15.50Q325-10 261-10M278 139Q304 139 325.50 151.50Q347 164 363.50 186.50Q380 209 389 239Q398 269 398 304Q398 348 374.50 373.50Q351 399 311 399Q286 399 264 386.50Q242 374 225.50 351Q209 328 200 298Q191 268 191 233Q191 190 215 164.50Q239 139 278 139M568 678Q568 648 552.50 623Q537 598 511.50 582.50Q486 567 455 567Q418 567 395.50 588Q373 609 373 641Q373 672 388.50 696.50Q404 721 430.50 736Q457 751 488 751Q523 751 545.50 730.50Q568 710 568 678M334 678Q334 632 300.50 599.50Q267 567 220 567Q184 567 161.50 588Q139 609 139 641Q139 671 154.50 696Q170 721 196 736Q222 751 252 751Q290 751 312 730.50Q334 710 334 678Z"  horiz-adv-x="589" vert-adv-y="1000"  />

      
      <glyph glyph-name="unif2" unicode="&#xf2;" d="M261-10Q190-10 135 19Q80 48 49 99.50Q18 151 18 218Q18 286 42 346Q66 406 109 451.50Q152 497 208.50 522.50Q265 548 330 548Q401 548 455 519Q509 490 540 439Q571 388 571 321Q571 252 547 192Q523 132 480 86.50Q437 41 381 15.50Q325-10 261-10M278 139Q304 139 325.50 151.50Q347 164 363.50 186.50Q380 209 389 239Q398 269 398 304Q398 348 374.50 373.50Q351 399 311 399Q286 399 264 386.50Q242 374 225.50 351Q209 328 200 298Q191 268 191 233Q191 190 215 164.50Q239 139 278 139M409 572L258 572L169 733L340 733L409 572Z"  horiz-adv-x="589" vert-adv-y="1000"  />

      
      <glyph glyph-name="uni0151" unicode="&#x0151;" d="M261-10Q190-10 135 19Q80 48 49 99.50Q18 151 18 218Q18 286 42 346Q66 406 109 451.50Q152 497 208.50 522.50Q265 548 330 548Q401 548 455 519Q509 490 540 439Q571 388 571 321Q571 252 547 192Q523 132 480 86.50Q437 41 381 15.50Q325-10 261-10M278 139Q304 139 325.50 151.50Q347 164 363.50 186.50Q380 209 389 239Q398 269 398 304Q398 348 374.50 373.50Q351 399 311 399Q286 399 264 386.50Q242 374 225.50 351Q209 328 200 298Q191 268 191 233Q191 190 215 164.50Q239 139 278 139M513 572L353 572L488 733L658 733L513 572M293 572L134 572L259 733L428 733L293 572Z"  horiz-adv-x="589" vert-adv-y="1000"  />

      
      <glyph glyph-name="uni014D" unicode="&#x014D;" d="M261-10Q190-10 135 19Q80 48 49 99.50Q18 151 18 218Q18 286 42 346Q66 406 109 451.50Q152 497 208.50 522.50Q265 548 330 548Q401 548 455 519Q509 490 540 439Q571 388 571 321Q571 252 547 192Q523 132 480 86.50Q437 41 381 15.50Q325-10 261-10M278 139Q304 139 325.50 151.50Q347 164 363.50 186.50Q380 209 389 239Q398 269 398 304Q398 348 374.50 373.50Q351 399 311 399Q286 399 264 386.50Q242 374 225.50 351Q209 328 200 298Q191 268 191 233Q191 190 215 164.50Q239 139 278 139M509 584L170 584L188 692L527 692L509 584Z"  horiz-adv-x="589" vert-adv-y="1000"  />

      
      <glyph glyph-name="unif8" unicode="&#xf8;" d="M261-10Q190-10 135 19Q80 48 49 99.50Q18 151 18 218Q18 286 42 346Q66 406 109 451.50Q152 497 208.50 522.50Q265 548 330 548Q401 548 455 519Q509 490 540 439Q571 388 571 321Q571 252 547 192Q523 132 480 86.50Q437 41 381 15.50Q325-10 261-10M278 139Q304 139 325.50 151.50Q347 164 363.50 186.50Q380 209 389 239Q398 269 398 304Q398 348 374.50 373.50Q351 399 311 399Q286 399 264 386.50Q242 374 225.50 351Q209 328 200 298Q191 268 191 233Q191 190 215 164.50Q239 139 278 139M135-1L2-1L456 537L590 537L135-1Z"  horiz-adv-x="589" vert-adv-y="1000"  />

      
      <glyph glyph-name="unif5" unicode="&#xf5;" d="M261-10Q190-10 135 19Q80 48 49 99.50Q18 151 18 218Q18 286 42 346Q66 406 109 451.50Q152 497 208.50 522.50Q265 548 330 548Q401 548 455 519Q509 490 540 439Q571 388 571 321Q571 252 547 192Q523 132 480 86.50Q437 41 381 15.50Q325-10 261-10M278 139Q304 139 325.50 151.50Q347 164 363.50 186.50Q380 209 389 239Q398 269 398 304Q398 348 374.50 373.50Q351 399 311 399Q286 399 264 386.50Q242 374 225.50 351Q209 328 200 298Q191 268 191 233Q191 190 215 164.50Q239 139 278 139M247 569L147 569Q146 643 182 689Q218 735 274 735Q298 735 317.50 728.50Q337 722 354 714Q371 706 387 699.50Q403 693 421 693Q438 693 446 706Q454 719 454 743L554 743Q555 695 538 657.50Q521 620 492 598.50Q463 577 425 577Q401 577 382 583.50Q363 590 346.50 598Q330 606 314 612.50Q298 619 280 619Q264 619 255.50 606.50Q247 594 247 569Z"  horiz-adv-x="589" vert-adv-y="1000"  />

      
      <glyph glyph-name="uni0153" unicode="&#x0153;" d="M18 218Q18 286 42 346Q66 406 109 451.50Q152 497 208.50 522.50Q265 548 330 548Q386 548 429.50 530Q473 512 501 478Q538 513 586 530.50Q634 548 689 548Q774 548 829 505.50Q884 463 906 390.50Q928 318 914 227L566 227Q568 195 578 173.50Q588 152 607.50 141.50Q627 131 655 131Q711 131 734 184L904 184Q870 80 799 35Q728-10 642-10Q586-10 538 12.50Q490 35 458 72Q421 34 370.50 12Q320-10 261-10Q190-10 135 19Q80 48 49 99.50Q18 151 18 218M191 233Q191 190 215 164.50Q239 139 278 139Q304 139 325.50 151.50Q347 164 363.50 186.50Q380 209 389 239Q398 269 398 304Q398 348 374.50 373.50Q351 399 311 399Q286 399 264 386.50Q242 374 225.50 351Q209 328 200 298Q191 268 191 233M687 418Q659 418 638 407Q617 396 602.50 376.50Q588 357 579 331L761 331Q760 366 742.50 392Q725 418 687 418Z"  horiz-adv-x="943" vert-adv-y="1000"  />

      
      <glyph glyph-name="uni70" unicode="&#x70;" d="M601 323Q601 253 580.50 192Q560 131 523 86Q486 41 437 15.50Q388-10 331-10Q281-10 243 12Q205 34 188 73L140-193L-25-193L104 538L255 538L244 472Q271 507 313.50 527Q356 547 405 547Q462 547 506.50 518.50Q551 490 576 439.50Q601 389 601 323M428 304Q428 346 404 372.50Q380 399 343 399Q316 399 293.50 387Q271 375 254.50 353.50Q238 332 229 301.50Q220 271 220 234Q220 191 244 165Q268 139 305 139Q342 139 369.50 160Q397 181 412.50 218.50Q428 256 428 304Z"  horiz-adv-x="620" vert-adv-y="1000"  />

      
      <glyph glyph-name="unife" unicode="&#xfe;" d="M601 323Q601 253 580.50 192Q560 131 523 86Q486 41 437 15.50Q388-10 331-10Q281-10 243 12Q205 34 188 73L140-193L-25-193L135 718L300 718L257 476Q279 502 316 525Q353 548 405 548Q462 548 506.50 519.50Q551 491 576 440Q601 389 601 323M428 304Q428 346 404 372.50Q380 399 343 399Q316 399 293.50 387Q271 375 254.50 353.50Q238 332 229 301.50Q220 271 220 234Q220 191 244 165Q268 139 305 139Q342 139 369.50 160Q397 181 412.50 218.50Q428 256 428 304Z"  horiz-adv-x="620" vert-adv-y="1000"  />

      
      <glyph glyph-name="uni71" unicode="&#x71;" d="M19 216Q19 287 39.50 347Q60 407 97 452.50Q134 498 183 523Q232 548 289 548Q342 548 382.50 527Q423 506 446 465L460 538L611 538L482-193L317-193L363 67Q336 33 300.50 12Q265-9 215-9Q158-9 114 20Q70 49 44.50 99.50Q19 150 19 216M192 235Q192 193 216 166.50Q240 140 277 140Q304 140 326.50 151.50Q349 163 365.50 185Q382 207 391 237.50Q400 268 400 305Q400 347 376.50 373.50Q353 400 315 400Q279 400 251.50 379Q224 358 208 321Q192 284 192 235Z"  horiz-adv-x="620" vert-adv-y="1000"  />

      
      <glyph glyph-name="uni72" unicode="&#x72;" d="M218 250L174 0L9 0L104 538L255 538L238 441Q264 473 295 495.50Q326 518 366.50 529.50Q407 541 462 541L431 369Q370 379 325.50 371Q281 363 254.50 334Q228 305 218 250Z"  horiz-adv-x="423" vert-adv-y="1000"  />

      
      <glyph glyph-name="uni0155" unicode="&#x0155;" d="M218 250L174 0L9 0L104 538L255 538L238 441Q264 473 295 495.50Q326 518 366.50 529.50Q407 541 462 541L431 369Q370 379 325.50 371Q281 363 254.50 334Q228 305 218 250M390 572L214 572L339 733L536 733L390 572Z"  horiz-adv-x="423" vert-adv-y="1000"  />

      
      <glyph glyph-name="uni0159" unicode="&#x0159;" d="M218 250L174 0L9 0L104 538L255 538L238 441Q264 473 295 495.50Q326 518 366.50 529.50Q407 541 462 541L431 369Q370 379 325.50 371Q281 363 254.50 334Q228 305 218 250M408 570L199 570L91 734L262 734L309 656L381 734L573 734L408 570Z"  horiz-adv-x="423" vert-adv-y="1000"  />

      
      <glyph glyph-name="uni0157" unicode="&#x0157;" d="M218 250L174 0L9 0L104 538L255 538L238 441Q264 473 295 495.50Q326 518 366.50 529.50Q407 541 462 541L431 369Q370 379 325.50 371Q281 363 254.50 334Q228 305 218 250M167-101Q167-151 136-183.50Q105-216 57.50-229.50Q10-243-41-235L-31-176Q5-180 32-173.50Q59-167 71-146Q36-153 13.50-139Q-9-125-9-101Q-9-70 16.50-49Q42-28 82-28Q120-28 143.50-48.50Q167-69 167-101Z"  horiz-adv-x="423" vert-adv-y="1000"  />

      
      <glyph glyph-name="uni73" unicode="&#x73;" d="M493 177Q493 125 464.50 82.50Q436 40 382 15Q328-10 249-10Q178-10 123.50 15Q69 40 38.50 85Q8 130 8 191L167 191Q167 159 190.50 135.50Q214 112 260 112Q288 112 309.50 123Q331 134 331 156Q331 176 318.50 184.50Q306 193 283 198L184 220Q130 232 95 265.50Q60 299 60 367Q60 424 92 464.50Q124 505 178.50 526.50Q233 548 299 548Q401 548 462 495Q523 442 523 353L365 353Q365 386 343.50 406Q322 426 290 426Q261 426 240 415Q219 404 219 382Q219 363 232.50 354Q246 345 266 340L349 321Q392 311 424.50 293.50Q457 276 475 248Q493 220 493 177Z"  horiz-adv-x="539" vert-adv-y="1000"  />

      
      <glyph glyph-name="uni015B" unicode="&#x015B;" d="M493 177Q493 125 464.50 82.50Q436 40 382 15Q328-10 249-10Q178-10 123.50 15Q69 40 38.50 85Q8 130 8 191L167 191Q167 159 190.50 135.50Q214 112 260 112Q288 112 309.50 123Q331 134 331 156Q331 176 318.50 184.50Q306 193 283 198L184 220Q130 232 95 265.50Q60 299 60 367Q60 424 92 464.50Q124 505 178.50 526.50Q233 548 299 548Q401 548 462 495Q523 442 523 353L365 353Q365 386 343.50 406Q322 426 290 426Q261 426 240 415Q219 404 219 382Q219 363 232.50 354Q246 345 266 340L349 321Q392 311 424.50 293.50Q457 276 475 248Q493 220 493 177M392 572L216 572L341 733L538 733L392 572Z"  horiz-adv-x="539" vert-adv-y="1000"  />

      
      <glyph glyph-name="uni0161" unicode="&#x0161;" d="M493 177Q493 125 464.50 82.50Q436 40 382 15Q328-10 249-10Q178-10 123.50 15Q69 40 38.50 85Q8 130 8 191L167 191Q167 159 190.50 135.50Q214 112 260 112Q288 112 309.50 123Q331 134 331 156Q331 176 318.50 184.50Q306 193 283 198L184 220Q130 232 95 265.50Q60 299 60 367Q60 424 92 464.50Q124 505 178.50 526.50Q233 548 299 548Q401 548 462 495Q523 442 523 353L365 353Q365 386 343.50 406Q322 426 290 426Q261 426 240 415Q219 404 219 382Q219 363 232.50 354Q246 345 266 340L349 321Q392 311 424.50 293.50Q457 276 475 248Q493 220 493 177M410 570L201 570L93 734L264 734L311 656L383 734L575 734L410 570Z"  horiz-adv-x="539" vert-adv-y="1000"  />

      
      <glyph glyph-name="uni015F" unicode="&#x015F;" d="M493 177Q493 125 464.50 82.50Q436 40 382 15Q328-10 249-10Q178-10 123.50 15Q69 40 38.50 85Q8 130 8 191L167 191Q167 159 190.50 135.50Q214 112 260 112Q288 112 309.50 123Q331 134 331 156Q331 176 318.50 184.50Q306 193 283 198L184 220Q130 232 95 265.50Q60 299 60 367Q60 424 92 464.50Q124 505 178.50 526.50Q233 548 299 548Q401 548 462 495Q523 442 523 353L365 353Q365 386 343.50 406Q322 426 290 426Q261 426 240 415Q219 404 219 382Q219 363 232.50 354Q246 345 266 340L349 321Q392 311 424.50 293.50Q457 276 475 248Q493 220 493 177M352-108Q352-148 316-173Q280-198 219-198Q159-198 126-172Q93-146 93-98L193-98Q193-110 199-116.50Q205-123 217-123Q230-123 236.50-116.50Q243-110 243-98Q243-82 224-75Q205-68 179-72L216 19L295 19L273-31Q315-41 333.50-60Q352-79 352-108Z"  horiz-adv-x="539" vert-adv-y="1000"  />

      
      <glyph glyph-name="uni0219" unicode="&#x0219;" d="M493 177Q493 125 464.50 82.50Q436 40 382 15Q328-10 249-10Q178-10 123.50 15Q69 40 38.50 85Q8 130 8 191L167 191Q167 159 190.50 135.50Q214 112 260 112Q288 112 309.50 123Q331 134 331 156Q331 176 318.50 184.50Q306 193 283 198L184 220Q130 232 95 265.50Q60 299 60 367Q60 424 92 464.50Q124 505 178.50 526.50Q233 548 299 548Q401 548 462 495Q523 442 523 353L365 353Q365 386 343.50 406Q322 426 290 426Q261 426 240 415Q219 404 219 382Q219 363 232.50 354Q246 345 266 340L349 321Q392 311 424.50 293.50Q457 276 475 248Q493 220 493 177M320-101Q320-151 289-183.50Q258-216 210.50-229.50Q163-243 112-235L122-176Q158-180 185-173.50Q212-167 224-146Q189-153 166.50-139Q144-125 144-101Q144-70 169.50-49Q195-28 235-28Q273-28 296.50-48.50Q320-69 320-101Z"  horiz-adv-x="539" vert-adv-y="1000"  />

      
      <glyph glyph-name="unidf" unicode="&#xdf;" d="M609 229Q609 162 576 107.50Q543 53 483.50 21.50Q424-10 342-10Q321-10 301.50-8.50Q282-7 265-3L288 128Q306 125 317 124Q328 123 337 123Q366 123 388.50 137Q411 151 424 174Q437 197 437 222Q437 249 426.50 266.50Q416 284 397 293Q378 302 352 302L318 302L342 438L362 438Q389 438 411 450Q433 462 446 482.50Q459 503 459 531Q459 561 440.50 578.50Q422 596 395 596Q357 596 338 571Q319 546 312 508L222 0L58 0L127 394L30 394L56 538L155 538Q167 587 197.50 630.50Q228 674 282.50 701Q337 728 417 728Q485 728 532.50 704Q580 680 605.50 640Q631 600 631 550Q631 510 615 475Q599 440 572 415Q545 390 513 379Q562 355 585.50 317Q609 279 609 229Z"  horiz-adv-x="638" vert-adv-y="1000"  />

      
      <glyph glyph-name="uni74" unicode="&#x74;" d="M385 163L360 13Q335 1 305.50-4.50Q276-10 247-10Q156-10 114 51Q72 112 90 213L122 394L25 394L51 538L148 538L175 696L340 696L313 538L456 538L430 394L287 394L255 214Q243 145 309 145Q329 145 350 150Q371 155 385 163Z"  horiz-adv-x="428" vert-adv-y="1000"  />

      
      <glyph glyph-name="uni0165" unicode="&#x0165;" d="M385 163L360 13Q335 1 305.50-4.50Q276-10 247-10Q156-10 114 51Q72 112 90 213L122 394L25 394L51 538L148 538L175 696L340 696L313 538L456 538L430 394L287 394L255 214Q243 145 309 145Q329 145 350 150Q371 155 385 163M447 560L337 560L365 718L501 718L447 560Z"  horiz-adv-x="428" vert-adv-y="1000"  />

      
      <glyph glyph-name="uni0163" unicode="&#x0163;" d="M385 163L360 13Q335 1 305.50-4.50Q276-10 247-10Q156-10 114 51Q72 112 90 213L122 394L25 394L51 538L148 538L175 696L340 696L313 538L456 538L430 394L287 394L255 214Q243 145 309 145Q329 145 350 150Q371 155 385 163M342-108Q342-148 306-173Q270-198 209-198Q149-198 116-172Q83-146 83-98L183-98Q183-110 189-116.50Q195-123 207-123Q220-123 226.50-116.50Q233-110 233-98Q233-82 214-75Q195-68 169-72L206 19L285 19L263-31Q305-41 323.50-60Q342-79 342-108Z"  horiz-adv-x="428" vert-adv-y="1000"  />

      
      <glyph glyph-name="uni021B" unicode="&#x021B;" d="M385 163L360 13Q335 1 305.50-4.50Q276-10 247-10Q156-10 114 51Q72 112 90 213L122 394L25 394L51 538L148 538L175 696L340 696L313 538L456 538L430 394L287 394L255 214Q243 145 309 145Q329 145 350 150Q371 155 385 163M310-101Q310-151 279-183.50Q248-216 200.50-229.50Q153-243 102-235L112-176Q148-180 175-173.50Q202-167 214-146Q179-153 156.50-139Q134-125 134-101Q134-70 159.50-49Q185-28 225-28Q263-28 286.50-48.50Q310-69 310-101Z"  horiz-adv-x="428" vert-adv-y="1000"  />

      
      <glyph glyph-name="uni75" unicode="&#x75;" d="M353 242L407 538L572 538L477 0L326 0L338 68Q304 28 268.50 9Q233-10 192-10Q137-10 99 18Q61 46 45.50 96Q30 146 41 212L98 538L263 538L212 248Q203 196 220 168.50Q237 141 271 141Q296 141 312 152.50Q328 164 337.50 187Q347 210 353 242Z"  horiz-adv-x="581" vert-adv-y="1000"  />

      
      <glyph glyph-name="unifa" unicode="&#xfa;" d="M353 242L407 538L572 538L477 0L326 0L338 68Q304 28 268.50 9Q233-10 192-10Q137-10 99 18Q61 46 45.50 96Q30 146 41 212L98 538L263 538L212 248Q203 196 220 168.50Q237 141 271 141Q296 141 312 152.50Q328 164 337.50 187Q347 210 353 242M429 572L253 572L378 733L575 733L429 572Z"  horiz-adv-x="581" vert-adv-y="1000"  />

      
      <glyph glyph-name="unifb" unicode="&#xfb;" d="M353 242L407 538L572 538L477 0L326 0L338 68Q304 28 268.50 9Q233-10 192-10Q137-10 99 18Q61 46 45.50 96Q30 146 41 212L98 538L263 538L212 248Q203 196 220 168.50Q237 141 271 141Q296 141 312 152.50Q328 164 337.50 187Q347 210 353 242M284 570L92 570L257 734L466 734L574 570L403 570L356 648L284 570Z"  horiz-adv-x="581" vert-adv-y="1000"  />

      
      <glyph glyph-name="unifc" unicode="&#xfc;" d="M353 242L407 538L572 538L477 0L326 0L338 68Q304 28 268.50 9Q233-10 192-10Q137-10 99 18Q61 46 45.50 96Q30 146 41 212L98 538L263 538L212 248Q203 196 220 168.50Q237 141 271 141Q296 141 312 152.50Q328 164 337.50 187Q347 210 353 242M573 678Q573 648 557.50 623Q542 598 516.50 582.50Q491 567 460 567Q423 567 400.50 588Q378 609 378 641Q378 672 393.50 696.50Q409 721 435.50 736Q462 751 493 751Q528 751 550.50 730.50Q573 710 573 678M339 678Q339 632 305.50 599.50Q272 567 225 567Q189 567 166.50 588Q144 609 144 641Q144 671 159.50 696Q175 721 201 736Q227 751 257 751Q295 751 317 730.50Q339 710 339 678Z"  horiz-adv-x="581" vert-adv-y="1000"  />

      
      <glyph glyph-name="unif9" unicode="&#xf9;" d="M353 242L407 538L572 538L477 0L326 0L338 68Q304 28 268.50 9Q233-10 192-10Q137-10 99 18Q61 46 45.50 96Q30 146 41 212L98 538L263 538L212 248Q203 196 220 168.50Q237 141 271 141Q296 141 312 152.50Q328 164 337.50 187Q347 210 353 242M414 572L263 572L174 733L345 733L414 572Z"  horiz-adv-x="581" vert-adv-y="1000"  />

      
      <glyph glyph-name="uni0171" unicode="&#x0171;" d="M353 242L407 538L572 538L477 0L326 0L338 68Q304 28 268.50 9Q233-10 192-10Q137-10 99 18Q61 46 45.50 96Q30 146 41 212L98 538L263 538L212 248Q203 196 220 168.50Q237 141 271 141Q296 141 312 152.50Q328 164 337.50 187Q347 210 353 242M518 572L358 572L493 733L663 733L518 572M298 572L139 572L264 733L433 733L298 572Z"  horiz-adv-x="581" vert-adv-y="1000"  />

      
      <glyph glyph-name="uni016B" unicode="&#x016B;" d="M353 242L407 538L572 538L477 0L326 0L338 68Q304 28 268.50 9Q233-10 192-10Q137-10 99 18Q61 46 45.50 96Q30 146 41 212L98 538L263 538L212 248Q203 196 220 168.50Q237 141 271 141Q296 141 312 152.50Q328 164 337.50 187Q347 210 353 242M514 584L175 584L193 692L532 692L514 584Z"  horiz-adv-x="581" vert-adv-y="1000"  />

      
      <glyph glyph-name="uni0173" unicode="&#x0173;" d="M353 242L407 538L572 538L477 0L326 0L338 68Q304 28 268.50 9Q233-10 192-10Q137-10 99 18Q61 46 45.50 96Q30 146 41 212L98 538L263 538L212 248Q203 196 220 168.50Q237 141 271 141Q296 141 312 152.50Q328 164 337.50 187Q347 210 353 242M444-78L424-186Q408-191 386-194Q364-197 347-197Q300-197 273-173Q246-149 246-108Q246-57 287.50-14.50Q329 28 409 68L455 45Q420 22 400-4.50Q380-31 380-53Q380-84 414-84Q428-84 444-78Z"  horiz-adv-x="581" vert-adv-y="1000"  />

      
      <glyph glyph-name="uni016F" unicode="&#x016F;" d="M353 242L407 538L572 538L477 0L326 0L338 68Q304 28 268.50 9Q233-10 192-10Q137-10 99 18Q61 46 45.50 96Q30 146 41 212L98 538L263 538L212 248Q203 196 220 168.50Q237 141 271 141Q296 141 312 152.50Q328 164 337.50 187Q347 210 353 242M346 567Q292 567 257 596.50Q222 626 222 675Q222 718 243.50 752.50Q265 787 301.50 807.50Q338 828 382 828Q437 828 471.50 798Q506 768 506 720Q506 678 484.50 643Q463 608 427 587.50Q391 567 346 567M355 648Q378 648 395 666.50Q412 685 412 709Q412 725 401 736.50Q390 748 373 748Q351 748 333.50 729.50Q316 711 316 686Q316 670 327 659Q338 648 355 648Z"  horiz-adv-x="581" vert-adv-y="1000"  />

      
      <glyph glyph-name="uni76" unicode="&#x76;" d="M598 538L316 0L137 0L43 538L209 538L257 189L421 538L598 538Z"  horiz-adv-x="547" vert-adv-y="1000"  />

      
      <glyph glyph-name="uni77" unicode="&#x77;" d="M437 0L412 323L276 0L105 0L53 538L213 538L233 227L363 538L529 538L548 227L675 538L837 538L596 0L437 0Z"  horiz-adv-x="796" vert-adv-y="1000"  />

      
      <glyph glyph-name="uni1E83" unicode="&#x1E83;" d="M437 0L412 323L276 0L105 0L53 538L213 538L233 227L363 538L529 538L548 227L675 538L837 538L596 0L437 0M538 572L362 572L487 733L684 733L538 572Z"  horiz-adv-x="796" vert-adv-y="1000"  />

      
      <glyph glyph-name="uni0175" unicode="&#x0175;" d="M437 0L412 323L276 0L105 0L53 538L213 538L233 227L363 538L529 538L548 227L675 538L837 538L596 0L437 0M393 570L201 570L366 734L575 734L683 570L512 570L465 648L393 570Z"  horiz-adv-x="796" vert-adv-y="1000"  />

      
      <glyph glyph-name="uni1E85" unicode="&#x1E85;" d="M437 0L412 323L276 0L105 0L53 538L213 538L233 227L363 538L529 538L548 227L675 538L837 538L596 0L437 0M682 678Q682 648 666.50 623Q651 598 625.50 582.50Q600 567 569 567Q532 567 509.50 588Q487 609 487 641Q487 672 502.50 696.50Q518 721 544.50 736Q571 751 602 751Q637 751 659.50 730.50Q682 710 682 678M448 678Q448 632 414.50 599.50Q381 567 334 567Q298 567 275.50 588Q253 609 253 641Q253 671 268.50 696Q284 721 310 736Q336 751 366 751Q404 751 426 730.50Q448 710 448 678Z"  horiz-adv-x="796" vert-adv-y="1000"  />

      
      <glyph glyph-name="uni1E81" unicode="&#x1E81;" d="M437 0L412 323L276 0L105 0L53 538L213 538L233 227L363 538L529 538L548 227L675 538L837 538L596 0L437 0M523 572L372 572L283 733L454 733L523 572Z"  horiz-adv-x="796" vert-adv-y="1000"  />

      
      <glyph glyph-name="uni78" unicode="&#x78;" d="M151 0L-35 0L196 293L92 538L264 538L320 372L433 538L614 538L405 257L521 0L345 0L277 180L151 0Z"  horiz-adv-x="580" vert-adv-y="1000"  />

      
      <glyph glyph-name="uni79" unicode="&#x79;" d="M598 538L215-193L34-193L148 6L43 538L210 538L263 200L420 538L598 538Z"  horiz-adv-x="547" vert-adv-y="1000"  />

      
      <glyph glyph-name="unifd" unicode="&#xfd;" d="M598 538L215-193L34-193L148 6L43 538L210 538L263 200L420 538L598 538M413 572L237 572L362 733L559 733L413 572Z"  horiz-adv-x="547" vert-adv-y="1000"  />

      
      <glyph glyph-name="uni0177" unicode="&#x0177;" d="M598 538L215-193L34-193L148 6L43 538L210 538L263 200L420 538L598 538M268 570L76 570L241 734L450 734L558 570L387 570L340 648L268 570Z"  horiz-adv-x="547" vert-adv-y="1000"  />

      
      <glyph glyph-name="uniff" unicode="&#xff;" d="M598 538L215-193L34-193L148 6L43 538L210 538L263 200L420 538L598 538M557 678Q557 648 541.50 623Q526 598 500.50 582.50Q475 567 444 567Q407 567 384.50 588Q362 609 362 641Q362 672 377.50 696.50Q393 721 419.50 736Q446 751 477 751Q512 751 534.50 730.50Q557 710 557 678M323 678Q323 632 289.50 599.50Q256 567 209 567Q173 567 150.50 588Q128 609 128 641Q128 671 143.50 696Q159 721 185 736Q211 751 241 751Q279 751 301 730.50Q323 710 323 678Z"  horiz-adv-x="547" vert-adv-y="1000"  />

      
      <glyph glyph-name="uni1EF3" unicode="&#x1EF3;" d="M598 538L215-193L34-193L148 6L43 538L210 538L263 200L420 538L598 538M398 572L247 572L158 733L329 733L398 572Z"  horiz-adv-x="547" vert-adv-y="1000"  />

      
      <glyph glyph-name="uni7a" unicode="&#x7a;" d="M453 0L-3 0L21 135L305 394L61 394L86 538L543 538L518 398L238 144L478 144L453 0Z"  horiz-adv-x="539" vert-adv-y="1000"  />

      
      <glyph glyph-name="uni017A" unicode="&#x017A;" d="M453 0L-3 0L21 135L305 394L61 394L86 538L543 538L518 398L238 144L478 144L453 0M411 572L235 572L360 733L557 733L411 572Z"  horiz-adv-x="539" vert-adv-y="1000"  />

      
      <glyph glyph-name="uni017E" unicode="&#x017E;" d="M453 0L-3 0L21 135L305 394L61 394L86 538L543 538L518 398L238 144L478 144L453 0M429 570L220 570L112 734L283 734L330 656L402 734L594 734L429 570Z"  horiz-adv-x="539" vert-adv-y="1000"  />

      
      <glyph glyph-name="uni017C" unicode="&#x017C;" d="M453 0L-3 0L21 135L305 394L61 394L86 538L543 538L518 398L238 144L478 144L453 0M447 679Q447 649 430 623.50Q413 598 385 582.50Q357 567 322 567Q281 567 256 589.50Q231 612 231 646Q231 677 248 702.50Q265 728 293.50 743.50Q322 759 355 759Q397 759 422 736.50Q447 714 447 679Z"  horiz-adv-x="539" vert-adv-y="1000"  />

      
      <glyph glyph-name="uniFB01" unicode="&#xFB01;" d="M222 0L58 0L127 394L30 394L56 538L153 538L157 558Q173 638 220.50 684Q268 730 362 730Q416 730 450 712L428 581Q421 585 406 587.50Q391 590 378 590Q354 590 338 580.50Q322 571 320 554L318 538L446 538L421 394L292 394L222 0M583 0L418 0L513 538L678 538L583 0M724 679Q724 649 707 623.50Q690 598 662 582.50Q634 567 599 567Q558 567 533 589.50Q508 612 508 646Q508 677 525 702.50Q542 728 570.50 743.50Q599 759 632 759Q674 759 699 736.50Q724 714 724 679Z"  horiz-adv-x="687" vert-adv-y="1000"  />

      
      <glyph glyph-name="uniFB02" unicode="&#xFB02;" d="M222 0L58 0L127 394L30 394L56 538L153 538L157 558Q173 638 220.50 684Q268 730 362 730Q416 730 450 712L428 581Q421 585 406 587.50Q391 590 378 590Q354 590 338 580.50Q322 571 320 554L318 538L446 538L421 394L292 394L222 0M583 0L418 0L545 718L710 718L583 0Z"  horiz-adv-x="687" vert-adv-y="1000"  />

      
      <glyph glyph-name="uniaa" unicode="&#xaa;" d="M269 255L276 298Q256 271 228.50 259Q201 247 163 247Q106 247 69.50 278.50Q33 310 33 361Q33 427 87.50 467.50Q142 508 231 508Q245 508 264 505.50Q283 503 293 501L296 517Q301 542 288.50 558.50Q276 575 250 575Q193 575 185 521L71 521Q74 569 98.50 605.50Q123 642 164 662.50Q205 683 256 683Q343 683 389.50 636Q436 589 423 514L378 255L269 255M160 377Q160 363 174 352.50Q188 342 209 342Q229 342 242.50 348.50Q256 355 264 368Q272 381 276 399L281 422Q266 427 253.50 427.50Q241 428 231 428Q196 428 178 415Q160 402 160 377Z"  horiz-adv-x="407" vert-adv-y="1000"  />

      
      <glyph glyph-name="uniba" unicode="&#xba;" d="M241 247Q185 247 142 270Q99 293 74.50 334Q50 375 50 428Q50 499 83 557Q116 615 171.50 649Q227 683 294 683Q350 683 392.50 660Q435 637 459 596.50Q483 556 483 503Q483 432 450.50 374Q418 316 363.50 281.50Q309 247 241 247M256 370Q281 370 301.50 385.50Q322 401 334 428Q346 455 346 489Q346 521 328 541Q310 561 279 561Q254 561 233.50 545Q213 529 201 502Q189 475 189 440Q189 407 207 388.50Q225 370 256 370Z"  horiz-adv-x="464" vert-adv-y="1000"  />

      
      <glyph glyph-name="uni0394" unicode="&#x0394;" d="M663 0L-41 0L345 718L534 718L663 0M412 531L219 144L466 144L412 531Z"  horiz-adv-x="716" vert-adv-y="1000"  />

      
      </font>
</defs>
</svg>
