<svg width="40" height="40" viewBox="0 0 40 40" fill="none" xmlns="http://www.w3.org/2000/svg">
<path d="M38.487 19.9987C38.487 9.78717 30.2089 1.50912 19.9974 1.50912C9.78586 1.50912 1.50781 9.78717 1.50781 19.9987C1.50781 30.2102 9.78586 38.4883 19.9974 38.4883C30.2089 38.4883 38.487 30.2102 38.487 19.9987Z" stroke="#C7AB80" stroke-width="1.5" stroke-miterlimit="10" stroke-linecap="round" stroke-linejoin="round"/>
<path d="M22.978 17.6147V15.2289C22.978 14.2407 23.7792 13.4396 24.7673 13.4396H27.1531C27.4825 13.4396 27.7496 13.1725 27.7496 12.8432V9.26451C27.7496 8.93512 27.4825 8.66808 27.1531 8.66808H23.5745C19.951 8.66808 17.0137 11.6054 17.0137 15.2289V20.0004H12.8386C12.5092 20.0004 12.2422 20.2674 12.2422 20.5969V24.1754C12.2422 24.5048 12.5092 24.7719 12.8386 24.7719H17.0137V35.5078" stroke="#C7AB80" stroke-width="1.5" stroke-miterlimit="10" stroke-linecap="round" stroke-linejoin="round"/>
<path d="M22.9805 37.8906V24.769H26.0934C26.3672 24.769 26.6057 24.5827 26.6721 24.3172L27.5667 20.7386C27.6608 20.3621 27.3761 19.9975 26.9881 19.9975H22.9805" stroke="#C7AB80" stroke-width="1.5" stroke-miterlimit="10" stroke-linecap="round" stroke-linejoin="round"/>
</svg>
