<svg width="41" height="41" viewBox="0 0 41 41" fill="none" xmlns="http://www.w3.org/2000/svg">
<g clip-path="url(#clip0_6001_584)">
<path d="M34.2056 6.72904C30.4432 2.96651 25.4408 0.894531 20.1201 0.894531C14.7994 0.894531 9.79699 2.96651 6.03462 6.72904C2.27218 10.4913 0.200195 15.4937 0.200195 20.8144C0.200195 26.1351 2.27218 31.1375 6.03462 34.8999C9.79699 38.6623 14.7994 40.7343 20.1201 40.7343C25.4408 40.7343 30.4432 38.6623 34.2056 34.8998C37.968 31.1375 40.04 26.1351 40.04 20.8144C40.04 15.4937 37.968 10.4913 34.2056 6.72904ZM20.1201 39.4763C9.82991 39.4763 1.45826 31.1046 1.45826 20.8144C1.45826 10.5242 9.82991 2.1526 20.1201 2.1526C30.4103 2.1526 38.7819 10.5242 38.7819 20.8144C38.7819 31.1046 30.4103 39.4763 20.1201 39.4763Z" fill="#C7AB80"/>
<g clip-path="url(#clip1_6001_584)">
<path d="M14.2356 19.2485C14.2313 19.2399 14.227 19.2357 14.2227 19.2271C14.1028 19.0172 13.8329 18.9572 13.6315 19.09C13.6272 19.09 13.6272 19.0943 13.623 19.0943C13.4345 19.2185 13.3831 19.4713 13.503 19.6598C13.5073 19.6641 13.5116 19.6726 13.5159 19.6812C13.6401 19.8782 13.9014 19.9382 14.0985 19.8097C14.1028 19.8097 14.1028 19.8054 14.107 19.8054C14.287 19.6855 14.3469 19.4413 14.2356 19.2485Z" fill="#C7AB80"/>
<path d="M21.463 29.8918C21.3175 29.7462 21.0907 29.7248 20.9195 29.8447C20.162 30.3668 19.3018 30.7092 18.3817 30.8461C18.0778 30.8889 17.7697 30.9146 17.4658 30.9146C15.8396 30.9146 14.3074 30.2855 13.1562 29.1428C12.0093 28.0001 11.3759 26.4809 11.3716 24.8674C11.3716 23.4209 11.9065 22.0001 12.8523 20.9087C12.9936 20.7461 12.9936 20.5065 12.8481 20.3481L12.8438 20.3438C12.6726 20.1555 12.373 20.1555 12.2061 20.3481C11.1234 21.5978 10.5114 23.2198 10.5156 24.8717C10.5156 26.7162 11.2389 28.4495 12.5528 29.7548C13.8666 31.0601 15.6084 31.7791 17.4658 31.7791C17.8125 31.7791 18.1677 31.7534 18.5101 31.7021C19.5629 31.5437 20.5515 31.1543 21.416 30.5551C21.6342 30.4053 21.6556 30.0972 21.4716 29.9089C21.4673 29.896 21.4673 29.8918 21.463 29.8918Z" fill="#C7AB80"/>
<path d="M22.2124 28.6623C22.1996 28.6751 22.191 28.688 22.1782 28.7051C22.0282 28.885 22.0582 29.1549 22.2424 29.3006C22.2467 29.3048 22.251 29.3091 22.2553 29.3091C22.4352 29.4548 22.6965 29.4205 22.8422 29.2449C22.855 29.232 22.8636 29.2192 22.8765 29.202C23.0264 29.0135 22.9921 28.7394 22.7993 28.598C22.7993 28.598 22.7951 28.5937 22.7908 28.5937C22.6109 28.4566 22.3538 28.4866 22.2124 28.6623Z" fill="#C7AB80"/>
<path d="M29.6947 17.3188L29.6904 15.654C29.6862 15.1961 29.2668 15.1918 29.2625 15.1918C26.6091 15.1918 24.4265 13.0306 24.4051 10.3729C24.4051 10.1718 24.2553 9.96206 23.9771 9.94922H20.5876C20.3522 9.94922 20.1596 10.1418 20.1596 10.3772V19.7325L20.1554 24.8596C20.1554 26.0108 19.415 27.0294 18.3151 27.3931C17.9984 27.4958 17.6689 27.5429 17.3351 27.5258C15.927 27.4573 14.8058 26.3018 14.7844 24.8981C14.7758 24.1791 15.0454 23.5029 15.5504 22.9894C16.0597 22.4715 16.7445 22.1848 17.472 22.1848C17.7587 22.1848 18.0455 22.2319 18.3194 22.3217C18.482 22.3731 18.6617 22.326 18.7773 22.1976C18.8458 22.1163 18.88 22.0093 18.88 21.9066V18.4529C18.88 18.2432 18.7259 18.0592 18.5162 18.0292C18.1696 17.9779 17.8187 17.9522 17.472 17.9522C16.7102 17.9522 15.9741 18.072 15.2765 18.3031C15.0497 18.3802 14.9427 18.6327 15.0497 18.8466V18.8509C15.0626 18.8723 15.0754 18.898 15.0839 18.9194C15.1695 19.0906 15.3707 19.1719 15.5504 19.112C16.1581 18.9108 16.8044 18.8081 17.4677 18.8081C17.6517 18.8081 17.8358 18.8167 18.0198 18.8338V21.3759C17.8358 21.346 17.6517 21.3331 17.4677 21.3331C16.5091 21.3331 15.6103 21.7097 14.9384 22.3902C14.2708 23.0664 13.9113 23.9608 13.9242 24.9109C13.9498 26.764 15.4306 28.2876 17.288 28.3775C17.7288 28.3989 18.161 28.3389 18.5804 28.202C20.0355 27.7227 21.0113 26.3789 21.0113 24.8553L21.0156 19.7283V10.8052H22.1326C22.6461 10.8009 23.211 10.7966 23.5705 10.8009C23.6818 12.1618 24.2638 13.4243 25.2439 14.3958C26.2196 15.363 27.4864 15.9365 28.8431 16.0392C28.8431 16.6811 28.8474 17.9265 28.8516 18.5899C27.8887 18.5428 26.9515 18.3288 26.0613 17.9522C25.4065 17.6783 24.7945 17.3188 24.2339 16.8866C24.1055 16.7881 23.93 16.771 23.7845 16.8395C23.639 16.908 23.5448 17.062 23.5448 17.2246L23.562 24.8895C23.5577 25.7412 23.3779 26.5629 23.0398 27.3204C22.9543 27.5087 23.0227 27.7312 23.1939 27.8425C23.1982 27.8425 23.1982 27.8468 23.2025 27.8468C23.4207 27.988 23.716 27.9024 23.823 27.667C24.2082 26.8025 24.4136 25.8653 24.4179 24.8895L24.3922 18.0378C24.8159 18.3031 25.2567 18.5385 25.7189 18.7311C26.8445 19.2061 28.0385 19.4501 29.2668 19.4501C29.3823 19.4501 29.4936 19.4073 29.5749 19.326C29.6562 19.2447 29.699 19.1377 29.699 19.0221L29.6947 17.3188Z" fill="#C7AB80"/>
</g>
</g>
<defs>
<clipPath id="clip0_6001_584">
<rect width="39.8398" height="39.8398" fill="white" transform="translate(0.194336 0.902344)"/>
</clipPath>
<clipPath id="clip1_6001_584">
<rect width="21.9119" height="21.9119" fill="white" transform="translate(9.15723 9.86328)"/>
</clipPath>
</defs>
</svg>
