<svg width="188" height="54" viewBox="0 0 188 54" fill="none" xmlns="http://www.w3.org/2000/svg">
<path d="M13.168 40.928C9.904 40.928 7.344 39.92 5.488 37.904C3.664 35.888 2.752 33.024 2.752 29.312C2.752 26.976 3.232 24.56 4.192 22.064C2.848 21.136 1.872 20.096 1.264 18.944C0.688 17.76 0.4 16.336 0.4 14.672C0.4 12.464 0.896 10.496 1.888 8.768C2.912 7.04 4.272 5.568 5.968 4.352C7.664 3.104 9.568 2.16 11.68 1.52C13.792 0.879998 15.936 0.559999 18.112 0.559999C20.256 0.559999 22.336 0.895998 24.352 1.568C26.368 2.208 28.16 3.216 29.728 4.592C31.328 5.936 32.56 7.648 33.424 9.728C34.32 11.808 34.704 14.288 34.576 17.168C36.08 16.24 37.376 15.232 38.464 14.144C39.584 13.024 40.4 12 40.912 11.072C41.072 10.784 41.232 10.64 41.392 10.64C41.552 10.64 41.648 10.768 41.68 11.024C41.744 11.28 41.664 11.584 41.44 11.936C40.64 13.184 39.648 14.416 38.464 15.632C37.312 16.848 35.952 17.936 34.384 18.896C34.352 19.6 34.24 20.4 34.048 21.296C33.888 22.16 33.648 23.072 33.328 24.032C32.72 25.984 31.744 27.952 30.4 29.936C29.088 31.92 27.52 33.744 25.696 35.408C23.872 37.072 21.888 38.4 19.744 39.392C17.6 40.416 15.408 40.928 13.168 40.928ZM14.752 23.12C17.44 23.12 20.272 22.736 23.248 21.968C26.256 21.168 29.072 20.08 31.696 18.704C31.76 18.288 31.792 17.888 31.792 17.504C31.792 17.088 31.792 16.688 31.792 16.304C31.792 13.04 31.216 10.32 30.064 8.144C28.944 5.968 27.376 4.336 25.36 3.248C23.344 2.16 20.992 1.616 18.304 1.616C16.224 1.616 14.256 1.936 12.4 2.576C10.576 3.216 8.944 4.112 7.504 5.264C6.096 6.416 4.992 7.776 4.192 9.344C3.392 10.912 2.992 12.64 2.992 14.528C2.992 15.392 3.104 16.336 3.328 17.36C3.584 18.352 4.16 19.248 5.056 20.048C5.504 19.088 6.112 18.016 6.88 16.832C7.648 15.616 8.528 14.4 9.52 13.184C10.544 11.936 11.632 10.8 12.784 9.776C13.968 8.752 15.184 7.936 16.432 7.328C17.712 6.688 18.992 6.368 20.272 6.368C20.816 6.368 21.36 6.432 21.904 6.56C22.48 6.688 23.024 6.912 23.536 7.232C23.792 7.392 23.92 7.536 23.92 7.664C23.92 7.76 23.84 7.84 23.68 7.904C23.552 7.968 23.376 7.968 23.152 7.904C22.736 7.776 22.272 7.712 21.76 7.712C20.608 7.712 19.44 8.064 18.256 8.768C17.072 9.44 15.92 10.336 14.8 11.456C13.68 12.544 12.64 13.728 11.68 15.008C10.72 16.256 9.872 17.488 9.136 18.704C8.432 19.888 7.888 20.896 7.504 21.728C9.456 22.656 11.872 23.12 14.752 23.12ZM13.552 39.776C15.344 39.776 17.088 39.328 18.784 38.432C20.512 37.536 22.128 36.32 23.632 34.784C25.168 33.248 26.528 31.536 27.712 29.648C28.896 27.76 29.84 25.824 30.544 23.84C30.736 23.296 30.912 22.736 31.072 22.16C31.232 21.552 31.328 20.976 31.36 20.432C28.768 21.808 26 22.864 23.056 23.6C20.112 24.336 17.296 24.704 14.608 24.704C11.632 24.704 9.04 24.272 6.832 23.408C5.84 25.936 5.344 28.416 5.344 30.848C5.344 33.824 6.112 36.064 7.648 37.568C9.216 39.04 11.184 39.776 13.552 39.776ZM36.8331 28.592C37.0891 28.048 37.4251 27.184 37.8411 26C38.2571 24.784 38.6891 23.44 39.1371 21.968C39.5851 20.496 39.9211 19.104 40.1451 17.792C40.2411 17.28 40.4171 16.912 40.6731 16.688C40.9291 16.432 41.2011 16.304 41.4891 16.304C41.9051 16.304 42.2891 16.512 42.6411 16.928C42.9931 17.312 43.1691 17.872 43.1691 18.608C43.1691 19.504 42.8971 20.272 42.3531 20.912C41.8411 21.552 41.2011 22.16 40.4331 22.736C40.7531 22.768 41.0891 22.8 41.4411 22.832C41.7931 22.832 42.1771 22.832 42.5931 22.832C44.0971 22.832 45.5851 22.736 47.0571 22.544C47.1211 22.736 47.1531 22.88 47.1531 22.976C47.1531 23.392 47.0251 23.92 46.7691 24.56C46.5451 25.2 46.3051 25.776 46.0491 26.288C45.9211 26.576 45.6651 27.104 45.2811 27.872C44.8971 28.608 44.4811 29.456 44.0331 30.416C43.5851 31.344 43.2011 32.272 42.8811 33.2C42.5931 34.096 42.4491 34.864 42.4491 35.504C42.4491 36.336 42.7691 36.752 43.4091 36.752C44.0171 36.752 44.8651 36.048 45.9531 34.64C47.0411 33.2 48.1291 31.232 49.2171 28.736C49.6011 28.736 49.7931 28.88 49.7931 29.168C49.4411 30.032 48.9931 30.976 48.4491 32C47.9371 33.024 47.3611 34 46.7211 34.928C46.0811 35.824 45.3931 36.576 44.6571 37.184C43.9211 37.76 43.1531 38.048 42.3531 38.048C41.7451 38.048 41.1371 37.808 40.5291 37.328C39.9211 36.816 39.6171 36 39.6171 34.88C39.6171 33.888 39.8091 32.928 40.1931 32C40.5771 31.04 41.0091 30.144 41.4891 29.312C41.9691 28.48 42.4011 27.744 42.7851 27.104C43.1691 26.464 43.3611 25.952 43.3611 25.568C43.3611 24.992 42.9931 24.576 42.2571 24.32C41.5531 24.064 40.6251 23.92 39.4731 23.888C38.8971 25.36 38.4651 26.448 38.1771 27.152C37.8891 27.856 37.6171 28.528 37.3611 29.168C36.8491 29.168 36.6731 28.976 36.8331 28.592ZM50.551 38C49.367 38 48.535 37.664 48.055 36.992C47.575 36.288 47.335 35.488 47.335 34.592C47.335 34.112 47.383 33.632 47.479 33.152C47.607 32.64 47.751 32.176 47.911 31.76L51.127 23.552C51.223 23.296 51.271 23.072 51.271 22.88C51.271 22.56 51.191 22.288 51.031 22.064C50.871 21.808 50.759 21.632 50.695 21.536L53.335 21.44C53.815 21.408 54.151 21.472 54.343 21.632C54.567 21.76 54.679 21.92 54.679 22.112C54.679 22.304 54.567 22.656 54.343 23.168C54.023 23.936 53.591 24.896 53.047 26.048C52.503 27.2 51.959 28.384 51.415 29.6C50.903 30.816 50.455 31.952 50.071 33.008C49.719 34.064 49.543 34.88 49.543 35.456C49.543 35.872 49.639 36.224 49.831 36.512C50.055 36.8 50.423 36.944 50.935 36.944C51.607 36.944 52.263 36.688 52.903 36.176C53.575 35.632 54.199 34.944 54.775 34.112C55.351 33.28 55.879 32.384 56.359 31.424C56.871 30.464 57.303 29.568 57.655 28.736C58.039 28.736 58.231 28.88 58.231 29.168C57.911 29.968 57.495 30.88 56.983 31.904C56.471 32.928 55.879 33.904 55.207 34.832C54.567 35.728 53.847 36.48 53.047 37.088C52.279 37.696 51.447 38 50.551 38ZM54.823 18.464C54.407 18.464 54.039 18.304 53.719 17.984C53.431 17.664 53.287 17.28 53.287 16.832C53.287 16.288 53.511 15.808 53.959 15.392C54.407 14.944 54.903 14.72 55.447 14.72C55.895 14.72 56.279 14.864 56.599 15.152C56.919 15.44 57.079 15.808 57.079 16.256C57.079 16.832 56.855 17.344 56.407 17.792C55.959 18.24 55.431 18.464 54.823 18.464ZM71.5596 39.872C70.8556 39.872 70.0396 39.792 69.1116 39.632C68.2156 39.504 67.3356 39.264 66.4716 38.912C65.6396 38.56 64.9356 38.064 64.3596 37.424C63.8156 36.752 63.5436 35.92 63.5436 34.928C63.5436 33.744 64.0716 32.672 65.1276 31.712C66.1836 30.72 67.6716 30.224 69.5916 30.224C70.9996 30.224 72.3116 30.464 73.5276 30.944C74.7436 31.392 75.9276 31.952 77.0796 32.624C78.2636 33.264 79.4796 33.904 80.7276 34.544C82.3276 33.008 83.7836 31.104 85.0956 28.832C86.4396 26.56 87.7676 24.128 89.0796 21.536C90.4236 18.912 91.8636 16.288 93.3996 13.664C94.9676 11.04 96.7756 8.576 98.8236 6.272L101.608 3.152C100.424 2.96 99.1916 2.816 97.9116 2.72C96.6316 2.592 95.3036 2.528 93.9276 2.528C92.0396 2.528 89.9756 2.688 87.7356 3.008C85.5276 3.328 83.3196 3.824 81.1116 4.496C78.9356 5.168 76.9356 6.016 75.1116 7.04C73.3196 8.064 71.8796 9.28 70.7916 10.688C69.7036 12.096 69.1596 13.712 69.1596 15.536C69.1596 16.784 69.4316 17.776 69.9756 18.512C70.5516 19.248 71.2556 19.792 72.0876 20.144C72.9516 20.464 73.8156 20.624 74.6796 20.624C76.1196 20.624 77.3356 20.304 78.3276 19.664C79.3196 18.992 80.0556 18.224 80.5356 17.36C81.0476 16.496 81.3036 15.728 81.3036 15.056C81.3036 14.832 81.4636 14.72 81.7836 14.72C82.1036 14.72 82.2636 14.976 82.2636 15.488C82.2636 16.8 81.8636 17.936 81.0636 18.896C80.2636 19.856 79.2556 20.592 78.0396 21.104C76.8556 21.616 75.6556 21.872 74.4396 21.872C73.3196 21.872 72.1676 21.6 70.9836 21.056C69.8316 20.512 68.8716 19.696 68.1036 18.608C67.3356 17.52 66.9516 16.176 66.9516 14.576C66.9516 12.656 67.4956 10.96 68.5836 9.488C69.6716 7.984 71.1276 6.704 72.9516 5.648C74.7756 4.592 76.8076 3.728 79.0476 3.056C81.2876 2.352 83.5436 1.84 85.8156 1.52C88.1196 1.2 90.2796 1.04 92.2956 1.04C94.1516 1.04 95.9596 1.136 97.7196 1.328C99.5116 1.488 101.192 1.744 102.76 2.096C103.208 1.712 103.656 1.376 104.104 1.088C104.584 0.799997 105.016 0.575997 105.4 0.415998C105.752 0.255998 106.04 0.175998 106.264 0.175998C106.52 0.175998 106.648 0.271997 106.648 0.463997C106.648 0.559998 106.472 0.735998 106.12 0.991999C105.704 1.312 105.336 1.616 105.016 1.904C104.728 2.16 104.552 2.352 104.488 2.48C107.752 3.312 110.392 4.464 112.408 5.936C114.456 7.376 115.48 9.088 115.48 11.072C115.48 12.704 114.92 14.144 113.8 15.392C112.68 16.608 111.208 17.568 109.384 18.272C107.592 18.976 105.672 19.376 103.624 19.472C106.504 20.4 108.792 21.6 110.488 23.072C112.216 24.544 113.08 26.416 113.08 28.688C113.08 30.384 112.584 31.92 111.592 33.296C110.632 34.672 109.336 35.856 107.704 36.848C106.104 37.808 104.344 38.544 102.424 39.056C100.504 39.6 98.5996 39.872 96.7116 39.872C93.7356 39.872 91.0956 39.568 88.7916 38.96C86.5196 38.352 84.1516 37.488 81.6876 36.368C78.5836 38.704 75.2076 39.872 71.5596 39.872ZM96.0396 38.48C98.0236 38.48 99.8316 38.176 101.464 37.568C103.096 36.96 104.504 36.16 105.688 35.168C106.904 34.176 107.832 33.072 108.472 31.856C109.144 30.64 109.48 29.44 109.48 28.256C109.48 27.136 109.144 26.064 108.472 25.04C107.8 23.984 106.744 23.104 105.304 22.4C103.448 21.472 101.816 20.832 100.408 20.48C98.9996 20.096 97.8796 19.744 97.0476 19.424C96.7276 19.264 96.5196 19.152 96.4236 19.088C96.3276 19.024 96.2796 18.96 96.2796 18.896C96.2796 18.576 96.4396 18.32 96.7596 18.128C97.0796 17.936 97.4476 17.84 97.8636 17.84C98.5036 17.84 99.1916 17.888 99.9276 17.984C100.664 18.08 101.448 18.128 102.28 18.128C104.36 18.128 106.152 17.712 107.656 16.88C109.16 16.048 110.312 15.008 111.112 13.76C111.944 12.512 112.36 11.28 112.36 10.064C112.36 8.688 111.752 7.488 110.536 6.464C109.32 5.408 107.112 4.464 103.912 3.632C102.312 5.84 100.712 8.32 99.1116 11.072C97.5116 13.792 95.9116 16.56 94.3116 19.376C92.7116 22.16 91.0956 24.8 89.4636 27.296C87.8316 29.792 86.1996 31.936 84.5676 33.728C84.1836 34.144 83.8796 34.464 83.6556 34.688C83.4316 34.88 83.1276 35.152 82.7436 35.504C84.6636 36.304 86.7756 37.008 89.0796 37.616C91.3836 38.192 93.7036 38.48 96.0396 38.48ZM70.5996 38.384C72.3916 38.48 74.0236 38.272 75.4956 37.76C76.9996 37.216 78.3916 36.464 79.6716 35.504C78.9036 35.12 77.9276 34.624 76.7436 34.016C75.5596 33.408 74.3596 32.88 73.1436 32.432C71.9276 31.952 70.8716 31.712 69.9756 31.712C68.7916 31.712 67.8956 32.032 67.2876 32.672C66.6796 33.28 66.3756 33.984 66.3756 34.784C66.3756 35.616 66.7276 36.416 67.4316 37.184C68.1356 37.92 69.1916 38.32 70.5996 38.384ZM109.474 53.312C107.81 53.312 106.626 52.976 105.922 52.304C105.218 51.664 104.866 50.896 104.866 50C104.866 48.624 105.378 47.344 106.402 46.16C107.394 45.008 108.626 44.08 110.098 43.376C111.762 42.608 113.65 41.984 115.762 41.504C117.906 41.024 119.954 40.496 121.906 39.92C122.514 38.864 123.074 37.664 123.586 36.32C124.098 34.944 124.562 33.616 124.978 32.336C125.394 31.024 125.73 29.952 125.986 29.12C125.602 29.824 125.106 30.688 124.498 31.712C123.922 32.704 123.266 33.68 122.53 34.64C121.794 35.6 120.994 36.4 120.13 37.04C119.298 37.68 118.418 38 117.49 38C117.138 38 116.706 37.92 116.194 37.76C115.714 37.6 115.282 37.312 114.898 36.896C114.546 36.448 114.37 35.792 114.37 34.928C114.37 34.096 114.626 33.184 115.138 32.192C115.65 31.168 116.162 30.16 116.674 29.168C116.514 29.168 116.37 29.152 116.242 29.12C116.146 29.088 116.098 28.96 116.098 28.736C116.194 28.544 116.386 28.128 116.674 27.488C116.962 26.848 117.282 26.144 117.634 25.376C118.018 24.608 118.354 23.936 118.642 23.36C118.994 22.624 119.378 22.112 119.794 21.824C120.242 21.536 120.674 21.392 121.09 21.392H124.066C123.842 21.584 123.554 21.808 123.202 22.064C122.882 22.288 122.578 22.64 122.29 23.12C121.426 24.592 120.674 26.016 120.034 27.392C119.394 28.736 118.706 30.176 117.97 31.712C117.618 32.448 117.362 33.12 117.202 33.728C117.042 34.336 116.962 34.864 116.962 35.312C116.962 36.368 117.314 36.896 118.018 36.896C118.786 36.896 119.714 36.272 120.802 35.024C121.698 33.968 122.594 32.72 123.49 31.28C124.418 29.808 125.298 28.304 126.13 26.768C126.994 25.2 127.746 23.76 128.386 22.448C128.738 21.744 129.362 21.392 130.258 21.392H132.898C131.97 22.032 131.25 22.864 130.738 23.888C130.258 24.912 129.714 26.224 129.106 27.824C128.434 29.584 127.794 31.408 127.186 33.296C126.578 35.184 125.906 37.12 125.17 39.104C126.738 38.56 128.05 37.856 129.106 36.992C130.162 36.128 131.09 35.024 131.89 33.68C132.722 32.304 133.554 30.656 134.386 28.736C134.77 28.736 134.962 28.88 134.962 29.168C134.258 30.64 133.618 31.936 133.042 33.056C132.466 34.176 131.826 35.168 131.122 36.032C130.418 36.864 129.538 37.632 128.482 38.336C127.426 39.072 126.066 39.776 124.402 40.448C123.634 41.824 122.754 43.248 121.762 44.72C120.802 46.224 119.698 47.616 118.45 48.896C117.234 50.208 115.874 51.264 114.37 52.064C112.898 52.896 111.266 53.312 109.474 53.312ZM108.322 52.352C109.378 52.352 110.466 52.032 111.586 51.392C112.706 50.752 113.794 49.936 114.85 48.944C115.906 47.984 116.866 46.992 117.73 45.968C118.626 44.976 119.346 44.096 119.89 43.328C120.05 43.104 120.226 42.816 120.418 42.464C120.61 42.112 120.802 41.776 120.994 41.456C119.426 41.872 117.698 42.32 115.81 42.8C113.954 43.312 112.338 43.872 110.962 44.48C109.426 45.12 108.226 46.032 107.362 47.216C106.466 48.4 106.018 49.456 106.018 50.384C106.018 50.96 106.21 51.424 106.594 51.776C106.946 52.16 107.522 52.352 108.322 52.352ZM136.779 38.144C135.435 38.144 134.523 37.792 134.043 37.088C133.563 36.352 133.323 35.488 133.323 34.496C133.323 33.728 133.451 32.752 133.707 31.568C133.963 30.384 134.299 29.12 134.715 27.776C135.131 26.4 135.563 25.056 136.011 23.744C136.459 22.4 136.891 21.2 137.307 20.144C137.755 19.056 138.107 18.208 138.363 17.6C137.595 17.632 136.907 17.744 136.299 17.936C135.691 18.128 135.115 18.672 134.571 19.568L134.427 19.808C134.331 19.936 134.235 20 134.139 20C134.043 20 133.963 19.952 133.899 19.856C133.835 19.76 133.819 19.648 133.851 19.52C134.267 18.432 134.955 17.648 135.915 17.168C136.875 16.688 137.883 16.416 138.939 16.352C139.323 15.584 139.755 14.72 140.235 13.76C140.747 12.768 141.323 11.824 141.963 10.928C142.603 10.032 143.291 9.296 144.027 8.72C144.795 8.112 145.611 7.808 146.475 7.808C147.243 7.808 147.755 8.224 148.011 9.056C147.115 9.248 146.251 9.776 145.419 10.64C144.619 11.472 143.883 12.416 143.211 13.472C142.571 14.528 142.059 15.472 141.675 16.304C142.795 16.336 144.027 16.416 145.371 16.544C146.747 16.672 148.043 16.752 149.259 16.784C149.899 15.44 150.619 14.08 151.419 12.704C152.219 11.328 153.067 10.176 153.963 9.248C154.859 8.288 155.771 7.808 156.699 7.808C157.467 7.808 157.979 8.224 158.235 9.056C157.531 9.216 156.811 9.696 156.075 10.496C155.339 11.296 154.619 12.272 153.915 13.424C153.243 14.544 152.619 15.648 152.043 16.736C152.907 16.704 153.803 16.624 154.731 16.496C155.691 16.336 156.523 16.096 157.227 15.776C157.963 15.424 158.443 14.96 158.667 14.384C159.051 14.384 159.243 14.496 159.243 14.72C158.955 15.52 158.379 16.16 157.515 16.64C156.683 17.12 155.707 17.472 154.587 17.696C153.467 17.92 152.379 18.064 151.323 18.128C151.227 18.352 151.131 18.56 151.035 18.752C150.939 18.944 150.843 19.136 150.747 19.328L150.555 19.76C150.203 20.464 149.771 21.472 149.259 22.784C148.747 24.096 148.235 25.488 147.723 26.96C147.211 28.432 146.779 29.824 146.427 31.136C146.107 32.448 145.947 33.472 145.947 34.208C145.947 35.168 146.139 35.888 146.523 36.368C146.939 36.816 147.435 37.04 148.011 37.04C148.747 37.04 149.467 36.72 150.171 36.08C150.907 35.44 151.595 34.656 152.235 33.728C152.875 32.768 153.435 31.84 153.915 30.944C154.395 30.016 154.747 29.28 154.971 28.736C155.355 28.736 155.547 28.88 155.547 29.168C155.227 29.904 154.811 30.784 154.299 31.808C153.819 32.8 153.227 33.792 152.523 34.784C151.851 35.744 151.051 36.544 150.123 37.184C149.195 37.824 148.155 38.144 147.003 38.144C145.659 38.144 144.747 37.792 144.267 37.088C143.787 36.384 143.547 35.52 143.547 34.496C143.547 33.92 143.611 33.248 143.739 32.48C143.227 33.408 142.635 34.304 141.963 35.168C141.291 36.032 140.523 36.752 139.659 37.328C138.827 37.872 137.867 38.144 136.779 38.144ZM135.723 34.208C135.723 35.168 135.915 35.888 136.299 36.368C136.715 36.816 137.211 37.04 137.787 37.04C138.427 37.04 139.067 36.784 139.707 36.272C140.379 35.728 141.003 35.072 141.579 34.304C142.187 33.504 142.731 32.688 143.211 31.856C143.691 30.992 144.075 30.224 144.363 29.552C144.683 28.336 145.051 27.104 145.467 25.856C145.915 24.608 146.347 23.456 146.763 22.4C147.179 21.344 147.531 20.48 147.819 19.808L148.011 19.376C148.107 19.184 148.203 18.992 148.299 18.8C148.395 18.576 148.491 18.352 148.587 18.128C147.275 18.064 145.915 17.952 144.507 17.792C143.099 17.6 141.963 17.52 141.099 17.552C140.811 18.128 140.443 18.976 139.995 20.096C139.579 21.216 139.115 22.464 138.603 23.84C138.123 25.184 137.659 26.544 137.211 27.92C136.763 29.296 136.395 30.544 136.107 31.664C135.851 32.784 135.723 33.632 135.723 34.208ZM157.79 38C156.478 38 155.502 37.536 154.862 36.608C154.254 35.648 153.95 34.496 153.95 33.152C153.95 31.904 154.19 30.608 154.67 29.264C155.182 27.792 155.886 26.448 156.782 25.232C157.71 24.016 158.718 23.04 159.806 22.304C160.926 21.536 162.03 21.152 163.118 21.152C164.43 21.152 165.39 21.6 165.998 22.496C166.638 23.392 166.958 24.528 166.958 25.904C166.958 26.864 166.798 27.872 166.478 28.928C166.158 29.984 165.726 31.024 165.182 32.048C165.598 32.464 166.19 32.672 166.958 32.672C167.854 32.672 168.622 32.384 169.262 31.808C169.902 31.232 170.526 30.208 171.134 28.736C171.518 28.736 171.71 28.88 171.71 29.168C171.102 30.64 170.398 31.728 169.598 32.432C168.83 33.104 167.838 33.424 166.622 33.392C165.886 33.392 165.278 33.184 164.798 32.768C163.902 34.24 162.83 35.488 161.582 36.512C160.366 37.504 159.102 38 157.79 38ZM158.462 36.944C159.198 36.944 159.934 36.64 160.67 36.032C161.406 35.392 162.078 34.672 162.686 33.872C163.294 33.072 163.726 32.384 163.982 31.808C163.47 30.88 163.166 30.192 163.07 29.744C163.006 29.264 162.974 28.912 162.974 28.688C162.974 28.08 163.134 27.616 163.454 27.296C163.774 26.976 164.094 26.816 164.414 26.816C164.862 26.816 165.246 27.008 165.566 27.392C165.63 27.04 165.678 26.72 165.71 26.432C165.742 26.112 165.758 25.808 165.758 25.52C165.758 24.688 165.598 24.016 165.278 23.504C164.99 22.96 164.526 22.688 163.886 22.688C163.214 22.688 162.51 22.976 161.774 23.552C161.038 24.128 160.334 24.896 159.662 25.856C159.022 26.816 158.462 27.888 157.982 29.072C157.566 30.064 157.246 31.008 157.022 31.904C156.798 32.768 156.686 33.568 156.686 34.304C156.686 35.104 156.83 35.744 157.118 36.224C157.406 36.704 157.854 36.944 158.462 36.944ZM166.521 38.384C167.673 36.048 168.777 33.744 169.833 31.472C170.889 29.168 171.977 26.976 173.097 24.896C173.737 23.744 174.281 22.944 174.729 22.496C175.177 22.016 175.769 21.776 176.505 21.776C176.761 21.776 177.033 21.824 177.321 21.92C177.609 21.984 177.897 22.016 178.185 22.016C178.377 22.016 178.521 22 178.617 21.968C178.169 22.224 177.577 22.864 176.841 23.888C176.137 24.88 175.417 26.032 174.681 27.344C173.945 28.656 173.289 29.888 172.713 31.04C173.321 30.304 173.961 29.568 174.633 28.832C175.305 28.096 176.041 27.392 176.841 26.72C177.609 26.048 178.521 25.36 179.577 24.656C180.665 23.92 181.721 23.312 182.745 22.832C183.769 22.352 184.585 22.112 185.193 22.112C185.417 22.112 185.577 22.128 185.673 22.16C185.673 22.16 185.497 22.48 185.145 23.12C184.793 23.728 184.345 24.544 183.801 25.568C183.289 26.56 182.761 27.632 182.217 28.784C181.673 29.904 181.177 30.992 180.729 32.048C180.313 33.072 180.041 33.936 179.913 34.64C179.817 35.056 179.769 35.44 179.769 35.792C179.769 36.304 179.865 36.64 180.057 36.8C180.249 36.96 180.457 37.04 180.681 37.04C181.289 37.04 181.913 36.768 182.553 36.224C183.193 35.68 183.801 34.992 184.377 34.16C184.985 33.296 185.545 32.384 186.057 31.424C186.569 30.464 187.001 29.568 187.353 28.736C187.737 28.736 187.929 28.88 187.929 29.168C187.577 30.032 187.129 30.992 186.585 32.048C186.073 33.072 185.481 34.048 184.809 34.976C184.169 35.904 183.449 36.672 182.649 37.28C181.849 37.888 180.985 38.192 180.057 38.192C179.417 38.192 178.745 37.968 178.041 37.52C177.369 37.072 177.033 36.24 177.033 35.024C177.033 34.672 177.065 34.304 177.129 33.92C177.193 33.504 177.305 33.056 177.465 32.576C177.721 31.936 178.025 31.248 178.377 30.512C178.729 29.776 179.305 28.768 180.105 27.488C180.329 27.136 180.457 26.864 180.489 26.672C180.553 26.48 180.585 26.32 180.585 26.192C180.585 25.808 180.409 25.616 180.057 25.616C179.769 25.616 179.337 25.776 178.761 26.096C178.217 26.416 177.529 26.976 176.697 27.776C175.897 28.544 174.937 29.632 173.817 31.04C172.729 32.448 171.465 34.528 170.025 37.28C169.801 37.696 169.545 37.92 169.257 37.952C169.001 37.984 168.633 38.016 168.153 38.048C167.833 38.08 167.529 38.096 167.241 38.096C166.953 38.128 166.713 38.224 166.521 38.384Z" fill="#C7AB80"/>
</svg>
