<svg width="40" height="40" viewBox="0 0 40 40" fill="none" xmlns="http://www.w3.org/2000/svg">
<g clip-path="url(#clip0_178_228)">
<path d="M34.1421 5.85789C30.3646 2.08031 25.3421 0 20 0C14.6579 0 9.63539 2.08031 5.85789 5.85789C2.08031 9.63539 0 14.6579 0 20C0 25.3421 2.08031 30.3646 5.85789 34.1421C9.63539 37.9197 14.6579 40 20 40C25.3421 40 30.3646 37.9197 34.1421 34.1421C37.9196 30.3645 40 25.3421 40 20C40 14.6579 37.9197 9.63539 34.1421 5.85789ZM20 38.7369C9.66844 38.7369 1.26312 30.3316 1.26312 20C1.26312 9.66844 9.66844 1.26312 20 1.26312C30.3316 1.26312 38.7369 9.66844 38.7369 20C38.7369 30.3316 30.3316 38.7369 20 38.7369Z" fill="#C7AB80"/>
<path d="M27.1745 7.57812H12.8237C9.93125 7.57812 7.57812 9.93133 7.57812 12.8237V27.1747C7.57812 30.067 9.93133 32.4202 12.8237 32.4202H27.1747C30.067 32.4202 32.4202 30.067 32.4202 27.1746V12.8237C32.4202 9.93125 30.067 7.57812 27.1745 7.57812ZM31.157 27.1745C31.157 29.3705 29.3705 31.157 27.1745 31.157H12.8237C10.6278 31.157 8.84125 29.3705 8.84125 27.1745V12.8237C8.84125 10.6278 10.6278 8.84125 12.8237 8.84125H27.1747C29.3705 8.84125 31.1571 10.6278 31.1571 12.8237L31.157 27.1745Z" fill="#C7AB80"/>
<path d="M26.5148 19.6255C26.328 16.3026 23.624 13.6294 20.2993 13.4794C16.4627 13.3065 13.3044 16.4663 13.4796 20.3033C13.6316 23.6283 16.307 26.331 19.6302 26.5151C21.0327 26.5928 22.346 26.2239 23.443 25.539C23.7847 25.3256 23.8404 24.8504 23.5555 24.5656C23.5525 24.5626 23.5495 24.5596 23.5466 24.5566C23.339 24.349 23.017 24.3176 22.7676 24.4726C21.948 24.9819 20.9791 25.2727 19.9427 25.2619C17.0166 25.2311 14.6556 22.774 14.738 19.8489C14.8209 16.9051 17.3329 14.5582 20.3362 14.7464C22.9241 14.9086 25.0307 16.9722 25.2439 19.5565C25.3307 20.6092 25.1043 21.6038 24.6494 22.4594C24.5191 22.7044 24.5593 23.0048 24.7555 23.201C24.7587 23.2042 24.762 23.2075 24.7652 23.2107C25.0599 23.5055 25.5584 23.4362 25.7554 23.0688C26.3009 22.0512 26.585 20.8737 26.5148 19.6255Z" fill="#C7AB80"/>
<path d="M26.7389 14.1028C27.6691 14.1028 28.4231 13.3488 28.4231 12.4186C28.4231 11.4884 27.6691 10.7344 26.7389 10.7344C25.8087 10.7344 25.0547 11.4884 25.0547 12.4186C25.0547 13.3488 25.8087 14.1028 26.7389 14.1028Z" fill="#C7AB80"/>
</g>
<defs>
<clipPath id="clip0_178_228">
<rect width="40" height="40" fill="white"/>
</clipPath>
</defs>
</svg>
