<svg width="885" height="298" viewBox="0 0 885 298" fill="none" xmlns="http://www.w3.org/2000/svg">
<path d="M38.909 60.112C36.753 60.112 35.255 58.67 35.255 56.976C35.255 55.786 35.605 55.03 36.487 53.98L39.343 50.536H41.541L38.825 53.854C38.979 53.798 39.133 53.784 39.287 53.784C41.219 53.784 42.577 55.058 42.577 56.85C42.577 58.67 41.065 60.112 38.909 60.112ZM38.923 58.488C39.805 58.488 40.561 57.928 40.561 56.92C40.561 55.842 39.805 55.31 38.923 55.31C38.041 55.31 37.285 55.8 37.285 56.906C37.285 57.928 38.041 58.488 38.923 58.488ZM43.601 55.282C43.601 52.146 44.917 50.396 47.255 50.396C49.593 50.396 50.923 52.146 50.923 55.282C50.923 58.404 49.621 60.14 47.255 60.14C44.889 60.14 43.601 58.404 43.601 55.282ZM45.603 55.282C45.603 57.312 46.163 58.404 47.255 58.404C48.333 58.404 48.921 57.312 48.921 55.282C48.921 53.238 48.333 52.132 47.255 52.132C46.191 52.132 45.603 53.238 45.603 55.282ZM57.8844 56.332C56.1204 56.332 54.8184 55.002 54.8184 53.392C54.8184 51.768 56.1204 50.452 57.8844 50.452C59.6344 50.452 60.9504 51.768 60.9504 53.392C60.9504 55.002 59.6344 56.332 57.8844 56.332ZM60.2084 60H58.6544L64.0304 50.536H65.5844L60.2084 60ZM57.8844 54.96C58.6824 54.96 59.3544 54.428 59.3544 53.392C59.3544 52.356 58.6824 51.824 57.8844 51.824C57.1004 51.824 56.4004 52.356 56.4004 53.392C56.4004 54.428 57.1004 54.96 57.8844 54.96ZM66.5924 60.126C64.8284 60.126 63.5264 58.796 63.5264 57.186C63.5264 55.562 64.8284 54.246 66.5924 54.246C68.3564 54.246 69.6584 55.562 69.6584 57.186C69.6584 58.796 68.3564 60.126 66.5924 60.126ZM66.5924 58.74C67.3904 58.74 68.0764 58.222 68.0764 57.186C68.0764 56.136 67.3904 55.618 66.5924 55.618C65.8084 55.618 65.1084 56.136 65.1084 57.186C65.1084 58.222 65.8084 58.74 66.5924 58.74Z" fill="white"/>
<path d="M42.5969 123.138H41.2669V125H39.3349V123.138H34.8409V121.696L39.7269 115.536H41.2669V121.444H42.5969V123.138ZM36.9689 121.444H39.3349V118.322L36.9689 121.444ZM43.601 120.282C43.601 117.146 44.917 115.396 47.255 115.396C49.593 115.396 50.923 117.146 50.923 120.282C50.923 123.404 49.621 125.14 47.255 125.14C44.889 125.14 43.601 123.404 43.601 120.282ZM45.603 120.282C45.603 122.312 46.163 123.404 47.255 123.404C48.333 123.404 48.921 122.312 48.921 120.282C48.921 118.238 48.333 117.132 47.255 117.132C46.191 117.132 45.603 118.238 45.603 120.282ZM57.8844 121.332C56.1204 121.332 54.8184 120.002 54.8184 118.392C54.8184 116.768 56.1204 115.452 57.8844 115.452C59.6344 115.452 60.9504 116.768 60.9504 118.392C60.9504 120.002 59.6344 121.332 57.8844 121.332ZM60.2084 125H58.6544L64.0304 115.536H65.5844L60.2084 125ZM57.8844 119.96C58.6824 119.96 59.3544 119.428 59.3544 118.392C59.3544 117.356 58.6824 116.824 57.8844 116.824C57.1004 116.824 56.4004 117.356 56.4004 118.392C56.4004 119.428 57.1004 119.96 57.8844 119.96ZM66.5924 125.126C64.8284 125.126 63.5264 123.796 63.5264 122.186C63.5264 120.562 64.8284 119.246 66.5924 119.246C68.3564 119.246 69.6584 120.562 69.6584 122.186C69.6584 123.796 68.3564 125.126 66.5924 125.126ZM66.5924 123.74C67.3904 123.74 68.0764 123.222 68.0764 122.186C68.0764 121.136 67.3904 120.618 66.5924 120.618C65.8084 120.618 65.1084 121.136 65.1084 122.186C65.1084 123.222 65.8084 123.74 66.5924 123.74Z" fill="white"/>
<path d="M42.4304 184.264V186H35.8224V184.894L38.6924 181.954C39.7844 180.834 40.2464 180.246 40.2464 179.42C40.2464 178.65 39.7284 178.132 38.9024 178.132C37.9924 178.132 37.4324 178.706 37.4324 179.63H35.5424C35.5424 177.74 36.9704 176.396 39.0004 176.396C40.8904 176.396 42.2764 177.586 42.2764 179.182C42.2764 180.33 41.8564 181.058 40.2044 182.724L38.7764 184.264H42.4304ZM43.601 181.282C43.601 178.146 44.917 176.396 47.255 176.396C49.593 176.396 50.923 178.146 50.923 181.282C50.923 184.404 49.621 186.14 47.255 186.14C44.889 186.14 43.601 184.404 43.601 181.282ZM45.603 181.282C45.603 183.312 46.163 184.404 47.255 184.404C48.333 184.404 48.921 183.312 48.921 181.282C48.921 179.238 48.333 178.132 47.255 178.132C46.191 178.132 45.603 179.238 45.603 181.282ZM57.8844 182.332C56.1204 182.332 54.8184 181.002 54.8184 179.392C54.8184 177.768 56.1204 176.452 57.8844 176.452C59.6344 176.452 60.9504 177.768 60.9504 179.392C60.9504 181.002 59.6344 182.332 57.8844 182.332ZM60.2084 186H58.6544L64.0304 176.536H65.5844L60.2084 186ZM57.8844 180.96C58.6824 180.96 59.3544 180.428 59.3544 179.392C59.3544 178.356 58.6824 177.824 57.8844 177.824C57.1004 177.824 56.4004 178.356 56.4004 179.392C56.4004 180.428 57.1004 180.96 57.8844 180.96ZM66.5924 186.126C64.8284 186.126 63.5264 184.796 63.5264 183.186C63.5264 181.562 64.8284 180.246 66.5924 180.246C68.3564 180.246 69.6584 181.562 69.6584 183.186C69.6584 184.796 68.3564 186.126 66.5924 186.126ZM66.5924 184.74C67.3904 184.74 68.0764 184.222 68.0764 183.186C68.0764 182.136 67.3904 181.618 66.5924 181.618C65.8084 181.618 65.1084 182.136 65.1084 183.186C65.1084 184.222 65.8084 184.74 66.5924 184.74Z" fill="white"/>
<path d="M43.601 246.282C43.601 243.146 44.917 241.396 47.255 241.396C49.593 241.396 50.923 243.146 50.923 246.282C50.923 249.404 49.621 251.14 47.255 251.14C44.889 251.14 43.601 249.404 43.601 246.282ZM45.603 246.282C45.603 248.312 46.163 249.404 47.255 249.404C48.333 249.404 48.921 248.312 48.921 246.282C48.921 244.238 48.333 243.132 47.255 243.132C46.191 243.132 45.603 244.238 45.603 246.282ZM57.8844 247.332C56.1204 247.332 54.8184 246.002 54.8184 244.392C54.8184 242.768 56.1204 241.452 57.8844 241.452C59.6344 241.452 60.9504 242.768 60.9504 244.392C60.9504 246.002 59.6344 247.332 57.8844 247.332ZM60.2084 251H58.6544L64.0304 241.536H65.5844L60.2084 251ZM57.8844 245.96C58.6824 245.96 59.3544 245.428 59.3544 244.392C59.3544 243.356 58.6824 242.824 57.8844 242.824C57.1004 242.824 56.4004 243.356 56.4004 244.392C56.4004 245.428 57.1004 245.96 57.8844 245.96ZM66.5924 251.126C64.8284 251.126 63.5264 249.796 63.5264 248.186C63.5264 246.562 64.8284 245.246 66.5924 245.246C68.3564 245.246 69.6584 246.562 69.6584 248.186C69.6584 249.796 68.3564 251.126 66.5924 251.126ZM66.5924 249.74C67.3904 249.74 68.0764 249.222 68.0764 248.186C68.0764 247.136 67.3904 246.618 66.5924 246.618C65.8084 246.618 65.1084 247.136 65.1084 248.186C65.1084 249.222 65.8084 249.74 66.5924 249.74Z" fill="white"/>
<path d="M104.004 294H102.058V286.216H100.266V284.536H104.004V294ZM109.371 296.702H107.453L113.627 283.948H115.545L109.371 296.702ZM125.231 292.264V294H118.623V292.894L121.493 289.954C122.585 288.834 123.047 288.246 123.047 287.42C123.047 286.65 122.529 286.132 121.703 286.132C120.793 286.132 120.233 286.706 120.233 287.63H118.343C118.343 285.74 119.771 284.396 121.801 284.396C123.691 284.396 125.077 285.586 125.077 287.182C125.077 288.33 124.657 289.058 123.005 290.724L121.577 292.264H125.231ZM129.692 294.126C127.648 294.126 126.206 292.922 126.192 291.214H128.082C128.138 292.068 128.754 292.586 129.72 292.586C130.728 292.586 131.316 292.082 131.316 291.242C131.316 290.416 130.63 289.926 129.468 289.926H128.446V288.386H129.356C130.308 288.386 130.882 287.91 130.882 287.14C130.882 286.398 130.392 285.936 129.58 285.936C128.782 285.936 128.278 286.44 128.264 287.266H126.374C126.388 285.628 127.816 284.396 129.678 284.396C131.666 284.396 132.884 285.474 132.884 287C132.884 287.868 132.38 288.554 131.47 289.03C132.646 289.408 133.318 290.164 133.318 291.186C133.318 292.936 131.862 294.126 129.692 294.126Z" fill="white"/>
<path d="M171.28 292.264V294H164.672V292.894L167.542 289.954C168.634 288.834 169.096 288.246 169.096 287.42C169.096 286.65 168.578 286.132 167.752 286.132C166.842 286.132 166.282 286.706 166.282 287.63H164.392C164.392 285.74 165.82 284.396 167.85 284.396C169.74 284.396 171.126 285.586 171.126 287.182C171.126 288.33 170.706 289.058 169.054 290.724L167.626 292.264H171.28ZM176.146 296.702H174.228L180.402 283.948H182.32L176.146 296.702ZM192.007 292.264V294H185.399V292.894L188.269 289.954C189.361 288.834 189.823 288.246 189.823 287.42C189.823 286.65 189.305 286.132 188.479 286.132C187.569 286.132 187.009 286.706 187.009 287.63H185.119C185.119 285.74 186.547 284.396 188.577 284.396C190.467 284.396 191.853 285.586 191.853 287.182C191.853 288.33 191.433 289.058 189.781 290.724L188.353 292.264H192.007ZM196.468 294.126C194.424 294.126 192.982 292.922 192.968 291.214H194.858C194.914 292.068 195.53 292.586 196.496 292.586C197.504 292.586 198.092 292.082 198.092 291.242C198.092 290.416 197.406 289.926 196.244 289.926H195.222V288.386H196.132C197.084 288.386 197.658 287.91 197.658 287.14C197.658 286.398 197.168 285.936 196.356 285.936C195.558 285.936 195.054 286.44 195.04 287.266H193.15C193.164 285.628 194.592 284.396 196.454 284.396C198.442 284.396 199.66 285.474 199.66 287C199.66 287.868 199.156 288.554 198.246 289.03C199.422 289.408 200.094 290.164 200.094 291.186C200.094 292.936 198.638 294.126 196.468 294.126Z" fill="white"/>
<path d="M234.962 294.126C232.918 294.126 231.476 292.922 231.462 291.214H233.352C233.408 292.068 234.024 292.586 234.99 292.586C235.998 292.586 236.586 292.082 236.586 291.242C236.586 290.416 235.9 289.926 234.738 289.926H233.716V288.386H234.626C235.578 288.386 236.152 287.91 236.152 287.14C236.152 286.398 235.662 285.936 234.85 285.936C234.052 285.936 233.548 286.44 233.534 287.266H231.644C231.658 285.628 233.086 284.396 234.948 284.396C236.936 284.396 238.154 285.474 238.154 287C238.154 287.868 237.65 288.554 236.74 289.03C237.916 289.408 238.588 290.164 238.588 291.186C238.588 292.936 237.132 294.126 234.962 294.126ZM243.42 296.702H241.502L247.676 283.948H249.594L243.42 296.702ZM259.28 292.264V294H252.672V292.894L255.542 289.954C256.634 288.834 257.096 288.246 257.096 287.42C257.096 286.65 256.578 286.132 255.752 286.132C254.842 286.132 254.282 286.706 254.282 287.63H252.392C252.392 285.74 253.82 284.396 255.85 284.396C257.74 284.396 259.126 285.586 259.126 287.182C259.126 288.33 258.706 289.058 257.054 290.724L255.626 292.264H259.28ZM263.741 294.126C261.697 294.126 260.255 292.922 260.241 291.214H262.131C262.187 292.068 262.803 292.586 263.769 292.586C264.777 292.586 265.365 292.082 265.365 291.242C265.365 290.416 264.679 289.926 263.517 289.926H262.495V288.386H263.405C264.357 288.386 264.931 287.91 264.931 287.14C264.931 286.398 264.441 285.936 263.629 285.936C262.831 285.936 262.327 286.44 262.313 287.266H260.423C260.437 285.628 261.865 284.396 263.727 284.396C265.715 284.396 266.933 285.474 266.933 287C266.933 287.868 266.429 288.554 265.519 289.03C266.695 289.408 267.367 290.164 267.367 291.186C267.367 292.936 265.911 294.126 263.741 294.126Z" fill="white"/>
<path d="M305.966 292.138H304.636V294H302.704V292.138H298.21V290.696L303.096 284.536H304.636V290.444H305.966V292.138ZM300.338 290.444H302.704V287.322L300.338 290.444ZM310.666 296.702H308.748L314.922 283.948H316.84L310.666 296.702ZM326.526 292.264V294H319.918V292.894L322.788 289.954C323.88 288.834 324.342 288.246 324.342 287.42C324.342 286.65 323.824 286.132 322.998 286.132C322.088 286.132 321.528 286.706 321.528 287.63H319.638C319.638 285.74 321.066 284.396 323.096 284.396C324.986 284.396 326.372 285.586 326.372 287.182C326.372 288.33 325.952 289.058 324.3 290.724L322.872 292.264H326.526ZM330.987 294.126C328.943 294.126 327.501 292.922 327.487 291.214H329.377C329.433 292.068 330.049 292.586 331.015 292.586C332.023 292.586 332.611 292.082 332.611 291.242C332.611 290.416 331.925 289.926 330.763 289.926H329.741V288.386H330.651C331.603 288.386 332.177 287.91 332.177 287.14C332.177 286.398 331.687 285.936 330.875 285.936C330.077 285.936 329.573 286.44 329.559 287.266H327.669C327.683 285.628 329.111 284.396 330.973 284.396C332.961 284.396 334.179 285.474 334.179 287C334.179 287.868 333.675 288.554 332.765 289.03C333.941 289.408 334.613 290.164 334.613 291.186C334.613 292.936 333.157 294.126 330.987 294.126Z" fill="white"/>
<path d="M370.018 294.14C368.002 294.14 366.476 292.88 366.42 291.116H368.366C368.478 291.942 369.122 292.404 370.004 292.404C371.152 292.404 371.586 291.676 371.586 290.906C371.586 290.164 371.096 289.408 369.948 289.408C369.192 289.408 368.632 289.716 368.338 290.36L366.742 289.842L367.568 284.536H373.042V286.272H368.982L368.688 288.204C369.164 287.896 369.71 287.756 370.27 287.756C372.524 287.756 373.602 289.31 373.602 290.906C373.602 292.53 372.398 294.14 370.018 294.14ZM378.338 296.702H376.42L382.594 283.948H384.512L378.338 296.702ZM394.198 292.264V294H387.59V292.894L390.46 289.954C391.552 288.834 392.014 288.246 392.014 287.42C392.014 286.65 391.496 286.132 390.67 286.132C389.76 286.132 389.2 286.706 389.2 287.63H387.31C387.31 285.74 388.738 284.396 390.768 284.396C392.658 284.396 394.044 285.586 394.044 287.182C394.044 288.33 393.624 289.058 391.972 290.724L390.544 292.264H394.198ZM398.659 294.126C396.615 294.126 395.173 292.922 395.159 291.214H397.049C397.105 292.068 397.721 292.586 398.687 292.586C399.695 292.586 400.283 292.082 400.283 291.242C400.283 290.416 399.597 289.926 398.435 289.926H397.413V288.386H398.323C399.275 288.386 399.849 287.91 399.849 287.14C399.849 286.398 399.359 285.936 398.547 285.936C397.749 285.936 397.245 286.44 397.231 287.266H395.341C395.355 285.628 396.783 284.396 398.645 284.396C400.633 284.396 401.851 285.474 401.851 287C401.851 287.868 401.347 288.554 400.437 289.03C401.613 289.408 402.285 290.164 402.285 291.186C402.285 292.936 400.829 294.126 398.659 294.126Z" fill="white"/>
<path d="M437.032 294.112C434.876 294.112 433.378 292.67 433.378 290.976C433.378 289.786 433.728 289.03 434.61 287.98L437.466 284.536H439.664L436.948 287.854C437.102 287.798 437.256 287.784 437.41 287.784C439.342 287.784 440.7 289.058 440.7 290.85C440.7 292.67 439.188 294.112 437.032 294.112ZM437.046 292.488C437.928 292.488 438.684 291.928 438.684 290.92C438.684 289.842 437.928 289.31 437.046 289.31C436.164 289.31 435.408 289.8 435.408 290.906C435.408 291.928 436.164 292.488 437.046 292.488ZM445.42 296.702H443.502L449.676 283.948H451.594L445.42 296.702ZM461.28 292.264V294H454.672V292.894L457.542 289.954C458.634 288.834 459.096 288.246 459.096 287.42C459.096 286.65 458.578 286.132 457.752 286.132C456.842 286.132 456.282 286.706 456.282 287.63H454.392C454.392 285.74 455.82 284.396 457.85 284.396C459.74 284.396 461.126 285.586 461.126 287.182C461.126 288.33 460.706 289.058 459.054 290.724L457.626 292.264H461.28ZM465.741 294.126C463.697 294.126 462.255 292.922 462.241 291.214H464.131C464.187 292.068 464.803 292.586 465.769 292.586C466.777 292.586 467.365 292.082 467.365 291.242C467.365 290.416 466.679 289.926 465.517 289.926H464.495V288.386H465.405C466.357 288.386 466.931 287.91 466.931 287.14C466.931 286.398 466.441 285.936 465.629 285.936C464.831 285.936 464.327 286.44 464.313 287.266H462.423C462.437 285.628 463.865 284.396 465.727 284.396C467.715 284.396 468.933 285.474 468.933 287C468.933 287.868 468.429 288.554 467.519 289.03C468.695 289.408 469.367 290.164 469.367 291.186C469.367 292.936 467.911 294.126 465.741 294.126Z" fill="white"/>
<path d="M506.902 285.67L503.402 294H501.316L504.746 286.272H500.252V284.536H506.902V285.67ZM511.531 296.702H509.613L515.787 283.948H517.705L511.531 296.702ZM527.391 292.264V294H520.783V292.894L523.653 289.954C524.745 288.834 525.207 288.246 525.207 287.42C525.207 286.65 524.689 286.132 523.863 286.132C522.953 286.132 522.393 286.706 522.393 287.63H520.503C520.503 285.74 521.931 284.396 523.961 284.396C525.851 284.396 527.237 285.586 527.237 287.182C527.237 288.33 526.817 289.058 525.165 290.724L523.737 292.264H527.391ZM531.853 294.126C529.809 294.126 528.367 292.922 528.353 291.214H530.243C530.299 292.068 530.915 292.586 531.881 292.586C532.889 292.586 533.477 292.082 533.477 291.242C533.477 290.416 532.791 289.926 531.629 289.926H530.607V288.386H531.517C532.469 288.386 533.043 287.91 533.043 287.14C533.043 286.398 532.553 285.936 531.741 285.936C530.943 285.936 530.439 286.44 530.425 287.266H528.535C528.549 285.628 529.977 284.396 531.839 284.396C533.827 284.396 535.045 285.474 535.045 287C535.045 287.868 534.541 288.554 533.631 289.03C534.807 289.408 535.479 290.164 535.479 291.186C535.479 292.936 534.023 294.126 531.853 294.126Z" fill="white"/>
<path d="M573.784 291.256C573.784 292.936 572.328 294.126 570.158 294.126C567.946 294.126 566.504 292.936 566.504 291.256C566.504 290.22 567.176 289.492 568.1 289.086C567.358 288.68 566.826 288.022 566.826 287.112C566.826 285.544 568.17 284.396 570.158 284.396C572.118 284.396 573.462 285.544 573.462 287.112C573.462 288.022 572.93 288.68 572.188 289.086C573.098 289.492 573.784 290.22 573.784 291.256ZM568.828 287.182C568.828 287.896 569.332 288.344 570.158 288.344C570.956 288.344 571.474 287.896 571.474 287.182C571.474 286.412 570.956 285.936 570.158 285.936C569.332 285.936 568.828 286.412 568.828 287.182ZM568.506 291.214C568.506 292.068 569.136 292.586 570.158 292.586C571.152 292.586 571.796 292.068 571.796 291.214C571.796 290.402 571.152 289.884 570.158 289.884C569.136 289.884 568.506 290.402 568.506 291.214ZM578.625 296.702H576.707L582.881 283.948H584.799L578.625 296.702ZM594.485 292.264V294H587.877V292.894L590.747 289.954C591.839 288.834 592.301 288.246 592.301 287.42C592.301 286.65 591.783 286.132 590.957 286.132C590.047 286.132 589.487 286.706 589.487 287.63H587.597C587.597 285.74 589.025 284.396 591.055 284.396C592.945 284.396 594.331 285.586 594.331 287.182C594.331 288.33 593.911 289.058 592.259 290.724L590.831 292.264H594.485ZM598.946 294.126C596.902 294.126 595.46 292.922 595.446 291.214H597.336C597.392 292.068 598.008 292.586 598.974 292.586C599.982 292.586 600.57 292.082 600.57 291.242C600.57 290.416 599.884 289.926 598.722 289.926H597.7V288.386H598.61C599.562 288.386 600.136 287.91 600.136 287.14C600.136 286.398 599.646 285.936 598.834 285.936C598.036 285.936 597.532 286.44 597.518 287.266H595.628C595.642 285.628 597.07 284.396 598.932 284.396C600.92 284.396 602.138 285.474 602.138 287C602.138 287.868 601.634 288.554 600.724 289.03C601.9 289.408 602.572 290.164 602.572 291.186C602.572 292.936 601.116 294.126 598.946 294.126Z" fill="white"/>
<path d="M638.046 284.424C640.188 284.424 641.7 285.866 641.7 287.56C641.7 288.722 641.364 289.478 640.454 290.556L637.612 294H635.414L638.13 290.682C637.962 290.738 637.808 290.752 637.654 290.752C635.722 290.752 634.378 289.478 634.378 287.686C634.378 285.866 635.876 284.424 638.046 284.424ZM638.032 286.048C637.136 286.048 636.394 286.608 636.394 287.616C636.394 288.694 637.136 289.226 638.032 289.226C638.9 289.226 639.67 288.736 639.67 287.63C639.67 286.608 638.9 286.048 638.032 286.048ZM646.42 296.702H644.502L650.676 283.948H652.594L646.42 296.702ZM662.28 292.264V294H655.672V292.894L658.542 289.954C659.634 288.834 660.096 288.246 660.096 287.42C660.096 286.65 659.578 286.132 658.752 286.132C657.842 286.132 657.282 286.706 657.282 287.63H655.392C655.392 285.74 656.82 284.396 658.85 284.396C660.74 284.396 662.126 285.586 662.126 287.182C662.126 288.33 661.706 289.058 660.054 290.724L658.626 292.264H662.28ZM666.741 294.126C664.697 294.126 663.255 292.922 663.241 291.214H665.131C665.187 292.068 665.803 292.586 666.769 292.586C667.777 292.586 668.365 292.082 668.365 291.242C668.365 290.416 667.679 289.926 666.517 289.926H665.495V288.386H666.405C667.357 288.386 667.931 287.91 667.931 287.14C667.931 286.398 667.441 285.936 666.629 285.936C665.831 285.936 665.327 286.44 665.313 287.266H663.423C663.437 285.628 664.865 284.396 666.727 284.396C668.715 284.396 669.933 285.474 669.933 287C669.933 287.868 669.429 288.554 668.519 289.03C669.695 289.408 670.367 290.164 670.367 291.186C670.367 292.936 668.911 294.126 666.741 294.126Z" fill="white"/>
<path d="M705.004 294H703.058V286.216H701.266V284.536H705.004V294ZM706.675 289.282C706.675 286.146 707.991 284.396 710.329 284.396C712.667 284.396 713.997 286.146 713.997 289.282C713.997 292.404 712.695 294.14 710.329 294.14C707.963 294.14 706.675 292.404 706.675 289.282ZM708.677 289.282C708.677 291.312 709.237 292.404 710.329 292.404C711.407 292.404 711.995 291.312 711.995 289.282C711.995 287.238 711.407 286.132 710.329 286.132C709.265 286.132 708.677 287.238 708.677 289.282ZM718.971 296.702H717.053L723.227 283.948H725.145L718.971 296.702ZM734.831 292.264V294H728.223V292.894L731.093 289.954C732.185 288.834 732.647 288.246 732.647 287.42C732.647 286.65 732.129 286.132 731.303 286.132C730.393 286.132 729.833 286.706 729.833 287.63H727.943C727.943 285.74 729.371 284.396 731.401 284.396C733.291 284.396 734.677 285.586 734.677 287.182C734.677 288.33 734.257 289.058 732.605 290.724L731.177 292.264H734.831ZM739.292 294.126C737.248 294.126 735.806 292.922 735.792 291.214H737.682C737.738 292.068 738.354 292.586 739.32 292.586C740.328 292.586 740.916 292.082 740.916 291.242C740.916 290.416 740.23 289.926 739.068 289.926H738.046V288.386H738.956C739.908 288.386 740.482 287.91 740.482 287.14C740.482 286.398 739.992 285.936 739.18 285.936C738.382 285.936 737.878 286.44 737.864 287.266H735.974C735.988 285.628 737.416 284.396 739.278 284.396C741.266 284.396 742.484 285.474 742.484 287C742.484 287.868 741.98 288.554 741.07 289.03C742.246 289.408 742.918 290.164 742.918 291.186C742.918 292.936 741.462 294.126 739.292 294.126Z" fill="white"/>
<path d="M778.004 294H776.058V286.216H774.266V284.536H778.004V294ZM783.035 294H781.089V286.216H779.297V284.536H783.035V294ZM788.402 296.702H786.484L792.658 283.948H794.576L788.402 296.702ZM804.262 292.264V294H797.654V292.894L800.524 289.954C801.616 288.834 802.078 288.246 802.078 287.42C802.078 286.65 801.56 286.132 800.734 286.132C799.824 286.132 799.264 286.706 799.264 287.63H797.374C797.374 285.74 798.802 284.396 800.832 284.396C802.722 284.396 804.108 285.586 804.108 287.182C804.108 288.33 803.688 289.058 802.036 290.724L800.608 292.264H804.262ZM808.724 294.126C806.68 294.126 805.238 292.922 805.224 291.214H807.114C807.17 292.068 807.786 292.586 808.752 292.586C809.76 292.586 810.348 292.082 810.348 291.242C810.348 290.416 809.662 289.926 808.5 289.926H807.478V288.386H808.388C809.34 288.386 809.914 287.91 809.914 287.14C809.914 286.398 809.424 285.936 808.612 285.936C807.814 285.936 807.31 286.44 807.296 287.266H805.406C805.42 285.628 806.848 284.396 808.71 284.396C810.698 284.396 811.916 285.474 811.916 287C811.916 287.868 811.412 288.554 810.502 289.03C811.678 289.408 812.35 290.164 812.35 291.186C812.35 292.936 810.894 294.126 808.724 294.126Z" fill="white"/>
<path d="M847.004 294H845.058V286.216H843.266V284.536H847.004V294ZM855.311 292.264V294H848.703V292.894L851.573 289.954C852.665 288.834 853.127 288.246 853.127 287.42C853.127 286.65 852.609 286.132 851.783 286.132C850.873 286.132 850.313 286.706 850.313 287.63H848.423C848.423 285.74 849.851 284.396 851.881 284.396C853.771 284.396 855.157 285.586 855.157 287.182C855.157 288.33 854.737 289.058 853.085 290.724L851.657 292.264H855.311ZM860.178 296.702H858.26L864.434 283.948H866.352L860.178 296.702ZM876.038 292.264V294H869.43V292.894L872.3 289.954C873.392 288.834 873.854 288.246 873.854 287.42C873.854 286.65 873.336 286.132 872.51 286.132C871.6 286.132 871.04 286.706 871.04 287.63H869.15C869.15 285.74 870.578 284.396 872.608 284.396C874.498 284.396 875.884 285.586 875.884 287.182C875.884 288.33 875.464 289.058 873.812 290.724L872.384 292.264H876.038ZM880.499 294.126C878.455 294.126 877.013 292.922 876.999 291.214H878.889C878.945 292.068 879.561 292.586 880.527 292.586C881.535 292.586 882.123 292.082 882.123 291.242C882.123 290.416 881.437 289.926 880.275 289.926H879.253V288.386H880.163C881.115 288.386 881.689 287.91 881.689 287.14C881.689 286.398 881.199 285.936 880.387 285.936C879.589 285.936 879.085 286.44 879.071 287.266H877.181C877.195 285.628 878.623 284.396 880.485 284.396C882.473 284.396 883.691 285.474 883.691 287C883.691 287.868 883.187 288.554 882.277 289.03C883.453 289.408 884.125 290.164 884.125 291.186C884.125 292.936 882.669 294.126 880.499 294.126Z" fill="white"/>
<g opacity="0.4">
<path d="M100 60L882 60.0001" stroke="white"/>
<path d="M100 125L882 125" stroke="white"/>
<path d="M100 190H882" stroke="white"/>
<path d="M100 255L882 255" stroke="white"/>
</g>
<path d="M15 245.497L12.004 246.659L12.004 251.601L15 252.763L15 253.435L4.948 249.473L4.948 248.731L15 244.797L15 245.497ZM5.662 249.123L11.43 251.377L11.43 246.883L5.662 249.123ZM15 240.153L15 242.757L4.948 242.757L4.948 240.153C4.948 236.919 6.992 235.197 9.946 235.197C12.83 235.197 15 236.989 15 240.153ZM5.536 242.071L14.412 242.071L14.412 240.153C14.412 237.409 12.578 235.883 9.946 235.883C7.3 235.883 5.536 237.381 5.536 240.153L5.536 242.071ZM4.948 227.702L11.766 227.702C14.076 227.702 15.21 229.018 15.21 230.922C15.21 232.728 14.09 234.002 12.2 234.114L12.2 233.428C13.768 233.316 14.608 232.266 14.608 230.922C14.608 229.494 13.782 228.388 11.864 228.388L4.948 228.388L4.948 227.702ZM4.948 218.005L11.682 218.005C13.908 218.005 15.21 219.447 15.21 221.519C15.21 223.605 13.908 225.033 11.682 225.033L4.948 225.033L4.948 224.347L11.738 224.347C13.516 224.347 14.608 223.129 14.608 221.519C14.608 219.909 13.516 218.677 11.738 218.677L4.948 218.677L4.948 218.005ZM12.34 208.471C13.824 208.471 15.14 209.689 15.14 211.971C15.14 214.239 13.852 215.541 12.018 215.625L12.018 214.925C13.558 214.813 14.566 213.861 14.566 211.971C14.566 210.417 13.754 209.171 12.41 209.171C11.234 209.171 10.73 209.815 10.394 211.439L10.156 212.587C9.904 213.847 9.358 215.317 7.58 215.317C6.04 215.317 4.808 213.959 4.808 212.013C4.808 210.151 5.998 208.681 7.874 208.583L7.874 209.297C6.432 209.381 5.382 210.445 5.382 212.013C5.382 213.707 6.446 214.617 7.552 214.617C8.91 214.617 9.302 213.483 9.568 212.237L9.806 211.103C10.156 209.437 10.8 208.471 12.34 208.471ZM15 203.117L15 203.789L5.55 203.789L5.55 207.233L4.948 207.233L4.948 199.687L5.55 199.687L5.55 203.117L15 203.117ZM14.412 192L15 192L15 197.782L4.948 197.782L4.948 192.098L5.536 192.098L5.536 197.096L9.512 197.096L9.512 192.518L10.1 192.518L10.1 197.096L14.412 197.096L14.412 192ZM15 186.924L15 189.528L4.948 189.528L4.948 186.924C4.948 183.69 6.992 181.968 9.946 181.968C12.83 181.968 15 183.76 15 186.924ZM5.536 188.842L14.412 188.842L14.412 186.924C14.412 184.18 12.578 182.654 9.946 182.654C7.3 182.654 5.536 184.152 5.536 186.924L5.536 188.842ZM11.15 173.275L11.15 175.739L15 175.739L15 176.425L4.948 176.425L4.948 173.275C4.948 171.329 6.068 169.957 8.042 169.957C10.03 169.957 11.15 171.329 11.15 173.275ZM5.536 173.289L5.536 175.739L10.576 175.739L10.576 173.289C10.576 171.679 9.666 170.629 8.056 170.629C6.432 170.629 5.536 171.679 5.536 173.289ZM15 161.344L12.004 162.506L12.004 167.448L15 168.61L15 169.282L4.948 165.32L4.948 164.578L15 160.644L15 161.344ZM5.662 164.97L11.43 167.224L11.43 162.73L5.662 164.97ZM15 157.918L15 158.604L4.948 158.604L4.94799 157.918L15 157.918ZM15 152.559L15 155.163L4.94799 155.163L4.94799 152.559C4.94799 149.325 6.99199 147.603 9.94599 147.603C12.83 147.603 15 149.395 15 152.559ZM5.53599 154.477L14.412 154.477L14.412 152.559C14.412 149.815 12.578 148.289 9.94599 148.289C7.3 148.289 5.53599 149.787 5.53599 152.559L5.53599 154.477ZM15.21 137.593C15.21 140.505 12.858 142.633 9.95999 142.633C7.06199 142.633 4.73799 140.505 4.73799 137.593C4.73799 134.681 7.06199 132.539 9.95999 132.539C12.858 132.539 15.21 134.681 15.21 137.593ZM14.608 137.593C14.608 135.031 12.564 133.253 9.95999 133.253C7.35599 133.253 5.33999 135.031 5.33999 137.593C5.33999 140.141 7.356 141.933 9.95999 141.933C12.564 141.933 14.608 140.141 14.608 137.593ZM15.21 126.076C15.21 128.848 12.928 130.934 9.95999 130.934C7.00599 130.934 4.73799 128.848 4.73799 126.076C4.73799 123.766 6.29199 121.82 8.62999 121.414L8.62999 122.128C6.72599 122.478 5.33999 124.088 5.33999 126.076C5.33999 128.47 7.32799 130.234 9.95999 130.234C12.62 130.234 14.608 128.47 14.608 126.076C14.608 124.06 13.208 122.45 11.304 122.128L11.304 121.414C13.628 121.806 15.21 123.766 15.21 126.076ZM15.21 114.937C15.21 117.709 12.928 119.795 9.95999 119.795C7.00599 119.795 4.73799 117.709 4.73799 114.937C4.73799 112.627 6.29199 110.681 8.62999 110.275L8.62999 110.989C6.72599 111.339 5.33999 112.949 5.33999 114.937C5.33999 117.331 7.32799 119.095 9.95999 119.095C12.62 119.095 14.608 117.331 14.608 114.937C14.608 112.921 13.208 111.311 11.304 110.989L11.304 110.275C13.628 110.667 15.21 112.627 15.21 114.937ZM4.94799 101.082L11.682 101.082C13.908 101.082 15.21 102.524 15.21 104.596C15.21 106.682 13.908 108.11 11.682 108.11L4.94799 108.11L4.94799 107.424L11.738 107.424C13.516 107.424 14.608 106.206 14.608 104.596C14.608 102.986 13.516 101.754 11.738 101.754L4.94799 101.754L4.94799 101.082ZM11.15 95.2019L11.15 97.6659L15 97.6659L15 98.3519L4.94799 98.3519L4.94799 95.2019C4.94799 93.2559 6.06799 91.8839 8.04199 91.8839C10.03 91.8839 11.15 93.2559 11.15 95.2019ZM5.53599 95.2159L5.53599 97.6659L10.576 97.6659L10.576 95.2159C10.576 93.6059 9.66599 92.5559 8.05599 92.5559C6.43199 92.5559 5.53599 93.6059 5.53599 95.2159ZM15 83.271L12.004 84.433L12.004 89.375L15 90.537L15 91.209L4.94799 87.247L4.94799 86.505L15 82.571L15 83.271ZM5.66199 86.897L11.43 89.151L11.43 84.657L5.66199 86.897ZM15 73.5874L5.91399 79.8874L15 79.8874L15 80.5314L4.94799 80.5314L4.94799 79.7614L14.02 73.4614L4.94799 73.4614L4.94799 72.8174L15 72.8174L15 73.5874ZM15.21 65.7649C15.21 68.5369 12.928 70.6229 9.95999 70.6229C7.00599 70.6229 4.73799 68.5369 4.73799 65.7649C4.73799 63.4549 6.29199 61.5089 8.62999 61.1029L8.62999 61.8169C6.72599 62.1669 5.33999 63.7769 5.33999 65.7649C5.33999 68.1589 7.32799 69.9229 9.95999 69.9229C12.62 69.9229 14.608 68.1589 14.608 65.7649C14.608 63.7489 13.208 62.1389 11.304 61.8169L11.304 61.1029C13.628 61.4949 15.21 63.4549 15.21 65.7649ZM11.234 56.2474L15 56.2474L15 56.9334L11.234 56.9334L4.94799 60.6294L4.94799 59.8734L10.576 56.5834L4.94799 53.2654L4.94799 52.5374L11.234 56.2474ZM11.332 45.3051C11.332 46.9711 10.03 48.0631 8.39199 48.0631C6.76799 48.0631 5.45199 46.9711 5.45199 45.3051C5.45199 43.6391 6.76799 42.5471 8.39199 42.5471C10.03 42.5471 11.332 43.6391 11.332 45.3051ZM15 43.7791L15 44.3531L5.53599 39.0471L5.53599 38.4591L15 43.7791ZM10.842 45.3051C10.842 44.1291 9.93199 43.1491 8.39199 43.1491C6.82399 43.1491 5.94199 44.1291 5.94199 45.3051C5.94199 46.4811 6.82399 47.4751 8.39199 47.4751C9.93199 47.4751 10.842 46.4811 10.842 45.3051ZM15.112 37.4511C15.112 39.1171 13.81 40.2091 12.172 40.2091C10.548 40.2091 9.23199 39.1171 9.23199 37.4511C9.23199 35.7851 10.548 34.6931 12.172 34.6931C13.81 34.6931 15.112 35.7851 15.112 37.4511ZM14.622 37.4511C14.622 36.2751 13.712 35.2951 12.172 35.2951C10.604 35.2951 9.73599 36.2751 9.73599 37.4511C9.73599 38.6271 10.604 39.6211 12.172 39.6211C13.712 39.6211 14.622 38.6271 14.622 37.4511Z" fill="white"/>
<path d="M98.5 82.9997C110.167 83.6663 137.6 81.1997 154 65.9997C174.5 46.9997 200 36.4997 224.5 36.4997C249 36.4997 260.5 33.4997 271.5 40.9997C282.5 48.4997 337 130.001 377 118.001C417 106.001 520 23.502 579.5 30.0008C639 36.4997 605.5 118.001 661 118.001C716.5 118.001 738.5 96.5 778.5 96.5C818.5 96.5 816.5 118.001 881 118.001" stroke="white" stroke-width="2"/>
<path d="M105.579 56.14C103.563 56.14 102.037 54.88 101.981 53.116H103.927C104.039 53.942 104.683 54.404 105.565 54.404C106.713 54.404 107.147 53.676 107.147 52.906C107.147 52.164 106.657 51.408 105.509 51.408C104.753 51.408 104.193 51.716 103.899 52.36L102.303 51.842L103.129 46.536H108.603V48.272H104.543L104.249 50.204C104.725 49.896 105.271 49.756 105.831 49.756C108.085 49.756 109.163 51.31 109.163 52.906C109.163 54.53 107.959 56.14 105.579 56.14ZM113.577 56.14C111.561 56.14 110.035 54.88 109.979 53.116H111.925C112.037 53.942 112.681 54.404 113.563 54.404C114.711 54.404 115.145 53.676 115.145 52.906C115.145 52.164 114.655 51.408 113.507 51.408C112.751 51.408 112.191 51.716 111.897 52.36L110.301 51.842L111.127 46.536H116.601V48.272H112.541L112.247 50.204C112.723 49.896 113.269 49.756 113.829 49.756C116.083 49.756 117.161 51.31 117.161 52.906C117.161 54.53 115.957 56.14 113.577 56.14ZM123.884 52.332C122.12 52.332 120.818 51.002 120.818 49.392C120.818 47.768 122.12 46.452 123.884 46.452C125.634 46.452 126.95 47.768 126.95 49.392C126.95 51.002 125.634 52.332 123.884 52.332ZM126.208 56H124.654L130.03 46.536H131.584L126.208 56ZM123.884 50.96C124.682 50.96 125.354 50.428 125.354 49.392C125.354 48.356 124.682 47.824 123.884 47.824C123.1 47.824 122.4 48.356 122.4 49.392C122.4 50.428 123.1 50.96 123.884 50.96ZM132.592 56.126C130.828 56.126 129.526 54.796 129.526 53.186C129.526 51.562 130.828 50.246 132.592 50.246C134.356 50.246 135.658 51.562 135.658 53.186C135.658 54.796 134.356 56.126 132.592 56.126ZM132.592 54.74C133.39 54.74 134.076 54.222 134.076 53.186C134.076 52.136 133.39 51.618 132.592 51.618C131.808 51.618 131.108 52.136 131.108 53.186C131.108 54.222 131.808 54.74 132.592 54.74Z" fill="white"/>
<path d="M172.169 26.112C170.013 26.112 168.515 24.67 168.515 22.976C168.515 21.786 168.865 21.03 169.747 19.98L172.603 16.536H174.801L172.085 19.854C172.239 19.798 172.393 19.784 172.547 19.784C174.479 19.784 175.837 21.058 175.837 22.85C175.837 24.67 174.325 26.112 172.169 26.112ZM172.183 24.488C173.065 24.488 173.821 23.928 173.821 22.92C173.821 21.842 173.065 21.31 172.183 21.31C171.301 21.31 170.545 21.8 170.545 22.906C170.545 23.928 171.301 24.488 172.183 24.488ZM184.055 23.256C184.055 24.936 182.599 26.126 180.429 26.126C178.217 26.126 176.775 24.936 176.775 23.256C176.775 22.22 177.447 21.492 178.371 21.086C177.629 20.68 177.097 20.022 177.097 19.112C177.097 17.544 178.441 16.396 180.429 16.396C182.389 16.396 183.733 17.544 183.733 19.112C183.733 20.022 183.201 20.68 182.459 21.086C183.369 21.492 184.055 22.22 184.055 23.256ZM179.099 19.182C179.099 19.896 179.603 20.344 180.429 20.344C181.227 20.344 181.745 19.896 181.745 19.182C181.745 18.412 181.227 17.936 180.429 17.936C179.603 17.936 179.099 18.412 179.099 19.182ZM178.777 23.214C178.777 24.068 179.407 24.586 180.429 24.586C181.423 24.586 182.067 24.068 182.067 23.214C182.067 22.402 181.423 21.884 180.429 21.884C179.407 21.884 178.777 22.402 178.777 23.214ZM190.884 22.332C189.12 22.332 187.818 21.002 187.818 19.392C187.818 17.768 189.12 16.452 190.884 16.452C192.634 16.452 193.95 17.768 193.95 19.392C193.95 21.002 192.634 22.332 190.884 22.332ZM193.208 26H191.654L197.03 16.536H198.584L193.208 26ZM190.884 20.96C191.682 20.96 192.354 20.428 192.354 19.392C192.354 18.356 191.682 17.824 190.884 17.824C190.1 17.824 189.4 18.356 189.4 19.392C189.4 20.428 190.1 20.96 190.884 20.96ZM199.592 26.126C197.828 26.126 196.526 24.796 196.526 23.186C196.526 21.562 197.828 20.246 199.592 20.246C201.356 20.246 202.658 21.562 202.658 23.186C202.658 24.796 201.356 26.126 199.592 26.126ZM199.592 24.74C200.39 24.74 201.076 24.222 201.076 23.186C201.076 22.136 200.39 21.618 199.592 21.618C198.808 21.618 198.108 22.136 198.108 23.186C198.108 24.222 198.808 24.74 199.592 24.74Z" fill="white"/>
<path d="M239.702 26.112C237.546 26.112 236.048 24.67 236.048 22.976C236.048 21.786 236.398 21.03 237.28 19.98L240.136 16.536H242.334L239.618 19.854C239.772 19.798 239.926 19.784 240.08 19.784C242.012 19.784 243.37 21.058 243.37 22.85C243.37 24.67 241.858 26.112 239.702 26.112ZM239.716 24.488C240.598 24.488 241.354 23.928 241.354 22.92C241.354 21.842 240.598 21.31 239.716 21.31C238.834 21.31 238.078 21.8 238.078 22.906C238.078 23.928 238.834 24.488 239.716 24.488ZM247.523 16.424C249.665 16.424 251.177 17.866 251.177 19.56C251.177 20.722 250.841 21.478 249.931 22.556L247.089 26H244.891L247.607 22.682C247.439 22.738 247.285 22.752 247.131 22.752C245.199 22.752 243.855 21.478 243.855 19.686C243.855 17.866 245.353 16.424 247.523 16.424ZM247.509 18.048C246.613 18.048 245.871 18.608 245.871 19.616C245.871 20.694 246.613 21.226 247.509 21.226C248.377 21.226 249.147 20.736 249.147 19.63C249.147 18.608 248.377 18.048 247.509 18.048ZM257.884 22.332C256.12 22.332 254.818 21.002 254.818 19.392C254.818 17.768 256.12 16.452 257.884 16.452C259.634 16.452 260.95 17.768 260.95 19.392C260.95 21.002 259.634 22.332 257.884 22.332ZM260.208 26H258.654L264.03 16.536H265.584L260.208 26ZM257.884 20.96C258.682 20.96 259.354 20.428 259.354 19.392C259.354 18.356 258.682 17.824 257.884 17.824C257.1 17.824 256.4 18.356 256.4 19.392C256.4 20.428 257.1 20.96 257.884 20.96ZM266.592 26.126C264.828 26.126 263.526 24.796 263.526 23.186C263.526 21.562 264.828 20.246 266.592 20.246C268.356 20.246 269.658 21.562 269.658 23.186C269.658 24.796 268.356 26.126 266.592 26.126ZM266.592 24.74C267.39 24.74 268.076 24.222 268.076 23.186C268.076 22.136 267.39 21.618 266.592 21.618C265.808 21.618 265.108 22.136 265.108 23.186C265.108 24.222 265.808 24.74 266.592 24.74Z" fill="white"/>
<path d="M303.073 60.112C300.917 60.112 299.419 58.67 299.419 56.976C299.419 55.786 299.769 55.03 300.651 53.98L303.507 50.536H305.705L302.989 53.854C303.143 53.798 303.297 53.784 303.451 53.784C305.383 53.784 306.741 55.058 306.741 56.85C306.741 58.67 305.229 60.112 303.073 60.112ZM303.087 58.488C303.969 58.488 304.725 57.928 304.725 56.92C304.725 55.842 303.969 55.31 303.087 55.31C302.205 55.31 301.449 55.8 301.449 56.906C301.449 57.928 302.205 58.488 303.087 58.488ZM315.196 58.138H313.866V60H311.934V58.138H307.44V56.696L312.326 50.536H313.866V56.444H315.196V58.138ZM309.568 56.444H311.934V53.322L309.568 56.444ZM321.884 56.332C320.12 56.332 318.818 55.002 318.818 53.392C318.818 51.768 320.12 50.452 321.884 50.452C323.634 50.452 324.95 51.768 324.95 53.392C324.95 55.002 323.634 56.332 321.884 56.332ZM324.208 60H322.654L328.03 50.536H329.584L324.208 60ZM321.884 54.96C322.682 54.96 323.354 54.428 323.354 53.392C323.354 52.356 322.682 51.824 321.884 51.824C321.1 51.824 320.4 52.356 320.4 53.392C320.4 54.428 321.1 54.96 321.884 54.96ZM330.592 60.126C328.828 60.126 327.526 58.796 327.526 57.186C327.526 55.562 328.828 54.246 330.592 54.246C332.356 54.246 333.658 55.562 333.658 57.186C333.658 58.796 332.356 60.126 330.592 60.126ZM330.592 58.74C331.39 58.74 332.076 58.222 332.076 57.186C332.076 56.136 331.39 55.618 330.592 55.618C329.808 55.618 329.108 56.136 329.108 57.186C329.108 58.222 329.808 58.74 330.592 58.74Z" fill="white"/>
<path d="M434.633 60.14C432.617 60.14 431.091 58.88 431.035 57.116H432.981C433.093 57.942 433.737 58.404 434.619 58.404C435.767 58.404 436.201 57.676 436.201 56.906C436.201 56.164 435.711 55.408 434.563 55.408C433.807 55.408 433.247 55.716 432.953 56.36L431.357 55.842L432.183 50.536H437.657V52.272H433.597L433.303 54.204C433.779 53.896 434.325 53.756 434.885 53.756C437.139 53.756 438.217 55.31 438.217 56.906C438.217 58.53 437.013 60.14 434.633 60.14ZM442.523 50.424C444.665 50.424 446.177 51.866 446.177 53.56C446.177 54.722 445.841 55.478 444.931 56.556L442.089 60H439.891L442.607 56.682C442.439 56.738 442.285 56.752 442.131 56.752C440.199 56.752 438.855 55.478 438.855 53.686C438.855 51.866 440.353 50.424 442.523 50.424ZM442.509 52.048C441.613 52.048 440.871 52.608 440.871 53.616C440.871 54.694 441.613 55.226 442.509 55.226C443.377 55.226 444.147 54.736 444.147 53.63C444.147 52.608 443.377 52.048 442.509 52.048ZM452.884 56.332C451.12 56.332 449.818 55.002 449.818 53.392C449.818 51.768 451.12 50.452 452.884 50.452C454.634 50.452 455.95 51.768 455.95 53.392C455.95 55.002 454.634 56.332 452.884 56.332ZM455.208 60H453.654L459.03 50.536H460.584L455.208 60ZM452.884 54.96C453.682 54.96 454.354 54.428 454.354 53.392C454.354 52.356 453.682 51.824 452.884 51.824C452.1 51.824 451.4 52.356 451.4 53.392C451.4 54.428 452.1 54.96 452.884 54.96ZM461.592 60.126C459.828 60.126 458.526 58.796 458.526 57.186C458.526 55.562 459.828 54.246 461.592 54.246C463.356 54.246 464.658 55.562 464.658 57.186C464.658 58.796 463.356 60.126 461.592 60.126ZM461.592 58.74C462.39 58.74 463.076 58.222 463.076 57.186C463.076 56.136 462.39 55.618 461.592 55.618C460.808 55.618 460.108 56.136 460.108 57.186C460.108 58.222 460.808 58.74 461.592 58.74Z" fill="white"/>
<path d="M503.319 30.112C501.163 30.112 499.665 28.67 499.665 26.976C499.665 25.786 500.015 25.03 500.897 23.98L503.753 20.536H505.951L503.235 23.854C503.389 23.798 503.543 23.784 503.697 23.784C505.629 23.784 506.987 25.058 506.987 26.85C506.987 28.67 505.475 30.112 503.319 30.112ZM503.333 28.488C504.215 28.488 504.971 27.928 504.971 26.92C504.971 25.842 504.215 25.31 503.333 25.31C502.451 25.31 501.695 25.8 501.695 26.906C501.695 27.928 502.451 28.488 503.333 28.488ZM511.509 30.112C509.353 30.112 507.855 28.67 507.855 26.976C507.855 25.786 508.205 25.03 509.087 23.98L511.943 20.536H514.141L511.425 23.854C511.579 23.798 511.733 23.784 511.887 23.784C513.819 23.784 515.177 25.058 515.177 26.85C515.177 28.67 513.665 30.112 511.509 30.112ZM511.523 28.488C512.405 28.488 513.161 27.928 513.161 26.92C513.161 25.842 512.405 25.31 511.523 25.31C510.641 25.31 509.885 25.8 509.885 26.906C509.885 27.928 510.641 28.488 511.523 28.488ZM521.884 26.332C520.12 26.332 518.818 25.002 518.818 23.392C518.818 21.768 520.12 20.452 521.884 20.452C523.634 20.452 524.95 21.768 524.95 23.392C524.95 25.002 523.634 26.332 521.884 26.332ZM524.208 30H522.654L528.03 20.536H529.584L524.208 30ZM521.884 24.96C522.682 24.96 523.354 24.428 523.354 23.392C523.354 22.356 522.682 21.824 521.884 21.824C521.1 21.824 520.4 22.356 520.4 23.392C520.4 24.428 521.1 24.96 521.884 24.96ZM530.592 30.126C528.828 30.126 527.526 28.796 527.526 27.186C527.526 25.562 528.828 24.246 530.592 24.246C532.356 24.246 533.658 25.562 533.658 27.186C533.658 28.796 532.356 30.126 530.592 30.126ZM530.592 28.74C531.39 28.74 532.076 28.222 532.076 27.186C532.076 26.136 531.39 25.618 530.592 25.618C529.808 25.618 529.108 26.136 529.108 27.186C529.108 28.222 529.808 28.74 530.592 28.74Z" fill="white"/>
<path d="M570.777 6.67L567.277 15H565.191L568.621 7.272H564.127V5.536H570.777V6.67ZM571.601 10.282C571.601 7.146 572.917 5.396 575.255 5.396C577.593 5.396 578.923 7.146 578.923 10.282C578.923 13.404 577.621 15.14 575.255 15.14C572.889 15.14 571.601 13.404 571.601 10.282ZM573.603 10.282C573.603 12.312 574.163 13.404 575.255 13.404C576.333 13.404 576.921 12.312 576.921 10.282C576.921 8.238 576.333 7.132 575.255 7.132C574.191 7.132 573.603 8.238 573.603 10.282ZM585.884 11.332C584.12 11.332 582.818 10.002 582.818 8.392C582.818 6.768 584.12 5.452 585.884 5.452C587.634 5.452 588.95 6.768 588.95 8.392C588.95 10.002 587.634 11.332 585.884 11.332ZM588.208 15H586.654L592.03 5.536H593.584L588.208 15ZM585.884 9.96C586.682 9.96 587.354 9.428 587.354 8.392C587.354 7.356 586.682 6.824 585.884 6.824C585.1 6.824 584.4 7.356 584.4 8.392C584.4 9.428 585.1 9.96 585.884 9.96ZM594.592 15.126C592.828 15.126 591.526 13.796 591.526 12.186C591.526 10.562 592.828 9.246 594.592 9.246C596.356 9.246 597.658 10.562 597.658 12.186C597.658 13.796 596.356 15.126 594.592 15.126ZM594.592 13.74C595.39 13.74 596.076 13.222 596.076 12.186C596.076 11.136 595.39 10.618 594.592 10.618C593.808 10.618 593.108 11.136 593.108 12.186C593.108 13.222 593.808 13.74 594.592 13.74Z" fill="white"/>
<path d="M642.144 104.138H640.814V106H638.882V104.138H634.388V102.696L639.274 96.536H640.814V102.444H642.144V104.138ZM636.516 102.444H638.882V99.322L636.516 102.444ZM646.577 106.14C644.561 106.14 643.035 104.88 642.979 103.116H644.925C645.037 103.942 645.681 104.404 646.563 104.404C647.711 104.404 648.145 103.676 648.145 102.906C648.145 102.164 647.655 101.408 646.507 101.408C645.751 101.408 645.191 101.716 644.897 102.36L643.301 101.842L644.127 96.536H649.601V98.272H645.541L645.247 100.204C645.723 99.896 646.269 99.756 646.829 99.756C649.083 99.756 650.161 101.31 650.161 102.906C650.161 104.53 648.957 106.14 646.577 106.14ZM656.884 102.332C655.12 102.332 653.818 101.002 653.818 99.392C653.818 97.768 655.12 96.452 656.884 96.452C658.634 96.452 659.95 97.768 659.95 99.392C659.95 101.002 658.634 102.332 656.884 102.332ZM659.208 106H657.654L663.03 96.536H664.584L659.208 106ZM656.884 100.96C657.682 100.96 658.354 100.428 658.354 99.392C658.354 98.356 657.682 97.824 656.884 97.824C656.1 97.824 655.4 98.356 655.4 99.392C655.4 100.428 656.1 100.96 656.884 100.96ZM665.592 106.126C663.828 106.126 662.526 104.796 662.526 103.186C662.526 101.562 663.828 100.246 665.592 100.246C667.356 100.246 668.658 101.562 668.658 103.186C668.658 104.796 667.356 106.126 665.592 106.126ZM665.592 104.74C666.39 104.74 667.076 104.222 667.076 103.186C667.076 102.136 666.39 101.618 665.592 101.618C664.808 101.618 664.108 102.136 664.108 103.186C664.108 104.222 664.808 104.74 665.592 104.74Z" fill="white"/>
<path d="M696.144 104.138H694.814V106H692.882V104.138H688.388V102.696L693.274 96.536H694.814V102.444H696.144V104.138ZM690.516 102.444H692.882V99.322L690.516 102.444ZM700.577 106.14C698.561 106.14 697.035 104.88 696.979 103.116H698.925C699.037 103.942 699.681 104.404 700.563 104.404C701.711 104.404 702.145 103.676 702.145 102.906C702.145 102.164 701.655 101.408 700.507 101.408C699.751 101.408 699.191 101.716 698.897 102.36L697.301 101.842L698.127 96.536H703.601V98.272H699.541L699.247 100.204C699.723 99.896 700.269 99.756 700.829 99.756C703.083 99.756 704.161 101.31 704.161 102.906C704.161 104.53 702.957 106.14 700.577 106.14ZM710.884 102.332C709.12 102.332 707.818 101.002 707.818 99.392C707.818 97.768 709.12 96.452 710.884 96.452C712.634 96.452 713.95 97.768 713.95 99.392C713.95 101.002 712.634 102.332 710.884 102.332ZM713.208 106H711.654L717.03 96.536H718.584L713.208 106ZM710.884 100.96C711.682 100.96 712.354 100.428 712.354 99.392C712.354 98.356 711.682 97.824 710.884 97.824C710.1 97.824 709.4 98.356 709.4 99.392C709.4 100.428 710.1 100.96 710.884 100.96ZM719.592 106.126C717.828 106.126 716.526 104.796 716.526 103.186C716.526 101.562 717.828 100.246 719.592 100.246C721.356 100.246 722.658 101.562 722.658 103.186C722.658 104.796 721.356 106.126 719.592 106.126ZM719.592 104.74C720.39 104.74 721.076 104.222 721.076 103.186C721.076 102.136 720.39 101.618 719.592 101.618C718.808 101.618 718.108 102.136 718.108 103.186C718.108 104.222 718.808 104.74 719.592 104.74Z" fill="white"/>
<path d="M770.977 87.14C768.961 87.14 767.435 85.88 767.379 84.116H769.325C769.437 84.942 770.081 85.404 770.963 85.404C772.111 85.404 772.545 84.676 772.545 83.906C772.545 83.164 772.055 82.408 770.907 82.408C770.151 82.408 769.591 82.716 769.297 83.36L767.701 82.842L768.527 77.536H774.001V79.272H769.941L769.647 81.204C770.123 80.896 770.669 80.756 771.229 80.756C773.483 80.756 774.561 82.31 774.561 83.906C774.561 85.53 773.357 87.14 770.977 87.14ZM775.601 82.282C775.601 79.146 776.917 77.396 779.255 77.396C781.593 77.396 782.923 79.146 782.923 82.282C782.923 85.404 781.621 87.14 779.255 87.14C776.889 87.14 775.601 85.404 775.601 82.282ZM777.603 82.282C777.603 84.312 778.163 85.404 779.255 85.404C780.333 85.404 780.921 84.312 780.921 82.282C780.921 80.238 780.333 79.132 779.255 79.132C778.191 79.132 777.603 80.238 777.603 82.282ZM789.884 83.332C788.12 83.332 786.818 82.002 786.818 80.392C786.818 78.768 788.12 77.452 789.884 77.452C791.634 77.452 792.95 78.768 792.95 80.392C792.95 82.002 791.634 83.332 789.884 83.332ZM792.208 87H790.654L796.03 77.536H797.584L792.208 87ZM789.884 81.96C790.682 81.96 791.354 81.428 791.354 80.392C791.354 79.356 790.682 78.824 789.884 78.824C789.1 78.824 788.4 79.356 788.4 80.392C788.4 81.428 789.1 81.96 789.884 81.96ZM798.592 87.126C796.828 87.126 795.526 85.796 795.526 84.186C795.526 82.562 796.828 81.246 798.592 81.246C800.356 81.246 801.658 82.562 801.658 84.186C801.658 85.796 800.356 87.126 798.592 87.126ZM798.592 85.74C799.39 85.74 800.076 85.222 800.076 84.186C800.076 83.136 799.39 82.618 798.592 82.618C797.808 82.618 797.108 83.136 797.108 84.186C797.108 85.222 797.808 85.74 798.592 85.74Z" fill="white"/>
<path d="M847.048 95.138H845.718V97H843.786V95.138H839.292V93.696L844.178 87.536H845.718V93.444H847.048V95.138ZM841.42 93.444H843.786V90.322L841.42 93.444ZM851.509 97.112C849.353 97.112 847.855 95.67 847.855 93.976C847.855 92.786 848.205 92.03 849.087 90.98L851.943 87.536H854.141L851.425 90.854C851.579 90.798 851.733 90.784 851.887 90.784C853.819 90.784 855.177 92.058 855.177 93.85C855.177 95.67 853.665 97.112 851.509 97.112ZM851.523 95.488C852.405 95.488 853.161 94.928 853.161 93.92C853.161 92.842 852.405 92.31 851.523 92.31C850.641 92.31 849.885 92.8 849.885 93.906C849.885 94.928 850.641 95.488 851.523 95.488ZM861.884 93.332C860.12 93.332 858.818 92.002 858.818 90.392C858.818 88.768 860.12 87.452 861.884 87.452C863.634 87.452 864.95 88.768 864.95 90.392C864.95 92.002 863.634 93.332 861.884 93.332ZM864.208 97H862.654L868.03 87.536H869.584L864.208 97ZM861.884 91.96C862.682 91.96 863.354 91.428 863.354 90.392C863.354 89.356 862.682 88.824 861.884 88.824C861.1 88.824 860.4 89.356 860.4 90.392C860.4 91.428 861.1 91.96 861.884 91.96ZM870.592 97.126C868.828 97.126 867.526 95.796 867.526 94.186C867.526 92.562 868.828 91.246 870.592 91.246C872.356 91.246 873.658 92.562 873.658 94.186C873.658 95.796 872.356 97.126 870.592 97.126ZM870.592 95.74C871.39 95.74 872.076 95.222 872.076 94.186C872.076 93.136 871.39 92.618 870.592 92.618C869.808 92.618 869.108 93.136 869.108 94.186C869.108 95.222 869.808 95.74 870.592 95.74Z" fill="white"/>
<path d="M361.144 107.138H359.814V109H357.882V107.138H353.388V105.696L358.274 99.536H359.814V105.444H361.144V107.138ZM355.516 105.444H357.882V102.322L355.516 105.444ZM365.577 109.14C363.561 109.14 362.035 107.88 361.979 106.116H363.925C364.037 106.942 364.681 107.404 365.563 107.404C366.711 107.404 367.145 106.676 367.145 105.906C367.145 105.164 366.655 104.408 365.507 104.408C364.751 104.408 364.191 104.716 363.897 105.36L362.301 104.842L363.127 99.536H368.601V101.272H364.541L364.247 103.204C364.723 102.896 365.269 102.756 365.829 102.756C368.083 102.756 369.161 104.31 369.161 105.906C369.161 107.53 367.957 109.14 365.577 109.14ZM375.884 105.332C374.12 105.332 372.818 104.002 372.818 102.392C372.818 100.768 374.12 99.452 375.884 99.452C377.634 99.452 378.95 100.768 378.95 102.392C378.95 104.002 377.634 105.332 375.884 105.332ZM378.208 109H376.654L382.03 99.536H383.584L378.208 109ZM375.884 103.96C376.682 103.96 377.354 103.428 377.354 102.392C377.354 101.356 376.682 100.824 375.884 100.824C375.1 100.824 374.4 101.356 374.4 102.392C374.4 103.428 375.1 103.96 375.884 103.96ZM384.592 109.126C382.828 109.126 381.526 107.796 381.526 106.186C381.526 104.562 382.828 103.246 384.592 103.246C386.356 103.246 387.658 104.562 387.658 106.186C387.658 107.796 386.356 109.126 384.592 109.126ZM384.592 107.74C385.39 107.74 386.076 107.222 386.076 106.186C386.076 105.136 385.39 104.618 384.592 104.618C383.808 104.618 383.108 105.136 383.108 106.186C383.108 107.222 383.808 107.74 384.592 107.74Z" fill="white"/>
<path d="M99.5 114.499C106.333 120.666 126.9 131.499 154.5 125.499C189 117.999 246.5 92.4992 270 92.4992C293.5 92.4992 310.5 108.999 325.5 105.499C340.5 101.999 346.5 91.4992 359 88.9992C371.5 86.4992 390 92.4992 404.5 92.4992C419 92.4992 431 83.9992 452.5 81.9992C474 79.9992 481.5 86.4992 497 81.9992C512.5 77.4992 521.5 72 544 72C566.5 72 613.5 85.4992 633 88.9992C652.5 92.4992 718 79.4992 739.5 92.4992C761 105.499 752.5 124.5 765 131.5C777.5 138.5 805.5 151 839.5 157C866.7 161.8 879.833 161.667 882.5 161" stroke="#C7AB80" stroke-width="2"/>
<path d="M109.048 111.138H107.718V113H105.786V111.138H101.292V109.696L106.178 103.536H107.718V109.444H109.048V111.138ZM103.42 109.444H105.786V106.322L103.42 109.444ZM113.509 113.112C111.353 113.112 109.855 111.67 109.855 109.976C109.855 108.786 110.205 108.03 111.087 106.98L113.943 103.536H116.141L113.425 106.854C113.579 106.798 113.733 106.784 113.887 106.784C115.819 106.784 117.177 108.058 117.177 109.85C117.177 111.67 115.665 113.112 113.509 113.112ZM113.523 111.488C114.405 111.488 115.161 110.928 115.161 109.92C115.161 108.842 114.405 108.31 113.523 108.31C112.641 108.31 111.885 108.8 111.885 109.906C111.885 110.928 112.641 111.488 113.523 111.488ZM123.884 109.332C122.12 109.332 120.818 108.002 120.818 106.392C120.818 104.768 122.12 103.452 123.884 103.452C125.634 103.452 126.95 104.768 126.95 106.392C126.95 108.002 125.634 109.332 123.884 109.332ZM126.208 113H124.654L130.03 103.536H131.584L126.208 113ZM123.884 107.96C124.682 107.96 125.354 107.428 125.354 106.392C125.354 105.356 124.682 104.824 123.884 104.824C123.1 104.824 122.4 105.356 122.4 106.392C122.4 107.428 123.1 107.96 123.884 107.96ZM132.592 113.126C130.828 113.126 129.526 111.796 129.526 110.186C129.526 108.562 130.828 107.246 132.592 107.246C134.356 107.246 135.658 108.562 135.658 110.186C135.658 111.796 134.356 113.126 132.592 113.126ZM132.592 111.74C133.39 111.74 134.076 111.222 134.076 110.186C134.076 109.136 133.39 108.618 132.592 108.618C131.808 108.618 131.108 109.136 131.108 110.186C131.108 111.222 131.808 111.74 132.592 111.74Z" fill="#C7AB80"/>
<path d="M171.977 94.14C169.961 94.14 168.435 92.88 168.379 91.116H170.325C170.437 91.942 171.081 92.404 171.963 92.404C173.111 92.404 173.545 91.676 173.545 90.906C173.545 90.164 173.055 89.408 171.907 89.408C171.151 89.408 170.591 89.716 170.297 90.36L168.701 89.842L169.527 84.536H175.001V86.272H170.941L170.647 88.204C171.123 87.896 171.669 87.756 172.229 87.756C174.483 87.756 175.561 89.31 175.561 90.906C175.561 92.53 174.357 94.14 171.977 94.14ZM176.601 89.282C176.601 86.146 177.917 84.396 180.255 84.396C182.593 84.396 183.923 86.146 183.923 89.282C183.923 92.404 182.621 94.14 180.255 94.14C177.889 94.14 176.601 92.404 176.601 89.282ZM178.603 89.282C178.603 91.312 179.163 92.404 180.255 92.404C181.333 92.404 181.921 91.312 181.921 89.282C181.921 87.238 181.333 86.132 180.255 86.132C179.191 86.132 178.603 87.238 178.603 89.282ZM190.884 90.332C189.12 90.332 187.818 89.002 187.818 87.392C187.818 85.768 189.12 84.452 190.884 84.452C192.634 84.452 193.95 85.768 193.95 87.392C193.95 89.002 192.634 90.332 190.884 90.332ZM193.208 94H191.654L197.03 84.536H198.584L193.208 94ZM190.884 88.96C191.682 88.96 192.354 88.428 192.354 87.392C192.354 86.356 191.682 85.824 190.884 85.824C190.1 85.824 189.4 86.356 189.4 87.392C189.4 88.428 190.1 88.96 190.884 88.96ZM199.592 94.126C197.828 94.126 196.526 92.796 196.526 91.186C196.526 89.562 197.828 88.246 199.592 88.246C201.356 88.246 202.658 89.562 202.658 91.186C202.658 92.796 201.356 94.126 199.592 94.126ZM199.592 92.74C200.39 92.74 201.076 92.222 201.076 91.186C201.076 90.136 200.39 89.618 199.592 89.618C198.808 89.618 198.108 90.136 198.108 91.186C198.108 92.222 198.808 92.74 199.592 92.74Z" fill="#C7AB80"/>
<path d="M239.141 72.14C237.125 72.14 235.599 70.88 235.543 69.116H237.489C237.601 69.942 238.245 70.404 239.127 70.404C240.275 70.404 240.709 69.676 240.709 68.906C240.709 68.164 240.219 67.408 239.071 67.408C238.315 67.408 237.755 67.716 237.461 68.36L235.865 67.842L236.691 62.536H242.165V64.272H238.105L237.811 66.204C238.287 65.896 238.833 65.756 239.393 65.756C241.647 65.756 242.725 67.31 242.725 68.906C242.725 70.53 241.521 72.14 239.141 72.14ZM251.196 70.138H249.866V72H247.934V70.138H243.44V68.696L248.326 62.536H249.866V68.444H251.196V70.138ZM245.568 68.444H247.934V65.322L245.568 68.444ZM257.884 68.332C256.12 68.332 254.818 67.002 254.818 65.392C254.818 63.768 256.12 62.452 257.884 62.452C259.634 62.452 260.95 63.768 260.95 65.392C260.95 67.002 259.634 68.332 257.884 68.332ZM260.208 72H258.654L264.03 62.536H265.584L260.208 72ZM257.884 66.96C258.682 66.96 259.354 66.428 259.354 65.392C259.354 64.356 258.682 63.824 257.884 63.824C257.1 63.824 256.4 64.356 256.4 65.392C256.4 66.428 257.1 66.96 257.884 66.96ZM266.592 72.126C264.828 72.126 263.526 70.796 263.526 69.186C263.526 67.562 264.828 66.246 266.592 66.246C268.356 66.246 269.658 67.562 269.658 69.186C269.658 70.796 268.356 72.126 266.592 72.126ZM266.592 70.74C267.39 70.74 268.076 70.222 268.076 69.186C268.076 68.136 267.39 67.618 266.592 67.618C265.808 67.618 265.108 68.136 265.108 69.186C265.108 70.222 265.808 70.74 266.592 70.74Z" fill="#C7AB80"/>
<path d="M374.797 72.14C372.781 72.14 371.255 70.88 371.199 69.116H373.145C373.257 69.942 373.901 70.404 374.783 70.404C375.931 70.404 376.365 69.676 376.365 68.906C376.365 68.164 375.875 67.408 374.727 67.408C373.971 67.408 373.411 67.716 373.117 68.36L371.521 67.842L372.347 62.536H377.821V64.272H373.761L373.467 66.204C373.943 65.896 374.489 65.756 375.049 65.756C377.303 65.756 378.381 67.31 378.381 68.906C378.381 70.53 377.177 72.14 374.797 72.14ZM386.03 70.264V72H379.422V70.894L382.292 67.954C383.384 66.834 383.846 66.246 383.846 65.42C383.846 64.65 383.328 64.132 382.502 64.132C381.592 64.132 381.032 64.706 381.032 65.63H379.142C379.142 63.74 380.57 62.396 382.6 62.396C384.49 62.396 385.876 63.586 385.876 65.182C385.876 66.33 385.456 67.058 383.804 68.724L382.376 70.264H386.03ZM392.884 68.332C391.12 68.332 389.818 67.002 389.818 65.392C389.818 63.768 391.12 62.452 392.884 62.452C394.634 62.452 395.95 63.768 395.95 65.392C395.95 67.002 394.634 68.332 392.884 68.332ZM395.208 72H393.654L399.03 62.536H400.584L395.208 72ZM392.884 66.96C393.682 66.96 394.354 66.428 394.354 65.392C394.354 64.356 393.682 63.824 392.884 63.824C392.1 63.824 391.4 64.356 391.4 65.392C391.4 66.428 392.1 66.96 392.884 66.96ZM401.592 72.126C399.828 72.126 398.526 70.796 398.526 69.186C398.526 67.562 399.828 66.246 401.592 66.246C403.356 66.246 404.658 67.562 404.658 69.186C404.658 70.796 403.356 72.126 401.592 72.126ZM401.592 70.74C402.39 70.74 403.076 70.222 403.076 69.186C403.076 68.136 402.39 67.618 401.592 67.618C400.808 67.618 400.108 68.136 400.108 69.186C400.108 70.222 400.808 70.74 401.592 70.74Z" fill="#C7AB80"/>
<path d="M574.633 60.14C572.617 60.14 571.091 58.88 571.035 57.116H572.981C573.093 57.942 573.737 58.404 574.619 58.404C575.767 58.404 576.201 57.676 576.201 56.906C576.201 56.164 575.711 55.408 574.563 55.408C573.807 55.408 573.247 55.716 572.953 56.36L571.357 55.842L572.183 50.536H577.657V52.272H573.597L573.303 54.204C573.779 53.896 574.325 53.756 574.885 53.756C577.139 53.756 578.217 55.31 578.217 56.906C578.217 58.53 577.013 60.14 574.633 60.14ZM582.523 50.424C584.665 50.424 586.177 51.866 586.177 53.56C586.177 54.722 585.841 55.478 584.931 56.556L582.089 60H579.891L582.607 56.682C582.439 56.738 582.285 56.752 582.131 56.752C580.199 56.752 578.855 55.478 578.855 53.686C578.855 51.866 580.353 50.424 582.523 50.424ZM582.509 52.048C581.613 52.048 580.871 52.608 580.871 53.616C580.871 54.694 581.613 55.226 582.509 55.226C583.377 55.226 584.147 54.736 584.147 53.63C584.147 52.608 583.377 52.048 582.509 52.048ZM592.884 56.332C591.12 56.332 589.818 55.002 589.818 53.392C589.818 51.768 591.12 50.452 592.884 50.452C594.634 50.452 595.95 51.768 595.95 53.392C595.95 55.002 594.634 56.332 592.884 56.332ZM595.208 60H593.654L599.03 50.536H600.584L595.208 60ZM592.884 54.96C593.682 54.96 594.354 54.428 594.354 53.392C594.354 52.356 593.682 51.824 592.884 51.824C592.1 51.824 591.4 52.356 591.4 53.392C591.4 54.428 592.1 54.96 592.884 54.96ZM601.592 60.126C599.828 60.126 598.526 58.796 598.526 57.186C598.526 55.562 599.828 54.246 601.592 54.246C603.356 54.246 604.658 55.562 604.658 57.186C604.658 58.796 603.356 60.126 601.592 60.126ZM601.592 58.74C602.39 58.74 603.076 58.222 603.076 57.186C603.076 56.136 602.39 55.618 601.592 55.618C600.808 55.618 600.108 56.136 600.108 57.186C600.108 58.222 600.808 58.74 601.592 58.74Z" fill="#C7AB80"/>
<path d="M637.579 60.14C635.563 60.14 634.037 58.88 633.981 57.116H635.927C636.039 57.942 636.683 58.404 637.565 58.404C638.713 58.404 639.147 57.676 639.147 56.906C639.147 56.164 638.657 55.408 637.509 55.408C636.753 55.408 636.193 55.716 635.899 56.36L634.303 55.842L635.129 50.536H640.603V52.272H636.543L636.249 54.204C636.725 53.896 637.271 53.756 637.831 53.756C640.085 53.756 641.163 55.31 641.163 56.906C641.163 58.53 639.959 60.14 637.579 60.14ZM645.577 60.14C643.561 60.14 642.035 58.88 641.979 57.116H643.925C644.037 57.942 644.681 58.404 645.563 58.404C646.711 58.404 647.145 57.676 647.145 56.906C647.145 56.164 646.655 55.408 645.507 55.408C644.751 55.408 644.191 55.716 643.897 56.36L642.301 55.842L643.127 50.536H648.601V52.272H644.541L644.247 54.204C644.723 53.896 645.269 53.756 645.829 53.756C648.083 53.756 649.161 55.31 649.161 56.906C649.161 58.53 647.957 60.14 645.577 60.14ZM655.884 56.332C654.12 56.332 652.818 55.002 652.818 53.392C652.818 51.768 654.12 50.452 655.884 50.452C657.634 50.452 658.95 51.768 658.95 53.392C658.95 55.002 657.634 56.332 655.884 56.332ZM658.208 60H656.654L662.03 50.536H663.584L658.208 60ZM655.884 54.96C656.682 54.96 657.354 54.428 657.354 53.392C657.354 52.356 656.682 51.824 655.884 51.824C655.1 51.824 654.4 52.356 654.4 53.392C654.4 54.428 655.1 54.96 655.884 54.96ZM664.592 60.126C662.828 60.126 661.526 58.796 661.526 57.186C661.526 55.562 662.828 54.246 664.592 54.246C666.356 54.246 667.658 55.562 667.658 57.186C667.658 58.796 666.356 60.126 664.592 60.126ZM664.592 58.74C665.39 58.74 666.076 58.222 666.076 57.186C666.076 56.136 665.39 55.618 664.592 55.618C663.808 55.618 663.108 56.136 663.108 57.186C663.108 58.222 663.808 58.74 664.592 58.74Z" fill="#C7AB80"/>
<path d="M700.797 75.14C698.781 75.14 697.255 73.88 697.199 72.116H699.145C699.257 72.942 699.901 73.404 700.783 73.404C701.931 73.404 702.365 72.676 702.365 71.906C702.365 71.164 701.875 70.408 700.727 70.408C699.971 70.408 699.411 70.716 699.117 71.36L697.521 70.842L698.347 65.536H703.821V67.272H699.761L699.467 69.204C699.943 68.896 700.489 68.756 701.049 68.756C703.303 68.756 704.381 70.31 704.381 71.906C704.381 73.53 703.177 75.14 700.797 75.14ZM712.03 73.264V75H705.422V73.894L708.292 70.954C709.384 69.834 709.846 69.246 709.846 68.42C709.846 67.65 709.328 67.132 708.502 67.132C707.592 67.132 707.032 67.706 707.032 68.63H705.142C705.142 66.74 706.57 65.396 708.6 65.396C710.49 65.396 711.876 66.586 711.876 68.182C711.876 69.33 711.456 70.058 709.804 71.724L708.376 73.264H712.03ZM718.884 71.332C717.12 71.332 715.818 70.002 715.818 68.392C715.818 66.768 717.12 65.452 718.884 65.452C720.634 65.452 721.95 66.768 721.95 68.392C721.95 70.002 720.634 71.332 718.884 71.332ZM721.208 75H719.654L725.03 65.536H726.584L721.208 75ZM718.884 69.96C719.682 69.96 720.354 69.428 720.354 68.392C720.354 67.356 719.682 66.824 718.884 66.824C718.1 66.824 717.4 67.356 717.4 68.392C717.4 69.428 718.1 69.96 718.884 69.96ZM727.592 75.126C725.828 75.126 724.526 73.796 724.526 72.186C724.526 70.562 725.828 69.246 727.592 69.246C729.356 69.246 730.658 70.562 730.658 72.186C730.658 73.796 729.356 75.126 727.592 75.126ZM727.592 73.74C728.39 73.74 729.076 73.222 729.076 72.186C729.076 71.136 728.39 70.618 727.592 70.618C726.808 70.618 726.108 71.136 726.108 72.186C726.108 73.222 726.808 73.74 727.592 73.74Z" fill="#C7AB80"/>
<path d="M775.597 123.138H774.267V125H772.335V123.138H767.841V121.696L772.727 115.536H774.267V121.444H775.597V123.138ZM769.969 121.444H772.335V118.322L769.969 121.444ZM776.601 120.282C776.601 117.146 777.917 115.396 780.255 115.396C782.593 115.396 783.923 117.146 783.923 120.282C783.923 123.404 782.621 125.14 780.255 125.14C777.889 125.14 776.601 123.404 776.601 120.282ZM778.603 120.282C778.603 122.312 779.163 123.404 780.255 123.404C781.333 123.404 781.921 122.312 781.921 120.282C781.921 118.238 781.333 117.132 780.255 117.132C779.191 117.132 778.603 118.238 778.603 120.282ZM790.884 121.332C789.12 121.332 787.818 120.002 787.818 118.392C787.818 116.768 789.12 115.452 790.884 115.452C792.634 115.452 793.95 116.768 793.95 118.392C793.95 120.002 792.634 121.332 790.884 121.332ZM793.208 125H791.654L797.03 115.536H798.584L793.208 125ZM790.884 119.96C791.682 119.96 792.354 119.428 792.354 118.392C792.354 117.356 791.682 116.824 790.884 116.824C790.1 116.824 789.4 117.356 789.4 118.392C789.4 119.428 790.1 119.96 790.884 119.96ZM799.592 125.126C797.828 125.126 796.526 123.796 796.526 122.186C796.526 120.562 797.828 119.246 799.592 119.246C801.356 119.246 802.658 120.562 802.658 122.186C802.658 123.796 801.356 125.126 799.592 125.126ZM799.592 123.74C800.39 123.74 801.076 123.222 801.076 122.186C801.076 121.136 800.39 120.618 799.592 120.618C798.808 120.618 798.108 121.136 798.108 122.186C798.108 123.222 798.808 123.74 799.592 123.74Z" fill="#C7AB80"/>
<path d="M841.976 140.126C839.932 140.126 838.49 138.922 838.476 137.214H840.366C840.422 138.068 841.038 138.586 842.004 138.586C843.012 138.586 843.6 138.082 843.6 137.242C843.6 136.416 842.914 135.926 841.752 135.926H840.73V134.386H841.64C842.592 134.386 843.166 133.91 843.166 133.14C843.166 132.398 842.676 131.936 841.864 131.936C841.066 131.936 840.562 132.44 840.548 133.266H838.658C838.672 131.628 840.1 130.396 841.962 130.396C843.95 130.396 845.168 131.474 845.168 133C845.168 133.868 844.664 134.554 843.754 135.03C844.93 135.408 845.602 136.164 845.602 137.186C845.602 138.936 844.146 140.126 841.976 140.126ZM854.196 138.138H852.866V140H850.934V138.138H846.44V136.696L851.326 130.536H852.866V136.444H854.196V138.138ZM848.568 136.444H850.934V133.322L848.568 136.444ZM860.884 136.332C859.12 136.332 857.818 135.002 857.818 133.392C857.818 131.768 859.12 130.452 860.884 130.452C862.634 130.452 863.95 131.768 863.95 133.392C863.95 135.002 862.634 136.332 860.884 136.332ZM863.208 140H861.654L867.03 130.536H868.584L863.208 140ZM860.884 134.96C861.682 134.96 862.354 134.428 862.354 133.392C862.354 132.356 861.682 131.824 860.884 131.824C860.1 131.824 859.4 132.356 859.4 133.392C859.4 134.428 860.1 134.96 860.884 134.96ZM869.592 140.126C867.828 140.126 866.526 138.796 866.526 137.186C866.526 135.562 867.828 134.246 869.592 134.246C871.356 134.246 872.658 135.562 872.658 137.186C872.658 138.796 871.356 140.126 869.592 140.126ZM869.592 138.74C870.39 138.74 871.076 138.222 871.076 137.186C871.076 136.136 870.39 135.618 869.592 135.618C868.808 135.618 868.108 136.136 868.108 137.186C868.108 138.222 868.808 138.74 869.592 138.74Z" fill="#C7AB80"/>
</svg>
