<svg width="30" height="29" viewBox="0 0 30 29" fill="none" xmlns="http://www.w3.org/2000/svg">
<g clip-path="url(#clip0_139_913)">
<path d="M30 14.588C30 21.869 24.5074 27.9048 17.3373 29V18.8334H20.8236L21.4875 14.6274H17.3373V11.8984C17.3373 10.7473 17.9174 9.6264 19.7748 9.6264H21.6609V6.04492C21.6609 6.04492 19.9482 5.76057 18.3123 5.76057C14.8945 5.76057 12.6621 7.77497 12.6621 11.4208V14.6268H8.86348V18.8328H12.6621V28.9994C5.49375 27.9019 0 21.8672 0 14.588C0 6.53157 6.71602 0 15 0C23.284 0 30 6.53043 30 14.588Z" fill="white"/>
</g>
<defs>
<clipPath id="clip0_139_913">
<rect width="30" height="29" fill="white"/>
</clipPath>
</defs>
</svg>
