<svg width="30" height="30" viewBox="0 0 30 30" fill="none" xmlns="http://www.w3.org/2000/svg">
<g clip-path="url(#clip0_139_910)">
<path d="M18.5353 18.5354C20.4878 16.5828 20.4878 13.4172 18.5353 11.4646C16.5827 9.51206 13.417 9.51206 11.4645 11.4646C9.51193 13.4171 9.51193 16.5829 11.4645 18.5354C13.417 20.4879 16.5827 20.4879 18.5353 18.5354Z" fill="white"/>
<path d="M29.9098 8.81484C29.8037 6.49629 29.1574 4.19238 27.4822 2.51719C25.8035 0.838477 23.4961 0.195117 21.1852 0.0902344C19.585 0.0175781 19.074 0 15 0C10.926 0 10.415 0.0175781 8.81484 0.0902344C6.49629 0.196289 4.19355 0.841406 2.51719 2.51777C0.834961 4.2 0.196289 6.49746 0.0902344 8.81484C0.0175781 10.415 0 10.926 0 15C0 19.074 0.0175781 19.585 0.0902344 21.1852C0.196289 23.5014 0.84375 25.81 2.51777 27.4828C4.19883 29.1639 6.50039 29.8043 8.81543 29.9104C10.4156 29.983 10.9266 30.0006 15.0006 30.0006C19.0746 30.0006 19.5855 29.983 21.1857 29.9104C23.5031 29.8043 25.8082 29.158 27.4834 27.4828C29.1674 25.7988 29.8049 23.5025 29.9109 21.1852C29.9836 19.585 30.0012 19.074 30.0012 15C30.0012 10.926 29.9836 10.415 29.9109 8.81484H29.9098ZM15 22.7027C10.7461 22.7027 7.29727 19.2539 7.29727 15C7.29727 10.7461 10.7461 7.29727 15 7.29727C19.2539 7.29727 22.7027 10.7461 22.7027 15C22.7027 19.2539 19.2539 22.7027 15 22.7027ZM23.0074 8.79258C22.0131 8.79258 21.2074 7.98691 21.2074 6.99258C21.2074 5.99824 22.0131 5.19258 23.0074 5.19258C24.0018 5.19258 24.8074 5.99824 24.8074 6.99258C24.8074 7.98691 24.0018 8.79258 23.0074 8.79258Z" fill="white"/>
</g>
<defs>
<clipPath id="clip0_139_910">
<rect width="30" height="30" fill="white"/>
</clipPath>
</defs>
</svg>
