<svg width="61" height="56" viewBox="0 0 61 56" fill="none" xmlns="http://www.w3.org/2000/svg">
<path d="M23.9777 33.9453C18.89 34.7618 19.8866 40.7207 19.8866 40.7207C25.2216 39.2573 23.9777 33.9453 23.9777 33.9453Z" fill="#c7ab80"/>
<path d="M18.7797 35.0856C15.8831 34.805 15.5179 38.484 15.5179 38.484C18.9547 37.954 18.7797 35.0856 18.7797 35.0856Z" fill="#c7ab80"/>
<path d="M18.0189 10.4729C19.0194 7.48373 15.6701 6.35938 15.6701 6.35938C14.6715 10.2878 18.0189 10.4729 18.0189 10.4729Z" fill="#c7ab80"/>
<path d="M11.2214 14.6752C11.4421 12.0991 8.56252 11.8828 8.56252 11.8828C8.52639 15.2052 11.2214 14.6752 11.2214 14.6752Z" fill="#c7ab80"/>
<path d="M6.04244 20.0049C5.52511 17.8478 3.12677 18.4869 3.12677 18.4869C3.99405 21.1994 6.04244 20.0049 6.04244 20.0049Z" fill="#c7ab80"/>
<path d="M22.8042 7.43191C24.0861 5.63918 22.0662 4.16797 22.0662 4.16797C20.596 6.59011 22.8042 7.43191 22.8042 7.43191Z" fill="#c7ab80"/>
<path d="M5.0154 25.3139C3.70687 23.5426 1.75168 25.1054 1.75168 25.1054C3.59656 27.2431 5.0154 25.3139 5.0154 25.3139Z" fill="#c7ab80"/>
<path d="M27.85 45.3246C28.0688 45.8371 28.2875 46.3067 28.4929 46.7237C28.6641 47.0706 28.8219 47.3785 28.9608 47.6357C28.9627 47.6396 28.9665 47.6454 28.9684 47.6493C29.1357 47.9631 29.2727 48.2008 29.3545 48.345C29.3259 48.1209 29.2974 47.889 29.2689 47.6493C29.2689 47.6454 29.2689 47.6396 29.2689 47.6357C29.2346 47.3434 29.2023 47.0394 29.17 46.7237C29.1262 46.2833 29.0825 45.8196 29.0426 45.3305C29.0235 45.1122 29.0064 44.894 28.9893 44.666C28.6793 40.5427 27.4563 37.725 26.5929 36.2031C26.5396 37.0878 26.4844 38.029 26.4255 39.0033C26.2828 41.0493 27.0531 43.4501 27.8538 45.3246H27.85Z" fill="#c7ab80"/>
<path d="M36.7949 33.9453C36.7949 33.9453 35.551 39.2573 40.8859 40.7207C40.8859 40.7207 41.8825 34.7618 36.7949 33.9453Z" fill="#c7ab80"/>
<path d="M41.9928 35.0856C41.9928 35.0856 41.816 37.954 45.2547 38.484C45.2547 38.484 44.8914 34.805 41.9928 35.0856Z" fill="#c7ab80"/>
<path d="M45.1025 6.35938C45.1025 6.35938 41.7513 7.48373 42.7536 10.4729C42.7536 10.4729 46.101 10.2878 45.1025 6.35938Z" fill="#c7ab80"/>
<path d="M52.2081 11.8828C52.2081 11.8828 49.3305 12.0991 49.5492 14.6752C49.5492 14.6752 52.2443 15.2052 52.2081 11.8828Z" fill="#c7ab80"/>
<path d="M57.6458 18.4874C57.6458 18.4874 55.2474 17.8463 54.7301 20.0054C54.7301 20.0054 56.7785 21.1999 57.6458 18.4874Z" fill="#c7ab80"/>
<path d="M38.7082 4.16797C38.7082 4.16797 36.6883 5.63918 37.9702 7.43191C37.9702 7.43191 40.1803 6.59011 38.7082 4.16797Z" fill="#c7ab80"/>
<path d="M55.7571 25.3131C55.7571 25.3131 57.176 27.2422 59.0209 25.1046C59.0209 25.1046 57.0657 23.5437 55.7571 25.3131Z" fill="#c7ab80"/>
<path d="M58.4045 30.7553C58.5547 30.6676 58.6993 30.5741 58.8438 30.4689C59.1443 30.2428 59.4201 29.9837 59.6674 29.7011L58.7449 28.8827C57.6247 30.1883 55.8996 30.4786 53.8398 30.3598C54.8954 29.9876 55.9738 28.9801 56.1336 26.4469C56.1336 26.4469 51.9246 26.8912 51.6983 30.1318C50.8386 30.009 49.9428 29.8551 49.028 29.707C50.1976 29.3445 51.1809 27.9591 51.5784 26.0786C51.5784 26.0786 46.8122 26.256 45.9677 29.2783C42.5899 28.9236 39.1759 29.1087 36.4409 31.4276C35.6478 32.0804 34.9593 32.8774 34.3792 33.7309C34.3754 33.7367 34.3716 33.7426 34.3678 33.7504C35.2598 30.4124 38.0766 28.6722 41.2719 27.392C41.8957 28.1091 44.159 29.0542 45.5322 28.1812C45.5322 28.1812 45.0624 26.8464 43.8281 26.4547C45.9982 25.685 48.2691 25.001 50.2585 23.7929C50.2547 23.7968 50.2528 23.8007 50.249 23.8046C50.249 23.8046 54.0376 25.5213 55.8369 23.4675C55.8369 23.4675 54.1727 21.8248 52.2346 22.2886C53.6021 20.9226 54.3382 18.9993 54.3115 17.0409H53.0924C53.1038 17.6625 53.041 18.2315 52.9079 18.7557C52.9269 17.8944 52.5066 16.8597 50.888 15.9887C50.888 15.9887 50.2471 19.5137 52.1547 20.4822C51.4054 21.6319 50.2661 22.4951 48.9728 23.1908C49.8134 22.3451 50.7207 20.8758 49.6499 19.0168C49.6499 19.0168 47.1298 20.6946 47.8545 23.7403C46.5992 24.3054 45.264 24.7594 44.0354 25.1979C45.3401 24.4398 47.0214 22.8965 46.2264 20.1724C46.2264 20.1724 42.2475 21.5325 42.6831 25.6928C39.3262 26.9263 35.5813 28.5066 33.9703 31.9966C32.8577 34.8182 32.599 35.2839 32.2776 38.4894C31.9562 41.6949 33.181 41.122 33.0954 43.9631C33.0802 44.4658 33.0555 44.9121 33.027 45.3252C32.9908 45.8513 32.9509 46.3151 32.9186 46.7321C32.8919 47.0575 32.871 47.3576 32.8615 47.6382C32.8615 47.6421 32.8615 47.6479 32.8615 47.6518C32.8292 48.5891 32.9224 49.3257 33.3769 50.2084C33.3769 50.2084 32.5553 49.238 32.1977 47.6518C32.1977 47.6479 32.1977 47.6421 32.1958 47.6382C32.1331 47.3556 32.0855 47.0517 32.0589 46.7321C32.0246 46.3092 32.0246 45.861 32.0855 45.3817C32.0874 45.3641 32.0874 45.3466 32.0893 45.3291C32.5077 41.8177 30.583 40.8161 31.3209 37.3358C31.8687 34.7539 33.6185 31.2737 35.4557 29.1029C36.4543 27.6862 37.7057 26.4995 38.9876 25.2855C40.6708 23.6896 42.472 21.9846 43.8109 19.6092C43.8071 19.6345 43.8014 19.6599 43.7976 19.6852C43.7976 19.6852 48.1493 19.2682 48.6038 16.4719C48.6038 16.4719 46.6334 15.7724 45.0947 16.622C45.3477 15.8016 45.5474 14.915 45.6843 13.9504C46.04 13.9621 48.3433 13.5198 48.4688 10.1584C48.4688 10.1584 46.5992 10.5364 45.865 11.9648C45.8802 11.6238 45.8879 11.275 45.8879 10.9164H44.6687C44.6687 12.1343 44.5755 13.2353 44.4081 14.2388C44.3188 13.2684 43.8585 12.2415 42.51 11.6413C42.51 11.6413 41.3993 14.7026 43.83 16.581C43.2442 18.3368 42.3902 19.7515 41.4088 20.9849C42.0555 19.6501 41.9261 17.834 40.6385 15.9575C40.6385 15.9575 38.2154 18.8668 40.1288 22.4425C39.4897 23.1128 38.8222 23.7442 38.1622 24.3697C37.9606 24.5607 37.7609 24.7497 37.5593 24.9445C38.4437 22.2671 37.8484 20.0691 37.2436 17.6625C37.8522 17.3332 40.0565 16.1056 39.6286 12.4402C39.6286 12.4402 37.1066 12.9819 36.6406 14.7357C36.4942 13.3834 36.6349 12.031 37.1199 10.7566C37.7228 11.1152 39.9158 12.1284 41.308 8.96193C41.308 8.96193 39.1055 8.10844 37.7266 9.41791C37.7266 9.41791 37.7266 9.41791 37.7266 9.41596C37.8655 9.15095 38.0138 8.88789 38.1717 8.63067L37.1351 7.97398C36.7376 8.65795 36.4276 9.30684 36.188 9.9265C36.0282 9.18408 35.4824 8.3793 34.1396 7.70897C34.1396 7.70897 32.8177 10.9924 35.5946 12.183C35.4938 12.9176 35.4881 13.6113 35.5451 14.2778C35.5451 14.2778 35.5451 14.2797 35.5451 14.2817C35.1115 13.434 34.3241 12.6838 32.8881 12.6253C32.8881 12.6253 33.2381 16.3453 36.0035 16.7545C36.3801 18.1828 36.867 19.5527 37.0667 21.0181C36.6996 19.7924 35.4044 18.8064 33.7174 18.4264C33.7174 18.4264 33.2989 23.2785 36.8461 24.6152C36.808 24.7516 36.7662 24.89 36.7205 25.0283C36.5779 25.4551 36.4029 25.8721 36.2032 26.2793C34.9498 27.5947 33.8429 29.0659 33.0612 30.9132C32.8501 31.4101 32.4697 31.8329 32.0551 32.1759L32.0627 32.17C31.1003 32.9865 30.4632 35.6951 30.4632 35.6951C30.3509 35.3463 30.3643 34.8416 30.4632 34.2882C30.5335 33.9004 30.6457 33.4931 30.7941 33.0937C30.8093 33.0528 30.8226 33.0138 30.8378 32.9729L30.8607 32.9573C31.3209 32.0005 31.9143 30.2896 32.1369 27.5635C35.0069 26.293 34.3393 23.7169 34.3393 23.7169C33.2172 23.8358 32.5819 24.4632 32.2262 25.1862C32.2205 22.9238 31.9809 20.9284 31.6728 18.935C33.7915 18.4128 33.5215 15.5366 33.5215 15.5366C32.2548 16.0062 31.6785 16.7447 31.4274 17.4209C31.4046 17.2845 31.3818 17.1481 31.359 17.0097C31.1783 15.9185 30.9957 14.8117 30.8397 13.6542C33.5024 12.3584 32.8615 9.89143 32.8615 9.89143C31.5777 10.0278 30.931 10.8287 30.6096 11.6764C30.4917 10.437 30.4137 9.12562 30.4137 7.70312H29.1946C29.1946 8.59365 29.2231 9.4413 29.2725 10.2539C28.9511 9.93819 28.5118 9.70436 27.9069 9.64006C27.9069 9.64006 27.3782 11.6803 29.5008 12.8261C29.6815 14.3694 29.9192 15.8074 30.1531 17.2202C30.214 17.5924 30.2749 17.9626 30.3357 18.3309C29.7613 17.4151 28.8199 16.6337 27.2831 16.7837C27.2831 16.7837 27.091 19.9366 30.6933 20.7647C30.8778 22.2028 31.0033 23.6721 31.0033 25.2739C31.0033 25.4103 31.0033 25.5428 30.9995 25.6772C30.5525 24.1924 29.5027 22.7056 27.1405 22.3256C27.1405 22.3256 25.9746 27.3063 30.7446 28.949C30.4213 31.0457 29.8755 32.2402 29.5673 32.7799C29.5673 32.7799 29.5673 32.7799 29.5654 32.7799C29.5654 32.7799 29.5616 32.7897 29.5597 32.7936C29.5027 32.9183 29.4532 33.0489 29.4076 33.1814C29.4076 33.1814 29.4076 33.1853 29.4076 33.1872C28.9055 34.6876 29.1984 36.6772 29.5673 37.3339C29.5673 37.3339 28.0135 35.0793 27.6996 30.9151C26.9179 29.0678 25.811 27.5966 24.5576 26.2813C24.3598 25.874 24.1849 25.457 24.0403 25.0303C23.9947 24.8919 23.9528 24.7516 23.9148 24.6172C27.4619 23.2804 27.0435 18.4283 27.0435 18.4283C25.3565 18.8083 24.0612 19.7943 23.6942 21.02C23.8939 19.5527 24.3808 18.1828 24.7573 16.7564C27.5247 16.3453 27.8727 12.6273 27.8727 12.6273C26.4368 12.6838 25.6494 13.436 25.2157 14.2836C25.2157 14.2836 25.2157 14.2817 25.2157 14.2797C25.2728 13.6133 25.2652 12.9176 25.1663 12.185C27.9431 10.9943 26.6212 7.71092 26.6212 7.71092C25.2804 8.38125 24.7326 9.18603 24.5729 9.92845C24.3332 9.30879 24.0232 8.6599 23.6257 7.97593L22.5891 8.63262C22.747 8.88984 22.8953 9.1529 23.0342 9.41791C23.0342 9.41791 23.0342 9.41791 23.0342 9.41986C21.6553 8.11039 19.4528 8.96388 19.4528 8.96388C20.847 12.1304 23.038 11.1171 23.6409 10.7586C24.1278 12.033 24.2666 13.3853 24.1202 14.7377C23.6542 12.9839 21.1323 12.4422 21.1323 12.4422C20.7062 16.1075 22.9087 17.3352 23.5173 17.6645C22.9125 20.071 22.3191 22.271 23.2016 24.9465C23 24.7536 22.8003 24.5626 22.5986 24.3716C21.9368 23.7461 21.2711 23.1148 20.632 22.4445C22.5454 18.8687 20.1223 15.9594 20.1223 15.9594C18.8347 17.8379 18.7035 19.6521 19.352 20.9869C18.3706 19.7534 17.5167 18.3387 16.9309 16.583C19.3616 14.7045 18.2508 11.6432 18.2508 11.6432C16.9023 12.2434 16.4421 13.2703 16.3527 14.2408C16.1853 13.2372 16.0921 12.1362 16.0921 10.9184H14.873C14.873 11.2769 14.8806 11.6257 14.8958 11.9667C14.1617 10.5384 12.2921 10.1603 12.2921 10.1603C12.4176 13.5217 14.7189 13.9621 15.0765 13.9524C15.2134 14.9189 15.4131 15.8055 15.6661 16.6239C14.1274 15.7763 12.157 16.4739 12.157 16.4739C12.6116 19.2701 16.9632 19.6872 16.9632 19.6872C16.9594 19.6599 16.9537 19.6365 16.9499 19.6112C18.2889 21.9846 20.09 23.6916 21.7732 25.2875C23.8349 27.24 25.8167 29.1165 26.7905 32.0005C25.1796 28.5105 21.4347 26.9302 18.0777 25.6967C18.5133 21.5383 14.5344 20.1763 14.5344 20.1763C13.7394 22.9004 15.4207 24.4437 16.7255 25.2018C15.4968 24.7633 14.1617 24.3093 12.9064 23.7442C13.631 20.6985 11.111 19.0207 11.111 19.0207C10.0421 20.8797 10.9474 22.349 11.788 23.1947C10.4928 22.499 9.35547 21.6358 8.60611 20.4861C10.5156 19.5157 9.8728 15.9926 9.8728 15.9926C8.25425 16.8636 7.83392 17.8983 7.85294 18.7596C7.7198 18.2354 7.65704 17.6645 7.66845 17.0448H6.44931C6.42268 19.0032 7.15873 20.9265 8.52623 22.2925C6.59005 21.8287 4.92396 23.4714 4.92396 23.4714C6.72319 25.5252 10.5118 23.8085 10.5118 23.8085C10.508 23.8046 10.5061 23.8007 10.5023 23.7968C12.4899 25.0049 14.7627 25.6889 16.9328 26.4586C15.6984 26.8503 15.2286 28.1851 15.2286 28.1851C16.6018 29.06 18.8651 28.113 19.489 27.3959C22.6842 28.6761 25.501 30.4163 26.393 33.7543C26.3892 33.7484 26.3854 33.7426 26.3816 33.7348C25.8015 32.8832 25.1149 32.0843 24.3199 31.4315C21.5849 29.1126 18.1709 28.9275 14.7931 29.2822C13.9486 26.2599 9.18239 26.0825 9.18239 26.0825C9.5799 27.9649 10.5632 29.3484 11.7329 29.7109C10.8181 29.859 9.92225 30.0129 9.06257 30.1357C8.83624 26.8951 4.62726 26.4508 4.62726 26.4508C4.78702 28.984 5.86542 29.9934 6.92099 30.3637C4.8631 30.4825 3.13614 30.1941 2.0159 28.8866L1.09346 29.705C1.34261 29.9876 1.61839 30.2467 1.917 30.4728C2.05964 30.578 2.20609 30.6715 2.35634 30.7592C0.682641 31.0515 -0.0115662 32.9008 -0.0115662 32.9008C2.76716 33.3061 3.99391 32.0979 4.42185 31.4646C5.93389 31.7063 7.55434 31.4958 8.996 31.2854C9.34976 31.2308 9.70162 31.1723 10.0516 31.11C9.49431 31.5172 8.9941 31.9908 8.56046 32.5247C5.85781 31.9713 4.20122 34.6428 4.20122 34.6428C4.66529 34.9605 6.78785 35.0735 7.34512 34.5883C7.34512 34.5883 7.34512 34.5902 7.34512 34.5922C6.95903 35.5372 6.72129 36.5973 6.65662 37.7684L7.87386 37.823C7.93282 35.4574 8.92943 33.3256 10.6868 31.9654C10.6906 31.9635 10.6944 31.9615 10.6963 31.9576C9.59892 33.2398 10.6545 35.4807 10.6545 35.4807C12.7314 34.3856 12.3624 31.8134 12.1114 31.1119C12.2122 31.0671 12.3149 31.0223 12.4195 30.9833C13.3191 30.615 14.2891 30.3968 15.2724 30.2779V30.274C15.7441 30.2234 16.2177 30.1883 16.6912 30.1688C18.1462 30.0947 19.5156 30.2565 20.7937 30.6033C17.5376 29.7206 16.4212 33.3899 16.4212 33.3899C20.7975 33.5594 21.6058 31.1528 21.7104 30.9307C23.251 31.5718 24.6014 32.6416 25.6893 34.2356C28.2037 37.595 29.8032 38.7408 30.2977 44.9998C30.3072 45.1147 30.3129 45.22 30.3224 45.333C30.3585 45.8182 30.389 46.2839 30.4156 46.7282C30.4327 47.0107 30.4479 47.2835 30.4613 47.5505C30.4613 47.5797 30.4651 47.609 30.4651 47.6382C30.4651 47.6421 30.4651 47.6479 30.4651 47.6518C30.5259 48.8366 30.5678 49.8694 30.6343 50.7677L31.281 53.9361C31.3761 54.1291 31.4826 54.3103 31.6062 54.474C31.6538 54.5344 31.7051 54.5928 31.7565 54.6493C32.9661 54.6727 34.1187 54.7292 35.1819 54.8033C35.0202 54.6941 34.8661 54.585 34.7197 54.474C31.7374 52.2291 31.5206 49.5849 31.5206 49.5849C31.8325 51.1048 33.8106 52.8761 36.323 54.474C36.5798 54.6376 36.8422 54.8013 37.1104 54.9611C37.3177 54.9806 37.5193 55.0001 37.7152 55.0215C39.9101 55.2495 41.4031 55.5028 41.7283 55.5593V54.474C37.5098 54.474 35.2808 52.2233 34.9175 47.5953H34.9061C34.8871 47.3147 34.8661 47.0283 34.8471 46.7418C37.6411 46.7555 40.435 46.7769 43.227 46.8139C43.8166 46.8198 44.4062 46.8315 44.9939 46.8393C44.9692 47.9675 44.9255 49.1074 44.8703 50.2357H46.1655C46.137 49.6492 46.1123 49.0607 46.0895 48.4702C46.3881 48.9321 46.6848 49.3958 46.9834 49.8577H47.7613C48.0789 49.3354 48.4022 48.8171 48.7293 48.2988C48.7179 48.7333 48.7027 49.1679 48.6818 49.6005L48.6533 50.1597H49.8001C49.7412 49.0821 49.7126 47.9967 49.6955 46.9172C50.6313 46.9367 51.5651 46.9542 52.5009 46.9757V45.0738C46.584 45.1966 40.6651 45.2843 34.7463 45.3174C34.5352 42.1548 34.3298 38.8148 34.1662 36.0458C34.2575 35.6912 34.3849 35.3521 34.5561 35.0345C34.7064 34.7675 34.8928 34.4908 35.0677 34.2336C36.1556 32.6396 37.506 31.5699 39.0466 30.9288C39.1512 31.1528 39.9614 33.5594 44.3359 33.3879C44.3359 33.3879 43.2194 29.7167 39.9633 30.6014C41.2414 30.2545 42.6108 30.0928 44.0658 30.1668C44.5394 30.1863 45.0111 30.2234 45.4846 30.2721V30.276C46.4679 30.3948 47.4379 30.6131 48.3375 30.9814C48.4403 31.0223 48.5449 31.0652 48.6457 31.11C48.3946 31.8115 48.0256 34.3837 50.1025 35.4788C50.1025 35.4788 51.1581 33.2359 50.0607 31.9557C50.0645 31.9576 50.0683 31.9596 50.0702 31.9635C51.8276 33.3236 52.8242 35.4554 52.8832 37.821L54.1004 37.7665C54.0357 36.5953 53.798 35.5333 53.4119 34.5902C53.4119 34.5902 53.4119 34.5883 53.4119 34.5863C53.9711 35.0715 56.0917 34.9585 56.5558 34.6409C56.5558 34.6409 54.8992 31.9693 52.1966 32.5247C51.7629 31.9888 51.2627 31.5153 50.7055 31.108C51.0554 31.1684 51.4073 31.2288 51.761 31.2834C53.2027 31.4939 54.8232 31.7043 56.3352 31.4627C56.7631 32.096 57.9899 33.3061 60.7686 32.8988C60.7686 32.8988 60.0744 31.0496 58.4007 30.7573L58.4045 30.7553ZM48.5296 46.8899C48.1531 47.5018 47.7708 48.1098 47.3847 48.7158C47.0062 48.0961 46.6296 47.4765 46.2587 46.8529C47.0157 46.8646 47.7727 46.8763 48.5296 46.8899Z" fill="#c7ab80"/>
<path d="M29.8071 0.851562C26.9371 3.43544 29.7006 6.71302 29.7006 6.71302C32.8369 3.44128 29.8071 0.851562 29.8071 0.851562Z" fill="#c7ab80"/>
<path d="M27.6998 47.6466C27.6998 47.6466 27.6979 47.6368 27.696 47.6329C27.6028 47.329 27.5134 47.025 27.4259 46.7229C27.289 46.2475 27.1615 45.7779 27.0417 45.3199C26.707 44.0455 26.435 42.8705 26.2391 41.9605C26.1687 43.079 26.0946 44.2092 26.0204 45.316C22.4809 45.2985 18.9433 45.2576 15.4038 45.1816V43.5408H15.381C14.9854 40.6218 11.0122 40.6257 10.6052 43.5291C7.71045 43.8994 7.70474 48.0207 10.5634 48.4319V48.502H10.5938C10.7345 49.716 11.7578 50.7098 12.956 50.7176C14.1732 50.7546 15.2516 49.7453 15.3905 48.502H15.4038V46.8613C18.4944 46.7794 21.5851 46.7561 24.6757 46.7268C25.0922 46.7268 25.5088 46.7268 25.9253 46.7268C25.9044 47.0367 25.8815 47.3465 25.8606 47.6485H25.872C25.4935 52.2375 23.2683 54.4687 19.0669 54.4687V55.5619H19.1601C19.3598 55.5268 20.8947 55.256 23.2188 55.0163C23.4699 54.9909 23.7305 54.9656 23.9986 54.9403H23.9967C24.3486 54.8487 24.71 54.687 25.058 54.4707C26.3989 53.6386 27.54 51.953 27.0969 49.8895C27.0969 49.8895 28.5538 52.3408 26.6937 54.4707C26.61 54.5661 26.5206 54.6616 26.4217 54.7552C27.6789 54.6792 29.0426 54.6304 30.469 54.6304C30.6421 54.6304 30.8114 54.6305 30.9825 54.6324C30.9312 54.5798 30.8817 54.5252 30.8304 54.4687C29.5941 53.0677 28.5252 50.3493 27.7017 47.6485L27.6998 47.6466ZM10.5634 47.3407C9.89197 47.3679 9.27764 46.7171 9.32139 46.0195C9.31568 45.3394 9.9205 44.7431 10.5634 44.7724V47.3407ZM11.6722 48.5001H14.1637C14.1751 50.172 11.6684 50.1778 11.6722 48.5001ZM14.1656 47.2335H14.1599V47.329H11.6075V44.7139H14.1599V44.8094H14.1656V47.2335ZM11.6665 43.5408C11.6379 42.853 12.2732 42.2216 12.956 42.2664C13.6198 42.2606 14.2037 42.8803 14.1732 43.5408H11.6665Z" fill="#c7ab80"/>
</svg>
