<svg width="100" height="18" viewBox="0 0 100 18" fill="none" xmlns="http://www.w3.org/2000/svg">
<mask id="path-1-inside-1_139_743" fill="white">
<path fill-rule="evenodd" clip-rule="evenodd" d="M4.42975 6.99889L10.0001 1.42854L8.57155 3.76024e-06L1.43031 7.14124L1.42856 7.13948L1.56561e-05 8.56802L0.00177805 8.56978L0.000313203 8.57124L1.42886 9.99978L1.43031 9.99832L8.57126 17.1393L9.99979 15.7107L3.28796 8.99889L100 8.99888L100 6.99888L4.42975 6.99889Z"/>
</mask>
<path d="M4.42975 6.99889L3.72264 6.29178L2.01554 7.99889L4.42975 7.99889L4.42975 6.99889ZM10.0001 1.42854L10.7072 2.13565L11.4143 1.42854L10.7072 0.721436L10.0001 1.42854ZM8.57155 3.76024e-06L9.27865 -0.707104L8.57155 -1.41421L7.86444 -0.707103L8.57155 3.76024e-06ZM1.43031 7.14124L0.722439 7.84758L1.42955 8.55622L2.13742 7.84835L1.43031 7.14124ZM1.42856 7.13948L2.13643 6.43314L1.42933 5.7245L0.721453 6.43237L1.42856 7.13948ZM1.56561e-05 8.56802L-0.70709 7.86091L-1.41497 8.56879L-0.706325 9.27589L1.56561e-05 8.56802ZM0.00177805 8.56978L0.708655 9.27712L1.41699 8.56924L0.708118 7.86191L0.00177805 8.56978ZM0.000313203 8.57124L-0.706563 7.86391L-1.41413 8.57101L-0.706793 9.27835L0.000313203 8.57124ZM1.42886 9.99978L0.721751 10.7069L1.43048 11.4156L2.13758 10.7053L1.42886 9.99978ZM1.43031 9.99832L2.13742 9.29121L1.4287 8.58249L0.721593 9.29283L1.43031 9.99832ZM8.57126 17.1393L7.86415 17.8464L8.57126 18.5535L9.27837 17.8464L8.57126 17.1393ZM9.99979 15.7107L10.7069 16.4178L11.414 15.7107L10.7069 15.0036L9.99979 15.7107ZM3.28796 8.99889L3.28796 7.99889L0.873751 7.99889L2.58086 9.706L3.28796 8.99889ZM100 8.99888L100 9.99888L101 9.99888L101 8.99888L100 8.99888ZM100 6.99888L101 6.99888L101 5.99888L100 5.99888L100 6.99888ZM5.13686 7.706L10.7072 2.13565L9.29298 0.721437L3.72264 6.29178L5.13686 7.706ZM10.7072 0.721436L9.27865 -0.707104L7.86444 0.707111L9.29299 2.13565L10.7072 0.721436ZM7.86444 -0.707103L0.723207 6.43413L2.13742 7.84835L9.27866 0.707111L7.86444 -0.707103ZM2.13819 6.4349L2.13643 6.43314L0.720685 7.84582L0.722439 7.84758L2.13819 6.4349ZM0.721453 6.43237L-0.70709 7.86091L0.707122 9.27513L2.13566 7.84659L0.721453 6.43237ZM-0.706325 9.27589L-0.704562 9.27765L0.708118 7.86191L0.706356 7.86015L-0.706325 9.27589ZM-0.705098 7.86244L-0.706563 7.86391L0.70719 9.27858L0.708655 9.27712L-0.705098 7.86244ZM-0.706793 9.27835L0.721751 10.7069L2.13596 9.29267L0.707419 7.86414L-0.706793 9.27835ZM2.13758 10.7053L2.13903 10.7038L0.721593 9.29283L0.720135 9.29429L2.13758 10.7053ZM0.723207 10.7054L7.86415 17.8464L9.27837 16.4322L2.13742 9.29121L0.723207 10.7054ZM9.27837 17.8464L10.7069 16.4178L9.29269 15.0036L7.86415 16.4322L9.27837 17.8464ZM10.7069 15.0036L3.99507 8.29178L2.58086 9.706L9.29269 16.4178L10.7069 15.0036ZM3.28796 9.99889L100 9.99888L100 7.99888L3.28796 7.99889L3.28796 9.99889ZM101 8.99888L101 6.99888L99.0001 6.99888L99.0001 8.99888L101 8.99888ZM100 5.99888L4.42975 5.99889L4.42975 7.99889L100 7.99888L100 5.99888Z" fill="#C7AB80" mask="url(#path-1-inside-1_139_743)"/>
</svg>
