<svg width="43" height="30" viewBox="0 0 43 30" fill="none" xmlns="http://www.w3.org/2000/svg">
<g clip-path="url(#clip0_139_908)">
<path d="M42.3044 5.79907C42.0313 3.00747 39.4108 0.559944 36.6213 0.404133C26.4451 -0.134711 16.2753 -0.134711 6.10555 0.404133C3.31602 0.559944 0.695551 3.00747 0.422451 5.79907C-0.143258 11.9341 -0.143258 18.0626 0.422451 24.1977C0.695551 26.9893 3.31602 29.4368 6.10555 29.5926C16.2753 30.1315 26.4451 30.1315 36.6213 29.5926C39.4108 29.4368 42.0313 26.9893 42.3044 24.1977C42.8701 18.0626 42.8701 11.9341 42.3044 5.79907ZM27.726 15.4009L18.0505 20.8542C17.7448 21.0295 17.3677 20.8088 17.3677 20.4582V9.53852C17.3677 9.18795 17.7448 8.96721 18.0505 9.1425L27.726 14.5959C28.0381 14.7712 28.0381 15.2256 27.726 15.4009Z" fill="white"/>
</g>
<defs>
<clipPath id="clip0_139_908">
<rect width="42.7273" height="30" fill="white"/>
</clipPath>
</defs>
</svg>
