<svg width="61" height="67" viewBox="0 0 61 67" fill="none" xmlns="http://www.w3.org/2000/svg">
<g clip-path="url(#clip0_139_159)">
<path d="M60.931 64.1877C60.5786 57.315 60.5786 54.5726 60.5786 50.5018V14.8667C60.5786 10.6328 60.5786 7.83346 60.977 0.30039L61 0H58.9109L44.9896 31.4581L44.6142 32.292L44.226 31.4581L30.8639 2.25552L30.772 2.04835H28.6497C28.6497 2.04835 28.7059 2.74236 27.7712 5.08074L16.6004 30.1297V30.14L16.225 30.9739L15.8368 30.1297L2.07632 0.163143L2.00737 0H0L0.0229851 0.30039C0.421394 7.83087 0.421394 10.6328 0.421394 14.8667V50.5018C0.421394 51.8614 0.421394 53.0733 0.408625 54.337C0.406071 54.6426 0.400963 54.9507 0.395855 55.2666C0.395855 55.2822 0.395855 55.2977 0.395855 55.3158C0.385639 55.9451 0.37287 56.6003 0.352439 57.2995C0.352439 57.3513 0.349885 57.403 0.347331 57.4548C0.339669 57.7526 0.329454 58.0608 0.319238 58.3767C0.319238 58.4389 0.31413 58.501 0.31413 58.5632C0.288591 59.2986 0.257944 60.0936 0.22219 60.9611C0.217082 61.0647 0.211974 61.1709 0.20942 61.277C0.194097 61.6111 0.178773 61.9581 0.160896 62.3181C0.155788 62.4475 0.148126 62.5744 0.143019 62.7039C0.120033 63.1778 0.0970484 63.6672 0.0689554 64.1877C0.0587398 64.4778 0.0357547 64.7652 0.0229851 65.0682L0 65.3686V65.3789H3.6291L3.6623 65.1252C3.92535 62.9162 6.50479 57.1803 7.8839 54.7461C10.3689 50.362 14.3989 47.0059 18.9857 44.8074C19.19 44.7038 19.3969 44.6106 19.6012 44.5303C20.3878 44.1703 21.1872 43.8596 22.0198 43.5929C22.2368 43.5229 22.4641 43.453 22.6812 43.3857C24.9287 42.7253 27.337 42.368 29.9037 42.368C33.0756 42.368 36.0203 42.9222 38.7121 43.9191C38.9292 43.9891 39.1462 44.0823 39.3633 44.1626C39.7975 44.3361 40.2189 44.5225 40.6403 44.7167C40.8446 44.81 41.0515 44.9135 41.2456 45.0171C45.9345 47.3529 49.9901 50.9447 52.4495 55.523C53.6575 57.7734 55.6445 62.4294 55.9765 65.1252L55.9995 65.3789H60.9974V65.3686L60.9745 65.0682C60.9642 64.7678 60.9413 64.4778 60.9285 64.1877H60.931ZM4.29056 57.7319C3.94834 58.4389 3.68528 59.05 3.435 59.6171C3.18472 60.1946 2.95487 60.7281 2.69437 61.2589C2.50027 61.6525 2.29596 62.0461 2.05589 62.4501C2.03291 61.9762 2.00992 61.5256 1.99971 61.0958C1.97161 60.4639 1.94863 59.8761 1.9282 59.3193C1.92309 59.1976 1.92054 59.0863 1.91543 58.9671C1.9001 58.5295 1.88478 58.1022 1.87457 57.7008C1.87201 57.6102 1.86946 57.5273 1.8669 57.4367C1.85413 57.0094 1.84392 56.5951 1.83626 56.1989C1.83626 56.1575 1.83626 56.1186 1.83626 56.0772C1.8286 55.637 1.82093 55.2071 1.81583 54.7902C1.79795 53.3581 1.79539 52.0193 1.79539 50.4992V5.72813L14.4372 33.276L14.8254 34.1202L14.4602 34.9411L4.29311 57.7319H4.29056ZM41.8764 43.6058C41.6721 43.5126 41.4652 43.4219 41.2481 43.3391L41.5341 42.6917L43.4189 38.4551L42.6451 36.7512L40.2342 42.1919L39.9482 42.8289C39.7311 42.7487 39.514 42.6658 39.2969 42.5985C38.9215 42.4716 38.5563 42.355 38.1783 42.2515C37.8463 42.1582 37.5168 42.0676 37.1746 41.9847C36.9116 41.9045 36.6383 41.8449 36.365 41.7879C36.0688 41.718 35.7725 41.661 35.4763 41.6144C34.9502 41.4979 34.4266 41.4176 33.8903 41.3477C33.5583 41.3011 33.2288 41.2674 32.8968 41.2441C32.3605 41.1742 31.8242 41.1405 31.2777 41.1172C30.8205 41.0939 30.3659 41.0836 29.9088 41.0836C29.4516 41.0836 28.997 41.0939 28.5501 41.1172C28.1057 41.1276 27.6486 41.1638 27.2144 41.2104C26.8722 41.2338 26.53 41.2674 26.1979 41.314C25.7766 41.3606 25.3654 41.4306 24.9542 41.4979C24.7039 41.5316 24.4511 41.5782 24.2008 41.6377C23.8918 41.6947 23.5725 41.7543 23.2763 41.8216C22.8779 41.9148 22.4897 42.0184 22.1015 42.122C21.8844 42.179 21.6571 42.2489 21.44 42.3188L21.1438 41.6714L17.7598 34.2989L16.3629 37.4582L17.0626 38.9808L18.692 42.526L18.9781 43.1733C18.761 43.2536 18.5567 43.3365 18.3498 43.4271C15.6222 44.595 12.3839 46.1695 10.1364 48.0676L15.612 35.8216L17.0141 32.6726L28.9562 5.84207L42.8571 34.5682L43.2325 35.402L44.0089 37.1034L44.3971 37.9372L49.0758 48.1635C46.9076 46.3119 44.4992 44.7633 41.8764 43.6058ZM56.2191 57.6516L45.7685 34.8246L45.3931 33.9907L45.7685 33.1569L58.0119 5.52874V50.4992C58.0119 53.4954 58.0119 55.7742 57.8638 59.4877C57.8536 59.9149 57.8306 60.3681 57.8178 60.829C57.6008 60.4484 57.3837 60.0651 57.1794 59.6482C56.8703 59.0474 56.5639 58.4 56.2216 57.6465L56.2191 57.6516Z" fill="#C1AB84"/>
<path d="M30.9789 63.0895L22.4667 44.5508C21.6418 44.8175 20.8399 45.1386 20.0507 45.4934L29.8398 66.8237L29.919 66.9972H30.7643L40.1959 45.7083C39.7771 45.5089 39.3531 45.3251 38.9241 45.1516L30.9814 63.0869L30.9789 63.0895Z" fill="#C1AB84"/>
</g>
<defs>
<clipPath id="clip0_139_159">
<rect width="61" height="67" fill="white"/>
</clipPath>
</defs>
</svg>
