<svg width="30" height="30" viewBox="0 0 30 30" fill="none" xmlns="http://www.w3.org/2000/svg">
<path d="M25.5615 25.5639H21.1161V18.6019C21.1161 16.9415 21.0863 14.8056 18.8037 14.8056C16.5211 14.8056 16.1337 16.6137 16.1337 18.4827V25.5646H11.6897V11.2477H15.9577V13.2034H16.0166C16.8876 11.7162 18.5043 10.8278 20.2271 10.8908C24.7327 10.8908 25.5622 13.8548 25.5622 17.7093L25.5608 25.5639H25.5615ZM6.67467 9.28928C5.24924 9.28928 4.09475 8.13473 4.09475 6.70921C4.09475 5.28369 5.24924 4.12914 6.67467 4.12914C8.10011 4.12914 9.2546 5.28369 9.2546 6.70921C9.2546 8.13473 8.10011 9.28928 6.67467 9.28928ZM8.89633 25.5639H4.44678V11.247H8.89633V25.5639ZM27.7776 0.00158004H2.21334C1.0055 -0.0115871 0.0145523 0.957239 0 2.16446V27.8356C0.0145523 29.0449 1.0055 30.013 2.21334 29.9998H27.7783C28.989 30.0144 29.9841 29.0463 30 27.8356V2.16307C29.982 0.952388 28.9869 -0.0157452 27.7776 0.000194023" fill="white"/>
</svg>
